G04 #@! TF.GenerationSoftware,KiCad,Pcbnew,(5.1.2)-1*
G04 #@! TF.CreationDate,2019-06-02T00:42:49-05:00*
G04 #@! TF.ProjectId,qwerty,71776572-7479-42e6-9b69-6361645f7063,C*
G04 #@! TF.SameCoordinates,Original*
G04 #@! TF.FileFunction,Copper,L2,Bot*
G04 #@! TF.FilePolarity,Positive*
%FSLAX46Y46*%
G04 Gerber Fmt 4.6, Leading zero omitted, Abs format (unit mm)*
G04 Created by KiCad (PCBNEW (5.1.2)-1) date 2019-06-02 00:42:49*
%MOMM*%
%LPD*%
G04 APERTURE LIST*
%ADD10C,1.900000*%
%ADD11C,2.500000*%
%ADD12C,2.032000*%
%ADD13C,1.524000*%
%ADD14C,1.500000*%
%ADD15O,1.600000X1.600000*%
%ADD16R,1.600000X1.600000*%
%ADD17R,1.524000X3.000000*%
%ADD18C,0.600000*%
%ADD19C,0.140000*%
G04 APERTURE END LIST*
D10*
X266762500Y-148975000D03*
X271762500Y-151075000D03*
D11*
X269262500Y-141175000D03*
X274262500Y-140675000D03*
D12*
X274302500Y-140095000D03*
X267952500Y-142635000D03*
D10*
X271525000Y-110875000D03*
X276525000Y-112975000D03*
D11*
X274025000Y-103075000D03*
X279025000Y-102575000D03*
D12*
X279065000Y-101995000D03*
X272715000Y-104535000D03*
D10*
X123887500Y-168025000D03*
X128887500Y-170125000D03*
D11*
X126387500Y-160225000D03*
X131387500Y-159725000D03*
D12*
X131427500Y-159145000D03*
X125077500Y-161685000D03*
D10*
X204850000Y-129925000D03*
X209850000Y-132025000D03*
D11*
X207350000Y-122125000D03*
X212350000Y-121625000D03*
D12*
X212390000Y-121045000D03*
X206040000Y-123585000D03*
D10*
X142937500Y-168025000D03*
X147937500Y-170125000D03*
D11*
X145437500Y-160225000D03*
X150437500Y-159725000D03*
D12*
X150477500Y-159145000D03*
X144127500Y-161685000D03*
D10*
X128650000Y-129925000D03*
X133650000Y-132025000D03*
D11*
X131150000Y-122125000D03*
X136150000Y-121625000D03*
D12*
X136190000Y-121045000D03*
X129840000Y-123585000D03*
D10*
X181037500Y-168025000D03*
X186037500Y-170125000D03*
D11*
X183537500Y-160225000D03*
X188537500Y-159725000D03*
D12*
X188577500Y-159145000D03*
X182227500Y-161685000D03*
D10*
X319150000Y-187075000D03*
X324150000Y-189175000D03*
D11*
X321650000Y-179275000D03*
X326650000Y-178775000D03*
D12*
X326690000Y-178195000D03*
X320340000Y-180735000D03*
D10*
X223900000Y-129925000D03*
X228900000Y-132025000D03*
D11*
X226400000Y-122125000D03*
X231400000Y-121625000D03*
D12*
X231440000Y-121045000D03*
X225090000Y-123585000D03*
D10*
X119125000Y-110875000D03*
X124125000Y-112975000D03*
D11*
X121625000Y-103075000D03*
X126625000Y-102575000D03*
D12*
X126665000Y-101995000D03*
X120315000Y-104535000D03*
D10*
X138175000Y-110875000D03*
X143175000Y-112975000D03*
D11*
X140675000Y-103075000D03*
X145675000Y-102575000D03*
D12*
X145715000Y-101995000D03*
X139365000Y-104535000D03*
D10*
X316768750Y-168025000D03*
X321768750Y-170125000D03*
D11*
X319268750Y-160225000D03*
X324268750Y-159725000D03*
D12*
X324308750Y-159145000D03*
X317958750Y-161685000D03*
D10*
X185800000Y-129925000D03*
X190800000Y-132025000D03*
D11*
X188300000Y-122125000D03*
X193300000Y-121625000D03*
D12*
X193340000Y-121045000D03*
X186990000Y-123585000D03*
D10*
X276287500Y-91825000D03*
X281287500Y-93925000D03*
D11*
X278787500Y-84025000D03*
X283787500Y-83525000D03*
D12*
X283827500Y-82945000D03*
X277477500Y-85485000D03*
D10*
X295337500Y-168025000D03*
X300337500Y-170125000D03*
D11*
X297837500Y-160225000D03*
X302837500Y-159725000D03*
D12*
X302877500Y-159145000D03*
X296527500Y-161685000D03*
D10*
X195325000Y-110875000D03*
X200325000Y-112975000D03*
D11*
X197825000Y-103075000D03*
X202825000Y-102575000D03*
D12*
X202865000Y-101995000D03*
X196515000Y-104535000D03*
D10*
X214375000Y-110875000D03*
X219375000Y-112975000D03*
D11*
X216875000Y-103075000D03*
X221875000Y-102575000D03*
D12*
X221915000Y-101995000D03*
X215565000Y-104535000D03*
D10*
X335818750Y-91825000D03*
X340818750Y-93925000D03*
D11*
X338318750Y-84025000D03*
X343318750Y-83525000D03*
D12*
X343358750Y-82945000D03*
X337008750Y-85485000D03*
D10*
X133412500Y-148975000D03*
X138412500Y-151075000D03*
D11*
X135912500Y-141175000D03*
X140912500Y-140675000D03*
D12*
X140952500Y-140095000D03*
X134602500Y-142635000D03*
D10*
X85787500Y-129925000D03*
X90787500Y-132025000D03*
D11*
X88287500Y-122125000D03*
X93287500Y-121625000D03*
D12*
X93327500Y-121045000D03*
X86977500Y-123585000D03*
D10*
X300100000Y-129925000D03*
X305100000Y-132025000D03*
D11*
X302600000Y-122125000D03*
X307600000Y-121625000D03*
D12*
X307640000Y-121045000D03*
X301290000Y-123585000D03*
D10*
X262000000Y-187075000D03*
X267000000Y-189175000D03*
D11*
X264500000Y-179275000D03*
X269500000Y-178775000D03*
D12*
X269540000Y-178195000D03*
X263190000Y-180735000D03*
D10*
X338200000Y-187075000D03*
X343200000Y-189175000D03*
D11*
X340700000Y-179275000D03*
X345700000Y-178775000D03*
D12*
X345740000Y-178195000D03*
X339390000Y-180735000D03*
D10*
X166750000Y-129925000D03*
X171750000Y-132025000D03*
D11*
X169250000Y-122125000D03*
X174250000Y-121625000D03*
D12*
X174290000Y-121045000D03*
X167940000Y-123585000D03*
D10*
X109600000Y-129925000D03*
X114600000Y-132025000D03*
D11*
X112100000Y-122125000D03*
X117100000Y-121625000D03*
D12*
X117140000Y-121045000D03*
X110790000Y-123585000D03*
D10*
X257237500Y-91825000D03*
X262237500Y-93925000D03*
D11*
X259737500Y-84025000D03*
X264737500Y-83525000D03*
D12*
X264777500Y-82945000D03*
X258427500Y-85485000D03*
D10*
X276287500Y-168025000D03*
X281287500Y-170125000D03*
D11*
X278787500Y-160225000D03*
X283787500Y-159725000D03*
D12*
X283827500Y-159145000D03*
X277477500Y-161685000D03*
D10*
X281050000Y-129925000D03*
X286050000Y-132025000D03*
D11*
X283550000Y-122125000D03*
X288550000Y-121625000D03*
D12*
X288590000Y-121045000D03*
X282240000Y-123585000D03*
D10*
X100075000Y-110875000D03*
X105075000Y-112975000D03*
D11*
X102575000Y-103075000D03*
X107575000Y-102575000D03*
D12*
X107615000Y-101995000D03*
X101265000Y-104535000D03*
D10*
X285812500Y-148975000D03*
X290812500Y-151075000D03*
D11*
X288312500Y-141175000D03*
X293312500Y-140675000D03*
D12*
X293352500Y-140095000D03*
X287002500Y-142635000D03*
D10*
X231043750Y-187075000D03*
X236043750Y-189175000D03*
D11*
X233543750Y-179275000D03*
X238543750Y-178775000D03*
D12*
X238583750Y-178195000D03*
X232233750Y-180735000D03*
D10*
X262000000Y-129925000D03*
X267000000Y-132025000D03*
D11*
X264500000Y-122125000D03*
X269500000Y-121625000D03*
D12*
X269540000Y-121045000D03*
X263190000Y-123585000D03*
D10*
X252475000Y-110875000D03*
X257475000Y-112975000D03*
D11*
X254975000Y-103075000D03*
X259975000Y-102575000D03*
D12*
X260015000Y-101995000D03*
X253665000Y-104535000D03*
D10*
X219137500Y-168025000D03*
X224137500Y-170125000D03*
D11*
X221637500Y-160225000D03*
X226637500Y-159725000D03*
D12*
X226677500Y-159145000D03*
X220327500Y-161685000D03*
D10*
X238187500Y-168025000D03*
X243187500Y-170125000D03*
D11*
X240687500Y-160225000D03*
X245687500Y-159725000D03*
D12*
X245727500Y-159145000D03*
X239377500Y-161685000D03*
D10*
X188181250Y-187075000D03*
X193181250Y-189175000D03*
D11*
X190681250Y-179275000D03*
X195681250Y-178775000D03*
D12*
X195721250Y-178195000D03*
X189371250Y-180735000D03*
D10*
X102456250Y-168025000D03*
X107456250Y-170125000D03*
D11*
X104956250Y-160225000D03*
X109956250Y-159725000D03*
D12*
X109996250Y-159145000D03*
X103646250Y-161685000D03*
D10*
X100075000Y-187075000D03*
X105075000Y-189175000D03*
D11*
X102575000Y-179275000D03*
X107575000Y-178775000D03*
D12*
X107615000Y-178195000D03*
X101265000Y-180735000D03*
D10*
X281050000Y-187075000D03*
X286050000Y-189175000D03*
D11*
X283550000Y-179275000D03*
X288550000Y-178775000D03*
D12*
X288590000Y-178195000D03*
X282240000Y-180735000D03*
D10*
X81025000Y-91825000D03*
X86025000Y-93925000D03*
D11*
X83525000Y-84025000D03*
X88525000Y-83525000D03*
D12*
X88565000Y-82945000D03*
X82215000Y-85485000D03*
D10*
X304862500Y-148975000D03*
X309862500Y-151075000D03*
D11*
X307362500Y-141175000D03*
X312362500Y-140675000D03*
D12*
X312402500Y-140095000D03*
X306052500Y-142635000D03*
D10*
X176275000Y-110875000D03*
X181275000Y-112975000D03*
D11*
X178775000Y-103075000D03*
X183775000Y-102575000D03*
D12*
X183815000Y-101995000D03*
X177465000Y-104535000D03*
D10*
X228662500Y-148975000D03*
X233662500Y-151075000D03*
D11*
X231162500Y-141175000D03*
X236162500Y-140675000D03*
D12*
X236202500Y-140095000D03*
X229852500Y-142635000D03*
D10*
X242950000Y-129925000D03*
X247950000Y-132025000D03*
D11*
X245450000Y-122125000D03*
X250450000Y-121625000D03*
D12*
X250490000Y-121045000D03*
X244140000Y-123585000D03*
D10*
X290575000Y-110875000D03*
X295575000Y-112975000D03*
D11*
X293075000Y-103075000D03*
X298075000Y-102575000D03*
D12*
X298115000Y-101995000D03*
X291765000Y-104535000D03*
D10*
X138175000Y-187075000D03*
X143175000Y-189175000D03*
D11*
X140675000Y-179275000D03*
X145675000Y-178775000D03*
D12*
X145715000Y-178195000D03*
X139365000Y-180735000D03*
D10*
X209612500Y-148975000D03*
X214612500Y-151075000D03*
D11*
X212112500Y-141175000D03*
X217112500Y-140675000D03*
D12*
X217152500Y-140095000D03*
X210802500Y-142635000D03*
D10*
X81025000Y-110875000D03*
X86025000Y-112975000D03*
D11*
X83525000Y-103075000D03*
X88525000Y-102575000D03*
D12*
X88565000Y-101995000D03*
X82215000Y-104535000D03*
D10*
X190562500Y-148975000D03*
X195562500Y-151075000D03*
D11*
X193062500Y-141175000D03*
X198062500Y-140675000D03*
D12*
X198102500Y-140095000D03*
X191752500Y-142635000D03*
D10*
X104837500Y-91825000D03*
X109837500Y-93925000D03*
D11*
X107337500Y-84025000D03*
X112337500Y-83525000D03*
D12*
X112377500Y-82945000D03*
X106027500Y-85485000D03*
D10*
X114362500Y-148975000D03*
X119362500Y-151075000D03*
D11*
X116862500Y-141175000D03*
X121862500Y-140675000D03*
D12*
X121902500Y-140095000D03*
X115552500Y-142635000D03*
D10*
X81025000Y-168025000D03*
X86025000Y-170125000D03*
D11*
X83525000Y-160225000D03*
X88525000Y-159725000D03*
D12*
X88565000Y-159145000D03*
X82215000Y-161685000D03*
D10*
X238187500Y-91825000D03*
X243187500Y-93925000D03*
D11*
X240687500Y-84025000D03*
X245687500Y-83525000D03*
D12*
X245727500Y-82945000D03*
X239377500Y-85485000D03*
D10*
X219137500Y-91825000D03*
X224137500Y-93925000D03*
D11*
X221637500Y-84025000D03*
X226637500Y-83525000D03*
D12*
X226677500Y-82945000D03*
X220327500Y-85485000D03*
D10*
X200087500Y-91825000D03*
X205087500Y-93925000D03*
D11*
X202587500Y-84025000D03*
X207587500Y-83525000D03*
D12*
X207627500Y-82945000D03*
X201277500Y-85485000D03*
D10*
X181037500Y-91825000D03*
X186037500Y-93925000D03*
D11*
X183537500Y-84025000D03*
X188537500Y-83525000D03*
D12*
X188577500Y-82945000D03*
X182227500Y-85485000D03*
D10*
X161987500Y-91825000D03*
X166987500Y-93925000D03*
D11*
X164487500Y-84025000D03*
X169487500Y-83525000D03*
D12*
X169527500Y-82945000D03*
X163177500Y-85485000D03*
D10*
X142937500Y-91825000D03*
X147937500Y-93925000D03*
D11*
X145437500Y-84025000D03*
X150437500Y-83525000D03*
D12*
X150477500Y-82945000D03*
X144127500Y-85485000D03*
D10*
X123887500Y-91825000D03*
X128887500Y-93925000D03*
D11*
X126387500Y-84025000D03*
X131387500Y-83525000D03*
D12*
X131427500Y-82945000D03*
X125077500Y-85485000D03*
D10*
X157225000Y-110875000D03*
X162225000Y-112975000D03*
D11*
X159725000Y-103075000D03*
X164725000Y-102575000D03*
D12*
X164765000Y-101995000D03*
X158415000Y-104535000D03*
D10*
X247712500Y-148975000D03*
X252712500Y-151075000D03*
D11*
X250212500Y-141175000D03*
X255212500Y-140675000D03*
D12*
X255252500Y-140095000D03*
X248902500Y-142635000D03*
D10*
X119125000Y-187075000D03*
X124125000Y-189175000D03*
D11*
X121625000Y-179275000D03*
X126625000Y-178775000D03*
D12*
X126665000Y-178195000D03*
X120315000Y-180735000D03*
D10*
X338200000Y-168025000D03*
X343200000Y-170125000D03*
D11*
X340700000Y-160225000D03*
X345700000Y-159725000D03*
D12*
X345740000Y-159145000D03*
X339390000Y-161685000D03*
D10*
X309625000Y-110875000D03*
X314625000Y-112975000D03*
D11*
X312125000Y-103075000D03*
X317125000Y-102575000D03*
D12*
X317165000Y-101995000D03*
X310815000Y-104535000D03*
D10*
X331056250Y-148975000D03*
X336056250Y-151075000D03*
D11*
X333556250Y-141175000D03*
X338556250Y-140675000D03*
D12*
X338596250Y-140095000D03*
X332246250Y-142635000D03*
D10*
X157225000Y-187075000D03*
X162225000Y-189175000D03*
D11*
X159725000Y-179275000D03*
X164725000Y-178775000D03*
D12*
X164765000Y-178195000D03*
X158415000Y-180735000D03*
D10*
X233425000Y-110875000D03*
X238425000Y-112975000D03*
D11*
X235925000Y-103075000D03*
X240925000Y-102575000D03*
D12*
X240965000Y-101995000D03*
X234615000Y-104535000D03*
D10*
X147700000Y-129925000D03*
X152700000Y-132025000D03*
D11*
X150200000Y-122125000D03*
X155200000Y-121625000D03*
D12*
X155240000Y-121045000D03*
X148890000Y-123585000D03*
D10*
X300100000Y-187075000D03*
X305100000Y-189175000D03*
D11*
X302600000Y-179275000D03*
X307600000Y-178775000D03*
D12*
X307640000Y-178195000D03*
X301290000Y-180735000D03*
D10*
X314387500Y-91825000D03*
X319387500Y-93925000D03*
D11*
X316887500Y-84025000D03*
X321887500Y-83525000D03*
D12*
X321927500Y-82945000D03*
X315577500Y-85485000D03*
D10*
X81025000Y-187075000D03*
X86025000Y-189175000D03*
D11*
X83525000Y-179275000D03*
X88525000Y-178775000D03*
D12*
X88565000Y-178195000D03*
X82215000Y-180735000D03*
D10*
X257237500Y-168025000D03*
X262237500Y-170125000D03*
D11*
X259737500Y-160225000D03*
X264737500Y-159725000D03*
D12*
X264777500Y-159145000D03*
X258427500Y-161685000D03*
D10*
X171512500Y-148975000D03*
X176512500Y-151075000D03*
D11*
X174012500Y-141175000D03*
X179012500Y-140675000D03*
D12*
X179052500Y-140095000D03*
X172702500Y-142635000D03*
D10*
X295337500Y-91825000D03*
X300337500Y-93925000D03*
D11*
X297837500Y-84025000D03*
X302837500Y-83525000D03*
D12*
X302877500Y-82945000D03*
X296527500Y-85485000D03*
D10*
X319150000Y-129925000D03*
X324150000Y-132025000D03*
D11*
X321650000Y-122125000D03*
X326650000Y-121625000D03*
D12*
X326690000Y-121045000D03*
X320340000Y-123585000D03*
D10*
X83406250Y-148975000D03*
X88406250Y-151075000D03*
D11*
X85906250Y-141175000D03*
X90906250Y-140675000D03*
D12*
X90946250Y-140095000D03*
X84596250Y-142635000D03*
D10*
X161987500Y-168025000D03*
X166987500Y-170125000D03*
D11*
X164487500Y-160225000D03*
X169487500Y-159725000D03*
D12*
X169527500Y-159145000D03*
X163177500Y-161685000D03*
D10*
X338200000Y-129925000D03*
X343200000Y-132025000D03*
D11*
X340700000Y-122125000D03*
X345700000Y-121625000D03*
D12*
X345740000Y-121045000D03*
X339390000Y-123585000D03*
D10*
X333437500Y-110875000D03*
X338437500Y-112975000D03*
D11*
X335937500Y-103075000D03*
X340937500Y-102575000D03*
D12*
X340977500Y-101995000D03*
X334627500Y-104535000D03*
D10*
X200087500Y-168025000D03*
X205087500Y-170125000D03*
D11*
X202587500Y-160225000D03*
X207587500Y-159725000D03*
D12*
X207627500Y-159145000D03*
X201277500Y-161685000D03*
D10*
X152462500Y-148975000D03*
X157462500Y-151075000D03*
D11*
X154962500Y-141175000D03*
X159962500Y-140675000D03*
D12*
X160002500Y-140095000D03*
X153652500Y-142635000D03*
D13*
X224500000Y-74500000D03*
D14*
X225500000Y-76500000D03*
X226500000Y-74500000D03*
X227500000Y-76500000D03*
X228500000Y-74500000D03*
X229500000Y-76500000D03*
X230500000Y-74500000D03*
X231500000Y-76500000D03*
X232500000Y-74500000D03*
X233500000Y-76500000D03*
X189500000Y-74500000D03*
X190500000Y-76500000D03*
X191500000Y-74500000D03*
X192500000Y-76500000D03*
X193500000Y-74500000D03*
X194500000Y-76500000D03*
X195500000Y-74500000D03*
X196500000Y-76500000D03*
X197500000Y-74500000D03*
X198500000Y-76500000D03*
X199500000Y-74500000D03*
X200500000Y-76500000D03*
X201500000Y-74500000D03*
X202500000Y-76500000D03*
X203500000Y-74500000D03*
X204500000Y-76500000D03*
D15*
X98000000Y-93120000D03*
D16*
X98000000Y-85500000D03*
D17*
X98000000Y-87532000D03*
X98000000Y-91088000D03*
D18*
X198732754Y-78065231D03*
X231496599Y-171727849D03*
X149500000Y-92000000D03*
X148500000Y-117000000D03*
X159947001Y-92947001D03*
X151500000Y-92000000D03*
X178628606Y-99000000D03*
X196027990Y-97407029D03*
X196500000Y-100500000D03*
X201000000Y-79500000D03*
X205500000Y-74000000D03*
X217500000Y-78451992D03*
X198000000Y-78000000D03*
X214000000Y-87000000D03*
X297000000Y-96500000D03*
X196666238Y-172166238D03*
X208447291Y-76461018D03*
X170833762Y-99833762D03*
X196000000Y-80000000D03*
X171000000Y-104500000D03*
X233583762Y-98916238D03*
X269500000Y-154000000D03*
X216000000Y-82500000D03*
X200000000Y-83000000D03*
X226500000Y-97000000D03*
X323000000Y-137500000D03*
X223500000Y-119000000D03*
X191000000Y-119500000D03*
X225118330Y-97780247D03*
X218500000Y-82000000D03*
X192000000Y-109000000D03*
X231027990Y-96416238D03*
X183500000Y-105000000D03*
X232333762Y-97666238D03*
X224998764Y-98472002D03*
D19*
X177974563Y-74500000D02*
X188439340Y-74500000D01*
X188439340Y-74500000D02*
X189500000Y-74500000D01*
X98000000Y-85500000D02*
X98940000Y-85500000D01*
X105692990Y-78747010D02*
X173727553Y-78747010D01*
X98940000Y-85500000D02*
X105692990Y-78747010D01*
X173727553Y-78747010D02*
X177974563Y-74500000D01*
X98000000Y-85500000D02*
X98000000Y-87500000D01*
X198432755Y-78365230D02*
X198732754Y-78065231D01*
X198325984Y-78472001D02*
X198432755Y-78365230D01*
X192472001Y-78472001D02*
X198325984Y-78472001D01*
X190500000Y-76500000D02*
X192472001Y-78472001D01*
X318848939Y-92802999D02*
X331802999Y-92802999D01*
X318151938Y-93500000D02*
X318848939Y-92802999D01*
X302606966Y-93500000D02*
X318151938Y-93500000D01*
X293067965Y-83960999D02*
X302606966Y-93500000D01*
X283827500Y-82945000D02*
X284843499Y-83960999D01*
X284843499Y-83960999D02*
X293067965Y-83960999D01*
X331802999Y-92802999D02*
X341000000Y-102000000D01*
X192472001Y-78472001D02*
X192472001Y-79527999D01*
X192472001Y-79527999D02*
X189000000Y-83000000D01*
X340937500Y-102575000D02*
X340937500Y-110562500D01*
X340937500Y-110562500D02*
X338500000Y-113000000D01*
X345740000Y-121045000D02*
X345740000Y-129260000D01*
X345740000Y-129260000D02*
X343000000Y-132000000D01*
X343200000Y-132025000D02*
X343200000Y-135300000D01*
X343200000Y-135300000D02*
X338500000Y-140000000D01*
X336056250Y-151075000D02*
X338500000Y-148631250D01*
X338500000Y-148631250D02*
X338500000Y-141000000D01*
X224724448Y-178500000D02*
X196000000Y-178500000D01*
X231496599Y-171727849D02*
X224724448Y-178500000D01*
X193181250Y-189175000D02*
X195500000Y-186856250D01*
X195500000Y-186856250D02*
X195500000Y-179000000D01*
X236043750Y-189175000D02*
X238500000Y-186718750D01*
X238500000Y-186718750D02*
X238500000Y-179000000D01*
X191500000Y-74500000D02*
X190664012Y-75335988D01*
X190664012Y-75335988D02*
X189957195Y-75335988D01*
X189957195Y-75335988D02*
X189871183Y-75422000D01*
X189871183Y-75422000D02*
X177394816Y-75422001D01*
X151493499Y-81929001D02*
X168429001Y-81929001D01*
X168429001Y-81929001D02*
X169102999Y-82602999D01*
X150477500Y-82945000D02*
X151493499Y-81929001D01*
X177394816Y-75422001D02*
X169816817Y-83000000D01*
X129837499Y-94874999D02*
X147125001Y-94874999D01*
X128887500Y-93925000D02*
X129837499Y-94874999D01*
X147125001Y-94874999D02*
X147500000Y-94500000D01*
X150477500Y-82945000D02*
X150477500Y-91022500D01*
X150477500Y-91022500D02*
X149500000Y-92000000D01*
X143175000Y-112975000D02*
X147200000Y-117000000D01*
X147200000Y-117000000D02*
X148500000Y-117000000D01*
X152700000Y-133368502D02*
X159831498Y-140500000D01*
X152700000Y-132025000D02*
X152700000Y-133368502D01*
X157462500Y-149731498D02*
X159628401Y-147565597D01*
X157462500Y-151075000D02*
X157462500Y-149731498D01*
X159628401Y-147565597D02*
X159628401Y-140871599D01*
X166987500Y-170125000D02*
X169500000Y-167612500D01*
X169500000Y-167612500D02*
X169500000Y-160000000D01*
X112377500Y-82945000D02*
X112377500Y-91622500D01*
X111024999Y-92975001D02*
X112377500Y-91622500D01*
X110787499Y-92975001D02*
X111024999Y-92975001D01*
X109837500Y-93925000D02*
X110787499Y-92975001D01*
X112377500Y-91622500D02*
X116122500Y-91622500D01*
X116122500Y-91622500D02*
X126500000Y-102000000D01*
X144298759Y-101652999D02*
X126847001Y-101652999D01*
X159947001Y-92947001D02*
X153004757Y-92947001D01*
X153004757Y-92947001D02*
X144298759Y-101652999D01*
X126847001Y-101652999D02*
X126500000Y-102000000D01*
X126625000Y-102575000D02*
X126625000Y-110375000D01*
X126625000Y-110375000D02*
X124000000Y-113000000D01*
X126625000Y-110375000D02*
X126625000Y-111625000D01*
X126625000Y-111625000D02*
X136000000Y-121000000D01*
X136190000Y-121045000D02*
X136190000Y-129310000D01*
X136190000Y-129310000D02*
X133500000Y-132000000D01*
X90572151Y-148909099D02*
X90572151Y-140572151D01*
X88406250Y-151075000D02*
X90572151Y-148909099D01*
X138412500Y-151075000D02*
X141000000Y-148487500D01*
X141000000Y-148487500D02*
X141000000Y-141000000D01*
X150437500Y-159725000D02*
X150437500Y-168062500D01*
X150437500Y-168062500D02*
X148500000Y-170000000D01*
X86025000Y-114318502D02*
X93000000Y-121293502D01*
X86025000Y-112975000D02*
X86025000Y-114318502D01*
X93000000Y-121293502D02*
X93206498Y-121293502D01*
X105075000Y-112975000D02*
X107500000Y-110550000D01*
X107500000Y-110550000D02*
X107500000Y-102500000D01*
X107500000Y-110550000D02*
X107500000Y-112000000D01*
X107500000Y-112000000D02*
X116000000Y-120500000D01*
X116000000Y-120500000D02*
X116500000Y-120500000D01*
X117140000Y-121045000D02*
X117140000Y-129360000D01*
X117140000Y-129360000D02*
X114500000Y-132000000D01*
X114600000Y-133368502D02*
X121231498Y-140000000D01*
X114600000Y-132025000D02*
X114600000Y-133368502D01*
X93287500Y-121625000D02*
X93287500Y-130212500D01*
X93287500Y-130212500D02*
X91500000Y-132000000D01*
X131387500Y-159725000D02*
X131387500Y-167612500D01*
X131387500Y-167612500D02*
X129000000Y-170000000D01*
X120312499Y-152024999D02*
X124024999Y-152024999D01*
X119362500Y-151075000D02*
X120312499Y-152024999D01*
X124024999Y-152024999D02*
X131000000Y-159000000D01*
X119362500Y-159879312D02*
X101241812Y-178000000D01*
X119362500Y-151075000D02*
X119362500Y-159879312D01*
X101241812Y-178000000D02*
X89500000Y-178000000D01*
X88565000Y-178195000D02*
X88565000Y-186435000D01*
X88565000Y-186435000D02*
X86000000Y-189000000D01*
X179453051Y-75664011D02*
X170170061Y-84947001D01*
X190057439Y-75577999D02*
X189971427Y-75664011D01*
X170170061Y-84947001D02*
X167514063Y-84947001D01*
X193500000Y-74500000D02*
X192422001Y-75577999D01*
X165170061Y-82602999D02*
X160897001Y-82602999D01*
X160897001Y-82602999D02*
X151799999Y-91700001D01*
X189971427Y-75664011D02*
X179453051Y-75664011D01*
X167514063Y-84947001D02*
X165170061Y-82602999D01*
X151799999Y-91700001D02*
X151500000Y-92000000D01*
X192422001Y-75577999D02*
X190057439Y-75577999D01*
X178628606Y-99000000D02*
X180000000Y-99000000D01*
X180000000Y-99000000D02*
X183000000Y-102000000D01*
X183775000Y-104342766D02*
X184500000Y-105067766D01*
X183775000Y-102575000D02*
X183775000Y-104342766D01*
X184500000Y-105067766D02*
X184500000Y-110000000D01*
X184500000Y-110000000D02*
X181500000Y-113000000D01*
X190800000Y-132025000D02*
X198000000Y-139225000D01*
X174250000Y-121625000D02*
X174250000Y-129250000D01*
X174250000Y-129250000D02*
X172000000Y-131500000D01*
X196512499Y-152024999D02*
X200024999Y-152024999D01*
X200024999Y-152024999D02*
X207000000Y-159000000D01*
X196512499Y-152024999D02*
X195975001Y-152024999D01*
X195975001Y-152024999D02*
X189000000Y-159000000D01*
X195975001Y-152024999D02*
X195975001Y-151475001D01*
X196452254Y-97407029D02*
X196027990Y-97407029D01*
X266472465Y-147852999D02*
X230472465Y-111852999D01*
X312352999Y-147852999D02*
X266472465Y-147852999D01*
X202567591Y-97407029D02*
X196452254Y-97407029D01*
X324000000Y-159500000D02*
X312352999Y-147852999D01*
X230472465Y-111852999D02*
X217013561Y-111852999D01*
X217013561Y-111852999D02*
X202567591Y-97407029D01*
X107456250Y-170125000D02*
X110000000Y-167581250D01*
X110000000Y-167581250D02*
X110000000Y-160500000D01*
X196500000Y-100500000D02*
X201500000Y-100500000D01*
X201500000Y-100500000D02*
X203000000Y-102000000D01*
X201274999Y-113924999D02*
X204424999Y-113924999D01*
X200325000Y-112975000D02*
X201274999Y-113924999D01*
X204424999Y-113924999D02*
X211500000Y-121000000D01*
X218425001Y-113924999D02*
X218425001Y-115074999D01*
X219375000Y-112975000D02*
X218425001Y-113924999D01*
X218425001Y-115074999D02*
X212500000Y-121000000D01*
X220324999Y-113924999D02*
X224424999Y-113924999D01*
X219375000Y-112975000D02*
X220324999Y-113924999D01*
X224424999Y-113924999D02*
X231500000Y-121000000D01*
X228900000Y-132025000D02*
X236000000Y-139125000D01*
X209850000Y-133368502D02*
X217481498Y-141000000D01*
X209850000Y-132025000D02*
X209850000Y-133368502D01*
X227887499Y-158475001D02*
X227887499Y-157112501D01*
X226637500Y-159725000D02*
X227887499Y-158475001D01*
X227887499Y-157112501D02*
X233500000Y-151500000D01*
X233662500Y-151075000D02*
X237575000Y-151075000D01*
X237575000Y-151075000D02*
X245500000Y-159000000D01*
X243187500Y-170125000D02*
X245500000Y-167812500D01*
X245500000Y-167812500D02*
X245500000Y-160000000D01*
X224137500Y-170125000D02*
X226500000Y-167762500D01*
X226500000Y-167762500D02*
X226500000Y-160000000D01*
X251678001Y-119856999D02*
X308143001Y-119856999D01*
X250490000Y-121045000D02*
X251678001Y-119856999D01*
X308143001Y-119856999D02*
X314500000Y-113500000D01*
X201422001Y-79077999D02*
X201000000Y-79500000D01*
X201422001Y-76057439D02*
X201422001Y-79077999D01*
X198422001Y-75422001D02*
X200786563Y-75422001D01*
X200786563Y-75422001D02*
X201422001Y-76057439D01*
X197500000Y-74500000D02*
X198422001Y-75422001D01*
X207587500Y-83525000D02*
X207587500Y-91412500D01*
X207587500Y-91412500D02*
X205000000Y-94000000D01*
X240652999Y-101652999D02*
X241000000Y-102000000D01*
X226796691Y-101652999D02*
X240652999Y-101652999D01*
X205087500Y-93925000D02*
X219068692Y-93925000D01*
X219068692Y-93925000D02*
X226796691Y-101652999D01*
X240925000Y-102575000D02*
X240925000Y-110575000D01*
X240925000Y-110575000D02*
X239000000Y-112500000D01*
X316790901Y-110809099D02*
X316790901Y-102709099D01*
X314625000Y-112975000D02*
X316790901Y-110809099D01*
X316790901Y-110809099D02*
X316790901Y-111790901D01*
X316790901Y-111790901D02*
X326000000Y-121000000D01*
X326690000Y-121045000D02*
X326690000Y-129810000D01*
X326690000Y-129810000D02*
X324500000Y-132000000D01*
X247950000Y-132025000D02*
X247950000Y-133450000D01*
X247950000Y-133450000D02*
X255000000Y-140500000D01*
X262237500Y-170125000D02*
X264500000Y-167862500D01*
X264500000Y-167862500D02*
X264500000Y-160000000D01*
X105075000Y-189175000D02*
X107500000Y-186750000D01*
X107500000Y-186750000D02*
X107500000Y-179500000D01*
X267000000Y-189175000D02*
X269500000Y-186675000D01*
X269500000Y-186675000D02*
X269500000Y-178500000D01*
X199500000Y-74500000D02*
X200500000Y-73500000D01*
X205000000Y-73500000D02*
X205200001Y-73700001D01*
X205200001Y-73700001D02*
X205500000Y-74000000D01*
X200500000Y-73500000D02*
X205000000Y-73500000D01*
X224137500Y-93925000D02*
X226500000Y-91562500D01*
X226500000Y-91562500D02*
X226500000Y-84000000D01*
X245687500Y-83525000D02*
X245687500Y-91312500D01*
X245687500Y-91312500D02*
X243000000Y-94000000D01*
X249332500Y-91312500D02*
X245687500Y-91312500D01*
X260015000Y-101995000D02*
X249332500Y-91312500D01*
X267000000Y-132025000D02*
X269500000Y-129525000D01*
X269500000Y-129525000D02*
X269500000Y-122000000D01*
X272712499Y-152024999D02*
X276024999Y-152024999D01*
X271762500Y-151075000D02*
X272712499Y-152024999D01*
X276024999Y-152024999D02*
X283000000Y-159000000D01*
X221451992Y-78451992D02*
X217924264Y-78451992D01*
X226000000Y-83000000D02*
X221451992Y-78451992D01*
X217924264Y-78451992D02*
X217500000Y-78451992D01*
X199577999Y-77422001D02*
X199750001Y-77249999D01*
X198000000Y-78000000D02*
X198577999Y-77422001D01*
X198577999Y-77422001D02*
X199577999Y-77422001D01*
X199750001Y-77249999D02*
X200500000Y-76500000D01*
X214000000Y-88514054D02*
X214000000Y-87424264D01*
X224874185Y-99388239D02*
X214000000Y-88514054D01*
X254683677Y-99388239D02*
X224874185Y-99388239D01*
X278049001Y-100979001D02*
X263675561Y-100979001D01*
X214000000Y-87424264D02*
X214000000Y-87000000D01*
X260657561Y-103997001D02*
X259292439Y-103997001D01*
X259292439Y-103997001D02*
X254683677Y-99388239D01*
X279065000Y-101995000D02*
X278049001Y-100979001D01*
X263675561Y-100979001D02*
X260657561Y-103997001D01*
X290368841Y-120702999D02*
X307202999Y-120702999D01*
X288590000Y-121045000D02*
X290026840Y-121045000D01*
X290026840Y-121045000D02*
X290368841Y-120702999D01*
X288590000Y-121045000D02*
X288590000Y-129410000D01*
X288590000Y-129410000D02*
X286000000Y-132000000D01*
X286050000Y-132025000D02*
X293500000Y-139475000D01*
X296700001Y-96200001D02*
X297000000Y-96500000D01*
X296623063Y-96200001D02*
X296700001Y-96200001D01*
X287326061Y-86902999D02*
X296623063Y-96200001D01*
X284718681Y-86902999D02*
X287326061Y-86902999D01*
X276804703Y-78989021D02*
X284718681Y-86902999D01*
X259010979Y-78702558D02*
X259297442Y-78989021D01*
X259297442Y-78989021D02*
X276804703Y-78989021D01*
X220489021Y-73500000D02*
X259010979Y-73500000D01*
X220202558Y-75989021D02*
X220489021Y-75702558D01*
X259010979Y-73500000D02*
X259010979Y-78702558D01*
X220489021Y-75702558D02*
X220489021Y-73500000D01*
X206797438Y-75989017D02*
X209499996Y-75989017D01*
X209500000Y-75989021D02*
X220202558Y-75989021D01*
X202422001Y-75422001D02*
X206230422Y-75422001D01*
X206230422Y-75422001D02*
X206797438Y-75989017D01*
X209499996Y-75989017D02*
X209500000Y-75989021D01*
X201500000Y-74500000D02*
X202422001Y-75422001D01*
X159870412Y-146271355D02*
X159870412Y-164129588D01*
X159870412Y-164129588D02*
X146000000Y-178000000D01*
X181368766Y-124773001D02*
X159870412Y-146271355D01*
X187756561Y-124773001D02*
X181368766Y-124773001D01*
X202440575Y-81257989D02*
X189722001Y-93976563D01*
X189722001Y-122807561D02*
X187756561Y-124773001D01*
X189722001Y-93976563D02*
X189722001Y-122807561D01*
X204317843Y-81257989D02*
X202440575Y-81257989D01*
X209500000Y-76075832D02*
X204317843Y-81257989D01*
X209500000Y-75989021D02*
X209500000Y-76075832D01*
X345740000Y-159145000D02*
X345740000Y-167760000D01*
X345740000Y-167760000D02*
X343500000Y-170000000D01*
X124125000Y-189175000D02*
X126500000Y-186800000D01*
X126500000Y-186800000D02*
X126500000Y-179500000D01*
X126500000Y-186800000D02*
X129200000Y-189500000D01*
X129200000Y-189500000D02*
X142500000Y-189500000D01*
X143175000Y-189175000D02*
X145500000Y-186850000D01*
X145500000Y-186850000D02*
X145500000Y-179000000D01*
X171333762Y-172166238D02*
X196241974Y-172166238D01*
X196241974Y-172166238D02*
X196666238Y-172166238D01*
X164500000Y-179000000D02*
X171333762Y-172166238D01*
X162225000Y-189175000D02*
X165000000Y-186400000D01*
X165000000Y-186400000D02*
X165000000Y-180000000D01*
X165000000Y-180000000D02*
X165000000Y-179500000D01*
X318452999Y-95047001D02*
X319000000Y-94500000D01*
X220102314Y-75747010D02*
X220247010Y-75602314D01*
X284818925Y-86660988D02*
X287426305Y-86660988D01*
X276904947Y-78747010D02*
X284818925Y-86660988D01*
X220247010Y-75602314D02*
X220247010Y-73257989D01*
X220247010Y-73257989D02*
X259252990Y-73257989D01*
X206897686Y-75747010D02*
X220102314Y-75747010D01*
X259252990Y-78602314D02*
X259397686Y-78747010D01*
X203972002Y-74972002D02*
X206122678Y-74972002D01*
X259397686Y-78747010D02*
X276904947Y-78747010D01*
X203500000Y-74500000D02*
X203972002Y-74972002D01*
X206122678Y-74972002D02*
X206897686Y-75747010D01*
X295812317Y-95047001D02*
X318452999Y-95047001D01*
X287426305Y-86660988D02*
X295812317Y-95047001D01*
X259252990Y-73257989D02*
X259252990Y-78602314D01*
X347122001Y-177377999D02*
X346500000Y-178000000D01*
X347122001Y-157000000D02*
X347122001Y-177377999D01*
X343622001Y-153500000D02*
X347122001Y-157000000D01*
X327500000Y-147079312D02*
X333920688Y-153500000D01*
X333920688Y-153500000D02*
X343622001Y-153500000D01*
X318452999Y-95047001D02*
X331000000Y-107594002D01*
X331000000Y-107594002D02*
X331000000Y-141000000D01*
X331000000Y-141000000D02*
X327500000Y-144500000D01*
X327500000Y-144500000D02*
X327500000Y-147079312D01*
X345740000Y-178195000D02*
X345740000Y-186260000D01*
X345740000Y-186260000D02*
X343500000Y-188500000D01*
X208408309Y-76500000D02*
X208447291Y-76461018D01*
X204500000Y-76500000D02*
X208408309Y-76500000D01*
X156102999Y-110336439D02*
X160059099Y-106380339D01*
X169860525Y-100806999D02*
X170533763Y-100133761D01*
X88525000Y-159725000D02*
X100909099Y-147340901D01*
X100909099Y-147340901D02*
X120402133Y-147340901D01*
X164194759Y-100806999D02*
X169860525Y-100806999D01*
X160059099Y-106380339D02*
X160059099Y-104942659D01*
X120402133Y-147340901D02*
X156102999Y-111640035D01*
X170533763Y-100133761D02*
X170833762Y-99833762D01*
X160059099Y-104942659D02*
X164194759Y-100806999D01*
X156102999Y-111640035D02*
X156102999Y-110336439D01*
X202060660Y-80000000D02*
X196424264Y-80000000D01*
X204500000Y-77560660D02*
X202060660Y-80000000D01*
X196424264Y-80000000D02*
X196000000Y-80000000D01*
X204500000Y-76500000D02*
X204500000Y-77560660D01*
X326650000Y-178775000D02*
X326650000Y-186350000D01*
X326650000Y-186350000D02*
X324000000Y-189000000D01*
X88190901Y-167959099D02*
X88190901Y-160309099D01*
X86025000Y-170125000D02*
X88190901Y-167959099D01*
X83230999Y-84469001D02*
X83230999Y-84269001D01*
X82215000Y-85485000D02*
X83230999Y-84469001D01*
X184739438Y-121239438D02*
X186500000Y-123000000D01*
X171000000Y-104500000D02*
X171000000Y-107500000D01*
X171000000Y-107500000D02*
X184739438Y-121239438D01*
X220327500Y-85485000D02*
X220327500Y-90172500D01*
X220327500Y-90172500D02*
X219000000Y-91500000D01*
X224772203Y-98944003D02*
X233131733Y-98944003D01*
X233131733Y-98944003D02*
X233159498Y-98916238D01*
X219000000Y-93171800D02*
X224772203Y-98944003D01*
X219000000Y-92000000D02*
X219000000Y-93171800D01*
X233159498Y-98916238D02*
X233583762Y-98916238D01*
X334627500Y-104535000D02*
X334627500Y-109372500D01*
X334627500Y-109372500D02*
X333500000Y-110500000D01*
X320340000Y-123585000D02*
X320340000Y-128660000D01*
X320340000Y-128660000D02*
X319000000Y-130000000D01*
X303849999Y-123374999D02*
X320374999Y-123374999D01*
X302600000Y-122125000D02*
X303849999Y-123374999D01*
X206040000Y-123585000D02*
X206040000Y-128960000D01*
X206040000Y-128960000D02*
X205000000Y-130000000D01*
X185800000Y-129925000D02*
X204925000Y-129925000D01*
X86977500Y-123585000D02*
X86977500Y-128522500D01*
X86977500Y-128522500D02*
X86000000Y-129500000D01*
X85787500Y-131268502D02*
X85500000Y-131556002D01*
X85787500Y-129925000D02*
X85787500Y-131268502D01*
X85500000Y-131556002D02*
X85500000Y-140500000D01*
X84596250Y-142635000D02*
X84596250Y-147903750D01*
X84596250Y-147903750D02*
X83000000Y-149500000D01*
X103406249Y-167075001D02*
X103406249Y-161593751D01*
X102456250Y-168025000D02*
X103406249Y-167075001D01*
X321355999Y-122569001D02*
X321355999Y-122144001D01*
X320340000Y-123585000D02*
X321355999Y-122569001D01*
X207055999Y-122569001D02*
X207430999Y-122569001D01*
X206040000Y-123585000D02*
X207055999Y-122569001D01*
X104662249Y-160669001D02*
X104662249Y-160162249D01*
X103646250Y-161685000D02*
X104662249Y-160669001D01*
X221343499Y-84469001D02*
X221343499Y-84156501D01*
X220327500Y-85485000D02*
X221343499Y-84469001D01*
X145143499Y-84469001D02*
X145143499Y-84356501D01*
X144127500Y-85485000D02*
X145143499Y-84469001D01*
X335643499Y-103519001D02*
X335643499Y-103356501D01*
X334627500Y-104535000D02*
X335643499Y-103519001D01*
X301290000Y-123585000D02*
X302375000Y-122500000D01*
X188005999Y-122569001D02*
X188005999Y-122005999D01*
X186990000Y-123585000D02*
X188005999Y-122569001D01*
X86977500Y-123585000D02*
X88500000Y-122062500D01*
X85612249Y-141619001D02*
X85612249Y-141387751D01*
X84596250Y-142635000D02*
X85612249Y-141619001D01*
X254529939Y-142097001D02*
X257597001Y-142097001D01*
X249529939Y-139752999D02*
X252185937Y-139752999D01*
X247185937Y-142097001D02*
X249529939Y-139752999D01*
X213362499Y-142424999D02*
X227807939Y-142424999D01*
X257597001Y-142097001D02*
X269500000Y-154000000D01*
X235479939Y-142097001D02*
X247185937Y-142097001D01*
X212112500Y-141175000D02*
X213362499Y-142424999D01*
X227807939Y-142424999D02*
X230479939Y-139752999D01*
X230479939Y-139752999D02*
X233135937Y-139752999D01*
X252185937Y-139752999D02*
X254529939Y-142097001D01*
X233135937Y-139752999D02*
X235479939Y-142097001D01*
X210802500Y-142635000D02*
X194635000Y-142635000D01*
X194635000Y-142635000D02*
X193000000Y-141000000D01*
X215256999Y-81756999D02*
X204743001Y-81756999D01*
X216000000Y-82500000D02*
X215256999Y-81756999D01*
X204743001Y-81756999D02*
X203000000Y-83500000D01*
X184787499Y-85274999D02*
X197725001Y-85274999D01*
X183537500Y-84025000D02*
X184787499Y-85274999D01*
X197725001Y-85274999D02*
X200000000Y-83000000D01*
X165737499Y-85274999D02*
X181774999Y-85274999D01*
X164487500Y-84025000D02*
X165737499Y-85274999D01*
X181774999Y-85274999D02*
X182049998Y-85000000D01*
X182227500Y-85485000D02*
X182227500Y-90772500D01*
X182227500Y-90772500D02*
X181000000Y-92000000D01*
X120074999Y-186125001D02*
X120074999Y-181074999D01*
X119125000Y-187075000D02*
X120074999Y-186125001D01*
X213929937Y-150097001D02*
X215026938Y-149000000D01*
X174012500Y-141175000D02*
X175262499Y-142424999D01*
X197278967Y-150097001D02*
X213929937Y-150097001D01*
X189606965Y-142424999D02*
X197278967Y-150097001D01*
X175262499Y-142424999D02*
X189606965Y-142424999D01*
X215026938Y-149000000D02*
X228000000Y-149000000D01*
X290000000Y-142500000D02*
X288500000Y-141000000D01*
X299000000Y-142500000D02*
X290000000Y-142500000D01*
X311679939Y-142097001D02*
X311582938Y-142000000D01*
X323000000Y-137500000D02*
X318500000Y-142000000D01*
X313142062Y-142000000D02*
X313045061Y-142097001D01*
X318500000Y-142000000D02*
X313142062Y-142000000D01*
X303929258Y-143000000D02*
X299500000Y-143000000D01*
X313045061Y-142097001D02*
X311679939Y-142097001D01*
X299500000Y-143000000D02*
X299000000Y-142500000D01*
X304752259Y-143823001D02*
X307176999Y-143823001D01*
X303929258Y-143000000D02*
X304752259Y-143823001D01*
X307176999Y-143823001D02*
X309000000Y-142000000D01*
X311582938Y-142000000D02*
X309000000Y-142000000D01*
X227500000Y-76500000D02*
X228249999Y-77249999D01*
X228249999Y-77249999D02*
X228249999Y-85250001D01*
X226742011Y-96333725D02*
X226500000Y-96575736D01*
X226742011Y-86757989D02*
X226742011Y-96333725D01*
X228249999Y-85250001D02*
X226742011Y-86757989D01*
X226500000Y-96575736D02*
X226500000Y-97000000D01*
X339390000Y-123585000D02*
X339390000Y-128610000D01*
X339390000Y-128610000D02*
X338000000Y-130000000D01*
X114362500Y-148975000D02*
X133475000Y-148975000D01*
X135618499Y-143650999D02*
X135618499Y-146881501D01*
X134602500Y-142635000D02*
X135618499Y-143650999D01*
X135618499Y-146881501D02*
X133500000Y-149000000D01*
X229612499Y-148025001D02*
X229612499Y-143112499D01*
X228662500Y-148975000D02*
X229612499Y-148025001D01*
X228662500Y-148975000D02*
X247975000Y-148975000D01*
X270512499Y-142424999D02*
X286924999Y-142424999D01*
X269262500Y-141175000D02*
X270512499Y-142424999D01*
X223500000Y-119000000D02*
X223000000Y-119500000D01*
X147700000Y-155857938D02*
X140500000Y-163057938D01*
X147700000Y-129925000D02*
X147700000Y-155857938D01*
X140500000Y-163057938D02*
X140500000Y-179500000D01*
X215500000Y-120579562D02*
X215500000Y-119500000D01*
X213032561Y-123047001D02*
X215500000Y-120579562D01*
X211667439Y-123047001D02*
X213032561Y-123047001D01*
X208500000Y-119500000D02*
X208500000Y-119879562D01*
X223000000Y-119500000D02*
X215500000Y-119500000D01*
X208500000Y-119879562D02*
X211667439Y-123047001D01*
X208500000Y-119500000D02*
X191000000Y-119500000D01*
X225542594Y-97780247D02*
X225118330Y-97780247D01*
X226984022Y-97214542D02*
X226418317Y-97780247D01*
X226984022Y-88744584D02*
X226984022Y-97214542D01*
X226418317Y-97780247D02*
X225542594Y-97780247D01*
X228500000Y-87228606D02*
X226984022Y-88744584D01*
X228500000Y-74500000D02*
X228500000Y-87228606D01*
X282240000Y-123585000D02*
X282240000Y-128760000D01*
X282240000Y-128760000D02*
X281000000Y-130000000D01*
X263190000Y-123585000D02*
X263190000Y-128810000D01*
X263190000Y-128810000D02*
X262000000Y-130000000D01*
X246699999Y-123374999D02*
X263374999Y-123374999D01*
X245450000Y-122125000D02*
X246699999Y-123374999D01*
X228167766Y-122125000D02*
X236042766Y-130000000D01*
X226400000Y-122125000D02*
X228167766Y-122125000D01*
X236042766Y-130000000D02*
X242500000Y-130000000D01*
X225090000Y-123585000D02*
X225090000Y-128410000D01*
X225090000Y-128410000D02*
X224000000Y-129500000D01*
X167940000Y-123585000D02*
X167940000Y-129060000D01*
X167940000Y-129060000D02*
X167000000Y-130000000D01*
X151449999Y-123374999D02*
X167874999Y-123374999D01*
X150200000Y-122125000D02*
X151449999Y-123374999D01*
X148890000Y-123585000D02*
X148890000Y-128610000D01*
X148890000Y-128610000D02*
X147500000Y-130000000D01*
X110790000Y-123585000D02*
X110790000Y-128710000D01*
X110790000Y-128710000D02*
X109500000Y-130000000D01*
X139365000Y-180735000D02*
X139365000Y-186135000D01*
X139365000Y-186135000D02*
X138500000Y-187000000D01*
X125077500Y-85485000D02*
X125077500Y-90422500D01*
X125077500Y-90422500D02*
X124000000Y-91500000D01*
X144527998Y-92226562D02*
X144773438Y-92472002D01*
X143177060Y-90422500D02*
X144527998Y-91773438D01*
X125077500Y-90422500D02*
X143177060Y-90422500D01*
X151894084Y-92472002D02*
X153765842Y-90600244D01*
X144527998Y-91773438D02*
X144527998Y-92226562D01*
X166600244Y-90600244D02*
X178776938Y-102776938D01*
X153765842Y-90600244D02*
X166600244Y-90600244D01*
X144773438Y-92472002D02*
X151894084Y-92472002D01*
X194000000Y-90507938D02*
X194000000Y-99000000D01*
X194000000Y-99000000D02*
X197500000Y-102500000D01*
X202992950Y-81514988D02*
X194000000Y-90507938D01*
X218014988Y-81514988D02*
X202992950Y-81514988D01*
X218500000Y-82000000D02*
X218014988Y-81514988D01*
X258427500Y-85485000D02*
X258427500Y-91072500D01*
X258427500Y-91072500D02*
X258000000Y-91500000D01*
X273874438Y-91072500D02*
X287301938Y-104500000D01*
X258427500Y-91072500D02*
X273874438Y-91072500D01*
X287301938Y-104500000D02*
X291500000Y-104500000D01*
X318137499Y-85274999D02*
X336774999Y-85274999D01*
X316887500Y-84025000D02*
X318137499Y-85274999D01*
X336774999Y-85274999D02*
X337000000Y-85049998D01*
X337008750Y-85485000D02*
X337008750Y-90491250D01*
X337008750Y-90491250D02*
X336000000Y-91500000D01*
X294324999Y-104324999D02*
X310824999Y-104324999D01*
X293075000Y-103075000D02*
X294324999Y-104324999D01*
X310815000Y-104535000D02*
X310815000Y-109685000D01*
X310815000Y-109685000D02*
X309500000Y-111000000D01*
X101024999Y-186125001D02*
X101024999Y-180975001D01*
X100075000Y-187075000D02*
X101024999Y-186125001D01*
X107043499Y-84469001D02*
X107043499Y-84456501D01*
X106027500Y-85485000D02*
X107043499Y-84469001D01*
X102500000Y-94500000D02*
X105000000Y-92000000D01*
X83525000Y-103075000D02*
X92100000Y-94500000D01*
X92100000Y-94500000D02*
X102500000Y-94500000D01*
X106000000Y-85925002D02*
X105787499Y-85712501D01*
X104837500Y-91825000D02*
X106000000Y-90662500D01*
X106000000Y-90662500D02*
X106000000Y-85925002D01*
X124000000Y-81500000D02*
X126500000Y-84000000D01*
X107337500Y-84025000D02*
X109862500Y-81500000D01*
X109862500Y-81500000D02*
X124000000Y-81500000D01*
X192299999Y-109299999D02*
X212799999Y-109299999D01*
X192000000Y-109000000D02*
X192299999Y-109299999D01*
X212799999Y-109299999D02*
X214000000Y-110500000D01*
X171500000Y-100328242D02*
X176894759Y-105723001D01*
X159725000Y-103075000D02*
X163800000Y-99000000D01*
X163800000Y-99000000D02*
X171500000Y-99000000D01*
X176894759Y-105723001D02*
X179421465Y-105723001D01*
X179421465Y-105723001D02*
X180235367Y-104909099D01*
X183409099Y-104909099D02*
X183500000Y-105000000D01*
X180235367Y-104909099D02*
X183409099Y-104909099D01*
X171500000Y-99000000D02*
X171500000Y-100328242D01*
X277237499Y-90875001D02*
X277237499Y-85762501D01*
X276287500Y-91825000D02*
X277237499Y-90875001D01*
X277237499Y-85762501D02*
X277000000Y-85525002D01*
X231027990Y-95991974D02*
X231027990Y-96416238D01*
X231027990Y-86027990D02*
X231027990Y-95991974D01*
X230500000Y-74500000D02*
X230500000Y-85500000D01*
X230500000Y-85500000D02*
X231027990Y-86027990D01*
X234615000Y-104535000D02*
X218535000Y-104535000D01*
X218535000Y-104535000D02*
X217000000Y-103000000D01*
X101265000Y-104535000D02*
X101265000Y-109735000D01*
X101265000Y-109735000D02*
X100000000Y-111000000D01*
X139365000Y-104535000D02*
X139365000Y-110135000D01*
X139365000Y-110135000D02*
X139000000Y-110500000D01*
X141924999Y-104324999D02*
X157824999Y-104324999D01*
X140675000Y-103075000D02*
X141924999Y-104324999D01*
X157824999Y-104324999D02*
X158149998Y-104000000D01*
X233425000Y-110875000D02*
X233425000Y-112218502D01*
X235303499Y-114097001D02*
X249402999Y-114097001D01*
X233425000Y-112218502D02*
X235303499Y-114097001D01*
X249402999Y-114097001D02*
X252500000Y-111000000D01*
X234615000Y-104535000D02*
X234615000Y-109885000D01*
X234615000Y-109885000D02*
X233500000Y-111000000D01*
X256224999Y-104324999D02*
X272824999Y-104324999D01*
X254975000Y-103075000D02*
X256224999Y-104324999D01*
X272824999Y-104324999D02*
X272500000Y-104649998D01*
X232033763Y-97366239D02*
X232333762Y-97666238D01*
X231500000Y-96832476D02*
X232033763Y-97366239D01*
X231500000Y-76500000D02*
X231500000Y-96832476D01*
X333262249Y-143650999D02*
X333262249Y-146737751D01*
X332246250Y-142635000D02*
X333262249Y-143650999D01*
X333262249Y-146737751D02*
X331000000Y-149000000D01*
X287171033Y-166902999D02*
X280268034Y-160000000D01*
X316768750Y-168025000D02*
X315646749Y-166902999D01*
X315646749Y-166902999D02*
X287171033Y-166902999D01*
X280268034Y-160000000D02*
X279500000Y-160000000D01*
X264500000Y-177507234D02*
X274007234Y-168000000D01*
X264500000Y-179275000D02*
X264500000Y-177507234D01*
X274007234Y-168000000D02*
X276000000Y-168000000D01*
X257237500Y-169368502D02*
X264500000Y-176631002D01*
X257237500Y-168025000D02*
X257237500Y-169368502D01*
X264500000Y-176631002D02*
X264500000Y-177507234D01*
X258187499Y-167075001D02*
X258187499Y-162187499D01*
X257237500Y-168025000D02*
X258187499Y-167075001D01*
X203003967Y-163102999D02*
X188183265Y-163102999D01*
X204047867Y-162059099D02*
X203003967Y-163102999D01*
X213500000Y-162059099D02*
X204047867Y-162059099D01*
X185305266Y-160225000D02*
X183537500Y-160225000D01*
X237500000Y-168000000D02*
X230500000Y-168000000D01*
X230500000Y-168000000D02*
X227252999Y-171247001D01*
X188183265Y-163102999D02*
X185305266Y-160225000D01*
X214500000Y-165048062D02*
X214500000Y-163059099D01*
X227252999Y-171247001D02*
X220698939Y-171247001D01*
X220698939Y-171247001D02*
X214500000Y-165048062D01*
X214500000Y-163059099D02*
X213500000Y-162059099D01*
X161987500Y-168025000D02*
X163000000Y-167012500D01*
X163000000Y-167012500D02*
X163000000Y-162000000D01*
X125077500Y-161685000D02*
X125077500Y-166922500D01*
X125077500Y-166922500D02*
X123500000Y-168500000D01*
X81025000Y-168025000D02*
X82500000Y-166550000D01*
X82500000Y-166550000D02*
X82500000Y-162500000D01*
X161987500Y-168025000D02*
X161987500Y-177012500D01*
X161987500Y-177012500D02*
X160000000Y-179000000D01*
X158174999Y-186125001D02*
X158174999Y-180825001D01*
X157225000Y-187075000D02*
X158174999Y-186125001D01*
X262000000Y-187075000D02*
X263500000Y-185575000D01*
X263500000Y-185575000D02*
X263500000Y-181500000D01*
X235000000Y-95698562D02*
X232226560Y-98472002D01*
X235000000Y-75939340D02*
X235000000Y-95698562D01*
X232500000Y-74500000D02*
X233560660Y-74500000D01*
X232226560Y-98472002D02*
X224998764Y-98472002D01*
X233560660Y-74500000D02*
X235000000Y-75939340D01*
X339390000Y-161685000D02*
X339390000Y-167110000D01*
X339390000Y-167110000D02*
X338500000Y-168000000D01*
X338200000Y-169368502D02*
X340500000Y-171668502D01*
X338200000Y-168025000D02*
X338200000Y-169368502D01*
X340500000Y-171668502D02*
X340500000Y-178500000D01*
X339149999Y-186125001D02*
X339149999Y-180350001D01*
X338200000Y-187075000D02*
X339149999Y-186125001D01*
X295337500Y-168025000D02*
X295337500Y-169368502D01*
X302975997Y-177006999D02*
X319506999Y-177006999D01*
X295337500Y-169368502D02*
X302975997Y-177006999D01*
X319506999Y-177006999D02*
X321500000Y-179000000D01*
X283550000Y-179275000D02*
X294825000Y-168000000D01*
X220327500Y-161685000D02*
X220327500Y-166672500D01*
X220327500Y-166672500D02*
X219500000Y-167500000D01*
X203837499Y-161474999D02*
X219974999Y-161474999D01*
X202587500Y-160225000D02*
X203837499Y-161474999D01*
X200087500Y-168025000D02*
X199137501Y-168974999D01*
X199137501Y-168974999D02*
X199137501Y-170362499D01*
X199137501Y-170362499D02*
X191000000Y-178500000D01*
X81025000Y-187075000D02*
X82500000Y-185600000D01*
X82500000Y-185600000D02*
X82500000Y-181500000D01*
X190000000Y-185256250D02*
X190000000Y-181500000D01*
X188181250Y-187075000D02*
X190000000Y-185256250D01*
X231043750Y-187075000D02*
X232500000Y-185618750D01*
X232500000Y-185618750D02*
X232500000Y-181000000D01*
X88565000Y-82945000D02*
X88565000Y-91435000D01*
X88565000Y-91435000D02*
X86500000Y-93500000D01*
X88565000Y-91435000D02*
X97935000Y-91435000D01*
X98000000Y-93120000D02*
X98000000Y-91500000D01*
M02*
