M48
; DRILL file {KiCad 8.0.4} date 2024-08-17T18:21:38-0500
; FORMAT={-:-/ absolute / inch / decimal}
; #@! TF.CreationDate,2024-08-17T18:21:38-05:00
; #@! TF.GenerationSoftware,Kicad,Pcbnew,8.0.4
; #@! TF.FileFunction,NonPlated,1,2,NPTH
FMAT,2
INCH
; #@! TA.AperFunction,NonPlated,NPTH,ComponentDrill
T1C0.0670
; #@! TA.AperFunction,NonPlated,NPTH,ComponentDrill
T2C0.0748
; #@! TA.AperFunction,NonPlated,NPTH,ComponentDrill
T3C0.1181
; #@! TA.AperFunction,NonPlated,NPTH,ComponentDrill
T4C0.1200
; #@! TA.AperFunction,NonPlated,NPTH,ComponentDrill
T5C0.1570
%
G90
G05
T1
X3.1868Y-3.4656
X3.1868Y-4.2156
X3.1868Y-6.4656
X3.1868Y-7.2156
X3.2806Y-5.7156
X3.3743Y-4.9656
X3.5868Y-3.4656
X3.5868Y-4.2156
X3.5868Y-6.4656
X3.5868Y-7.2156
X3.6806Y-5.7156
X3.7743Y-4.9656
X3.9368Y-4.2156
X3.9368Y-7.2156
X4.0306Y-6.4656
X4.1243Y-3.4656
X4.3118Y-4.9656
X4.3368Y-4.2156
X4.3368Y-7.2156
X4.4306Y-6.4656
X4.4993Y-5.7156
X4.5243Y-3.4656
X4.6868Y-4.2156
X4.6868Y-7.2156
X4.7118Y-4.9656
X4.8743Y-3.4656
X4.8743Y-6.4656
X4.8993Y-5.7156
X5.0618Y-4.9656
X5.0868Y-4.2156
X5.0868Y-7.2156
X5.2493Y-5.7156
X5.2743Y-3.4656
X5.2743Y-6.4656
X5.4368Y-4.2156
X5.4368Y-7.2156
X5.4618Y-4.9656
X5.6243Y-3.4656
X5.6243Y-6.4656
X5.6493Y-5.7156
X5.8118Y-4.9656
X5.8368Y-4.2156
X5.8368Y-7.2156
X5.9993Y-5.7156
X6.0243Y-3.4656
X6.0243Y-6.4656
X6.1868Y-4.2156
X6.1868Y-7.2156
X6.2118Y-4.9656
X6.3743Y-3.4656
X6.3743Y-6.4656
X6.3993Y-5.7156
X6.5618Y-4.9656
X6.5868Y-4.2156
X6.5868Y-7.2156
X6.7493Y-5.7156
X6.7743Y-3.4656
X6.7743Y-6.4656
X6.9368Y-4.2156
X6.9618Y-4.9656
X7.1243Y-3.4656
X7.1243Y-6.4656
X7.1493Y-5.7156
X7.3118Y-4.9656
X7.3368Y-4.2156
X7.4056Y-7.2156
X7.4993Y-5.7156
X7.5243Y-3.4656
X7.5243Y-6.4656
X7.6868Y-4.2156
X7.7118Y-4.9656
X7.8056Y-7.2156
X7.8743Y-3.4656
X7.8743Y-6.4656
X7.8993Y-5.7156
X8.0618Y-4.9656
X8.0868Y-4.2156
X8.2493Y-5.7156
X8.2743Y-3.4656
X8.2743Y-6.4656
X8.4368Y-4.2156
X8.4618Y-4.9656
X8.6243Y-3.4656
X8.6243Y-6.4656
X8.6493Y-5.7156
X8.8118Y-4.9656
X8.8368Y-4.2156
X8.9993Y-5.7156
X9.0243Y-3.4656
X9.0243Y-6.4656
X9.0931Y-7.2156
X9.1868Y-4.2156
X9.2118Y-4.9656
X9.3743Y-3.4656
X9.3743Y-6.4656
X9.3993Y-5.7156
X9.4931Y-7.2156
X9.5618Y-4.9656
X9.5868Y-4.2156
X9.7493Y-5.7156
X9.7743Y-3.4656
X9.7743Y-6.4656
X9.9368Y-4.2156
X9.9618Y-4.9656
X10.1243Y-3.4656
X10.1243Y-6.4656
X10.1493Y-5.7156
X10.3118Y-4.9656
X10.3118Y-7.2156
X10.3368Y-4.2156
X10.4993Y-5.7156
X10.5243Y-3.4656
X10.5243Y-6.4656
X10.6868Y-4.2156
X10.7118Y-4.9656
X10.7118Y-7.2156
X10.8743Y-3.4656
X10.8743Y-6.4656
X10.8993Y-5.7156
X11.0618Y-4.9656
X11.0618Y-7.2156
X11.0868Y-4.2156
X11.2493Y-5.7156
X11.2743Y-3.4656
X11.2743Y-6.4656
X11.4368Y-4.2156
X11.4618Y-4.9656
X11.4618Y-7.2156
X11.6243Y-3.4656
X11.6243Y-6.4656
X11.6493Y-5.7156
X11.8118Y-4.9656
X11.8118Y-7.2156
X11.8368Y-4.2156
X11.9993Y-5.7156
X12.0243Y-3.4656
X12.0243Y-6.4656
X12.1868Y-4.2156
X12.2118Y-4.9656
X12.2118Y-7.2156
X12.3743Y-3.4656
X12.3993Y-5.7156
X12.4681Y-6.4656
X12.5618Y-4.9656
X12.5618Y-7.2156
X12.5868Y-4.2156
X12.7743Y-3.4656
X12.8681Y-6.4656
X12.9618Y-4.9656
X12.9618Y-7.2156
X13.0306Y-5.7156
X13.1243Y-4.2156
X13.2181Y-3.4656
X13.3118Y-4.9656
X13.3118Y-6.4656
X13.3118Y-7.2156
X13.4306Y-5.7156
X13.5243Y-4.2156
X13.6181Y-3.4656
X13.7118Y-4.9656
X13.7118Y-6.4656
X13.7118Y-7.2156
T2
X3.1703Y-3.4656
X3.1703Y-4.2156
X3.1703Y-6.4656
X3.1703Y-7.2156
X3.264Y-5.7156
X3.3578Y-4.9656
X3.6033Y-3.4656
X3.6033Y-4.2156
X3.6033Y-6.4656
X3.6033Y-7.2156
X3.6971Y-5.7156
X3.7908Y-4.9656
X3.9203Y-4.2156
X3.9203Y-7.2156
X4.014Y-6.4656
X4.1078Y-3.4656
X4.2953Y-4.9656
X4.3533Y-4.2156
X4.3533Y-7.2156
X4.4471Y-6.4656
X4.4828Y-5.7156
X4.5408Y-3.4656
X4.6703Y-4.2156
X4.6703Y-7.2156
X4.7283Y-4.9656
X4.8578Y-3.4656
X4.8578Y-6.4656
X4.9158Y-5.7156
X5.0453Y-4.9656
X5.1033Y-4.2156
X5.1033Y-7.2156
X5.2328Y-5.7156
X5.2908Y-3.4656
X5.2908Y-6.4656
X5.4203Y-4.2156
X5.4203Y-7.2156
X5.4783Y-4.9656
X5.6078Y-3.4656
X5.6078Y-6.4656
X5.6658Y-5.7156
X5.7953Y-4.9656
X5.8533Y-4.2156
X5.8533Y-7.2156
X5.9828Y-5.7156
X6.0408Y-3.4656
X6.0408Y-6.4656
X6.1703Y-4.2156
X6.1703Y-7.2156
X6.2283Y-4.9656
X6.3578Y-3.4656
X6.3578Y-6.4656
X6.4158Y-5.7156
X6.5453Y-4.9656
X6.6033Y-4.2156
X6.6033Y-7.2156
X6.7328Y-5.7156
X6.7908Y-3.4656
X6.7908Y-6.4656
X6.9203Y-4.2156
X6.9783Y-4.9656
X7.1078Y-3.4656
X7.1078Y-6.4656
X7.1658Y-5.7156
X7.2953Y-4.9656
X7.3533Y-4.2156
X7.389Y-7.2156
X7.4828Y-5.7156
X7.5408Y-3.4656
X7.5408Y-6.4656
X7.6703Y-4.2156
X7.7283Y-4.9656
X7.8221Y-7.2156
X7.8578Y-3.4656
X7.8578Y-6.4656
X7.9158Y-5.7156
X8.0453Y-4.9656
X8.1033Y-4.2156
X8.2328Y-5.7156
X8.2908Y-3.4656
X8.2908Y-6.4656
X8.4203Y-4.2156
X8.4783Y-4.9656
X8.6078Y-3.4656
X8.6078Y-6.4656
X8.6658Y-5.7156
X8.7953Y-4.9656
X8.8533Y-4.2156
X8.9828Y-5.7156
X9.0408Y-3.4656
X9.0408Y-6.4656
X9.0765Y-7.2156
X9.1703Y-4.2156
X9.2283Y-4.9656
X9.3578Y-3.4656
X9.3578Y-6.4656
X9.4158Y-5.7156
X9.5096Y-7.2156
X9.5453Y-4.9656
X9.6033Y-4.2156
X9.7328Y-5.7156
X9.7908Y-3.4656
X9.7908Y-6.4656
X9.9203Y-4.2156
X9.9783Y-4.9656
X10.1078Y-3.4656
X10.1078Y-6.4656
X10.1658Y-5.7156
X10.2953Y-4.9656
X10.2953Y-7.2156
X10.3533Y-4.2156
X10.4828Y-5.7156
X10.5408Y-3.4656
X10.5408Y-6.4656
X10.6703Y-4.2156
X10.7283Y-4.9656
X10.7283Y-7.2156
X10.8578Y-3.4656
X10.8578Y-6.4656
X10.9158Y-5.7156
X11.0453Y-4.9656
X11.0453Y-7.2156
X11.1033Y-4.2156
X11.2328Y-5.7156
X11.2908Y-3.4656
X11.2908Y-6.4656
X11.4203Y-4.2156
X11.4783Y-4.9656
X11.4783Y-7.2156
X11.6078Y-3.4656
X11.6078Y-6.4656
X11.6658Y-5.7156
X11.7953Y-4.9656
X11.7953Y-7.2156
X11.8533Y-4.2156
X11.9828Y-5.7156
X12.0408Y-3.4656
X12.0408Y-6.4656
X12.1703Y-4.2156
X12.2283Y-4.9656
X12.2283Y-7.2156
X12.3578Y-3.4656
X12.4158Y-5.7156
X12.4515Y-6.4656
X12.5453Y-4.9656
X12.5453Y-7.2156
X12.6033Y-4.2156
X12.7908Y-3.4656
X12.8846Y-6.4656
X12.9783Y-4.9656
X12.9783Y-7.2156
X13.014Y-5.7156
X13.1078Y-4.2156
X13.2015Y-3.4656
X13.2953Y-4.9656
X13.2953Y-6.4656
X13.2953Y-7.2156
X13.4471Y-5.7156
X13.5408Y-4.2156
X13.6346Y-3.4656
X13.7283Y-4.9656
X13.7283Y-6.4656
X13.7283Y-7.2156
T3
X3.8386Y-2.9724
X3.8386Y-7.9724
X6.8701Y-2.9724
X6.8701Y-7.9724
X10.0394Y-2.9724
X10.0394Y-7.9724
X13.0512Y-2.9724
X13.0512Y-7.9724
T4
X7.1356Y-6.9406
X8.0756Y-6.9406
X8.8231Y-6.9406
X9.7631Y-6.9406
T5
X3.3868Y-3.4656
X3.3868Y-4.2156
X3.3868Y-6.4656
X3.3868Y-7.2156
X3.4806Y-5.7156
X3.5743Y-4.9656
X4.1368Y-4.2156
X4.1368Y-7.2156
X4.2306Y-6.4656
X4.3243Y-3.4656
X4.5118Y-4.9656
X4.6993Y-5.7156
X4.8868Y-4.2156
X4.8868Y-7.2156
X5.0743Y-3.4656
X5.0743Y-6.4656
X5.2618Y-4.9656
X5.4493Y-5.7156
X5.6368Y-4.2156
X5.6368Y-7.2156
X5.8243Y-3.4656
X5.8243Y-6.4656
X6.0118Y-4.9656
X6.1993Y-5.7156
X6.3868Y-4.2156
X6.3868Y-7.2156
X6.5743Y-3.4656
X6.5743Y-6.4656
X6.7618Y-4.9656
X6.9493Y-5.7156
X7.1356Y-7.5406
X7.1368Y-4.2156
X7.3243Y-3.4656
X7.3243Y-6.4656
X7.5118Y-4.9656
X7.6056Y-7.2156
X7.6993Y-5.7156
X7.8868Y-4.2156
X8.0743Y-3.4656
X8.0743Y-6.4656
X8.0756Y-7.5406
X8.2618Y-4.9656
X8.4493Y-5.7156
X8.6368Y-4.2156
X8.8231Y-7.5406
X8.8243Y-3.4656
X8.8243Y-6.4656
X9.0118Y-4.9656
X9.1993Y-5.7156
X9.2931Y-7.2156
X9.3868Y-4.2156
X9.5743Y-3.4656
X9.5743Y-6.4656
X9.7618Y-4.9656
X9.7631Y-7.5406
X9.9493Y-5.7156
X10.1368Y-4.2156
X10.3243Y-3.4656
X10.3243Y-6.4656
X10.5118Y-4.9656
X10.5118Y-7.2156
X10.6993Y-5.7156
X10.8868Y-4.2156
X11.0743Y-3.4656
X11.0743Y-6.4656
X11.2618Y-4.9656
X11.2618Y-7.2156
X11.4493Y-5.7156
X11.6368Y-4.2156
X11.8243Y-3.4656
X11.8243Y-6.4656
X12.0118Y-4.9656
X12.0118Y-7.2156
X12.1993Y-5.7156
X12.3868Y-4.2156
X12.5743Y-3.4656
X12.6681Y-6.4656
X12.7618Y-4.9656
X12.7618Y-7.2156
X13.2306Y-5.7156
X13.3243Y-4.2156
X13.4181Y-3.4656
X13.5118Y-4.9656
X13.5118Y-6.4656
X13.5118Y-7.2156
M30
