M48
; DRILL file {KiCad (5.1.2)-1} date 6/2/2019 12:42:55 AM
; FORMAT={-:-/ absolute / inch / decimal}
; #@! TF.CreationDate,2019-06-02T00:42:55-05:00
; #@! TF.GenerationSoftware,Kicad,Pcbnew,(5.1.2)-1
FMAT,2
INCH
T1C0.0157
T2C0.0276
T3C0.0300
T4C0.0315
T5C0.0472
T6C0.0590
T7C0.0591
T8C0.0670
T9C0.0748
T10C0.1181
T11C0.1200
T12C0.1570
%
G90
G05
T1
X5.8465Y-4.6063
X5.8858Y-3.622
X5.9646Y-3.622
X6.2971Y-3.6593
X6.7257Y-3.9305
X6.7323Y-4.1142
X7.0326Y-3.8976
X7.2244Y-4.1339
X7.5197Y-4.7047
X7.5591Y-4.2913
X7.7165Y-3.1496
X7.7176Y-3.8349
X7.7362Y-3.9567
X7.7428Y-6.7782
X7.7953Y-3.0709
X7.8241Y-3.0734
X7.874Y-3.2677
X7.9134Y-3.1299
X8.0906Y-2.9134
X8.2066Y-3.0103
X8.4252Y-3.4252
X8.5039Y-3.248
X8.563Y-3.0887
X8.6024Y-3.2283
X8.7992Y-4.685
X8.8582Y-3.8769
X8.8629Y-3.8496
X8.9173Y-3.8189
X9.0956Y-3.7959
X9.114Y-6.7609
X9.147Y-3.8451
X9.1962Y-3.8943
X10.6102Y-6.063
X11.6929Y-3.7992
X12.7165Y-5.4134
T2
X8.878Y-3.0118
X8.9173Y-2.9331
X8.9567Y-3.0118
X8.9961Y-2.9331
X9.0354Y-3.0118
X9.0748Y-2.9331
X9.1142Y-3.0118
X9.1535Y-2.9331
X9.1929Y-3.0118
T3
X8.8386Y-2.9331
T4
X3.8583Y-3.3661
X3.8583Y-3.6661
X7.4606Y-2.9331
X7.5Y-3.0118
X7.5394Y-2.9331
X7.5787Y-3.0118
X7.6181Y-2.9331
X7.6575Y-3.0118
X7.6969Y-2.9331
X7.7362Y-3.0118
X7.7756Y-2.9331
X7.815Y-3.0118
X7.8543Y-2.9331
X7.8937Y-3.0118
X7.9331Y-2.9331
X7.9724Y-3.0118
X8.0118Y-2.9331
X8.0512Y-3.0118
T5
X4.5025Y-5.8652
X4.6993Y-5.9478
X3.19Y-7.3652
X3.3868Y-7.4478
X3.94Y-7.3652
X4.1368Y-7.4478
X5.6275Y-3.6152
X5.8243Y-3.6978
X11.065Y-5.1152
X11.2618Y-5.1978
X7.315Y-5.1152
X7.5118Y-5.1978
X13.1275Y-4.3652
X13.3243Y-4.4478
X8.6275Y-3.6152
X8.8243Y-3.6978
X12.0025Y-5.8652
X12.1993Y-5.9478
X9.7525Y-5.8652
X9.9493Y-5.9478
X9.0962Y-7.3652
X9.2931Y-7.4478
X7.69Y-4.3652
X7.8868Y-4.4478
X10.69Y-4.3652
X10.8868Y-4.4478
X9.565Y-5.1152
X9.7618Y-5.1978
X12.19Y-4.3652
X12.3868Y-4.4478
X8.6275Y-6.6152
X8.8243Y-6.6978
X5.2525Y-5.8652
X5.4493Y-5.9478
X11.815Y-5.1152
X12.0118Y-5.1978
X5.065Y-5.1152
X5.2618Y-5.1978
X10.1275Y-6.6152
X10.3243Y-6.6978
X8.2525Y-5.8652
X8.4493Y-5.9478
X9.19Y-4.3652
X9.3868Y-4.4478
X4.0337Y-6.6152
X4.2306Y-6.6978
X6.565Y-5.1152
X6.7618Y-5.1978
X8.815Y-5.1152
X9.0118Y-5.1978
X12.565Y-5.1152
X12.7618Y-5.1978
X4.1275Y-3.6152
X4.3243Y-3.6978
X12.3775Y-3.6152
X12.5743Y-3.6978
X6.3775Y-3.6152
X6.5743Y-3.6978
X10.8775Y-6.6152
X11.0743Y-6.6978
X12.4712Y-6.6152
X12.6681Y-6.6978
X13.315Y-5.1152
X13.5118Y-5.1978
X9.3775Y-3.6152
X9.5743Y-3.6978
X3.19Y-3.6152
X3.3868Y-3.6978
X6.19Y-4.3652
X6.3868Y-4.4478
X11.2525Y-5.8652
X11.4493Y-5.9478
X11.6275Y-6.6152
X11.8243Y-6.6978
X10.5025Y-5.8652
X10.6993Y-5.9478
X6.0025Y-5.8652
X6.1993Y-5.9478
X9.0025Y-5.8652
X9.1993Y-5.9478
X13.315Y-6.6152
X13.5118Y-6.6978
X9.94Y-4.3652
X10.1368Y-4.4478
X13.2212Y-3.6152
X13.4181Y-3.6978
X5.6275Y-6.6152
X5.8243Y-6.6978
X5.44Y-7.3652
X5.6368Y-7.4478
X6.19Y-7.3652
X6.3868Y-7.4478
X7.4087Y-7.3652
X7.6056Y-7.4478
X13.315Y-7.3652
X13.5118Y-7.4478
X12.565Y-7.3652
X12.7618Y-7.4478
X11.6275Y-3.6152
X11.8243Y-3.6978
X7.5025Y-5.8652
X7.6993Y-5.9478
X11.815Y-7.3652
X12.0118Y-7.4478
X7.1275Y-3.6152
X7.3243Y-3.6978
X10.1275Y-3.6152
X10.3243Y-3.6978
X5.44Y-4.3652
X5.6368Y-4.4478
X6.3775Y-6.6152
X6.5743Y-6.6978
X3.19Y-6.6152
X3.3868Y-6.6978
X11.065Y-7.3652
X11.2618Y-7.4478
X4.8775Y-3.6152
X5.0743Y-3.6978
X3.94Y-4.3652
X4.1368Y-4.4478
X10.8775Y-3.6152
X11.0743Y-3.6978
X7.8775Y-6.6152
X8.0743Y-6.6978
X6.94Y-4.3652
X7.1368Y-4.4478
X4.69Y-7.3652
X4.8868Y-7.4478
X10.315Y-5.1152
X10.5118Y-5.1978
X8.44Y-4.3652
X8.6368Y-4.4478
X4.8775Y-6.6152
X5.0743Y-6.6978
X8.065Y-5.1152
X8.2618Y-5.1978
X11.44Y-4.3652
X11.6368Y-4.4478
X13.0337Y-5.8652
X13.2306Y-5.9478
X9.3775Y-6.6152
X9.5743Y-6.6978
X3.3775Y-5.1152
X3.5743Y-5.1978
X10.315Y-7.3652
X10.5118Y-7.4478
X7.1275Y-6.6152
X7.3243Y-6.6978
X6.7525Y-5.8652
X6.9493Y-5.9478
X3.19Y-4.3652
X3.3868Y-4.4478
X5.815Y-5.1152
X6.0118Y-5.1978
X7.8775Y-3.6152
X8.0743Y-3.6978
X4.315Y-5.1152
X4.5118Y-5.1978
X4.69Y-4.3652
X4.8868Y-4.4478
X3.2837Y-5.8652
X3.4806Y-5.9478
T6
X9.0493Y-5.6156
X9.2993Y-5.5156
X13.3618Y-6.3656
X13.6118Y-6.2656
X9.9868Y-4.1156
X10.2368Y-4.0156
X13.2681Y-3.3656
X13.5181Y-3.2656
X5.6743Y-6.3656
X5.9243Y-6.2656
X5.4868Y-7.1156
X5.7368Y-7.0156
X6.2368Y-7.1156
X6.4868Y-7.0156
X7.4556Y-7.1156
X7.7056Y-7.0156
X13.3618Y-7.1156
X13.6118Y-7.0156
X12.6118Y-7.1156
X12.8618Y-7.0156
X11.6743Y-3.3656
X11.9243Y-3.2656
X7.5493Y-5.6156
X7.7993Y-5.5156
X11.8618Y-7.1156
X12.1118Y-7.0156
X7.1743Y-3.3656
X7.4243Y-3.2656
X10.1743Y-3.3656
X10.4243Y-3.2656
X5.4868Y-4.1156
X5.7368Y-4.0156
X6.4243Y-6.3656
X6.6743Y-6.2656
X3.2368Y-6.3656
X3.4868Y-6.2656
X11.1118Y-7.1156
X11.3618Y-7.0156
X4.9243Y-3.3656
X5.1743Y-3.2656
X3.9868Y-4.1156
X4.2368Y-4.0156
X10.9243Y-3.3656
X11.1743Y-3.2656
X7.9243Y-6.3656
X8.1743Y-6.2656
X6.9868Y-4.1156
X7.2368Y-4.0156
X4.7368Y-7.1156
X4.9868Y-7.0156
X10.3618Y-4.8656
X10.6118Y-4.7656
X8.4868Y-4.1156
X8.7368Y-4.0156
X4.9243Y-6.3656
X5.1743Y-6.2656
X8.1118Y-4.8656
X8.3618Y-4.7656
X11.4868Y-4.1156
X11.7368Y-4.0156
X13.0806Y-5.6156
X13.3306Y-5.5156
X9.4243Y-6.3656
X9.6743Y-6.2656
X3.4243Y-4.8656
X3.6743Y-4.7656
X10.3618Y-7.1156
X10.6118Y-7.0156
X7.1743Y-6.3656
X7.4243Y-6.2656
X6.7993Y-5.6156
X7.0493Y-5.5156
X3.2368Y-4.1156
X3.4868Y-4.0156
X5.8618Y-4.8656
X6.1118Y-4.7656
X7.9243Y-3.3656
X8.1743Y-3.2656
X4.3618Y-4.8656
X4.6118Y-4.7656
X4.7368Y-4.1156
X4.9868Y-4.0156
X3.3306Y-5.6156
X3.5806Y-5.5156
X4.5493Y-5.6156
X4.7993Y-5.5156
X3.2368Y-7.1156
X3.4868Y-7.0156
X3.9868Y-7.1156
X4.2368Y-7.0156
X5.6743Y-3.3656
X5.9243Y-3.2656
X11.1118Y-4.8656
X11.3618Y-4.7656
X7.3618Y-4.8656
X7.6118Y-4.7656
X13.1743Y-4.1156
X13.4243Y-4.0156
X8.6743Y-3.3656
X8.9243Y-3.2656
X12.0493Y-5.6156
X12.2993Y-5.5156
X9.7993Y-5.6156
X10.0493Y-5.5156
X9.1431Y-7.1156
X9.3931Y-7.0156
X7.7368Y-4.1156
X7.9868Y-4.0156
X10.7368Y-4.1156
X10.9868Y-4.0156
X9.6118Y-4.8656
X9.8618Y-4.7656
X12.2368Y-4.1156
X12.4868Y-4.0156
X8.6743Y-6.3656
X8.9243Y-6.2656
X5.2993Y-5.6156
X5.5493Y-5.5156
X11.8618Y-4.8656
X12.1118Y-4.7656
X5.1118Y-4.8656
X5.3618Y-4.7656
X10.1743Y-6.3656
X10.4243Y-6.2656
X8.2993Y-5.6156
X8.5493Y-5.5156
X9.2368Y-4.1156
X9.4868Y-4.0156
X4.0806Y-6.3656
X4.3306Y-6.2656
X6.6118Y-4.8656
X6.8618Y-4.7656
X8.8618Y-4.8656
X9.1118Y-4.7656
X12.6118Y-4.8656
X12.8618Y-4.7656
X4.1743Y-3.3656
X4.4243Y-3.2656
X12.4243Y-3.3656
X12.6743Y-3.2656
X6.4243Y-3.3656
X6.6743Y-3.2656
X10.9243Y-6.3656
X11.1743Y-6.2656
X12.5181Y-6.3656
X12.7681Y-6.2656
X13.3618Y-4.8656
X13.6118Y-4.7656
X9.4243Y-3.3656
X9.6743Y-3.2656
X3.2368Y-3.3656
X3.4868Y-3.2656
X6.2368Y-4.1156
X6.4868Y-4.0156
X11.2993Y-5.6156
X11.5493Y-5.5156
X11.6743Y-6.3656
X11.9243Y-6.2656
X10.5493Y-5.6156
X10.7993Y-5.5156
X6.0493Y-5.6156
X6.2993Y-5.5156
T7
X9.1009Y-5.5581
X9.2977Y-5.5384
X13.4134Y-6.3081
X13.6102Y-6.2884
X10.0384Y-4.0581
X10.2352Y-4.0384
X13.3196Y-3.3081
X13.5165Y-3.2884
X5.7259Y-6.3081
X5.9227Y-6.2884
X5.5384Y-7.0581
X5.7352Y-7.0384
X6.2884Y-7.0581
X6.4852Y-7.0384
X7.5071Y-7.0581
X7.704Y-7.0384
X13.4134Y-7.0581
X13.6102Y-7.0384
X12.6634Y-7.0581
X12.8602Y-7.0384
X11.7259Y-3.3081
X11.9227Y-3.2884
X7.6009Y-5.5581
X7.7977Y-5.5384
X11.9134Y-7.0581
X12.1102Y-7.0384
X7.2259Y-3.3081
X7.4227Y-3.2884
X10.2259Y-3.3081
X10.4227Y-3.2884
X5.5384Y-4.0581
X5.7352Y-4.0384
X6.4759Y-6.3081
X6.6727Y-6.2884
X3.2884Y-6.3081
X3.4852Y-6.2884
X11.1634Y-7.0581
X11.3602Y-7.0384
X4.9759Y-3.3081
X5.1727Y-3.2884
X4.0384Y-4.0581
X4.2352Y-4.0384
X10.9759Y-3.3081
X11.1727Y-3.2884
X7.9759Y-6.3081
X8.1727Y-6.2884
X7.0384Y-4.0581
X7.2352Y-4.0384
X4.7884Y-7.0581
X4.9852Y-7.0384
X10.4134Y-4.8081
X10.6102Y-4.7884
X8.5384Y-4.0581
X8.7352Y-4.0384
X4.9759Y-6.3081
X5.1727Y-6.2884
X8.1634Y-4.8081
X8.3602Y-4.7884
X11.5384Y-4.0581
X11.7352Y-4.0384
X13.1321Y-5.5581
X13.329Y-5.5384
X9.4759Y-6.3081
X9.6727Y-6.2884
X3.4759Y-4.8081
X3.6727Y-4.7884
X10.4134Y-7.0581
X10.6102Y-7.0384
X7.2259Y-6.3081
X7.4227Y-6.2884
X6.8509Y-5.5581
X7.0477Y-5.5384
X3.2884Y-4.0581
X3.4852Y-4.0384
X5.9134Y-4.8081
X6.1102Y-4.7884
X7.9759Y-3.3081
X8.1727Y-3.2884
X4.4134Y-4.8081
X4.6102Y-4.7884
X4.7884Y-4.0581
X4.9852Y-4.0384
X3.3821Y-5.5581
X3.579Y-5.5384
X4.6009Y-5.5581
X4.7977Y-5.5384
X3.2884Y-7.0581
X3.4852Y-7.0384
X4.0384Y-7.0581
X4.2352Y-7.0384
X5.7259Y-3.3081
X5.9227Y-3.2884
X11.1634Y-4.8081
X11.3602Y-4.7884
X7.4134Y-4.8081
X7.6102Y-4.7884
X13.2259Y-4.0581
X13.4227Y-4.0384
X8.7259Y-3.3081
X8.9227Y-3.2884
X12.1009Y-5.5581
X12.2977Y-5.5384
X9.8509Y-5.5581
X10.0477Y-5.5384
X9.1946Y-7.0581
X9.3915Y-7.0384
X7.7884Y-4.0581
X7.9852Y-4.0384
X10.7884Y-4.0581
X10.9852Y-4.0384
X9.6634Y-4.8081
X9.8602Y-4.7884
X12.2884Y-4.0581
X12.4852Y-4.0384
X8.7259Y-6.3081
X8.9227Y-6.2884
X5.3509Y-5.5581
X5.5477Y-5.5384
X11.9134Y-4.8081
X12.1102Y-4.7884
X5.1634Y-4.8081
X5.3602Y-4.7884
X10.2259Y-6.3081
X10.4227Y-6.2884
X8.3509Y-5.5581
X8.5477Y-5.5384
X9.2884Y-4.0581
X9.4852Y-4.0384
X4.1321Y-6.3081
X4.329Y-6.2884
X6.6634Y-4.8081
X6.8602Y-4.7884
X8.9134Y-4.8081
X9.1102Y-4.7884
X12.6634Y-4.8081
X12.8602Y-4.7884
X4.2259Y-3.3081
X4.4227Y-3.2884
X12.4759Y-3.3081
X12.6727Y-3.2884
X6.4759Y-3.3081
X6.6727Y-3.2884
X10.9759Y-6.3081
X11.1727Y-6.2884
X12.5696Y-6.3081
X12.7665Y-6.2884
X13.4134Y-4.8081
X13.6102Y-4.7884
X9.4759Y-3.3081
X9.6727Y-3.2884
X3.2884Y-3.3081
X3.4852Y-3.2884
X6.2884Y-4.0581
X6.4852Y-4.0384
X11.3509Y-5.5581
X11.5477Y-5.5384
X11.7259Y-6.3081
X11.9227Y-6.2884
X10.6009Y-5.5581
X10.7977Y-5.5384
X6.1009Y-5.5581
X6.2977Y-5.5384
T8
X7.4993Y-5.7156
X7.8993Y-5.7156
X11.8118Y-7.2156
X12.2118Y-7.2156
X7.1243Y-3.4656
X7.5243Y-3.4656
X10.1243Y-3.4656
X10.5243Y-3.4656
X5.4368Y-4.2156
X5.8368Y-4.2156
X6.3743Y-6.4656
X6.7743Y-6.4656
X3.1868Y-6.4656
X3.5868Y-6.4656
X11.0618Y-7.2156
X11.4618Y-7.2156
X4.8743Y-3.4656
X5.2743Y-3.4656
X3.9368Y-4.2156
X4.3368Y-4.2156
X10.8743Y-3.4656
X11.2743Y-3.4656
X7.8743Y-6.4656
X8.2743Y-6.4656
X6.9368Y-4.2156
X7.3368Y-4.2156
X4.6868Y-7.2156
X5.0868Y-7.2156
X10.3118Y-4.9656
X10.7118Y-4.9656
X8.4368Y-4.2156
X8.8368Y-4.2156
X4.8743Y-6.4656
X5.2743Y-6.4656
X8.0618Y-4.9656
X8.4618Y-4.9656
X11.4368Y-4.2156
X11.8368Y-4.2156
X13.0306Y-5.7156
X13.4306Y-5.7156
X9.3743Y-6.4656
X9.7743Y-6.4656
X3.3743Y-4.9656
X3.7743Y-4.9656
X10.3118Y-7.2156
X10.7118Y-7.2156
X7.1243Y-6.4656
X7.5243Y-6.4656
X6.7493Y-5.7156
X7.1493Y-5.7156
X3.1868Y-4.2156
X3.5868Y-4.2156
X5.8118Y-4.9656
X6.2118Y-4.9656
X7.8743Y-3.4656
X8.2743Y-3.4656
X4.3118Y-4.9656
X4.7118Y-4.9656
X4.6868Y-4.2156
X5.0868Y-4.2156
X3.2806Y-5.7156
X3.6806Y-5.7156
X4.4993Y-5.7156
X4.8993Y-5.7156
X3.1868Y-7.2156
X3.5868Y-7.2156
X3.9368Y-7.2156
X4.3368Y-7.2156
X5.6243Y-3.4656
X6.0243Y-3.4656
X11.0618Y-4.9656
X11.4618Y-4.9656
X7.3118Y-4.9656
X7.7118Y-4.9656
X13.1243Y-4.2156
X13.5243Y-4.2156
X8.6243Y-3.4656
X9.0243Y-3.4656
X11.9993Y-5.7156
X12.3993Y-5.7156
X9.7493Y-5.7156
X10.1493Y-5.7156
X9.0931Y-7.2156
X9.4931Y-7.2156
X7.6868Y-4.2156
X8.0868Y-4.2156
X10.6868Y-4.2156
X11.0868Y-4.2156
X9.5618Y-4.9656
X9.9618Y-4.9656
X12.1868Y-4.2156
X12.5868Y-4.2156
X8.6243Y-6.4656
X9.0243Y-6.4656
X5.2493Y-5.7156
X5.6493Y-5.7156
X11.8118Y-4.9656
X12.2118Y-4.9656
X5.0618Y-4.9656
X5.4618Y-4.9656
X10.1243Y-6.4656
X10.5243Y-6.4656
X8.2493Y-5.7156
X8.6493Y-5.7156
X9.1868Y-4.2156
X9.5868Y-4.2156
X4.0306Y-6.4656
X4.4306Y-6.4656
X6.5618Y-4.9656
X6.9618Y-4.9656
X8.8118Y-4.9656
X9.2118Y-4.9656
X12.5618Y-4.9656
X12.9618Y-4.9656
X4.1243Y-3.4656
X4.5243Y-3.4656
X12.3743Y-3.4656
X12.7743Y-3.4656
X6.3743Y-3.4656
X6.7743Y-3.4656
X10.8743Y-6.4656
X11.2743Y-6.4656
X12.4681Y-6.4656
X12.8681Y-6.4656
X13.3118Y-4.9656
X13.7118Y-4.9656
X9.3743Y-3.4656
X9.7743Y-3.4656
X3.1868Y-3.4656
X3.5868Y-3.4656
X6.1868Y-4.2156
X6.5868Y-4.2156
X11.2493Y-5.7156
X11.6493Y-5.7156
X11.6243Y-6.4656
X12.0243Y-6.4656
X10.4993Y-5.7156
X10.8993Y-5.7156
X5.9993Y-5.7156
X6.3993Y-5.7156
X8.9993Y-5.7156
X9.3993Y-5.7156
X13.3118Y-6.4656
X13.7118Y-6.4656
X9.9368Y-4.2156
X10.3368Y-4.2156
X13.2181Y-3.4656
X13.6181Y-3.4656
X5.6243Y-6.4656
X6.0243Y-6.4656
X5.4368Y-7.2156
X5.8368Y-7.2156
X6.1868Y-7.2156
X6.5868Y-7.2156
X7.4056Y-7.2156
X7.8056Y-7.2156
X13.3118Y-7.2156
X13.7118Y-7.2156
X12.5618Y-7.2156
X12.9618Y-7.2156
X11.6243Y-3.4656
X12.0243Y-3.4656
T9
X11.6078Y-3.4656
X12.0408Y-3.4656
X7.4828Y-5.7156
X7.9158Y-5.7156
X11.7953Y-7.2156
X12.2283Y-7.2156
X7.1078Y-3.4656
X7.5408Y-3.4656
X10.1078Y-3.4656
X10.5408Y-3.4656
X5.4203Y-4.2156
X5.8533Y-4.2156
X6.3578Y-6.4656
X6.7908Y-6.4656
X3.1703Y-6.4656
X3.6033Y-6.4656
X11.0453Y-7.2156
X11.4783Y-7.2156
X4.8578Y-3.4656
X5.2908Y-3.4656
X3.9203Y-4.2156
X4.3533Y-4.2156
X10.8578Y-3.4656
X11.2908Y-3.4656
X7.8578Y-6.4656
X8.2908Y-6.4656
X6.9203Y-4.2156
X7.3533Y-4.2156
X4.6703Y-7.2156
X5.1033Y-7.2156
X10.2953Y-4.9656
X10.7283Y-4.9656
X8.4203Y-4.2156
X8.8533Y-4.2156
X4.8578Y-6.4656
X5.2908Y-6.4656
X8.0453Y-4.9656
X8.4783Y-4.9656
X11.4203Y-4.2156
X11.8533Y-4.2156
X13.014Y-5.7156
X13.4471Y-5.7156
X9.3578Y-6.4656
X9.7908Y-6.4656
X3.3578Y-4.9656
X3.7908Y-4.9656
X10.2953Y-7.2156
X10.7283Y-7.2156
X7.1078Y-6.4656
X7.5408Y-6.4656
X6.7328Y-5.7156
X7.1658Y-5.7156
X3.1703Y-4.2156
X3.6033Y-4.2156
X5.7953Y-4.9656
X6.2283Y-4.9656
X7.8578Y-3.4656
X8.2908Y-3.4656
X4.2953Y-4.9656
X4.7283Y-4.9656
X4.6703Y-4.2156
X5.1033Y-4.2156
X3.264Y-5.7156
X3.6971Y-5.7156
X4.4828Y-5.7156
X4.9158Y-5.7156
X3.1703Y-7.2156
X3.6033Y-7.2156
X3.9203Y-7.2156
X4.3533Y-7.2156
X5.6078Y-3.4656
X6.0408Y-3.4656
X11.0453Y-4.9656
X11.4783Y-4.9656
X7.2953Y-4.9656
X7.7283Y-4.9656
X13.1078Y-4.2156
X13.5408Y-4.2156
X8.6078Y-3.4656
X9.0408Y-3.4656
X11.9828Y-5.7156
X12.4158Y-5.7156
X9.7328Y-5.7156
X10.1658Y-5.7156
X9.0765Y-7.2156
X9.5096Y-7.2156
X7.6703Y-4.2156
X8.1033Y-4.2156
X10.6703Y-4.2156
X11.1033Y-4.2156
X9.5453Y-4.9656
X9.9783Y-4.9656
X12.1703Y-4.2156
X12.6033Y-4.2156
X8.6078Y-6.4656
X9.0408Y-6.4656
X5.2328Y-5.7156
X5.6658Y-5.7156
X11.7953Y-4.9656
X12.2283Y-4.9656
X5.0453Y-4.9656
X5.4783Y-4.9656
X10.1078Y-6.4656
X10.5408Y-6.4656
X8.2328Y-5.7156
X8.6658Y-5.7156
X9.1703Y-4.2156
X9.6033Y-4.2156
X4.014Y-6.4656
X4.4471Y-6.4656
X6.5453Y-4.9656
X6.9783Y-4.9656
X8.7953Y-4.9656
X9.2283Y-4.9656
X12.5453Y-4.9656
X12.9783Y-4.9656
X4.1078Y-3.4656
X4.5408Y-3.4656
X12.3578Y-3.4656
X12.7908Y-3.4656
X6.3578Y-3.4656
X6.7908Y-3.4656
X10.8578Y-6.4656
X11.2908Y-6.4656
X12.4515Y-6.4656
X12.8846Y-6.4656
X13.2953Y-4.9656
X13.7283Y-4.9656
X9.3578Y-3.4656
X9.7908Y-3.4656
X3.1703Y-3.4656
X3.6033Y-3.4656
X6.1703Y-4.2156
X6.6033Y-4.2156
X11.2328Y-5.7156
X11.6658Y-5.7156
X11.6078Y-6.4656
X12.0408Y-6.4656
X10.4828Y-5.7156
X10.9158Y-5.7156
X5.9828Y-5.7156
X6.4158Y-5.7156
X8.9828Y-5.7156
X9.4158Y-5.7156
X13.2953Y-6.4656
X13.7283Y-6.4656
X9.9203Y-4.2156
X10.3533Y-4.2156
X13.2015Y-3.4656
X13.6346Y-3.4656
X5.6078Y-6.4656
X6.0408Y-6.4656
X5.4203Y-7.2156
X5.8533Y-7.2156
X6.1703Y-7.2156
X6.6033Y-7.2156
X7.389Y-7.2156
X7.8221Y-7.2156
X13.2953Y-7.2156
X13.7283Y-7.2156
X12.5453Y-7.2156
X12.9783Y-7.2156
T10
X13.0512Y-2.9724
X6.8701Y-7.9724
X10.0394Y-2.9724
X3.8386Y-7.9724
X13.0512Y-7.9724
X6.8701Y-2.9724
X10.0394Y-7.9724
X3.8386Y-2.9724
T11
X8.8231Y-6.9406
X9.7631Y-6.9406
X7.1356Y-6.9406
X8.0756Y-6.9406
T12
X6.1993Y-5.7156
X9.1993Y-5.7156
X13.5118Y-6.4656
X10.1368Y-4.2156
X13.4181Y-3.4656
X5.8243Y-6.4656
X5.6368Y-7.2156
X6.3868Y-7.2156
X7.6056Y-7.2156
X13.5118Y-7.2156
X12.7618Y-7.2156
X11.8243Y-3.4656
X7.6993Y-5.7156
X12.0118Y-7.2156
X7.3243Y-3.4656
X10.3243Y-3.4656
X5.6368Y-4.2156
X6.5743Y-6.4656
X3.3868Y-6.4656
X11.2618Y-7.2156
X5.0743Y-3.4656
X4.1368Y-4.2156
X11.0743Y-3.4656
X8.8231Y-7.5406
X9.7631Y-7.5406
X8.0743Y-6.4656
X7.1368Y-4.2156
X4.8868Y-7.2156
X10.5118Y-4.9656
X8.6368Y-4.2156
X5.0743Y-6.4656
X8.2618Y-4.9656
X11.6368Y-4.2156
X13.2306Y-5.7156
X9.5743Y-6.4656
X3.5743Y-4.9656
X10.5118Y-7.2156
X7.3243Y-6.4656
X6.9493Y-5.7156
X3.3868Y-4.2156
X6.0118Y-4.9656
X8.0743Y-3.4656
X4.5118Y-4.9656
X4.8868Y-4.2156
X3.4806Y-5.7156
X4.6993Y-5.7156
X3.3868Y-7.2156
X4.1368Y-7.2156
X5.8243Y-3.4656
X11.2618Y-4.9656
X7.5118Y-4.9656
X7.1356Y-7.5406
X8.0756Y-7.5406
X13.3243Y-4.2156
X8.8243Y-3.4656
X12.1993Y-5.7156
X9.9493Y-5.7156
X9.2931Y-7.2156
X7.8868Y-4.2156
X10.8868Y-4.2156
X9.7618Y-4.9656
X12.3868Y-4.2156
X8.8243Y-6.4656
X5.4493Y-5.7156
X12.0118Y-4.9656
X5.2618Y-4.9656
X10.3243Y-6.4656
X8.4493Y-5.7156
X9.3868Y-4.2156
X4.2306Y-6.4656
X6.7618Y-4.9656
X9.0118Y-4.9656
X12.7618Y-4.9656
X4.3243Y-3.4656
X12.5743Y-3.4656
X6.5743Y-3.4656
X11.0743Y-6.4656
X12.6681Y-6.4656
X13.5118Y-4.9656
X9.5743Y-3.4656
X3.3868Y-3.4656
X6.3868Y-4.2156
X11.4493Y-5.7156
X11.8243Y-6.4656
X10.6993Y-5.7156
T0
M30
