G04 #@! TF.GenerationSoftware,KiCad,Pcbnew,(5.1.2)-1*
G04 #@! TF.CreationDate,2019-06-02T00:42:49-05:00*
G04 #@! TF.ProjectId,qwerty,71776572-7479-42e6-9b69-6361645f7063,C*
G04 #@! TF.SameCoordinates,Original*
G04 #@! TF.FileFunction,Copper,L1,Top*
G04 #@! TF.FilePolarity,Positive*
%FSLAX46Y46*%
G04 Gerber Fmt 4.6, Leading zero omitted, Abs format (unit mm)*
G04 Created by KiCad (PCBNEW (5.1.2)-1) date 2019-06-02 00:42:49*
%MOMM*%
%LPD*%
G04 APERTURE LIST*
%ADD10C,1.900000*%
%ADD11C,2.500000*%
%ADD12C,2.032000*%
%ADD13C,1.524000*%
%ADD14C,1.500000*%
%ADD15O,1.600000X1.600000*%
%ADD16R,1.600000X1.600000*%
%ADD17C,0.600000*%
%ADD18C,0.140000*%
G04 APERTURE END LIST*
D10*
X266762500Y-148975000D03*
X271762500Y-151075000D03*
D11*
X269262500Y-141175000D03*
X274262500Y-140675000D03*
D12*
X274302500Y-140095000D03*
X267952500Y-142635000D03*
D10*
X271525000Y-110875000D03*
X276525000Y-112975000D03*
D11*
X274025000Y-103075000D03*
X279025000Y-102575000D03*
D12*
X279065000Y-101995000D03*
X272715000Y-104535000D03*
D10*
X123887500Y-168025000D03*
X128887500Y-170125000D03*
D11*
X126387500Y-160225000D03*
X131387500Y-159725000D03*
D12*
X131427500Y-159145000D03*
X125077500Y-161685000D03*
D10*
X204850000Y-129925000D03*
X209850000Y-132025000D03*
D11*
X207350000Y-122125000D03*
X212350000Y-121625000D03*
D12*
X212390000Y-121045000D03*
X206040000Y-123585000D03*
D10*
X142937500Y-168025000D03*
X147937500Y-170125000D03*
D11*
X145437500Y-160225000D03*
X150437500Y-159725000D03*
D12*
X150477500Y-159145000D03*
X144127500Y-161685000D03*
D10*
X128650000Y-129925000D03*
X133650000Y-132025000D03*
D11*
X131150000Y-122125000D03*
X136150000Y-121625000D03*
D12*
X136190000Y-121045000D03*
X129840000Y-123585000D03*
D10*
X181037500Y-168025000D03*
X186037500Y-170125000D03*
D11*
X183537500Y-160225000D03*
X188537500Y-159725000D03*
D12*
X188577500Y-159145000D03*
X182227500Y-161685000D03*
D10*
X319150000Y-187075000D03*
X324150000Y-189175000D03*
D11*
X321650000Y-179275000D03*
X326650000Y-178775000D03*
D12*
X326690000Y-178195000D03*
X320340000Y-180735000D03*
D10*
X223900000Y-129925000D03*
X228900000Y-132025000D03*
D11*
X226400000Y-122125000D03*
X231400000Y-121625000D03*
D12*
X231440000Y-121045000D03*
X225090000Y-123585000D03*
D10*
X119125000Y-110875000D03*
X124125000Y-112975000D03*
D11*
X121625000Y-103075000D03*
X126625000Y-102575000D03*
D12*
X126665000Y-101995000D03*
X120315000Y-104535000D03*
D10*
X138175000Y-110875000D03*
X143175000Y-112975000D03*
D11*
X140675000Y-103075000D03*
X145675000Y-102575000D03*
D12*
X145715000Y-101995000D03*
X139365000Y-104535000D03*
D10*
X316768750Y-168025000D03*
X321768750Y-170125000D03*
D11*
X319268750Y-160225000D03*
X324268750Y-159725000D03*
D12*
X324308750Y-159145000D03*
X317958750Y-161685000D03*
D10*
X185800000Y-129925000D03*
X190800000Y-132025000D03*
D11*
X188300000Y-122125000D03*
X193300000Y-121625000D03*
D12*
X193340000Y-121045000D03*
X186990000Y-123585000D03*
D10*
X276287500Y-91825000D03*
X281287500Y-93925000D03*
D11*
X278787500Y-84025000D03*
X283787500Y-83525000D03*
D12*
X283827500Y-82945000D03*
X277477500Y-85485000D03*
D10*
X295337500Y-168025000D03*
X300337500Y-170125000D03*
D11*
X297837500Y-160225000D03*
X302837500Y-159725000D03*
D12*
X302877500Y-159145000D03*
X296527500Y-161685000D03*
D10*
X195325000Y-110875000D03*
X200325000Y-112975000D03*
D11*
X197825000Y-103075000D03*
X202825000Y-102575000D03*
D12*
X202865000Y-101995000D03*
X196515000Y-104535000D03*
D10*
X214375000Y-110875000D03*
X219375000Y-112975000D03*
D11*
X216875000Y-103075000D03*
X221875000Y-102575000D03*
D12*
X221915000Y-101995000D03*
X215565000Y-104535000D03*
D10*
X335818750Y-91825000D03*
X340818750Y-93925000D03*
D11*
X338318750Y-84025000D03*
X343318750Y-83525000D03*
D12*
X343358750Y-82945000D03*
X337008750Y-85485000D03*
D10*
X133412500Y-148975000D03*
X138412500Y-151075000D03*
D11*
X135912500Y-141175000D03*
X140912500Y-140675000D03*
D12*
X140952500Y-140095000D03*
X134602500Y-142635000D03*
D10*
X85787500Y-129925000D03*
X90787500Y-132025000D03*
D11*
X88287500Y-122125000D03*
X93287500Y-121625000D03*
D12*
X93327500Y-121045000D03*
X86977500Y-123585000D03*
D10*
X300100000Y-129925000D03*
X305100000Y-132025000D03*
D11*
X302600000Y-122125000D03*
X307600000Y-121625000D03*
D12*
X307640000Y-121045000D03*
X301290000Y-123585000D03*
D10*
X262000000Y-187075000D03*
X267000000Y-189175000D03*
D11*
X264500000Y-179275000D03*
X269500000Y-178775000D03*
D12*
X269540000Y-178195000D03*
X263190000Y-180735000D03*
D10*
X338200000Y-187075000D03*
X343200000Y-189175000D03*
D11*
X340700000Y-179275000D03*
X345700000Y-178775000D03*
D12*
X345740000Y-178195000D03*
X339390000Y-180735000D03*
D10*
X166750000Y-129925000D03*
X171750000Y-132025000D03*
D11*
X169250000Y-122125000D03*
X174250000Y-121625000D03*
D12*
X174290000Y-121045000D03*
X167940000Y-123585000D03*
D10*
X109600000Y-129925000D03*
X114600000Y-132025000D03*
D11*
X112100000Y-122125000D03*
X117100000Y-121625000D03*
D12*
X117140000Y-121045000D03*
X110790000Y-123585000D03*
D10*
X257237500Y-91825000D03*
X262237500Y-93925000D03*
D11*
X259737500Y-84025000D03*
X264737500Y-83525000D03*
D12*
X264777500Y-82945000D03*
X258427500Y-85485000D03*
D10*
X276287500Y-168025000D03*
X281287500Y-170125000D03*
D11*
X278787500Y-160225000D03*
X283787500Y-159725000D03*
D12*
X283827500Y-159145000D03*
X277477500Y-161685000D03*
D10*
X281050000Y-129925000D03*
X286050000Y-132025000D03*
D11*
X283550000Y-122125000D03*
X288550000Y-121625000D03*
D12*
X288590000Y-121045000D03*
X282240000Y-123585000D03*
D10*
X100075000Y-110875000D03*
X105075000Y-112975000D03*
D11*
X102575000Y-103075000D03*
X107575000Y-102575000D03*
D12*
X107615000Y-101995000D03*
X101265000Y-104535000D03*
D10*
X285812500Y-148975000D03*
X290812500Y-151075000D03*
D11*
X288312500Y-141175000D03*
X293312500Y-140675000D03*
D12*
X293352500Y-140095000D03*
X287002500Y-142635000D03*
D10*
X231043750Y-187075000D03*
X236043750Y-189175000D03*
D11*
X233543750Y-179275000D03*
X238543750Y-178775000D03*
D12*
X238583750Y-178195000D03*
X232233750Y-180735000D03*
D10*
X262000000Y-129925000D03*
X267000000Y-132025000D03*
D11*
X264500000Y-122125000D03*
X269500000Y-121625000D03*
D12*
X269540000Y-121045000D03*
X263190000Y-123585000D03*
D10*
X252475000Y-110875000D03*
X257475000Y-112975000D03*
D11*
X254975000Y-103075000D03*
X259975000Y-102575000D03*
D12*
X260015000Y-101995000D03*
X253665000Y-104535000D03*
D10*
X219137500Y-168025000D03*
X224137500Y-170125000D03*
D11*
X221637500Y-160225000D03*
X226637500Y-159725000D03*
D12*
X226677500Y-159145000D03*
X220327500Y-161685000D03*
D10*
X238187500Y-168025000D03*
X243187500Y-170125000D03*
D11*
X240687500Y-160225000D03*
X245687500Y-159725000D03*
D12*
X245727500Y-159145000D03*
X239377500Y-161685000D03*
D10*
X188181250Y-187075000D03*
X193181250Y-189175000D03*
D11*
X190681250Y-179275000D03*
X195681250Y-178775000D03*
D12*
X195721250Y-178195000D03*
X189371250Y-180735000D03*
D10*
X102456250Y-168025000D03*
X107456250Y-170125000D03*
D11*
X104956250Y-160225000D03*
X109956250Y-159725000D03*
D12*
X109996250Y-159145000D03*
X103646250Y-161685000D03*
D10*
X100075000Y-187075000D03*
X105075000Y-189175000D03*
D11*
X102575000Y-179275000D03*
X107575000Y-178775000D03*
D12*
X107615000Y-178195000D03*
X101265000Y-180735000D03*
D10*
X281050000Y-187075000D03*
X286050000Y-189175000D03*
D11*
X283550000Y-179275000D03*
X288550000Y-178775000D03*
D12*
X288590000Y-178195000D03*
X282240000Y-180735000D03*
D10*
X81025000Y-91825000D03*
X86025000Y-93925000D03*
D11*
X83525000Y-84025000D03*
X88525000Y-83525000D03*
D12*
X88565000Y-82945000D03*
X82215000Y-85485000D03*
D10*
X304862500Y-148975000D03*
X309862500Y-151075000D03*
D11*
X307362500Y-141175000D03*
X312362500Y-140675000D03*
D12*
X312402500Y-140095000D03*
X306052500Y-142635000D03*
D10*
X176275000Y-110875000D03*
X181275000Y-112975000D03*
D11*
X178775000Y-103075000D03*
X183775000Y-102575000D03*
D12*
X183815000Y-101995000D03*
X177465000Y-104535000D03*
D10*
X228662500Y-148975000D03*
X233662500Y-151075000D03*
D11*
X231162500Y-141175000D03*
X236162500Y-140675000D03*
D12*
X236202500Y-140095000D03*
X229852500Y-142635000D03*
D10*
X242950000Y-129925000D03*
X247950000Y-132025000D03*
D11*
X245450000Y-122125000D03*
X250450000Y-121625000D03*
D12*
X250490000Y-121045000D03*
X244140000Y-123585000D03*
D10*
X290575000Y-110875000D03*
X295575000Y-112975000D03*
D11*
X293075000Y-103075000D03*
X298075000Y-102575000D03*
D12*
X298115000Y-101995000D03*
X291765000Y-104535000D03*
D10*
X138175000Y-187075000D03*
X143175000Y-189175000D03*
D11*
X140675000Y-179275000D03*
X145675000Y-178775000D03*
D12*
X145715000Y-178195000D03*
X139365000Y-180735000D03*
D10*
X209612500Y-148975000D03*
X214612500Y-151075000D03*
D11*
X212112500Y-141175000D03*
X217112500Y-140675000D03*
D12*
X217152500Y-140095000D03*
X210802500Y-142635000D03*
D10*
X81025000Y-110875000D03*
X86025000Y-112975000D03*
D11*
X83525000Y-103075000D03*
X88525000Y-102575000D03*
D12*
X88565000Y-101995000D03*
X82215000Y-104535000D03*
D10*
X190562500Y-148975000D03*
X195562500Y-151075000D03*
D11*
X193062500Y-141175000D03*
X198062500Y-140675000D03*
D12*
X198102500Y-140095000D03*
X191752500Y-142635000D03*
D10*
X104837500Y-91825000D03*
X109837500Y-93925000D03*
D11*
X107337500Y-84025000D03*
X112337500Y-83525000D03*
D12*
X112377500Y-82945000D03*
X106027500Y-85485000D03*
D10*
X114362500Y-148975000D03*
X119362500Y-151075000D03*
D11*
X116862500Y-141175000D03*
X121862500Y-140675000D03*
D12*
X121902500Y-140095000D03*
X115552500Y-142635000D03*
D10*
X81025000Y-168025000D03*
X86025000Y-170125000D03*
D11*
X83525000Y-160225000D03*
X88525000Y-159725000D03*
D12*
X88565000Y-159145000D03*
X82215000Y-161685000D03*
D10*
X238187500Y-91825000D03*
X243187500Y-93925000D03*
D11*
X240687500Y-84025000D03*
X245687500Y-83525000D03*
D12*
X245727500Y-82945000D03*
X239377500Y-85485000D03*
D10*
X219137500Y-91825000D03*
X224137500Y-93925000D03*
D11*
X221637500Y-84025000D03*
X226637500Y-83525000D03*
D12*
X226677500Y-82945000D03*
X220327500Y-85485000D03*
D10*
X200087500Y-91825000D03*
X205087500Y-93925000D03*
D11*
X202587500Y-84025000D03*
X207587500Y-83525000D03*
D12*
X207627500Y-82945000D03*
X201277500Y-85485000D03*
D10*
X181037500Y-91825000D03*
X186037500Y-93925000D03*
D11*
X183537500Y-84025000D03*
X188537500Y-83525000D03*
D12*
X188577500Y-82945000D03*
X182227500Y-85485000D03*
D10*
X161987500Y-91825000D03*
X166987500Y-93925000D03*
D11*
X164487500Y-84025000D03*
X169487500Y-83525000D03*
D12*
X169527500Y-82945000D03*
X163177500Y-85485000D03*
D10*
X142937500Y-91825000D03*
X147937500Y-93925000D03*
D11*
X145437500Y-84025000D03*
X150437500Y-83525000D03*
D12*
X150477500Y-82945000D03*
X144127500Y-85485000D03*
D10*
X123887500Y-91825000D03*
X128887500Y-93925000D03*
D11*
X126387500Y-84025000D03*
X131387500Y-83525000D03*
D12*
X131427500Y-82945000D03*
X125077500Y-85485000D03*
D10*
X157225000Y-110875000D03*
X162225000Y-112975000D03*
D11*
X159725000Y-103075000D03*
X164725000Y-102575000D03*
D12*
X164765000Y-101995000D03*
X158415000Y-104535000D03*
D10*
X247712500Y-148975000D03*
X252712500Y-151075000D03*
D11*
X250212500Y-141175000D03*
X255212500Y-140675000D03*
D12*
X255252500Y-140095000D03*
X248902500Y-142635000D03*
D10*
X119125000Y-187075000D03*
X124125000Y-189175000D03*
D11*
X121625000Y-179275000D03*
X126625000Y-178775000D03*
D12*
X126665000Y-178195000D03*
X120315000Y-180735000D03*
D10*
X338200000Y-168025000D03*
X343200000Y-170125000D03*
D11*
X340700000Y-160225000D03*
X345700000Y-159725000D03*
D12*
X345740000Y-159145000D03*
X339390000Y-161685000D03*
D10*
X309625000Y-110875000D03*
X314625000Y-112975000D03*
D11*
X312125000Y-103075000D03*
X317125000Y-102575000D03*
D12*
X317165000Y-101995000D03*
X310815000Y-104535000D03*
D10*
X331056250Y-148975000D03*
X336056250Y-151075000D03*
D11*
X333556250Y-141175000D03*
X338556250Y-140675000D03*
D12*
X338596250Y-140095000D03*
X332246250Y-142635000D03*
D10*
X157225000Y-187075000D03*
X162225000Y-189175000D03*
D11*
X159725000Y-179275000D03*
X164725000Y-178775000D03*
D12*
X164765000Y-178195000D03*
X158415000Y-180735000D03*
D10*
X233425000Y-110875000D03*
X238425000Y-112975000D03*
D11*
X235925000Y-103075000D03*
X240925000Y-102575000D03*
D12*
X240965000Y-101995000D03*
X234615000Y-104535000D03*
D10*
X147700000Y-129925000D03*
X152700000Y-132025000D03*
D11*
X150200000Y-122125000D03*
X155200000Y-121625000D03*
D12*
X155240000Y-121045000D03*
X148890000Y-123585000D03*
D10*
X300100000Y-187075000D03*
X305100000Y-189175000D03*
D11*
X302600000Y-179275000D03*
X307600000Y-178775000D03*
D12*
X307640000Y-178195000D03*
X301290000Y-180735000D03*
D10*
X314387500Y-91825000D03*
X319387500Y-93925000D03*
D11*
X316887500Y-84025000D03*
X321887500Y-83525000D03*
D12*
X321927500Y-82945000D03*
X315577500Y-85485000D03*
D10*
X81025000Y-187075000D03*
X86025000Y-189175000D03*
D11*
X83525000Y-179275000D03*
X88525000Y-178775000D03*
D12*
X88565000Y-178195000D03*
X82215000Y-180735000D03*
D10*
X257237500Y-168025000D03*
X262237500Y-170125000D03*
D11*
X259737500Y-160225000D03*
X264737500Y-159725000D03*
D12*
X264777500Y-159145000D03*
X258427500Y-161685000D03*
D10*
X171512500Y-148975000D03*
X176512500Y-151075000D03*
D11*
X174012500Y-141175000D03*
X179012500Y-140675000D03*
D12*
X179052500Y-140095000D03*
X172702500Y-142635000D03*
D10*
X295337500Y-91825000D03*
X300337500Y-93925000D03*
D11*
X297837500Y-84025000D03*
X302837500Y-83525000D03*
D12*
X302877500Y-82945000D03*
X296527500Y-85485000D03*
D10*
X319150000Y-129925000D03*
X324150000Y-132025000D03*
D11*
X321650000Y-122125000D03*
X326650000Y-121625000D03*
D12*
X326690000Y-121045000D03*
X320340000Y-123585000D03*
D10*
X83406250Y-148975000D03*
X88406250Y-151075000D03*
D11*
X85906250Y-141175000D03*
X90906250Y-140675000D03*
D12*
X90946250Y-140095000D03*
X84596250Y-142635000D03*
D10*
X161987500Y-168025000D03*
X166987500Y-170125000D03*
D11*
X164487500Y-160225000D03*
X169487500Y-159725000D03*
D12*
X169527500Y-159145000D03*
X163177500Y-161685000D03*
D10*
X338200000Y-129925000D03*
X343200000Y-132025000D03*
D11*
X340700000Y-122125000D03*
X345700000Y-121625000D03*
D12*
X345740000Y-121045000D03*
X339390000Y-123585000D03*
D10*
X333437500Y-110875000D03*
X338437500Y-112975000D03*
D11*
X335937500Y-103075000D03*
X340937500Y-102575000D03*
D12*
X340977500Y-101995000D03*
X334627500Y-104535000D03*
D10*
X200087500Y-168025000D03*
X205087500Y-170125000D03*
D11*
X202587500Y-160225000D03*
X207587500Y-159725000D03*
D12*
X207627500Y-159145000D03*
X201277500Y-161685000D03*
D10*
X152462500Y-148975000D03*
X157462500Y-151075000D03*
D11*
X154962500Y-141175000D03*
X159962500Y-140675000D03*
D12*
X160002500Y-140095000D03*
X153652500Y-142635000D03*
D13*
X224500000Y-74500000D03*
D14*
X225500000Y-76500000D03*
X226500000Y-74500000D03*
X227500000Y-76500000D03*
X228500000Y-74500000D03*
X229500000Y-76500000D03*
X230500000Y-74500000D03*
X231500000Y-76500000D03*
X232500000Y-74500000D03*
X233500000Y-76500000D03*
X189500000Y-74500000D03*
X190500000Y-76500000D03*
X191500000Y-74500000D03*
X192500000Y-76500000D03*
X193500000Y-74500000D03*
X194500000Y-76500000D03*
X195500000Y-74500000D03*
X196500000Y-76500000D03*
X197500000Y-74500000D03*
X198500000Y-76500000D03*
X199500000Y-74500000D03*
X200500000Y-76500000D03*
X201500000Y-74500000D03*
X202500000Y-76500000D03*
X203500000Y-74500000D03*
X204500000Y-76500000D03*
D15*
X98000000Y-93120000D03*
D16*
X98000000Y-85500000D03*
D17*
X198732754Y-78065231D03*
X231496599Y-171727849D03*
X149500000Y-92000000D03*
X148500000Y-117000000D03*
X159947001Y-92947001D03*
X151500000Y-92000000D03*
X178628606Y-99000000D03*
X196027990Y-97407029D03*
X196500000Y-100500000D03*
X201000000Y-79500000D03*
X205500000Y-74000000D03*
X217500000Y-78451992D03*
X198000000Y-78000000D03*
X214000000Y-87000000D03*
X297000000Y-96500000D03*
X196666238Y-172166238D03*
X208447291Y-76461018D03*
X170833762Y-99833762D03*
X196000000Y-80000000D03*
X171000000Y-104500000D03*
X233583762Y-98916238D03*
X269500000Y-154000000D03*
X216000000Y-82500000D03*
X200000000Y-83000000D03*
X226500000Y-97000000D03*
X323000000Y-137500000D03*
X223500000Y-119000000D03*
X191000000Y-119500000D03*
X225118330Y-97780247D03*
X218500000Y-82000000D03*
X192000000Y-109000000D03*
X231027990Y-96416238D03*
X183500000Y-105000000D03*
X232333762Y-97666238D03*
X224998764Y-98472002D03*
D18*
X238543750Y-178775000D02*
X231496599Y-171727849D01*
X212074875Y-79273439D02*
X201472001Y-79273439D01*
X200263793Y-78065231D02*
X199157018Y-78065231D01*
X199157018Y-78065231D02*
X198732754Y-78065231D01*
X201472001Y-79273439D02*
X200263793Y-78065231D01*
X188577500Y-82945000D02*
X188577500Y-91422500D01*
X188577500Y-91422500D02*
X186000000Y-94000000D01*
X222801436Y-94249498D02*
X224051938Y-95500000D01*
X222801436Y-90000000D02*
X222801436Y-94249498D01*
X224051938Y-95500000D02*
X227972001Y-95500000D01*
X222801436Y-90000000D02*
X212074875Y-79273439D01*
X227972001Y-95500000D02*
X260500000Y-95500000D01*
X260500000Y-95500000D02*
X262000000Y-94000000D01*
X264737500Y-83525000D02*
X264737500Y-91262500D01*
X264737500Y-91262500D02*
X262500000Y-93500000D01*
X277000000Y-90000000D02*
X281000000Y-94000000D01*
X264737500Y-91262500D02*
X266000000Y-90000000D01*
X266000000Y-90000000D02*
X277000000Y-90000000D01*
X277230401Y-88876565D02*
X282606966Y-83500000D01*
X277000000Y-90000000D02*
X277230401Y-89769599D01*
X277230401Y-89769599D02*
X277230401Y-88876565D01*
X282606966Y-83500000D02*
X283500000Y-83500000D01*
X338437500Y-112975000D02*
X346000000Y-120537500D01*
X231496599Y-171727849D02*
X231496599Y-142945463D01*
X232957099Y-125634007D02*
X233742011Y-124849095D01*
X233064012Y-141378050D02*
X233064012Y-126722906D01*
X227972001Y-107082563D02*
X227972001Y-95500000D01*
X233742011Y-124849095D02*
X233742011Y-112852573D01*
X233742011Y-112852573D02*
X227972001Y-107082563D01*
X233064012Y-126722906D02*
X232957099Y-126615993D01*
X232957099Y-126615993D02*
X232957099Y-125634007D01*
X231496599Y-142945463D02*
X233064012Y-141378050D01*
X131427500Y-82945000D02*
X131427500Y-91572500D01*
X131427500Y-91572500D02*
X129000000Y-94000000D01*
X149500000Y-92000000D02*
X148000000Y-93500000D01*
X148000000Y-93500000D02*
X147500000Y-94000000D01*
X166987500Y-93925000D02*
X169500000Y-91412500D01*
X169500000Y-91412500D02*
X169500000Y-83500000D01*
X147937500Y-93925000D02*
X147937500Y-100062500D01*
X147937500Y-100062500D02*
X146000000Y-102000000D01*
X145675000Y-102575000D02*
X145675000Y-110325000D01*
X145675000Y-110325000D02*
X143000000Y-113000000D01*
X148500000Y-117000000D02*
X150500000Y-117000000D01*
X150500000Y-117000000D02*
X154500000Y-121000000D01*
X155240000Y-121045000D02*
X155240000Y-129760000D01*
X155240000Y-129760000D02*
X153000000Y-132000000D01*
X158412499Y-152024999D02*
X162024999Y-152024999D01*
X157462500Y-151075000D02*
X158412499Y-152024999D01*
X162024999Y-152024999D02*
X169500000Y-159500000D01*
X168452999Y-95047001D02*
X162047001Y-95047001D01*
X160247000Y-93247000D02*
X159947001Y-92947001D01*
X186077999Y-77422001D02*
X168452999Y-95047001D01*
X191577999Y-77422001D02*
X186077999Y-77422001D01*
X162047001Y-95047001D02*
X160247000Y-93247000D01*
X192500000Y-76500000D02*
X191577999Y-77422001D01*
X119145438Y-112975000D02*
X92120438Y-140000000D01*
X124125000Y-112975000D02*
X119145438Y-112975000D01*
X92120438Y-140000000D02*
X91500000Y-140000000D01*
X133650000Y-133368502D02*
X140781498Y-140500000D01*
X133650000Y-132025000D02*
X133650000Y-133368502D01*
X139362499Y-152024999D02*
X143524999Y-152024999D01*
X138412500Y-151075000D02*
X139362499Y-152024999D01*
X143524999Y-152024999D02*
X150500000Y-159000000D01*
X88565000Y-101995000D02*
X88565000Y-110435000D01*
X88565000Y-110435000D02*
X85500000Y-113500000D01*
X105075000Y-112975000D02*
X101525000Y-112975000D01*
X101525000Y-112975000D02*
X94000000Y-120500000D01*
X119362500Y-151075000D02*
X122000000Y-148437500D01*
X122000000Y-148437500D02*
X122000000Y-141000000D01*
X118643001Y-119856999D02*
X137953563Y-119856999D01*
X137953563Y-119856999D02*
X151500000Y-106310562D01*
X151500000Y-106310562D02*
X151500000Y-92424264D01*
X117000000Y-121500000D02*
X118643001Y-119856999D01*
X151500000Y-92424264D02*
X151500000Y-92000000D01*
X167500000Y-105500000D02*
X165000000Y-103000000D01*
X172128606Y-105500000D02*
X167500000Y-105500000D01*
X178628606Y-99000000D02*
X172128606Y-105500000D01*
X167366106Y-105500000D02*
X162000000Y-110866106D01*
X167500000Y-105500000D02*
X167366106Y-105500000D01*
X162000000Y-110866106D02*
X162000000Y-113000000D01*
X174250000Y-121625000D02*
X181500000Y-114375000D01*
X181500000Y-114375000D02*
X181500000Y-113000000D01*
X181500000Y-114375000D02*
X186875000Y-114375000D01*
X186875000Y-114375000D02*
X193500000Y-121000000D01*
X179052870Y-99000000D02*
X178628606Y-99000000D01*
X182623062Y-99000000D02*
X179052870Y-99000000D01*
X194500000Y-76500000D02*
X194500000Y-77801436D01*
X194500000Y-77801436D02*
X196472002Y-79773438D01*
X196472002Y-80226562D02*
X195249999Y-81448565D01*
X195249999Y-81448565D02*
X195249999Y-86373063D01*
X195249999Y-86373063D02*
X182623062Y-99000000D01*
X196472002Y-79773438D02*
X196472002Y-80226562D01*
X190800000Y-132025000D02*
X193500000Y-129325000D01*
X193500000Y-129325000D02*
X193500000Y-122000000D01*
X171750000Y-133368502D02*
X178881498Y-140500000D01*
X171750000Y-132025000D02*
X171750000Y-133368502D01*
X176512500Y-151075000D02*
X179000000Y-148587500D01*
X179000000Y-148587500D02*
X179000000Y-141500000D01*
X195562500Y-151075000D02*
X198000000Y-148637500D01*
X198000000Y-148637500D02*
X198000000Y-141500000D01*
X207627500Y-159145000D02*
X207627500Y-167872500D01*
X207627500Y-167872500D02*
X205500000Y-170000000D01*
X188577500Y-159145000D02*
X188577500Y-167422500D01*
X188577500Y-167422500D02*
X186000000Y-170000000D01*
X195500000Y-96879039D02*
X195727991Y-97107030D01*
X195500000Y-82128606D02*
X195500000Y-96879039D01*
X195727991Y-97107030D02*
X196027990Y-97407029D01*
X196714013Y-79673194D02*
X196714013Y-80914593D01*
X196714013Y-80914593D02*
X195500000Y-82128606D01*
X195500000Y-78459181D02*
X196714013Y-79673194D01*
X195500000Y-74500000D02*
X195500000Y-78459181D01*
X137012295Y-143009099D02*
X121021394Y-159000000D01*
X140682963Y-143009099D02*
X137012295Y-143009099D01*
X142334501Y-139696033D02*
X142334501Y-141357561D01*
X121021394Y-159000000D02*
X110000000Y-159000000D01*
X146030534Y-136000000D02*
X142334501Y-139696033D01*
X142334501Y-141357561D02*
X140682963Y-143009099D01*
X150385562Y-136000000D02*
X146030534Y-136000000D01*
X195500000Y-82128606D02*
X195500000Y-86465317D01*
X182493316Y-99472001D02*
X178498859Y-99472001D01*
X156622001Y-129763561D02*
X150385562Y-136000000D01*
X156622001Y-121348859D02*
X156622001Y-129763561D01*
X195500000Y-86465317D02*
X182493316Y-99472001D01*
X178498859Y-99472001D02*
X156622001Y-121348859D01*
X324268750Y-159725000D02*
X324268750Y-168231250D01*
X324268750Y-168231250D02*
X322500000Y-170000000D01*
X202865000Y-101995000D02*
X202865000Y-110635000D01*
X202865000Y-110635000D02*
X200500000Y-113000000D01*
X221875000Y-102575000D02*
X221875000Y-110625000D01*
X221875000Y-110625000D02*
X219500000Y-113000000D01*
X196956024Y-100043976D02*
X196799999Y-100200001D01*
X196956024Y-78016684D02*
X196956024Y-100043976D01*
X196799999Y-100200001D02*
X196500000Y-100500000D01*
X196500000Y-76500000D02*
X196500000Y-77560660D01*
X196500000Y-77560660D02*
X196956024Y-78016684D01*
X231400000Y-121625000D02*
X231400000Y-129100000D01*
X231400000Y-129100000D02*
X228500000Y-132000000D01*
X212350000Y-121625000D02*
X212350000Y-129650000D01*
X212350000Y-129650000D02*
X210000000Y-132000000D01*
X215956002Y-151075000D02*
X217000000Y-150031002D01*
X214612500Y-151075000D02*
X215956002Y-151075000D01*
X217000000Y-150031002D02*
X217000000Y-141000000D01*
X233662500Y-151075000D02*
X236500000Y-148237500D01*
X236500000Y-148237500D02*
X236500000Y-141000000D01*
X201000000Y-79500000D02*
X203000000Y-81500000D01*
X203000000Y-81500000D02*
X206000000Y-81500000D01*
X206000000Y-81500000D02*
X207000000Y-82500000D01*
X242482099Y-105899865D02*
X242482099Y-113482099D01*
X240925000Y-102575000D02*
X240925000Y-104342766D01*
X240925000Y-104342766D02*
X242482099Y-105899865D01*
X242482099Y-113482099D02*
X250500000Y-121500000D01*
X250450000Y-121625000D02*
X250450000Y-129550000D01*
X250450000Y-129550000D02*
X248000000Y-132000000D01*
X252712500Y-151075000D02*
X255500000Y-148287500D01*
X255500000Y-148287500D02*
X255500000Y-141000000D01*
X255500000Y-148287500D02*
X255500000Y-149500000D01*
X255500000Y-149500000D02*
X264500000Y-158500000D01*
X201679089Y-193695901D02*
X262304099Y-193695901D01*
X196000000Y-188016812D02*
X201679089Y-193695901D01*
X262304099Y-193695901D02*
X267000000Y-189000000D01*
X196000000Y-182888216D02*
X196000000Y-188016812D01*
X193396599Y-180284815D02*
X196000000Y-182888216D01*
X197972002Y-96273438D02*
X197972002Y-101652999D01*
X198500000Y-76500000D02*
X197750001Y-77249999D01*
X197285987Y-95587423D02*
X197972002Y-96273438D01*
X197285987Y-77673194D02*
X197285987Y-95587423D01*
X198507561Y-101652999D02*
X199247001Y-102392439D01*
X197972002Y-117418758D02*
X194722001Y-120668759D01*
X197750001Y-77249999D02*
X197709182Y-77249999D01*
X197972002Y-101652999D02*
X198507561Y-101652999D01*
X199247001Y-102392439D02*
X199247001Y-103757561D01*
X199247001Y-103757561D02*
X198507561Y-104497001D01*
X198507561Y-104497001D02*
X197972002Y-104497001D01*
X197972002Y-104497001D02*
X197972002Y-117418758D01*
X194722001Y-120668759D02*
X194722001Y-142809965D01*
X197709182Y-77249999D02*
X197285987Y-77673194D01*
X194722001Y-142809965D02*
X193396599Y-144135367D01*
X193396599Y-144135367D02*
X193396599Y-180284815D01*
X110000000Y-194000000D02*
X105000000Y-189000000D01*
X182916812Y-194000000D02*
X110000000Y-194000000D01*
X192619649Y-188004999D02*
X192607836Y-188016812D01*
X188900000Y-188016812D02*
X182916812Y-194000000D01*
X193754664Y-188016812D02*
X193742851Y-188004999D01*
X196000000Y-188016812D02*
X193754664Y-188016812D01*
X193742851Y-188004999D02*
X192619649Y-188004999D01*
X192607836Y-188016812D02*
X188900000Y-188016812D01*
X225481002Y-93925000D02*
X225556002Y-94000000D01*
X224137500Y-93925000D02*
X225481002Y-93925000D01*
X225556002Y-94000000D02*
X242500000Y-94000000D01*
X257475000Y-112975000D02*
X260500000Y-109950000D01*
X260500000Y-109950000D02*
X260500000Y-103000000D01*
X260500000Y-109950000D02*
X260500000Y-113000000D01*
X260500000Y-113000000D02*
X268500000Y-121000000D01*
X267000000Y-132025000D02*
X267000000Y-133500000D01*
X267000000Y-133500000D02*
X273500000Y-140000000D01*
X271762500Y-151075000D02*
X274500000Y-148337500D01*
X274500000Y-148337500D02*
X274500000Y-141000000D01*
X281287500Y-170125000D02*
X284000000Y-167412500D01*
X284000000Y-167412500D02*
X284000000Y-160500000D01*
X217075736Y-78451992D02*
X217500000Y-78451992D01*
X209527728Y-78451992D02*
X217075736Y-78451992D01*
X205500000Y-74000000D02*
X205500000Y-74424264D01*
X205500000Y-74424264D02*
X209527728Y-78451992D01*
X213700001Y-86700001D02*
X214000000Y-87000000D01*
X213500000Y-86500000D02*
X213700001Y-86700001D01*
X208500000Y-86500000D02*
X213500000Y-86500000D01*
X204500000Y-82500000D02*
X208500000Y-86500000D01*
X202500000Y-82500000D02*
X204500000Y-82500000D01*
X198000000Y-78000000D02*
X202500000Y-82500000D01*
X276525000Y-112975000D02*
X279000000Y-110500000D01*
X279000000Y-110500000D02*
X279000000Y-103000000D01*
X279000000Y-110500000D02*
X279000000Y-112000000D01*
X279000000Y-112000000D02*
X288000000Y-121000000D01*
X295575000Y-112975000D02*
X298000000Y-110550000D01*
X298000000Y-110550000D02*
X298000000Y-103000000D01*
X289799999Y-120375001D02*
X289799999Y-119200001D01*
X288550000Y-121625000D02*
X289799999Y-120375001D01*
X289799999Y-119200001D02*
X295500000Y-113500000D01*
X307600000Y-121625000D02*
X307600000Y-129400000D01*
X307600000Y-129400000D02*
X305000000Y-132000000D01*
X305100000Y-132025000D02*
X312500000Y-139425000D01*
X290812500Y-151075000D02*
X293500000Y-148387500D01*
X293500000Y-148387500D02*
X293500000Y-141500000D01*
X312028401Y-148909099D02*
X312028401Y-140528401D01*
X309862500Y-151075000D02*
X312028401Y-148909099D01*
X312028401Y-140528401D02*
X312500000Y-140056802D01*
X304087499Y-158475001D02*
X304087499Y-156912501D01*
X302837500Y-159725000D02*
X304087499Y-158475001D01*
X304087499Y-156912501D02*
X310000000Y-151000000D01*
X302877500Y-159145000D02*
X302877500Y-167622500D01*
X302877500Y-167622500D02*
X300500000Y-170000000D01*
X297000000Y-96500000D02*
X298000000Y-96500000D01*
X299023062Y-96500000D02*
X300500000Y-95023062D01*
X298000000Y-96500000D02*
X299023062Y-96500000D01*
X300500000Y-95023062D02*
X300500000Y-94000000D01*
X330394105Y-147852999D02*
X334494811Y-147852999D01*
X334494811Y-147852999D02*
X346000000Y-159358188D01*
X299023062Y-96500000D02*
X302197001Y-99673939D01*
X300337500Y-93925000D02*
X303000000Y-91262500D01*
X303000000Y-91262500D02*
X303000000Y-84500000D01*
X314041106Y-124844105D02*
X314041106Y-131500000D01*
X302197001Y-113000000D02*
X314041106Y-124844105D01*
X314041106Y-131500000D02*
X330394105Y-147852999D01*
X302197001Y-99673939D02*
X302197001Y-113000000D01*
X236570313Y-180197001D02*
X217520313Y-161147001D01*
X239226311Y-180197001D02*
X236570313Y-180197001D01*
X244829313Y-174593999D02*
X239226311Y-180197001D01*
X283552159Y-174593999D02*
X244829313Y-174593999D01*
X287153160Y-178195000D02*
X283552159Y-174593999D01*
X288590000Y-178195000D02*
X287153160Y-178195000D01*
X203727999Y-130463561D02*
X204000000Y-130735562D01*
X204000000Y-129114438D02*
X203727999Y-129386439D01*
X204000000Y-127247001D02*
X204000000Y-129114438D01*
X203227999Y-126663561D02*
X203811439Y-127247001D01*
X204000000Y-125002999D02*
X203811439Y-125002999D01*
X204053001Y-101698439D02*
X204247001Y-101892439D01*
X203811439Y-127247001D02*
X204000000Y-127247001D01*
X204247001Y-103257561D02*
X204000000Y-103504562D01*
X204053001Y-101424759D02*
X204053001Y-101698439D01*
X203227999Y-125586439D02*
X203227999Y-126663561D01*
X204000000Y-103504562D02*
X204000000Y-125002999D01*
X204247001Y-101892439D02*
X204247001Y-103257561D01*
X204000000Y-101371758D02*
X204053001Y-101424759D01*
X203811439Y-125002999D02*
X203227999Y-125586439D01*
X202500000Y-76500000D02*
X201472002Y-77527998D01*
X197527998Y-79226562D02*
X198214013Y-79912577D01*
X201472002Y-77527998D02*
X197773438Y-77527998D01*
X204000000Y-100000000D02*
X204000000Y-101371758D01*
X203727999Y-129386439D02*
X203727999Y-130463561D01*
X197773438Y-77527998D02*
X197527998Y-77773438D01*
X197527998Y-77773438D02*
X197527998Y-79226562D01*
X198214013Y-79912577D02*
X198214013Y-94214013D01*
X198214013Y-94214013D02*
X204000000Y-100000000D01*
X210373312Y-154000000D02*
X217520313Y-161147001D01*
X204000000Y-154000000D02*
X210373312Y-154000000D01*
X204000000Y-130735562D02*
X204000000Y-154000000D01*
X196666238Y-171741974D02*
X196666238Y-172166238D01*
X196666238Y-161333762D02*
X196666238Y-171741974D01*
X204000000Y-154000000D02*
X196666238Y-161333762D01*
X286050000Y-186841106D02*
X288500000Y-184391106D01*
X286050000Y-189175000D02*
X286050000Y-186841106D01*
X288500000Y-184391106D02*
X288500000Y-179000000D01*
X288500000Y-184391106D02*
X293108894Y-189000000D01*
X293108894Y-189000000D02*
X305000000Y-189000000D01*
X305100000Y-189175000D02*
X307500000Y-186775000D01*
X307500000Y-186775000D02*
X307500000Y-179000000D01*
X323137499Y-84774999D02*
X323137499Y-89862501D01*
X321887500Y-83525000D02*
X323137499Y-84774999D01*
X323137499Y-89862501D02*
X319500000Y-93500000D01*
X349822001Y-160808533D02*
X332130534Y-178500000D01*
X349822001Y-114893395D02*
X349822001Y-160808533D01*
X339515499Y-104586893D02*
X349822001Y-114893395D01*
X340818750Y-93925000D02*
X339515499Y-95228251D01*
X339515499Y-95228251D02*
X339515499Y-104586893D01*
X332130534Y-178500000D02*
X327000000Y-178500000D01*
X343500000Y-83000000D02*
X342014988Y-81514988D01*
X224051679Y-73565999D02*
X221156660Y-76461018D01*
X342014988Y-81514988D02*
X258540426Y-81514988D01*
X250591437Y-73565999D02*
X224051679Y-73565999D01*
X208871555Y-76461018D02*
X208447291Y-76461018D01*
X258540426Y-81514988D02*
X250591437Y-73565999D01*
X221156660Y-76461018D02*
X208871555Y-76461018D01*
X343318750Y-83525000D02*
X343318750Y-91181250D01*
X343318750Y-91181250D02*
X340500000Y-94000000D01*
X185720523Y-84947001D02*
X185720523Y-84043735D01*
X185720523Y-84043735D02*
X189764258Y-80000000D01*
X195575736Y-80000000D02*
X196000000Y-80000000D01*
X170833762Y-99833762D02*
X185720523Y-84947001D01*
X189764258Y-80000000D02*
X195575736Y-80000000D01*
X81797001Y-90702999D02*
X81000000Y-91500000D01*
X82500000Y-90702999D02*
X82500000Y-85500000D01*
X82500000Y-90702999D02*
X81797001Y-90702999D01*
X96979999Y-85020001D02*
X91297001Y-90702999D01*
X96979999Y-84523999D02*
X96979999Y-85020001D01*
X97520001Y-84479999D02*
X97023999Y-84479999D01*
X103204990Y-78795010D02*
X97520001Y-84479999D01*
X169622197Y-78795010D02*
X103204990Y-78795010D01*
X169795010Y-78622197D02*
X169622197Y-78795010D01*
X169917206Y-73000000D02*
X169795010Y-73122196D01*
X169795010Y-73122196D02*
X169795010Y-78622197D01*
X97023999Y-84479999D02*
X96979999Y-84523999D01*
X91297001Y-90702999D02*
X82500000Y-90702999D01*
X224500000Y-74500000D02*
X220027998Y-78972002D01*
X209314256Y-78972002D02*
X204470001Y-74127747D01*
X203872253Y-73529999D02*
X203342254Y-73000000D01*
X203342254Y-73000000D02*
X169917206Y-73000000D01*
X220027998Y-78972002D02*
X209314256Y-78972002D01*
X204470001Y-74127747D02*
X204470001Y-74034399D01*
X204470001Y-74034399D02*
X203965601Y-73529999D01*
X203965601Y-73529999D02*
X203872253Y-73529999D01*
X144127500Y-86921840D02*
X145000000Y-87794340D01*
X144127500Y-85485000D02*
X144127500Y-86921840D01*
X145000000Y-87794340D02*
X145000000Y-92000000D01*
X145000000Y-92000000D02*
X143000000Y-92000000D01*
X169028306Y-104500000D02*
X171000000Y-104500000D01*
X156044284Y-91515978D02*
X169028306Y-104500000D01*
X145000000Y-92000000D02*
X145484022Y-91515978D01*
X145484022Y-91515978D02*
X156044284Y-91515978D01*
X224750001Y-77249999D02*
X224750001Y-80749999D01*
X225500000Y-76500000D02*
X224750001Y-77249999D01*
X224750001Y-80749999D02*
X221500000Y-84000000D01*
X219137500Y-91825000D02*
X217675000Y-91825000D01*
X217675000Y-91825000D02*
X207500000Y-102000000D01*
X207500000Y-102000000D02*
X207500000Y-122500000D01*
X281669759Y-124773001D02*
X282810241Y-124773001D01*
X283998242Y-123585000D02*
X301290000Y-123585000D01*
X264948242Y-123585000D02*
X280481758Y-123585000D01*
X263760241Y-124773001D02*
X264948242Y-123585000D01*
X262001999Y-124155241D02*
X262619759Y-124773001D01*
X262001999Y-123001999D02*
X262001999Y-124155241D01*
X233583762Y-98916238D02*
X234748714Y-98916238D01*
X282810241Y-124773001D02*
X283998242Y-123585000D01*
X234748714Y-98916238D02*
X236332476Y-100500000D01*
X262619759Y-124773001D02*
X263760241Y-124773001D01*
X236332476Y-100500000D02*
X241228242Y-100500000D01*
X241228242Y-100500000D02*
X243500000Y-102771758D01*
X243500000Y-104500000D02*
X262001999Y-123001999D01*
X280481758Y-123585000D02*
X281669759Y-124773001D01*
X243500000Y-102771758D02*
X243500000Y-104500000D01*
X332487501Y-111824999D02*
X331675001Y-111824999D01*
X333437500Y-110875000D02*
X332487501Y-111824999D01*
X331675001Y-111824999D02*
X321500000Y-122000000D01*
X301290000Y-123585000D02*
X301290000Y-128710000D01*
X301290000Y-128710000D02*
X300000000Y-130000000D01*
X186990000Y-123585000D02*
X186990000Y-128510000D01*
X186990000Y-128510000D02*
X186000000Y-129500000D01*
X83406250Y-150318502D02*
X93087748Y-160000000D01*
X83406250Y-148975000D02*
X83406250Y-150318502D01*
X93087748Y-160000000D02*
X104500000Y-160000000D01*
X140000000Y-95000000D02*
X142500000Y-92500000D01*
X129544102Y-95000000D02*
X140000000Y-95000000D01*
X129449101Y-95095001D02*
X129544102Y-95000000D01*
X128230898Y-95000000D02*
X128325899Y-95095001D01*
X110494102Y-95000000D02*
X128230898Y-95000000D01*
X110399101Y-95095001D02*
X110494102Y-95000000D01*
X89537499Y-120875001D02*
X89537499Y-114007939D01*
X109180898Y-95000000D02*
X109275899Y-95095001D01*
X89537499Y-114007939D02*
X108545438Y-95000000D01*
X88287500Y-122125000D02*
X89537499Y-120875001D01*
X108545438Y-95000000D02*
X109180898Y-95000000D01*
X128325899Y-95095001D02*
X129449101Y-95095001D01*
X109275899Y-95095001D02*
X110399101Y-95095001D01*
X269500000Y-154000000D02*
X298500000Y-154000000D01*
X298500000Y-154000000D02*
X300000000Y-154000000D01*
X300000000Y-154000000D02*
X305000000Y-149000000D01*
X298171599Y-163185367D02*
X298171599Y-174671599D01*
X300000000Y-154000000D02*
X300000000Y-161356966D01*
X300000000Y-161356966D02*
X298171599Y-163185367D01*
X298171599Y-174671599D02*
X302500000Y-179000000D01*
X226500000Y-74500000D02*
X225664012Y-75335988D01*
X224859182Y-75434001D02*
X224051679Y-75434001D01*
X224957195Y-75335988D02*
X224859182Y-75434001D01*
X216424264Y-82500000D02*
X216000000Y-82500000D01*
X225664012Y-75335988D02*
X224957195Y-75335988D01*
X216985680Y-82500000D02*
X216424264Y-82500000D01*
X224051679Y-75434001D02*
X216985680Y-82500000D01*
X200000000Y-83000000D02*
X201000000Y-84000000D01*
X201000000Y-84000000D02*
X202000000Y-84000000D01*
X163177500Y-85485000D02*
X163177500Y-90822500D01*
X163177500Y-90822500D02*
X162000000Y-92000000D01*
X201037499Y-90875001D02*
X201037499Y-85537499D01*
X200087500Y-91825000D02*
X201037499Y-90875001D01*
X201037499Y-85537499D02*
X201074998Y-85500000D01*
X200000000Y-92000000D02*
X204489012Y-96489012D01*
X204382099Y-103464718D02*
X204382099Y-124223205D01*
X204489012Y-103357805D02*
X204382099Y-103464718D01*
X204489012Y-96489012D02*
X204489012Y-103357805D01*
X207158894Y-133158894D02*
X212000000Y-138000000D01*
X207158894Y-127000000D02*
X207158894Y-133158894D01*
X212000000Y-138000000D02*
X212000000Y-140500000D01*
X204382099Y-124223205D02*
X207158894Y-127000000D01*
X131752999Y-169147001D02*
X121625000Y-179275000D01*
X147254937Y-169147001D02*
X131752999Y-169147001D01*
X157260937Y-165347001D02*
X151054937Y-165347001D01*
X190500000Y-149000000D02*
X185000000Y-149000000D01*
X151054937Y-165347001D02*
X147254937Y-169147001D01*
X185000000Y-149000000D02*
X171940901Y-162059099D01*
X171940901Y-162059099D02*
X165947867Y-162059099D01*
X165947867Y-162059099D02*
X165133965Y-162873001D01*
X165133965Y-162873001D02*
X159734937Y-162873001D01*
X159734937Y-162873001D02*
X157260937Y-165347001D01*
X191512499Y-148025001D02*
X191512499Y-142987501D01*
X190562500Y-148975000D02*
X191512499Y-148025001D01*
X210562499Y-148025001D02*
X210562499Y-143062499D01*
X209612500Y-148975000D02*
X210562499Y-148025001D01*
X306052500Y-142635000D02*
X306052500Y-147947500D01*
X306052500Y-147947500D02*
X305000000Y-149000000D01*
X301049999Y-186125001D02*
X301049999Y-180549999D01*
X300100000Y-187075000D02*
X301049999Y-186125001D01*
X201337501Y-85274999D02*
X201337501Y-85337501D01*
X202587500Y-84025000D02*
X201337501Y-85274999D01*
X183243499Y-84469001D02*
X183243499Y-84256501D01*
X182227500Y-85485000D02*
X183243499Y-84469001D01*
X164193499Y-84469001D02*
X164193499Y-84306501D01*
X163177500Y-85485000D02*
X164193499Y-84469001D01*
X191752500Y-142635000D02*
X193000000Y-141387500D01*
X210802500Y-142635000D02*
X211937500Y-141500000D01*
X307068499Y-141619001D02*
X307068499Y-141431501D01*
X306052500Y-142635000D02*
X307068499Y-141619001D01*
X120315000Y-180735000D02*
X121500000Y-179550000D01*
X301290000Y-180735000D02*
X302500000Y-179525000D01*
X338200000Y-129925000D02*
X330575000Y-129925000D01*
X330575000Y-129925000D02*
X323000000Y-137500000D01*
X232822001Y-120322001D02*
X232822001Y-125426850D01*
X227000000Y-114500000D02*
X232822001Y-120322001D01*
X226500000Y-114500000D02*
X227000000Y-114500000D01*
X231162500Y-131000000D02*
X231162500Y-141175000D01*
X232715088Y-125533763D02*
X232715088Y-129447412D01*
X226500000Y-97000000D02*
X226500000Y-114500000D01*
X232822001Y-125426850D02*
X232715088Y-125533763D01*
X232715088Y-129447412D02*
X231162500Y-131000000D01*
X116568499Y-143650999D02*
X116568499Y-146931501D01*
X115552500Y-142635000D02*
X116568499Y-143650999D01*
X116568499Y-146931501D02*
X114500000Y-149000000D01*
X133412500Y-148975000D02*
X152475000Y-148975000D01*
X154668499Y-143650999D02*
X154668499Y-146831501D01*
X153652500Y-142635000D02*
X154668499Y-143650999D01*
X154668499Y-146831501D02*
X152500000Y-149000000D01*
X154668499Y-146831501D02*
X156836998Y-149000000D01*
X156836998Y-149000000D02*
X171500000Y-149000000D01*
X172462499Y-148025001D02*
X172462499Y-143037501D01*
X171512500Y-148975000D02*
X172462499Y-148025001D01*
X248902500Y-142635000D02*
X248902500Y-148097500D01*
X248902500Y-148097500D02*
X248000000Y-149000000D01*
X250212500Y-141175000D02*
X254887500Y-136500000D01*
X254887500Y-136500000D02*
X264500000Y-136500000D01*
X264500000Y-136500000D02*
X269000000Y-141000000D01*
X267712499Y-148025001D02*
X267712499Y-142787501D01*
X266762500Y-148975000D02*
X267712499Y-148025001D01*
X285812500Y-148975000D02*
X287000000Y-147787500D01*
X287000000Y-147787500D02*
X287000000Y-143000000D01*
X288018499Y-141619001D02*
X288018499Y-141018499D01*
X287002500Y-142635000D02*
X288018499Y-141619001D01*
X267952500Y-142635000D02*
X269000000Y-141587500D01*
X339390000Y-123585000D02*
X340475000Y-122500000D01*
X135618499Y-141619001D02*
X135618499Y-141381501D01*
X134602500Y-142635000D02*
X135618499Y-141619001D01*
X153652500Y-142635000D02*
X154787500Y-141500000D01*
X172702500Y-142635000D02*
X173837500Y-141500000D01*
X248902500Y-142635000D02*
X250000000Y-141537500D01*
X229852500Y-142635000D02*
X231000000Y-141487500D01*
X116568499Y-141619001D02*
X116568499Y-141568499D01*
X115552500Y-142635000D02*
X116568499Y-141619001D01*
X223432099Y-118932099D02*
X226000000Y-121500000D01*
X223432099Y-118932099D02*
X223500000Y-119000000D01*
X191000000Y-119500000D02*
X178479562Y-119500000D01*
X174932561Y-123047001D02*
X170547001Y-123047001D01*
X178479562Y-119500000D02*
X174932561Y-123047001D01*
X170547001Y-123047001D02*
X169500000Y-122000000D01*
X225742011Y-98403928D02*
X225418329Y-98080246D01*
X223432099Y-118932099D02*
X223432099Y-103464718D01*
X225742011Y-101154806D02*
X225742011Y-98403928D01*
X223432099Y-103464718D02*
X225742011Y-101154806D01*
X225418329Y-98080246D02*
X225118330Y-97780247D01*
X262000000Y-129925000D02*
X280925000Y-129925000D01*
X244140000Y-126368894D02*
X243000000Y-127508894D01*
X244140000Y-123585000D02*
X244140000Y-126368894D01*
X243000000Y-127508894D02*
X243000000Y-130000000D01*
X132399999Y-123374999D02*
X148874999Y-123374999D01*
X131150000Y-122125000D02*
X132399999Y-123374999D01*
X130855999Y-124600999D02*
X130855999Y-127644001D01*
X129840000Y-123585000D02*
X130855999Y-124600999D01*
X130855999Y-127644001D02*
X129000000Y-129500000D01*
X113867766Y-122125000D02*
X115742766Y-124000000D01*
X112100000Y-122125000D02*
X113867766Y-122125000D01*
X115742766Y-124000000D02*
X129000000Y-124000000D01*
X139365000Y-180735000D02*
X140600000Y-179500000D01*
X264205999Y-122569001D02*
X264205999Y-122294001D01*
X263190000Y-123585000D02*
X264205999Y-122569001D01*
X148890000Y-123585000D02*
X150000000Y-122475000D01*
X167940000Y-123585000D02*
X169500000Y-122025000D01*
X110790000Y-123585000D02*
X112000000Y-122375000D01*
X225090000Y-123585000D02*
X226500000Y-122175000D01*
X244140000Y-123585000D02*
X245500000Y-122225000D01*
X282240000Y-123585000D02*
X283500000Y-122325000D01*
X129840000Y-123585000D02*
X131000000Y-122425000D01*
X79402999Y-179858533D02*
X86544466Y-187000000D01*
X80075001Y-111824999D02*
X80075001Y-161841107D01*
X80075001Y-161841107D02*
X81967901Y-163734007D01*
X79402999Y-167986439D02*
X79402999Y-179858533D01*
X81025000Y-110875000D02*
X80075001Y-111824999D01*
X81967901Y-163734007D02*
X81967901Y-165421537D01*
X81967901Y-165421537D02*
X79402999Y-167986439D01*
X86544466Y-187000000D02*
X100000000Y-187000000D01*
X224635438Y-76000000D02*
X224500000Y-76000000D01*
X226635438Y-76000000D02*
X226364562Y-76000000D01*
X229000000Y-76000000D02*
X228364562Y-76000000D01*
X226364562Y-76000000D02*
X225942561Y-75577999D01*
X224500000Y-76000000D02*
X218500000Y-82000000D01*
X228364562Y-76000000D02*
X227942561Y-75577999D01*
X227942561Y-75577999D02*
X227057439Y-75577999D01*
X227057439Y-75577999D02*
X226635438Y-76000000D01*
X225942561Y-75577999D02*
X225057439Y-75577999D01*
X229500000Y-76500000D02*
X229000000Y-76000000D01*
X225057439Y-75577999D02*
X224635438Y-76000000D01*
X180027998Y-104527998D02*
X179000000Y-103500000D01*
X196515000Y-104535000D02*
X195078160Y-104535000D01*
X195078160Y-104535000D02*
X195071158Y-104527998D01*
X195071158Y-104527998D02*
X180027998Y-104527998D01*
X229500000Y-76500000D02*
X238500000Y-85500000D01*
X238500000Y-85500000D02*
X239000000Y-85500000D01*
X239377500Y-85485000D02*
X239377500Y-90622500D01*
X239377500Y-90622500D02*
X238500000Y-91500000D01*
X241937499Y-85274999D02*
X258274999Y-85274999D01*
X240687500Y-84025000D02*
X241937499Y-85274999D01*
X258274999Y-85274999D02*
X258500000Y-85500000D01*
X315577500Y-85485000D02*
X315577500Y-90422500D01*
X315577500Y-90422500D02*
X314000000Y-92000000D01*
X313437501Y-92774999D02*
X313437501Y-101562499D01*
X314387500Y-91825000D02*
X313437501Y-92774999D01*
X313437501Y-101562499D02*
X312000000Y-103000000D01*
X82215000Y-104535000D02*
X82215000Y-109785000D01*
X82215000Y-109785000D02*
X81500000Y-110500000D01*
X177465000Y-104535000D02*
X177465000Y-109535000D01*
X177465000Y-109535000D02*
X176500000Y-110500000D01*
X196515000Y-104535000D02*
X196515000Y-109985000D01*
X196515000Y-109985000D02*
X195500000Y-111000000D01*
X291524999Y-109925001D02*
X291524999Y-104524999D01*
X290575000Y-110875000D02*
X291524999Y-109925001D01*
X338024749Y-84469001D02*
X338024749Y-84024749D01*
X337008750Y-85485000D02*
X338024749Y-84469001D01*
X310815000Y-104535000D02*
X312350000Y-103000000D01*
X177465000Y-104535000D02*
X178500000Y-103500000D01*
X259443499Y-84469001D02*
X259530999Y-84469001D01*
X258427500Y-85485000D02*
X259443499Y-84469001D01*
X126093499Y-84469001D02*
X126093499Y-84093499D01*
X125077500Y-85485000D02*
X126093499Y-84469001D01*
X240393499Y-84469001D02*
X240393499Y-84106501D01*
X239377500Y-85485000D02*
X240393499Y-84469001D01*
X316593499Y-84469001D02*
X316593499Y-84406501D01*
X315577500Y-85485000D02*
X316593499Y-84469001D01*
X291765000Y-104535000D02*
X293000000Y-103300000D01*
X83230999Y-103519001D02*
X83230999Y-103269001D01*
X82215000Y-104535000D02*
X83230999Y-103519001D01*
X197530999Y-103519001D02*
X197530999Y-103469001D01*
X196515000Y-104535000D02*
X197530999Y-103519001D01*
X101265000Y-180735000D02*
X102500000Y-179500000D01*
X236000000Y-103000000D02*
X231027990Y-98027990D01*
X231027990Y-98027990D02*
X231027990Y-96840502D01*
X231027990Y-96840502D02*
X231027990Y-96416238D01*
X192000000Y-109000000D02*
X188000000Y-105000000D01*
X188000000Y-105000000D02*
X183924264Y-105000000D01*
X183924264Y-105000000D02*
X183500000Y-105000000D01*
X276287500Y-91825000D02*
X276287500Y-100712500D01*
X276287500Y-100712500D02*
X274000000Y-103000000D01*
X278787500Y-84025000D02*
X281055501Y-81756999D01*
X281055501Y-81756999D02*
X292756999Y-81756999D01*
X292756999Y-81756999D02*
X296000000Y-85000000D01*
X296527500Y-85485000D02*
X296527500Y-90972500D01*
X296527500Y-90972500D02*
X295500000Y-92000000D01*
X103824999Y-104324999D02*
X119824999Y-104324999D01*
X102575000Y-103075000D02*
X103824999Y-104324999D01*
X120315000Y-104535000D02*
X120315000Y-109685000D01*
X120315000Y-109685000D02*
X119000000Y-111000000D01*
X123392766Y-103075000D02*
X124817766Y-104500000D01*
X121625000Y-103075000D02*
X123392766Y-103075000D01*
X124817766Y-104500000D02*
X139000000Y-104500000D01*
X158415000Y-104535000D02*
X158415000Y-109585000D01*
X158415000Y-109585000D02*
X157000000Y-111000000D01*
X215324999Y-109925001D02*
X215324999Y-104675001D01*
X214375000Y-110875000D02*
X215324999Y-109925001D01*
X253665000Y-104535000D02*
X253665000Y-109835000D01*
X253665000Y-109835000D02*
X253000000Y-110500000D01*
X272715000Y-104535000D02*
X272715000Y-109285000D01*
X272715000Y-109285000D02*
X271500000Y-110500000D01*
X272715000Y-104535000D02*
X274000000Y-103250000D01*
X158415000Y-104535000D02*
X159500000Y-103450000D01*
X277477500Y-85485000D02*
X278500000Y-84462500D01*
X297543499Y-84469001D02*
X297543499Y-84043499D01*
X296527500Y-85485000D02*
X297543499Y-84469001D01*
X101265000Y-104535000D02*
X102500000Y-103300000D01*
X120315000Y-104535000D02*
X121500000Y-103350000D01*
X139365000Y-104535000D02*
X140500000Y-103400000D01*
X234615000Y-104535000D02*
X236000000Y-103150000D01*
X254680999Y-103519001D02*
X254680999Y-103319001D01*
X253665000Y-104535000D02*
X254680999Y-103519001D01*
X215565000Y-104535000D02*
X217000000Y-103100000D01*
X234642800Y-99555764D02*
X233189676Y-99555764D01*
X240687500Y-160225000D02*
X240687500Y-105600464D01*
X240687500Y-105600464D02*
X234642800Y-99555764D01*
X233189676Y-99555764D02*
X232333762Y-98699850D01*
X232333762Y-98699850D02*
X232333762Y-98090502D01*
X232333762Y-98090502D02*
X232333762Y-97666238D01*
X101500715Y-161474999D02*
X108025716Y-168000000D01*
X83525000Y-160225000D02*
X84774999Y-161474999D01*
X84774999Y-161474999D02*
X101500715Y-161474999D01*
X108025716Y-168000000D02*
X123500000Y-168000000D01*
X320518749Y-158975001D02*
X321024999Y-158975001D01*
X319268750Y-160225000D02*
X320518749Y-158975001D01*
X321024999Y-158975001D02*
X331000000Y-149000000D01*
X316768750Y-166681498D02*
X318000000Y-165450248D01*
X316768750Y-168025000D02*
X316768750Y-166681498D01*
X318000000Y-165450248D02*
X318000000Y-162000000D01*
X277237499Y-167075001D02*
X277237499Y-162262501D01*
X276287500Y-168025000D02*
X277237499Y-167075001D01*
X242455266Y-160225000D02*
X244230266Y-162000000D01*
X240687500Y-160225000D02*
X242455266Y-160225000D01*
X244230266Y-162000000D02*
X258500000Y-162000000D01*
X239377500Y-161685000D02*
X239377500Y-166622500D01*
X239377500Y-166622500D02*
X238000000Y-168000000D01*
X181037500Y-168025000D02*
X182000000Y-167062500D01*
X182000000Y-167062500D02*
X182000000Y-162000000D01*
X161987500Y-168025000D02*
X180975000Y-168025000D01*
X146687499Y-161474999D02*
X162974999Y-161474999D01*
X145437500Y-160225000D02*
X146687499Y-161474999D01*
X144127500Y-161685000D02*
X144127500Y-166872500D01*
X144127500Y-166872500D02*
X143000000Y-168000000D01*
X144127500Y-161685000D02*
X128185000Y-161685000D01*
X128185000Y-161685000D02*
X127000000Y-160500000D01*
X332246250Y-142635000D02*
X333500000Y-141381250D01*
X82215000Y-161685000D02*
X82215000Y-161285000D01*
X82215000Y-161685000D02*
X83500000Y-160400000D01*
X126093499Y-160669001D02*
X126093499Y-160406501D01*
X125077500Y-161685000D02*
X126093499Y-160669001D01*
X145143499Y-160669001D02*
X145143499Y-160356501D01*
X144127500Y-161685000D02*
X145143499Y-160669001D01*
X182227500Y-161685000D02*
X183500000Y-160412500D01*
X277477500Y-161685000D02*
X279000000Y-160162500D01*
X163177500Y-161685000D02*
X164362500Y-160500000D01*
X258427500Y-161685000D02*
X259500000Y-160612500D01*
X317958750Y-161685000D02*
X319000000Y-160643750D01*
X239377500Y-161685000D02*
X240500000Y-160562500D01*
X158415000Y-180735000D02*
X160000000Y-179150000D01*
X264205999Y-179719001D02*
X264205999Y-179294001D01*
X263190000Y-180735000D02*
X264205999Y-179719001D01*
X161542437Y-188197001D02*
X162739438Y-187000000D01*
X144891467Y-188197001D02*
X161542437Y-188197001D01*
X137803565Y-181109099D02*
X144891467Y-188197001D01*
X122271465Y-181923001D02*
X123085367Y-181109099D01*
X119744759Y-181923001D02*
X122271465Y-181923001D01*
X103221465Y-181923001D02*
X104144466Y-181000000D01*
X85292766Y-179275000D02*
X87940767Y-181923001D01*
X83525000Y-179275000D02*
X85292766Y-179275000D01*
X87940767Y-181923001D02*
X103221465Y-181923001D01*
X123085367Y-181109099D02*
X137803565Y-181109099D01*
X118821758Y-181000000D02*
X119744759Y-181923001D01*
X104144466Y-181000000D02*
X118821758Y-181000000D01*
X162739438Y-187000000D02*
X188000000Y-187000000D01*
X233543750Y-179275000D02*
X234793749Y-180524999D01*
X261044465Y-180524999D02*
X267519466Y-187000000D01*
X234793749Y-180524999D02*
X261044465Y-180524999D01*
X267519466Y-187000000D02*
X280000000Y-187000000D01*
X222117011Y-157977723D02*
X222117011Y-104437551D01*
X221637500Y-160225000D02*
X221637500Y-158457234D01*
X221637500Y-158457234D02*
X222117011Y-157977723D01*
X225000000Y-101554562D02*
X225000000Y-98747966D01*
X222117011Y-104437551D02*
X225000000Y-101554562D01*
X322899999Y-180524999D02*
X339475001Y-180524999D01*
X321650000Y-179275000D02*
X322899999Y-180524999D01*
X320340000Y-180735000D02*
X320340000Y-185660000D01*
X320340000Y-185660000D02*
X319000000Y-187000000D01*
X297000000Y-166362500D02*
X297000000Y-162000000D01*
X295337500Y-168025000D02*
X297000000Y-166362500D01*
X219137500Y-168025000D02*
X232000000Y-180887500D01*
X201037499Y-167075001D02*
X201037499Y-161962501D01*
X200087500Y-168025000D02*
X201037499Y-167075001D01*
X280000000Y-187000000D02*
X281000000Y-187000000D01*
X281999999Y-186125001D02*
X281999999Y-181000001D01*
X281050000Y-187075000D02*
X281999999Y-186125001D01*
X339390000Y-180735000D02*
X340500000Y-179625000D01*
X201277500Y-161685000D02*
X202500000Y-160462500D01*
X220327500Y-161685000D02*
X222000000Y-160012500D01*
X339390000Y-161685000D02*
X340500000Y-160575000D01*
X297543499Y-160669001D02*
X297543499Y-160543499D01*
X296527500Y-161685000D02*
X297543499Y-160669001D01*
X189371250Y-180735000D02*
X191000000Y-179106250D01*
X320340000Y-180735000D02*
X322000000Y-179075000D01*
X232233750Y-180735000D02*
X233500000Y-179468750D01*
X82215000Y-180735000D02*
X83450000Y-179500000D01*
X282240000Y-180735000D02*
X283475000Y-179500000D01*
M02*
