G04 #@! TF.GenerationSoftware,KiCad,Pcbnew,8.0.4*
G04 #@! TF.CreationDate,2024-08-17T17:13:41-05:00*
G04 #@! TF.ProjectId,qwerty,71776572-7479-42e6-9b69-6361645f7063,C*
G04 #@! TF.SameCoordinates,Original*
G04 #@! TF.FileFunction,Legend,Top*
G04 #@! TF.FilePolarity,Positive*
%FSLAX46Y46*%
G04 Gerber Fmt 4.6, Leading zero omitted, Abs format (unit mm)*
G04 Created by KiCad (PCBNEW 8.0.4) date 2024-08-17 17:13:41*
%MOMM*%
%LPD*%
G01*
G04 APERTURE LIST*
G04 Aperture macros list*
%AMRoundRect*
0 Rectangle with rounded corners*
0 $1 Rounding radius*
0 $2 $3 $4 $5 $6 $7 $8 $9 X,Y pos of 4 corners*
0 Add a 4 corners polygon primitive as box body*
4,1,4,$2,$3,$4,$5,$6,$7,$8,$9,$2,$3,0*
0 Add four circle primitives for the rounded corners*
1,1,$1+$1,$2,$3*
1,1,$1+$1,$4,$5*
1,1,$1+$1,$6,$7*
1,1,$1+$1,$8,$9*
0 Add four rect primitives between the rounded corners*
20,1,$1+$1,$2,$3,$4,$5,0*
20,1,$1+$1,$4,$5,$6,$7,0*
20,1,$1+$1,$6,$7,$8,$9,0*
20,1,$1+$1,$8,$9,$2,$3,0*%
G04 Aperture macros list end*
%ADD10C,0.300000*%
%ADD11C,0.150000*%
%ADD12C,0.010000*%
%ADD13C,0.120000*%
%ADD14RoundRect,0.100000X-0.800000X0.800000X-0.800000X-0.800000X0.800000X-0.800000X0.800000X0.800000X0*%
%ADD15O,1.800000X1.800000*%
%ADD16C,2.100000*%
%ADD17C,1.901800*%
%ADD18C,4.187800*%
%ADD19C,2.700000*%
%ADD20C,2.232000*%
%ADD21C,3.200000*%
%ADD22C,3.248000*%
%ADD23C,1.700000*%
%ADD24C,1.724000*%
G04 APERTURE END LIST*
D10*
X297000000Y-196302828D02*
X297857143Y-196302828D01*
X296828571Y-196817114D02*
X297428571Y-195017114D01*
X297428571Y-195017114D02*
X298028571Y-196817114D01*
X298542857Y-196731400D02*
X298800000Y-196817114D01*
X298800000Y-196817114D02*
X299228571Y-196817114D01*
X299228571Y-196817114D02*
X299400000Y-196731400D01*
X299400000Y-196731400D02*
X299485714Y-196645685D01*
X299485714Y-196645685D02*
X299571428Y-196474257D01*
X299571428Y-196474257D02*
X299571428Y-196302828D01*
X299571428Y-196302828D02*
X299485714Y-196131400D01*
X299485714Y-196131400D02*
X299400000Y-196045685D01*
X299400000Y-196045685D02*
X299228571Y-195959971D01*
X299228571Y-195959971D02*
X298885714Y-195874257D01*
X298885714Y-195874257D02*
X298714285Y-195788542D01*
X298714285Y-195788542D02*
X298628571Y-195702828D01*
X298628571Y-195702828D02*
X298542857Y-195531400D01*
X298542857Y-195531400D02*
X298542857Y-195359971D01*
X298542857Y-195359971D02*
X298628571Y-195188542D01*
X298628571Y-195188542D02*
X298714285Y-195102828D01*
X298714285Y-195102828D02*
X298885714Y-195017114D01*
X298885714Y-195017114D02*
X299314285Y-195017114D01*
X299314285Y-195017114D02*
X299571428Y-195102828D01*
X300171428Y-195017114D02*
X301285714Y-195017114D01*
X301285714Y-195017114D02*
X300685714Y-195702828D01*
X300685714Y-195702828D02*
X300942857Y-195702828D01*
X300942857Y-195702828D02*
X301114286Y-195788542D01*
X301114286Y-195788542D02*
X301200000Y-195874257D01*
X301200000Y-195874257D02*
X301285714Y-196045685D01*
X301285714Y-196045685D02*
X301285714Y-196474257D01*
X301285714Y-196474257D02*
X301200000Y-196645685D01*
X301200000Y-196645685D02*
X301114286Y-196731400D01*
X301114286Y-196731400D02*
X300942857Y-196817114D01*
X300942857Y-196817114D02*
X300428571Y-196817114D01*
X300428571Y-196817114D02*
X300257143Y-196731400D01*
X300257143Y-196731400D02*
X300171428Y-196645685D01*
X302057143Y-196817114D02*
X302057143Y-195017114D01*
X302228572Y-196131400D02*
X302742857Y-196817114D01*
X302742857Y-195617114D02*
X302057143Y-196302828D01*
X306085715Y-196988542D02*
X305914286Y-196902828D01*
X305914286Y-196902828D02*
X305742858Y-196731400D01*
X305742858Y-196731400D02*
X305485715Y-196474257D01*
X305485715Y-196474257D02*
X305314286Y-196388542D01*
X305314286Y-196388542D02*
X305142858Y-196388542D01*
X305228572Y-196817114D02*
X305057144Y-196731400D01*
X305057144Y-196731400D02*
X304885715Y-196559971D01*
X304885715Y-196559971D02*
X304800001Y-196217114D01*
X304800001Y-196217114D02*
X304800001Y-195617114D01*
X304800001Y-195617114D02*
X304885715Y-195274257D01*
X304885715Y-195274257D02*
X305057144Y-195102828D01*
X305057144Y-195102828D02*
X305228572Y-195017114D01*
X305228572Y-195017114D02*
X305571429Y-195017114D01*
X305571429Y-195017114D02*
X305742858Y-195102828D01*
X305742858Y-195102828D02*
X305914286Y-195274257D01*
X305914286Y-195274257D02*
X306000001Y-195617114D01*
X306000001Y-195617114D02*
X306000001Y-196217114D01*
X306000001Y-196217114D02*
X305914286Y-196559971D01*
X305914286Y-196559971D02*
X305742858Y-196731400D01*
X305742858Y-196731400D02*
X305571429Y-196817114D01*
X305571429Y-196817114D02*
X305228572Y-196817114D01*
X306600000Y-195017114D02*
X307028572Y-196817114D01*
X307028572Y-196817114D02*
X307371429Y-195531400D01*
X307371429Y-195531400D02*
X307714286Y-196817114D01*
X307714286Y-196817114D02*
X308142858Y-195017114D01*
X308828572Y-195874257D02*
X309428572Y-195874257D01*
X309685715Y-196817114D02*
X308828572Y-196817114D01*
X308828572Y-196817114D02*
X308828572Y-195017114D01*
X308828572Y-195017114D02*
X309685715Y-195017114D01*
X311485714Y-196817114D02*
X310885714Y-195959971D01*
X310457143Y-196817114D02*
X310457143Y-195017114D01*
X310457143Y-195017114D02*
X311142857Y-195017114D01*
X311142857Y-195017114D02*
X311314286Y-195102828D01*
X311314286Y-195102828D02*
X311400000Y-195188542D01*
X311400000Y-195188542D02*
X311485714Y-195359971D01*
X311485714Y-195359971D02*
X311485714Y-195617114D01*
X311485714Y-195617114D02*
X311400000Y-195788542D01*
X311400000Y-195788542D02*
X311314286Y-195874257D01*
X311314286Y-195874257D02*
X311142857Y-195959971D01*
X311142857Y-195959971D02*
X310457143Y-195959971D01*
X312000000Y-195017114D02*
X313028572Y-195017114D01*
X312514286Y-196817114D02*
X312514286Y-195017114D01*
X313971429Y-195959971D02*
X313971429Y-196817114D01*
X313371429Y-195017114D02*
X313971429Y-195959971D01*
X313971429Y-195959971D02*
X314571429Y-195017114D01*
X316542858Y-196131400D02*
X317914287Y-196131400D01*
X320142858Y-195617114D02*
X320142858Y-197159971D01*
X320142858Y-197159971D02*
X320057144Y-197331400D01*
X320057144Y-197331400D02*
X319885715Y-197417114D01*
X319885715Y-197417114D02*
X319800001Y-197417114D01*
X320142858Y-195017114D02*
X320057144Y-195102828D01*
X320057144Y-195102828D02*
X320142858Y-195188542D01*
X320142858Y-195188542D02*
X320228572Y-195102828D01*
X320228572Y-195102828D02*
X320142858Y-195017114D01*
X320142858Y-195017114D02*
X320142858Y-195188542D01*
X320828572Y-195617114D02*
X321257144Y-196817114D01*
X321685715Y-195617114D02*
X321257144Y-196817114D01*
X321257144Y-196817114D02*
X321085715Y-197245685D01*
X321085715Y-197245685D02*
X321000001Y-197331400D01*
X321000001Y-197331400D02*
X320828572Y-197417114D01*
X323142859Y-196817114D02*
X323142859Y-195874257D01*
X323142859Y-195874257D02*
X323057144Y-195702828D01*
X323057144Y-195702828D02*
X322885716Y-195617114D01*
X322885716Y-195617114D02*
X322542859Y-195617114D01*
X322542859Y-195617114D02*
X322371430Y-195702828D01*
X323142859Y-196731400D02*
X322971430Y-196817114D01*
X322971430Y-196817114D02*
X322542859Y-196817114D01*
X322542859Y-196817114D02*
X322371430Y-196731400D01*
X322371430Y-196731400D02*
X322285716Y-196559971D01*
X322285716Y-196559971D02*
X322285716Y-196388542D01*
X322285716Y-196388542D02*
X322371430Y-196217114D01*
X322371430Y-196217114D02*
X322542859Y-196131400D01*
X322542859Y-196131400D02*
X322971430Y-196131400D01*
X322971430Y-196131400D02*
X323142859Y-196045685D01*
X324000001Y-196817114D02*
X324000001Y-195617114D01*
X324000001Y-195788542D02*
X324085715Y-195702828D01*
X324085715Y-195702828D02*
X324257144Y-195617114D01*
X324257144Y-195617114D02*
X324514287Y-195617114D01*
X324514287Y-195617114D02*
X324685715Y-195702828D01*
X324685715Y-195702828D02*
X324771430Y-195874257D01*
X324771430Y-195874257D02*
X324771430Y-196817114D01*
X324771430Y-195874257D02*
X324857144Y-195702828D01*
X324857144Y-195702828D02*
X325028572Y-195617114D01*
X325028572Y-195617114D02*
X325285715Y-195617114D01*
X325285715Y-195617114D02*
X325457144Y-195702828D01*
X325457144Y-195702828D02*
X325542858Y-195874257D01*
X325542858Y-195874257D02*
X325542858Y-196817114D01*
X326400001Y-196817114D02*
X326400001Y-195617114D01*
X326400001Y-195017114D02*
X326314287Y-195102828D01*
X326314287Y-195102828D02*
X326400001Y-195188542D01*
X326400001Y-195188542D02*
X326485715Y-195102828D01*
X326485715Y-195102828D02*
X326400001Y-195017114D01*
X326400001Y-195017114D02*
X326400001Y-195188542D01*
X327257144Y-195617114D02*
X327257144Y-196817114D01*
X327257144Y-195788542D02*
X327342858Y-195702828D01*
X327342858Y-195702828D02*
X327514287Y-195617114D01*
X327514287Y-195617114D02*
X327771430Y-195617114D01*
X327771430Y-195617114D02*
X327942858Y-195702828D01*
X327942858Y-195702828D02*
X328028573Y-195874257D01*
X328028573Y-195874257D02*
X328028573Y-196817114D01*
X329571429Y-196731400D02*
X329400001Y-196817114D01*
X329400001Y-196817114D02*
X329057144Y-196817114D01*
X329057144Y-196817114D02*
X328885715Y-196731400D01*
X328885715Y-196731400D02*
X328800001Y-196559971D01*
X328800001Y-196559971D02*
X328800001Y-195874257D01*
X328800001Y-195874257D02*
X328885715Y-195702828D01*
X328885715Y-195702828D02*
X329057144Y-195617114D01*
X329057144Y-195617114D02*
X329400001Y-195617114D01*
X329400001Y-195617114D02*
X329571429Y-195702828D01*
X329571429Y-195702828D02*
X329657144Y-195874257D01*
X329657144Y-195874257D02*
X329657144Y-196045685D01*
X329657144Y-196045685D02*
X328800001Y-196217114D01*
X330685715Y-195788542D02*
X330514286Y-195702828D01*
X330514286Y-195702828D02*
X330428572Y-195617114D01*
X330428572Y-195617114D02*
X330342858Y-195445685D01*
X330342858Y-195445685D02*
X330342858Y-195359971D01*
X330342858Y-195359971D02*
X330428572Y-195188542D01*
X330428572Y-195188542D02*
X330514286Y-195102828D01*
X330514286Y-195102828D02*
X330685715Y-195017114D01*
X330685715Y-195017114D02*
X331028572Y-195017114D01*
X331028572Y-195017114D02*
X331200001Y-195102828D01*
X331200001Y-195102828D02*
X331285715Y-195188542D01*
X331285715Y-195188542D02*
X331371429Y-195359971D01*
X331371429Y-195359971D02*
X331371429Y-195445685D01*
X331371429Y-195445685D02*
X331285715Y-195617114D01*
X331285715Y-195617114D02*
X331200001Y-195702828D01*
X331200001Y-195702828D02*
X331028572Y-195788542D01*
X331028572Y-195788542D02*
X330685715Y-195788542D01*
X330685715Y-195788542D02*
X330514286Y-195874257D01*
X330514286Y-195874257D02*
X330428572Y-195959971D01*
X330428572Y-195959971D02*
X330342858Y-196131400D01*
X330342858Y-196131400D02*
X330342858Y-196474257D01*
X330342858Y-196474257D02*
X330428572Y-196645685D01*
X330428572Y-196645685D02*
X330514286Y-196731400D01*
X330514286Y-196731400D02*
X330685715Y-196817114D01*
X330685715Y-196817114D02*
X331028572Y-196817114D01*
X331028572Y-196817114D02*
X331200001Y-196731400D01*
X331200001Y-196731400D02*
X331285715Y-196645685D01*
X331285715Y-196645685D02*
X331371429Y-196474257D01*
X331371429Y-196474257D02*
X331371429Y-196131400D01*
X331371429Y-196131400D02*
X331285715Y-195959971D01*
X331285715Y-195959971D02*
X331200001Y-195874257D01*
X331200001Y-195874257D02*
X331028572Y-195788542D01*
X333085715Y-196817114D02*
X332057144Y-196817114D01*
X332571429Y-196817114D02*
X332571429Y-195017114D01*
X332571429Y-195017114D02*
X332400001Y-195274257D01*
X332400001Y-195274257D02*
X332228572Y-195445685D01*
X332228572Y-195445685D02*
X332057144Y-195531400D01*
X334714287Y-195017114D02*
X333857144Y-195017114D01*
X333857144Y-195017114D02*
X333771430Y-195874257D01*
X333771430Y-195874257D02*
X333857144Y-195788542D01*
X333857144Y-195788542D02*
X334028573Y-195702828D01*
X334028573Y-195702828D02*
X334457144Y-195702828D01*
X334457144Y-195702828D02*
X334628573Y-195788542D01*
X334628573Y-195788542D02*
X334714287Y-195874257D01*
X334714287Y-195874257D02*
X334800001Y-196045685D01*
X334800001Y-196045685D02*
X334800001Y-196474257D01*
X334800001Y-196474257D02*
X334714287Y-196645685D01*
X334714287Y-196645685D02*
X334628573Y-196731400D01*
X334628573Y-196731400D02*
X334457144Y-196817114D01*
X334457144Y-196817114D02*
X334028573Y-196817114D01*
X334028573Y-196817114D02*
X333857144Y-196731400D01*
X333857144Y-196731400D02*
X333771430Y-196645685D01*
X336685716Y-195959971D02*
X336600001Y-195874257D01*
X336600001Y-195874257D02*
X336428573Y-195788542D01*
X336428573Y-195788542D02*
X336257144Y-195788542D01*
X336257144Y-195788542D02*
X336085716Y-195874257D01*
X336085716Y-195874257D02*
X336000001Y-195959971D01*
X336000001Y-195959971D02*
X335914287Y-196131400D01*
X335914287Y-196131400D02*
X335914287Y-196302828D01*
X335914287Y-196302828D02*
X336000001Y-196474257D01*
X336000001Y-196474257D02*
X336085716Y-196559971D01*
X336085716Y-196559971D02*
X336257144Y-196645685D01*
X336257144Y-196645685D02*
X336428573Y-196645685D01*
X336428573Y-196645685D02*
X336600001Y-196559971D01*
X336600001Y-196559971D02*
X336685716Y-196474257D01*
X336685716Y-195788542D02*
X336685716Y-196474257D01*
X336685716Y-196474257D02*
X336771430Y-196559971D01*
X336771430Y-196559971D02*
X336857144Y-196559971D01*
X336857144Y-196559971D02*
X337028573Y-196474257D01*
X337028573Y-196474257D02*
X337114287Y-196302828D01*
X337114287Y-196302828D02*
X337114287Y-195874257D01*
X337114287Y-195874257D02*
X336942859Y-195617114D01*
X336942859Y-195617114D02*
X336685716Y-195445685D01*
X336685716Y-195445685D02*
X336342859Y-195359971D01*
X336342859Y-195359971D02*
X336000001Y-195445685D01*
X336000001Y-195445685D02*
X335742859Y-195617114D01*
X335742859Y-195617114D02*
X335571430Y-195874257D01*
X335571430Y-195874257D02*
X335485716Y-196217114D01*
X335485716Y-196217114D02*
X335571430Y-196559971D01*
X335571430Y-196559971D02*
X335742859Y-196817114D01*
X335742859Y-196817114D02*
X336000001Y-196988542D01*
X336000001Y-196988542D02*
X336342859Y-197074257D01*
X336342859Y-197074257D02*
X336685716Y-196988542D01*
X336685716Y-196988542D02*
X336942859Y-196817114D01*
X338657145Y-195617114D02*
X338657145Y-197074257D01*
X338657145Y-197074257D02*
X338571430Y-197245685D01*
X338571430Y-197245685D02*
X338485716Y-197331400D01*
X338485716Y-197331400D02*
X338314287Y-197417114D01*
X338314287Y-197417114D02*
X338057145Y-197417114D01*
X338057145Y-197417114D02*
X337885716Y-197331400D01*
X338657145Y-196731400D02*
X338485716Y-196817114D01*
X338485716Y-196817114D02*
X338142859Y-196817114D01*
X338142859Y-196817114D02*
X337971430Y-196731400D01*
X337971430Y-196731400D02*
X337885716Y-196645685D01*
X337885716Y-196645685D02*
X337800002Y-196474257D01*
X337800002Y-196474257D02*
X337800002Y-195959971D01*
X337800002Y-195959971D02*
X337885716Y-195788542D01*
X337885716Y-195788542D02*
X337971430Y-195702828D01*
X337971430Y-195702828D02*
X338142859Y-195617114D01*
X338142859Y-195617114D02*
X338485716Y-195617114D01*
X338485716Y-195617114D02*
X338657145Y-195702828D01*
X339514287Y-196817114D02*
X339514287Y-195617114D01*
X339514287Y-195788542D02*
X339600001Y-195702828D01*
X339600001Y-195702828D02*
X339771430Y-195617114D01*
X339771430Y-195617114D02*
X340028573Y-195617114D01*
X340028573Y-195617114D02*
X340200001Y-195702828D01*
X340200001Y-195702828D02*
X340285716Y-195874257D01*
X340285716Y-195874257D02*
X340285716Y-196817114D01*
X340285716Y-195874257D02*
X340371430Y-195702828D01*
X340371430Y-195702828D02*
X340542858Y-195617114D01*
X340542858Y-195617114D02*
X340800001Y-195617114D01*
X340800001Y-195617114D02*
X340971430Y-195702828D01*
X340971430Y-195702828D02*
X341057144Y-195874257D01*
X341057144Y-195874257D02*
X341057144Y-196817114D01*
X342685716Y-196817114D02*
X342685716Y-195874257D01*
X342685716Y-195874257D02*
X342600001Y-195702828D01*
X342600001Y-195702828D02*
X342428573Y-195617114D01*
X342428573Y-195617114D02*
X342085716Y-195617114D01*
X342085716Y-195617114D02*
X341914287Y-195702828D01*
X342685716Y-196731400D02*
X342514287Y-196817114D01*
X342514287Y-196817114D02*
X342085716Y-196817114D01*
X342085716Y-196817114D02*
X341914287Y-196731400D01*
X341914287Y-196731400D02*
X341828573Y-196559971D01*
X341828573Y-196559971D02*
X341828573Y-196388542D01*
X341828573Y-196388542D02*
X341914287Y-196217114D01*
X341914287Y-196217114D02*
X342085716Y-196131400D01*
X342085716Y-196131400D02*
X342514287Y-196131400D01*
X342514287Y-196131400D02*
X342685716Y-196045685D01*
X343542858Y-196817114D02*
X343542858Y-195617114D01*
X343542858Y-195017114D02*
X343457144Y-195102828D01*
X343457144Y-195102828D02*
X343542858Y-195188542D01*
X343542858Y-195188542D02*
X343628572Y-195102828D01*
X343628572Y-195102828D02*
X343542858Y-195017114D01*
X343542858Y-195017114D02*
X343542858Y-195188542D01*
X344657144Y-196817114D02*
X344485715Y-196731400D01*
X344485715Y-196731400D02*
X344400001Y-196559971D01*
X344400001Y-196559971D02*
X344400001Y-195017114D01*
X345342858Y-196645685D02*
X345428572Y-196731400D01*
X345428572Y-196731400D02*
X345342858Y-196817114D01*
X345342858Y-196817114D02*
X345257144Y-196731400D01*
X345257144Y-196731400D02*
X345342858Y-196645685D01*
X345342858Y-196645685D02*
X345342858Y-196817114D01*
X346971430Y-196731400D02*
X346800001Y-196817114D01*
X346800001Y-196817114D02*
X346457144Y-196817114D01*
X346457144Y-196817114D02*
X346285715Y-196731400D01*
X346285715Y-196731400D02*
X346200001Y-196645685D01*
X346200001Y-196645685D02*
X346114287Y-196474257D01*
X346114287Y-196474257D02*
X346114287Y-195959971D01*
X346114287Y-195959971D02*
X346200001Y-195788542D01*
X346200001Y-195788542D02*
X346285715Y-195702828D01*
X346285715Y-195702828D02*
X346457144Y-195617114D01*
X346457144Y-195617114D02*
X346800001Y-195617114D01*
X346800001Y-195617114D02*
X346971430Y-195702828D01*
X348000001Y-196817114D02*
X347828572Y-196731400D01*
X347828572Y-196731400D02*
X347742858Y-196645685D01*
X347742858Y-196645685D02*
X347657144Y-196474257D01*
X347657144Y-196474257D02*
X347657144Y-195959971D01*
X347657144Y-195959971D02*
X347742858Y-195788542D01*
X347742858Y-195788542D02*
X347828572Y-195702828D01*
X347828572Y-195702828D02*
X348000001Y-195617114D01*
X348000001Y-195617114D02*
X348257144Y-195617114D01*
X348257144Y-195617114D02*
X348428572Y-195702828D01*
X348428572Y-195702828D02*
X348514287Y-195788542D01*
X348514287Y-195788542D02*
X348600001Y-195959971D01*
X348600001Y-195959971D02*
X348600001Y-196474257D01*
X348600001Y-196474257D02*
X348514287Y-196645685D01*
X348514287Y-196645685D02*
X348428572Y-196731400D01*
X348428572Y-196731400D02*
X348257144Y-196817114D01*
X348257144Y-196817114D02*
X348000001Y-196817114D01*
X349371429Y-196817114D02*
X349371429Y-195617114D01*
X349371429Y-195788542D02*
X349457143Y-195702828D01*
X349457143Y-195702828D02*
X349628572Y-195617114D01*
X349628572Y-195617114D02*
X349885715Y-195617114D01*
X349885715Y-195617114D02*
X350057143Y-195702828D01*
X350057143Y-195702828D02*
X350142858Y-195874257D01*
X350142858Y-195874257D02*
X350142858Y-196817114D01*
X350142858Y-195874257D02*
X350228572Y-195702828D01*
X350228572Y-195702828D02*
X350400000Y-195617114D01*
X350400000Y-195617114D02*
X350657143Y-195617114D01*
X350657143Y-195617114D02*
X350828572Y-195702828D01*
X350828572Y-195702828D02*
X350914286Y-195874257D01*
X350914286Y-195874257D02*
X350914286Y-196817114D01*
D11*
X157200595Y-154129819D02*
X157200595Y-153129819D01*
X157200595Y-153129819D02*
X157438690Y-153129819D01*
X157438690Y-153129819D02*
X157581547Y-153177438D01*
X157581547Y-153177438D02*
X157676785Y-153272676D01*
X157676785Y-153272676D02*
X157724404Y-153367914D01*
X157724404Y-153367914D02*
X157772023Y-153558390D01*
X157772023Y-153558390D02*
X157772023Y-153701247D01*
X157772023Y-153701247D02*
X157724404Y-153891723D01*
X157724404Y-153891723D02*
X157676785Y-153986961D01*
X157676785Y-153986961D02*
X157581547Y-154082200D01*
X157581547Y-154082200D02*
X157438690Y-154129819D01*
X157438690Y-154129819D02*
X157200595Y-154129819D01*
X205158928Y-172656009D02*
X205301785Y-172703628D01*
X205301785Y-172703628D02*
X205349404Y-172751247D01*
X205349404Y-172751247D02*
X205397023Y-172846485D01*
X205397023Y-172846485D02*
X205397023Y-172989342D01*
X205397023Y-172989342D02*
X205349404Y-173084580D01*
X205349404Y-173084580D02*
X205301785Y-173132200D01*
X205301785Y-173132200D02*
X205206547Y-173179819D01*
X205206547Y-173179819D02*
X204825595Y-173179819D01*
X204825595Y-173179819D02*
X204825595Y-172179819D01*
X204825595Y-172179819D02*
X205158928Y-172179819D01*
X205158928Y-172179819D02*
X205254166Y-172227438D01*
X205254166Y-172227438D02*
X205301785Y-172275057D01*
X205301785Y-172275057D02*
X205349404Y-172370295D01*
X205349404Y-172370295D02*
X205349404Y-172465533D01*
X205349404Y-172465533D02*
X205301785Y-172560771D01*
X205301785Y-172560771D02*
X205254166Y-172608390D01*
X205254166Y-172608390D02*
X205158928Y-172656009D01*
X205158928Y-172656009D02*
X204825595Y-172656009D01*
X336104166Y-115506009D02*
X336247023Y-115553628D01*
X336247023Y-115553628D02*
X336294642Y-115601247D01*
X336294642Y-115601247D02*
X336342261Y-115696485D01*
X336342261Y-115696485D02*
X336342261Y-115839342D01*
X336342261Y-115839342D02*
X336294642Y-115934580D01*
X336294642Y-115934580D02*
X336247023Y-115982200D01*
X336247023Y-115982200D02*
X336151785Y-116029819D01*
X336151785Y-116029819D02*
X335770833Y-116029819D01*
X335770833Y-116029819D02*
X335770833Y-115029819D01*
X335770833Y-115029819D02*
X336104166Y-115029819D01*
X336104166Y-115029819D02*
X336199404Y-115077438D01*
X336199404Y-115077438D02*
X336247023Y-115125057D01*
X336247023Y-115125057D02*
X336294642Y-115220295D01*
X336294642Y-115220295D02*
X336294642Y-115315533D01*
X336294642Y-115315533D02*
X336247023Y-115410771D01*
X336247023Y-115410771D02*
X336199404Y-115458390D01*
X336199404Y-115458390D02*
X336104166Y-115506009D01*
X336104166Y-115506009D02*
X335770833Y-115506009D01*
X336723214Y-115744104D02*
X337199404Y-115744104D01*
X336627976Y-116029819D02*
X336961309Y-115029819D01*
X336961309Y-115029819D02*
X337294642Y-116029819D01*
X338199404Y-115934580D02*
X338151785Y-115982200D01*
X338151785Y-115982200D02*
X338008928Y-116029819D01*
X338008928Y-116029819D02*
X337913690Y-116029819D01*
X337913690Y-116029819D02*
X337770833Y-115982200D01*
X337770833Y-115982200D02*
X337675595Y-115886961D01*
X337675595Y-115886961D02*
X337627976Y-115791723D01*
X337627976Y-115791723D02*
X337580357Y-115601247D01*
X337580357Y-115601247D02*
X337580357Y-115458390D01*
X337580357Y-115458390D02*
X337627976Y-115267914D01*
X337627976Y-115267914D02*
X337675595Y-115172676D01*
X337675595Y-115172676D02*
X337770833Y-115077438D01*
X337770833Y-115077438D02*
X337913690Y-115029819D01*
X337913690Y-115029819D02*
X338008928Y-115029819D01*
X338008928Y-115029819D02*
X338151785Y-115077438D01*
X338151785Y-115077438D02*
X338199404Y-115125057D01*
X338627976Y-116029819D02*
X338627976Y-115029819D01*
X339199404Y-116029819D02*
X338770833Y-115458390D01*
X339199404Y-115029819D02*
X338627976Y-115601247D01*
X339580357Y-115982200D02*
X339723214Y-116029819D01*
X339723214Y-116029819D02*
X339961309Y-116029819D01*
X339961309Y-116029819D02*
X340056547Y-115982200D01*
X340056547Y-115982200D02*
X340104166Y-115934580D01*
X340104166Y-115934580D02*
X340151785Y-115839342D01*
X340151785Y-115839342D02*
X340151785Y-115744104D01*
X340151785Y-115744104D02*
X340104166Y-115648866D01*
X340104166Y-115648866D02*
X340056547Y-115601247D01*
X340056547Y-115601247D02*
X339961309Y-115553628D01*
X339961309Y-115553628D02*
X339770833Y-115506009D01*
X339770833Y-115506009D02*
X339675595Y-115458390D01*
X339675595Y-115458390D02*
X339627976Y-115410771D01*
X339627976Y-115410771D02*
X339580357Y-115315533D01*
X339580357Y-115315533D02*
X339580357Y-115220295D01*
X339580357Y-115220295D02*
X339627976Y-115125057D01*
X339627976Y-115125057D02*
X339675595Y-115077438D01*
X339675595Y-115077438D02*
X339770833Y-115029819D01*
X339770833Y-115029819D02*
X340008928Y-115029819D01*
X340008928Y-115029819D02*
X340151785Y-115077438D01*
X340580357Y-116029819D02*
X340580357Y-115029819D01*
X340580357Y-115029819D02*
X340961309Y-115029819D01*
X340961309Y-115029819D02*
X341056547Y-115077438D01*
X341056547Y-115077438D02*
X341104166Y-115125057D01*
X341104166Y-115125057D02*
X341151785Y-115220295D01*
X341151785Y-115220295D02*
X341151785Y-115363152D01*
X341151785Y-115363152D02*
X341104166Y-115458390D01*
X341104166Y-115458390D02*
X341056547Y-115506009D01*
X341056547Y-115506009D02*
X340961309Y-115553628D01*
X340961309Y-115553628D02*
X340580357Y-115553628D01*
X340961904Y-134556009D02*
X341104761Y-134603628D01*
X341104761Y-134603628D02*
X341152380Y-134651247D01*
X341152380Y-134651247D02*
X341199999Y-134746485D01*
X341199999Y-134746485D02*
X341199999Y-134889342D01*
X341199999Y-134889342D02*
X341152380Y-134984580D01*
X341152380Y-134984580D02*
X341104761Y-135032200D01*
X341104761Y-135032200D02*
X341009523Y-135079819D01*
X341009523Y-135079819D02*
X340628571Y-135079819D01*
X340628571Y-135079819D02*
X340628571Y-134079819D01*
X340628571Y-134079819D02*
X340961904Y-134079819D01*
X340961904Y-134079819D02*
X341057142Y-134127438D01*
X341057142Y-134127438D02*
X341104761Y-134175057D01*
X341104761Y-134175057D02*
X341152380Y-134270295D01*
X341152380Y-134270295D02*
X341152380Y-134365533D01*
X341152380Y-134365533D02*
X341104761Y-134460771D01*
X341104761Y-134460771D02*
X341057142Y-134508390D01*
X341057142Y-134508390D02*
X340961904Y-134556009D01*
X340961904Y-134556009D02*
X340628571Y-134556009D01*
X341580952Y-135032200D02*
X341723809Y-135079819D01*
X341723809Y-135079819D02*
X341961904Y-135079819D01*
X341961904Y-135079819D02*
X342057142Y-135032200D01*
X342057142Y-135032200D02*
X342104761Y-134984580D01*
X342104761Y-134984580D02*
X342152380Y-134889342D01*
X342152380Y-134889342D02*
X342152380Y-134794104D01*
X342152380Y-134794104D02*
X342104761Y-134698866D01*
X342104761Y-134698866D02*
X342057142Y-134651247D01*
X342057142Y-134651247D02*
X341961904Y-134603628D01*
X341961904Y-134603628D02*
X341771428Y-134556009D01*
X341771428Y-134556009D02*
X341676190Y-134508390D01*
X341676190Y-134508390D02*
X341628571Y-134460771D01*
X341628571Y-134460771D02*
X341580952Y-134365533D01*
X341580952Y-134365533D02*
X341580952Y-134270295D01*
X341580952Y-134270295D02*
X341628571Y-134175057D01*
X341628571Y-134175057D02*
X341676190Y-134127438D01*
X341676190Y-134127438D02*
X341771428Y-134079819D01*
X341771428Y-134079819D02*
X342009523Y-134079819D01*
X342009523Y-134079819D02*
X342152380Y-134127438D01*
X343057142Y-135079819D02*
X342580952Y-135079819D01*
X342580952Y-135079819D02*
X342580952Y-134079819D01*
X343342857Y-134794104D02*
X343819047Y-134794104D01*
X343247619Y-135079819D02*
X343580952Y-134079819D01*
X343580952Y-134079819D02*
X343914285Y-135079819D01*
X344200000Y-135032200D02*
X344342857Y-135079819D01*
X344342857Y-135079819D02*
X344580952Y-135079819D01*
X344580952Y-135079819D02*
X344676190Y-135032200D01*
X344676190Y-135032200D02*
X344723809Y-134984580D01*
X344723809Y-134984580D02*
X344771428Y-134889342D01*
X344771428Y-134889342D02*
X344771428Y-134794104D01*
X344771428Y-134794104D02*
X344723809Y-134698866D01*
X344723809Y-134698866D02*
X344676190Y-134651247D01*
X344676190Y-134651247D02*
X344580952Y-134603628D01*
X344580952Y-134603628D02*
X344390476Y-134556009D01*
X344390476Y-134556009D02*
X344295238Y-134508390D01*
X344295238Y-134508390D02*
X344247619Y-134460771D01*
X344247619Y-134460771D02*
X344200000Y-134365533D01*
X344200000Y-134365533D02*
X344200000Y-134270295D01*
X344200000Y-134270295D02*
X344247619Y-134175057D01*
X344247619Y-134175057D02*
X344295238Y-134127438D01*
X344295238Y-134127438D02*
X344390476Y-134079819D01*
X344390476Y-134079819D02*
X344628571Y-134079819D01*
X344628571Y-134079819D02*
X344771428Y-134127438D01*
X345200000Y-135079819D02*
X345200000Y-134079819D01*
X345200000Y-134556009D02*
X345771428Y-134556009D01*
X345771428Y-135079819D02*
X345771428Y-134079819D01*
X167297023Y-173084580D02*
X167249404Y-173132200D01*
X167249404Y-173132200D02*
X167106547Y-173179819D01*
X167106547Y-173179819D02*
X167011309Y-173179819D01*
X167011309Y-173179819D02*
X166868452Y-173132200D01*
X166868452Y-173132200D02*
X166773214Y-173036961D01*
X166773214Y-173036961D02*
X166725595Y-172941723D01*
X166725595Y-172941723D02*
X166677976Y-172751247D01*
X166677976Y-172751247D02*
X166677976Y-172608390D01*
X166677976Y-172608390D02*
X166725595Y-172417914D01*
X166725595Y-172417914D02*
X166773214Y-172322676D01*
X166773214Y-172322676D02*
X166868452Y-172227438D01*
X166868452Y-172227438D02*
X167011309Y-172179819D01*
X167011309Y-172179819D02*
X167106547Y-172179819D01*
X167106547Y-172179819D02*
X167249404Y-172227438D01*
X167249404Y-172227438D02*
X167297023Y-172275057D01*
X87311011Y-154034580D02*
X87263392Y-154082200D01*
X87263392Y-154082200D02*
X87120535Y-154129819D01*
X87120535Y-154129819D02*
X87025297Y-154129819D01*
X87025297Y-154129819D02*
X86882440Y-154082200D01*
X86882440Y-154082200D02*
X86787202Y-153986961D01*
X86787202Y-153986961D02*
X86739583Y-153891723D01*
X86739583Y-153891723D02*
X86691964Y-153701247D01*
X86691964Y-153701247D02*
X86691964Y-153558390D01*
X86691964Y-153558390D02*
X86739583Y-153367914D01*
X86739583Y-153367914D02*
X86787202Y-153272676D01*
X86787202Y-153272676D02*
X86882440Y-153177438D01*
X86882440Y-153177438D02*
X87025297Y-153129819D01*
X87025297Y-153129819D02*
X87120535Y-153129819D01*
X87120535Y-153129819D02*
X87263392Y-153177438D01*
X87263392Y-153177438D02*
X87311011Y-153225057D01*
X87691964Y-153844104D02*
X88168154Y-153844104D01*
X87596726Y-154129819D02*
X87930059Y-153129819D01*
X87930059Y-153129819D02*
X88263392Y-154129819D01*
X88596726Y-154129819D02*
X88596726Y-153129819D01*
X88596726Y-153129819D02*
X88977678Y-153129819D01*
X88977678Y-153129819D02*
X89072916Y-153177438D01*
X89072916Y-153177438D02*
X89120535Y-153225057D01*
X89120535Y-153225057D02*
X89168154Y-153320295D01*
X89168154Y-153320295D02*
X89168154Y-153463152D01*
X89168154Y-153463152D02*
X89120535Y-153558390D01*
X89120535Y-153558390D02*
X89072916Y-153606009D01*
X89072916Y-153606009D02*
X88977678Y-153653628D01*
X88977678Y-153653628D02*
X88596726Y-153653628D01*
X89549107Y-154082200D02*
X89691964Y-154129819D01*
X89691964Y-154129819D02*
X89930059Y-154129819D01*
X89930059Y-154129819D02*
X90025297Y-154082200D01*
X90025297Y-154082200D02*
X90072916Y-154034580D01*
X90072916Y-154034580D02*
X90120535Y-153939342D01*
X90120535Y-153939342D02*
X90120535Y-153844104D01*
X90120535Y-153844104D02*
X90072916Y-153748866D01*
X90072916Y-153748866D02*
X90025297Y-153701247D01*
X90025297Y-153701247D02*
X89930059Y-153653628D01*
X89930059Y-153653628D02*
X89739583Y-153606009D01*
X89739583Y-153606009D02*
X89644345Y-153558390D01*
X89644345Y-153558390D02*
X89596726Y-153510771D01*
X89596726Y-153510771D02*
X89549107Y-153415533D01*
X89549107Y-153415533D02*
X89549107Y-153320295D01*
X89549107Y-153320295D02*
X89596726Y-153225057D01*
X89596726Y-153225057D02*
X89644345Y-153177438D01*
X89644345Y-153177438D02*
X89739583Y-153129819D01*
X89739583Y-153129819D02*
X89977678Y-153129819D01*
X89977678Y-153129819D02*
X90120535Y-153177438D01*
X322578571Y-135079819D02*
X322245238Y-134603628D01*
X322007143Y-135079819D02*
X322007143Y-134079819D01*
X322007143Y-134079819D02*
X322388095Y-134079819D01*
X322388095Y-134079819D02*
X322483333Y-134127438D01*
X322483333Y-134127438D02*
X322530952Y-134175057D01*
X322530952Y-134175057D02*
X322578571Y-134270295D01*
X322578571Y-134270295D02*
X322578571Y-134413152D01*
X322578571Y-134413152D02*
X322530952Y-134508390D01*
X322530952Y-134508390D02*
X322483333Y-134556009D01*
X322483333Y-134556009D02*
X322388095Y-134603628D01*
X322388095Y-134603628D02*
X322007143Y-134603628D01*
X323340476Y-134556009D02*
X323483333Y-134603628D01*
X323483333Y-134603628D02*
X323530952Y-134651247D01*
X323530952Y-134651247D02*
X323578571Y-134746485D01*
X323578571Y-134746485D02*
X323578571Y-134889342D01*
X323578571Y-134889342D02*
X323530952Y-134984580D01*
X323530952Y-134984580D02*
X323483333Y-135032200D01*
X323483333Y-135032200D02*
X323388095Y-135079819D01*
X323388095Y-135079819D02*
X323007143Y-135079819D01*
X323007143Y-135079819D02*
X323007143Y-134079819D01*
X323007143Y-134079819D02*
X323340476Y-134079819D01*
X323340476Y-134079819D02*
X323435714Y-134127438D01*
X323435714Y-134127438D02*
X323483333Y-134175057D01*
X323483333Y-134175057D02*
X323530952Y-134270295D01*
X323530952Y-134270295D02*
X323530952Y-134365533D01*
X323530952Y-134365533D02*
X323483333Y-134460771D01*
X323483333Y-134460771D02*
X323435714Y-134508390D01*
X323435714Y-134508390D02*
X323340476Y-134556009D01*
X323340476Y-134556009D02*
X323007143Y-134556009D01*
X324578571Y-135079819D02*
X324245238Y-134603628D01*
X324007143Y-135079819D02*
X324007143Y-134079819D01*
X324007143Y-134079819D02*
X324388095Y-134079819D01*
X324388095Y-134079819D02*
X324483333Y-134127438D01*
X324483333Y-134127438D02*
X324530952Y-134175057D01*
X324530952Y-134175057D02*
X324578571Y-134270295D01*
X324578571Y-134270295D02*
X324578571Y-134413152D01*
X324578571Y-134413152D02*
X324530952Y-134508390D01*
X324530952Y-134508390D02*
X324483333Y-134556009D01*
X324483333Y-134556009D02*
X324388095Y-134603628D01*
X324388095Y-134603628D02*
X324007143Y-134603628D01*
X325007143Y-135079819D02*
X325007143Y-134079819D01*
X325578571Y-135079819D02*
X325150000Y-134508390D01*
X325578571Y-134079819D02*
X325007143Y-134651247D01*
X325864286Y-134079819D02*
X326435714Y-134079819D01*
X326150000Y-135079819D02*
X326150000Y-134079819D01*
X298861309Y-96884580D02*
X298813690Y-96932200D01*
X298813690Y-96932200D02*
X298670833Y-96979819D01*
X298670833Y-96979819D02*
X298575595Y-96979819D01*
X298575595Y-96979819D02*
X298432738Y-96932200D01*
X298432738Y-96932200D02*
X298337500Y-96836961D01*
X298337500Y-96836961D02*
X298289881Y-96741723D01*
X298289881Y-96741723D02*
X298242262Y-96551247D01*
X298242262Y-96551247D02*
X298242262Y-96408390D01*
X298242262Y-96408390D02*
X298289881Y-96217914D01*
X298289881Y-96217914D02*
X298337500Y-96122676D01*
X298337500Y-96122676D02*
X298432738Y-96027438D01*
X298432738Y-96027438D02*
X298575595Y-95979819D01*
X298575595Y-95979819D02*
X298670833Y-95979819D01*
X298670833Y-95979819D02*
X298813690Y-96027438D01*
X298813690Y-96027438D02*
X298861309Y-96075057D01*
X299766071Y-96979819D02*
X299289881Y-96979819D01*
X299289881Y-96979819D02*
X299289881Y-95979819D01*
X300099405Y-96456009D02*
X300432738Y-96456009D01*
X300575595Y-96979819D02*
X300099405Y-96979819D01*
X300099405Y-96979819D02*
X300099405Y-95979819D01*
X300099405Y-95979819D02*
X300575595Y-95979819D01*
X300956548Y-96694104D02*
X301432738Y-96694104D01*
X300861310Y-96979819D02*
X301194643Y-95979819D01*
X301194643Y-95979819D02*
X301527976Y-96979819D01*
X302432738Y-96979819D02*
X302099405Y-96503628D01*
X301861310Y-96979819D02*
X301861310Y-95979819D01*
X301861310Y-95979819D02*
X302242262Y-95979819D01*
X302242262Y-95979819D02*
X302337500Y-96027438D01*
X302337500Y-96027438D02*
X302385119Y-96075057D01*
X302385119Y-96075057D02*
X302432738Y-96170295D01*
X302432738Y-96170295D02*
X302432738Y-96313152D01*
X302432738Y-96313152D02*
X302385119Y-96408390D01*
X302385119Y-96408390D02*
X302337500Y-96456009D01*
X302337500Y-96456009D02*
X302242262Y-96503628D01*
X302242262Y-96503628D02*
X301861310Y-96503628D01*
X176655357Y-153606009D02*
X176322024Y-153606009D01*
X176322024Y-154129819D02*
X176322024Y-153129819D01*
X176322024Y-153129819D02*
X176798214Y-153129819D01*
X260451785Y-173084580D02*
X260404166Y-173132200D01*
X260404166Y-173132200D02*
X260261309Y-173179819D01*
X260261309Y-173179819D02*
X260166071Y-173179819D01*
X260166071Y-173179819D02*
X260023214Y-173132200D01*
X260023214Y-173132200D02*
X259927976Y-173036961D01*
X259927976Y-173036961D02*
X259880357Y-172941723D01*
X259880357Y-172941723D02*
X259832738Y-172751247D01*
X259832738Y-172751247D02*
X259832738Y-172608390D01*
X259832738Y-172608390D02*
X259880357Y-172417914D01*
X259880357Y-172417914D02*
X259927976Y-172322676D01*
X259927976Y-172322676D02*
X260023214Y-172227438D01*
X260023214Y-172227438D02*
X260166071Y-172179819D01*
X260166071Y-172179819D02*
X260261309Y-172179819D01*
X260261309Y-172179819D02*
X260404166Y-172227438D01*
X260404166Y-172227438D02*
X260451785Y-172275057D01*
X261070833Y-172179819D02*
X261261309Y-172179819D01*
X261261309Y-172179819D02*
X261356547Y-172227438D01*
X261356547Y-172227438D02*
X261451785Y-172322676D01*
X261451785Y-172322676D02*
X261499404Y-172513152D01*
X261499404Y-172513152D02*
X261499404Y-172846485D01*
X261499404Y-172846485D02*
X261451785Y-173036961D01*
X261451785Y-173036961D02*
X261356547Y-173132200D01*
X261356547Y-173132200D02*
X261261309Y-173179819D01*
X261261309Y-173179819D02*
X261070833Y-173179819D01*
X261070833Y-173179819D02*
X260975595Y-173132200D01*
X260975595Y-173132200D02*
X260880357Y-173036961D01*
X260880357Y-173036961D02*
X260832738Y-172846485D01*
X260832738Y-172846485D02*
X260832738Y-172513152D01*
X260832738Y-172513152D02*
X260880357Y-172322676D01*
X260880357Y-172322676D02*
X260975595Y-172227438D01*
X260975595Y-172227438D02*
X261070833Y-172179819D01*
X261927976Y-173179819D02*
X261927976Y-172179819D01*
X261927976Y-172179819D02*
X262261309Y-172894104D01*
X262261309Y-172894104D02*
X262594642Y-172179819D01*
X262594642Y-172179819D02*
X262594642Y-173179819D01*
X263070833Y-173179819D02*
X263070833Y-172179819D01*
X263070833Y-172179819D02*
X263404166Y-172894104D01*
X263404166Y-172894104D02*
X263737499Y-172179819D01*
X263737499Y-172179819D02*
X263737499Y-173179819D01*
X264166071Y-172894104D02*
X264642261Y-172894104D01*
X264070833Y-173179819D02*
X264404166Y-172179819D01*
X264404166Y-172179819D02*
X264737499Y-173179819D01*
X85048809Y-192134580D02*
X85001190Y-192182200D01*
X85001190Y-192182200D02*
X84858333Y-192229819D01*
X84858333Y-192229819D02*
X84763095Y-192229819D01*
X84763095Y-192229819D02*
X84620238Y-192182200D01*
X84620238Y-192182200D02*
X84525000Y-192086961D01*
X84525000Y-192086961D02*
X84477381Y-191991723D01*
X84477381Y-191991723D02*
X84429762Y-191801247D01*
X84429762Y-191801247D02*
X84429762Y-191658390D01*
X84429762Y-191658390D02*
X84477381Y-191467914D01*
X84477381Y-191467914D02*
X84525000Y-191372676D01*
X84525000Y-191372676D02*
X84620238Y-191277438D01*
X84620238Y-191277438D02*
X84763095Y-191229819D01*
X84763095Y-191229819D02*
X84858333Y-191229819D01*
X84858333Y-191229819D02*
X85001190Y-191277438D01*
X85001190Y-191277438D02*
X85048809Y-191325057D01*
X85334524Y-191229819D02*
X85905952Y-191229819D01*
X85620238Y-192229819D02*
X85620238Y-191229819D01*
X86810714Y-192229819D02*
X86477381Y-191753628D01*
X86239286Y-192229819D02*
X86239286Y-191229819D01*
X86239286Y-191229819D02*
X86620238Y-191229819D01*
X86620238Y-191229819D02*
X86715476Y-191277438D01*
X86715476Y-191277438D02*
X86763095Y-191325057D01*
X86763095Y-191325057D02*
X86810714Y-191420295D01*
X86810714Y-191420295D02*
X86810714Y-191563152D01*
X86810714Y-191563152D02*
X86763095Y-191658390D01*
X86763095Y-191658390D02*
X86715476Y-191706009D01*
X86715476Y-191706009D02*
X86620238Y-191753628D01*
X86620238Y-191753628D02*
X86239286Y-191753628D01*
X87715476Y-192229819D02*
X87239286Y-192229819D01*
X87239286Y-192229819D02*
X87239286Y-191229819D01*
X317673214Y-96694104D02*
X318149404Y-96694104D01*
X317577976Y-96979819D02*
X317911309Y-95979819D01*
X317911309Y-95979819D02*
X318244642Y-96979819D01*
X318577976Y-96979819D02*
X318577976Y-95979819D01*
X318577976Y-95979819D02*
X318958928Y-95979819D01*
X318958928Y-95979819D02*
X319054166Y-96027438D01*
X319054166Y-96027438D02*
X319101785Y-96075057D01*
X319101785Y-96075057D02*
X319149404Y-96170295D01*
X319149404Y-96170295D02*
X319149404Y-96313152D01*
X319149404Y-96313152D02*
X319101785Y-96408390D01*
X319101785Y-96408390D02*
X319054166Y-96456009D01*
X319054166Y-96456009D02*
X318958928Y-96503628D01*
X318958928Y-96503628D02*
X318577976Y-96503628D01*
X319577976Y-96979819D02*
X319577976Y-95979819D01*
X319577976Y-95979819D02*
X319958928Y-95979819D01*
X319958928Y-95979819D02*
X320054166Y-96027438D01*
X320054166Y-96027438D02*
X320101785Y-96075057D01*
X320101785Y-96075057D02*
X320149404Y-96170295D01*
X320149404Y-96170295D02*
X320149404Y-96313152D01*
X320149404Y-96313152D02*
X320101785Y-96408390D01*
X320101785Y-96408390D02*
X320054166Y-96456009D01*
X320054166Y-96456009D02*
X319958928Y-96503628D01*
X319958928Y-96503628D02*
X319577976Y-96503628D01*
X320530357Y-96932200D02*
X320673214Y-96979819D01*
X320673214Y-96979819D02*
X320911309Y-96979819D01*
X320911309Y-96979819D02*
X321006547Y-96932200D01*
X321006547Y-96932200D02*
X321054166Y-96884580D01*
X321054166Y-96884580D02*
X321101785Y-96789342D01*
X321101785Y-96789342D02*
X321101785Y-96694104D01*
X321101785Y-96694104D02*
X321054166Y-96598866D01*
X321054166Y-96598866D02*
X321006547Y-96551247D01*
X321006547Y-96551247D02*
X320911309Y-96503628D01*
X320911309Y-96503628D02*
X320720833Y-96456009D01*
X320720833Y-96456009D02*
X320625595Y-96408390D01*
X320625595Y-96408390D02*
X320577976Y-96360771D01*
X320577976Y-96360771D02*
X320530357Y-96265533D01*
X320530357Y-96265533D02*
X320530357Y-96170295D01*
X320530357Y-96170295D02*
X320577976Y-96075057D01*
X320577976Y-96075057D02*
X320625595Y-96027438D01*
X320625595Y-96027438D02*
X320720833Y-95979819D01*
X320720833Y-95979819D02*
X320958928Y-95979819D01*
X320958928Y-95979819D02*
X321101785Y-96027438D01*
X303219048Y-192229819D02*
X303219048Y-191229819D01*
X303219048Y-191229819D02*
X303457143Y-191229819D01*
X303457143Y-191229819D02*
X303600000Y-191277438D01*
X303600000Y-191277438D02*
X303695238Y-191372676D01*
X303695238Y-191372676D02*
X303742857Y-191467914D01*
X303742857Y-191467914D02*
X303790476Y-191658390D01*
X303790476Y-191658390D02*
X303790476Y-191801247D01*
X303790476Y-191801247D02*
X303742857Y-191991723D01*
X303742857Y-191991723D02*
X303695238Y-192086961D01*
X303695238Y-192086961D02*
X303600000Y-192182200D01*
X303600000Y-192182200D02*
X303457143Y-192229819D01*
X303457143Y-192229819D02*
X303219048Y-192229819D01*
X304409524Y-191229819D02*
X304600000Y-191229819D01*
X304600000Y-191229819D02*
X304695238Y-191277438D01*
X304695238Y-191277438D02*
X304790476Y-191372676D01*
X304790476Y-191372676D02*
X304838095Y-191563152D01*
X304838095Y-191563152D02*
X304838095Y-191896485D01*
X304838095Y-191896485D02*
X304790476Y-192086961D01*
X304790476Y-192086961D02*
X304695238Y-192182200D01*
X304695238Y-192182200D02*
X304600000Y-192229819D01*
X304600000Y-192229819D02*
X304409524Y-192229819D01*
X304409524Y-192229819D02*
X304314286Y-192182200D01*
X304314286Y-192182200D02*
X304219048Y-192086961D01*
X304219048Y-192086961D02*
X304171429Y-191896485D01*
X304171429Y-191896485D02*
X304171429Y-191563152D01*
X304171429Y-191563152D02*
X304219048Y-191372676D01*
X304219048Y-191372676D02*
X304314286Y-191277438D01*
X304314286Y-191277438D02*
X304409524Y-191229819D01*
X305171429Y-191229819D02*
X305409524Y-192229819D01*
X305409524Y-192229819D02*
X305600000Y-191515533D01*
X305600000Y-191515533D02*
X305790476Y-192229819D01*
X305790476Y-192229819D02*
X306028572Y-191229819D01*
X306409524Y-192229819D02*
X306409524Y-191229819D01*
X306409524Y-191229819D02*
X306980952Y-192229819D01*
X306980952Y-192229819D02*
X306980952Y-191229819D01*
X152485714Y-134556009D02*
X152819047Y-134556009D01*
X152961904Y-135079819D02*
X152485714Y-135079819D01*
X152485714Y-135079819D02*
X152485714Y-134079819D01*
X152485714Y-134079819D02*
X152961904Y-134079819D01*
X238329762Y-115458390D02*
X238234524Y-115410771D01*
X238234524Y-115410771D02*
X238186905Y-115363152D01*
X238186905Y-115363152D02*
X238139286Y-115267914D01*
X238139286Y-115267914D02*
X238139286Y-115220295D01*
X238139286Y-115220295D02*
X238186905Y-115125057D01*
X238186905Y-115125057D02*
X238234524Y-115077438D01*
X238234524Y-115077438D02*
X238329762Y-115029819D01*
X238329762Y-115029819D02*
X238520238Y-115029819D01*
X238520238Y-115029819D02*
X238615476Y-115077438D01*
X238615476Y-115077438D02*
X238663095Y-115125057D01*
X238663095Y-115125057D02*
X238710714Y-115220295D01*
X238710714Y-115220295D02*
X238710714Y-115267914D01*
X238710714Y-115267914D02*
X238663095Y-115363152D01*
X238663095Y-115363152D02*
X238615476Y-115410771D01*
X238615476Y-115410771D02*
X238520238Y-115458390D01*
X238520238Y-115458390D02*
X238329762Y-115458390D01*
X238329762Y-115458390D02*
X238234524Y-115506009D01*
X238234524Y-115506009D02*
X238186905Y-115553628D01*
X238186905Y-115553628D02*
X238139286Y-115648866D01*
X238139286Y-115648866D02*
X238139286Y-115839342D01*
X238139286Y-115839342D02*
X238186905Y-115934580D01*
X238186905Y-115934580D02*
X238234524Y-115982200D01*
X238234524Y-115982200D02*
X238329762Y-116029819D01*
X238329762Y-116029819D02*
X238520238Y-116029819D01*
X238520238Y-116029819D02*
X238615476Y-115982200D01*
X238615476Y-115982200D02*
X238663095Y-115934580D01*
X238663095Y-115934580D02*
X238710714Y-115839342D01*
X238710714Y-115839342D02*
X238710714Y-115648866D01*
X238710714Y-115648866D02*
X238663095Y-115553628D01*
X238663095Y-115553628D02*
X238615476Y-115506009D01*
X238615476Y-115506009D02*
X238520238Y-115458390D01*
X160986905Y-191706009D02*
X161320238Y-191706009D01*
X161463095Y-192229819D02*
X160986905Y-192229819D01*
X160986905Y-192229819D02*
X160986905Y-191229819D01*
X160986905Y-191229819D02*
X161463095Y-191229819D01*
X161891667Y-192229819D02*
X161891667Y-191229819D01*
X161891667Y-191229819D02*
X162463095Y-192229819D01*
X162463095Y-192229819D02*
X162463095Y-191229819D01*
X162939286Y-192229819D02*
X162939286Y-191229819D01*
X162939286Y-191229819D02*
X163177381Y-191229819D01*
X163177381Y-191229819D02*
X163320238Y-191277438D01*
X163320238Y-191277438D02*
X163415476Y-191372676D01*
X163415476Y-191372676D02*
X163463095Y-191467914D01*
X163463095Y-191467914D02*
X163510714Y-191658390D01*
X163510714Y-191658390D02*
X163510714Y-191801247D01*
X163510714Y-191801247D02*
X163463095Y-191991723D01*
X163463095Y-191991723D02*
X163415476Y-192086961D01*
X163415476Y-192086961D02*
X163320238Y-192182200D01*
X163320238Y-192182200D02*
X163177381Y-192229819D01*
X163177381Y-192229819D02*
X162939286Y-192229819D01*
X333984821Y-153606009D02*
X334318154Y-153606009D01*
X334461011Y-154129819D02*
X333984821Y-154129819D01*
X333984821Y-154129819D02*
X333984821Y-153129819D01*
X333984821Y-153129819D02*
X334461011Y-153129819D01*
X334889583Y-154129819D02*
X334889583Y-153129819D01*
X334889583Y-153129819D02*
X335461011Y-154129819D01*
X335461011Y-154129819D02*
X335461011Y-153129819D01*
X335794345Y-153129819D02*
X336365773Y-153129819D01*
X336080059Y-154129819D02*
X336080059Y-153129819D01*
X336699107Y-153606009D02*
X337032440Y-153606009D01*
X337175297Y-154129819D02*
X336699107Y-154129819D01*
X336699107Y-154129819D02*
X336699107Y-153129819D01*
X336699107Y-153129819D02*
X337175297Y-153129819D01*
X338175297Y-154129819D02*
X337841964Y-153653628D01*
X337603869Y-154129819D02*
X337603869Y-153129819D01*
X337603869Y-153129819D02*
X337984821Y-153129819D01*
X337984821Y-153129819D02*
X338080059Y-153177438D01*
X338080059Y-153177438D02*
X338127678Y-153225057D01*
X338127678Y-153225057D02*
X338175297Y-153320295D01*
X338175297Y-153320295D02*
X338175297Y-153463152D01*
X338175297Y-153463152D02*
X338127678Y-153558390D01*
X338127678Y-153558390D02*
X338080059Y-153606009D01*
X338080059Y-153606009D02*
X337984821Y-153653628D01*
X337984821Y-153653628D02*
X337603869Y-153653628D01*
X312053571Y-115506009D02*
X312386904Y-115506009D01*
X312529761Y-116029819D02*
X312053571Y-116029819D01*
X312053571Y-116029819D02*
X312053571Y-115029819D01*
X312053571Y-115029819D02*
X312529761Y-115029819D01*
X313624999Y-116125057D02*
X313529761Y-116077438D01*
X313529761Y-116077438D02*
X313434523Y-115982200D01*
X313434523Y-115982200D02*
X313291666Y-115839342D01*
X313291666Y-115839342D02*
X313196428Y-115791723D01*
X313196428Y-115791723D02*
X313101190Y-115791723D01*
X313148809Y-116029819D02*
X313053571Y-115982200D01*
X313053571Y-115982200D02*
X312958333Y-115886961D01*
X312958333Y-115886961D02*
X312910714Y-115696485D01*
X312910714Y-115696485D02*
X312910714Y-115363152D01*
X312910714Y-115363152D02*
X312958333Y-115172676D01*
X312958333Y-115172676D02*
X313053571Y-115077438D01*
X313053571Y-115077438D02*
X313148809Y-115029819D01*
X313148809Y-115029819D02*
X313339285Y-115029819D01*
X313339285Y-115029819D02*
X313434523Y-115077438D01*
X313434523Y-115077438D02*
X313529761Y-115172676D01*
X313529761Y-115172676D02*
X313577380Y-115363152D01*
X313577380Y-115363152D02*
X313577380Y-115696485D01*
X313577380Y-115696485D02*
X313529761Y-115886961D01*
X313529761Y-115886961D02*
X313434523Y-115982200D01*
X313434523Y-115982200D02*
X313339285Y-116029819D01*
X313339285Y-116029819D02*
X313148809Y-116029819D01*
X314005952Y-115029819D02*
X314005952Y-115839342D01*
X314005952Y-115839342D02*
X314053571Y-115934580D01*
X314053571Y-115934580D02*
X314101190Y-115982200D01*
X314101190Y-115982200D02*
X314196428Y-116029819D01*
X314196428Y-116029819D02*
X314386904Y-116029819D01*
X314386904Y-116029819D02*
X314482142Y-115982200D01*
X314482142Y-115982200D02*
X314529761Y-115934580D01*
X314529761Y-115934580D02*
X314577380Y-115839342D01*
X314577380Y-115839342D02*
X314577380Y-115029819D01*
X315005952Y-115744104D02*
X315482142Y-115744104D01*
X314910714Y-116029819D02*
X315244047Y-115029819D01*
X315244047Y-115029819D02*
X315577380Y-116029819D01*
X316386904Y-116029819D02*
X315910714Y-116029819D01*
X315910714Y-116029819D02*
X315910714Y-115029819D01*
X316672619Y-115982200D02*
X316815476Y-116029819D01*
X316815476Y-116029819D02*
X317053571Y-116029819D01*
X317053571Y-116029819D02*
X317148809Y-115982200D01*
X317148809Y-115982200D02*
X317196428Y-115934580D01*
X317196428Y-115934580D02*
X317244047Y-115839342D01*
X317244047Y-115839342D02*
X317244047Y-115744104D01*
X317244047Y-115744104D02*
X317196428Y-115648866D01*
X317196428Y-115648866D02*
X317148809Y-115601247D01*
X317148809Y-115601247D02*
X317053571Y-115553628D01*
X317053571Y-115553628D02*
X316863095Y-115506009D01*
X316863095Y-115506009D02*
X316767857Y-115458390D01*
X316767857Y-115458390D02*
X316720238Y-115410771D01*
X316720238Y-115410771D02*
X316672619Y-115315533D01*
X316672619Y-115315533D02*
X316672619Y-115220295D01*
X316672619Y-115220295D02*
X316720238Y-115125057D01*
X316720238Y-115125057D02*
X316767857Y-115077438D01*
X316767857Y-115077438D02*
X316863095Y-115029819D01*
X316863095Y-115029819D02*
X317101190Y-115029819D01*
X317101190Y-115029819D02*
X317244047Y-115077438D01*
X342009524Y-172656009D02*
X342342857Y-172656009D01*
X342485714Y-173179819D02*
X342009524Y-173179819D01*
X342009524Y-173179819D02*
X342009524Y-172179819D01*
X342009524Y-172179819D02*
X342485714Y-172179819D01*
X342866667Y-173132200D02*
X343009524Y-173179819D01*
X343009524Y-173179819D02*
X343247619Y-173179819D01*
X343247619Y-173179819D02*
X343342857Y-173132200D01*
X343342857Y-173132200D02*
X343390476Y-173084580D01*
X343390476Y-173084580D02*
X343438095Y-172989342D01*
X343438095Y-172989342D02*
X343438095Y-172894104D01*
X343438095Y-172894104D02*
X343390476Y-172798866D01*
X343390476Y-172798866D02*
X343342857Y-172751247D01*
X343342857Y-172751247D02*
X343247619Y-172703628D01*
X343247619Y-172703628D02*
X343057143Y-172656009D01*
X343057143Y-172656009D02*
X342961905Y-172608390D01*
X342961905Y-172608390D02*
X342914286Y-172560771D01*
X342914286Y-172560771D02*
X342866667Y-172465533D01*
X342866667Y-172465533D02*
X342866667Y-172370295D01*
X342866667Y-172370295D02*
X342914286Y-172275057D01*
X342914286Y-172275057D02*
X342961905Y-172227438D01*
X342961905Y-172227438D02*
X343057143Y-172179819D01*
X343057143Y-172179819D02*
X343295238Y-172179819D01*
X343295238Y-172179819D02*
X343438095Y-172227438D01*
X344438095Y-173084580D02*
X344390476Y-173132200D01*
X344390476Y-173132200D02*
X344247619Y-173179819D01*
X344247619Y-173179819D02*
X344152381Y-173179819D01*
X344152381Y-173179819D02*
X344009524Y-173132200D01*
X344009524Y-173132200D02*
X343914286Y-173036961D01*
X343914286Y-173036961D02*
X343866667Y-172941723D01*
X343866667Y-172941723D02*
X343819048Y-172751247D01*
X343819048Y-172751247D02*
X343819048Y-172608390D01*
X343819048Y-172608390D02*
X343866667Y-172417914D01*
X343866667Y-172417914D02*
X343914286Y-172322676D01*
X343914286Y-172322676D02*
X344009524Y-172227438D01*
X344009524Y-172227438D02*
X344152381Y-172179819D01*
X344152381Y-172179819D02*
X344247619Y-172179819D01*
X344247619Y-172179819D02*
X344390476Y-172227438D01*
X344390476Y-172227438D02*
X344438095Y-172275057D01*
X123363095Y-192134580D02*
X123315476Y-192182200D01*
X123315476Y-192182200D02*
X123172619Y-192229819D01*
X123172619Y-192229819D02*
X123077381Y-192229819D01*
X123077381Y-192229819D02*
X122934524Y-192182200D01*
X122934524Y-192182200D02*
X122839286Y-192086961D01*
X122839286Y-192086961D02*
X122791667Y-191991723D01*
X122791667Y-191991723D02*
X122744048Y-191801247D01*
X122744048Y-191801247D02*
X122744048Y-191658390D01*
X122744048Y-191658390D02*
X122791667Y-191467914D01*
X122791667Y-191467914D02*
X122839286Y-191372676D01*
X122839286Y-191372676D02*
X122934524Y-191277438D01*
X122934524Y-191277438D02*
X123077381Y-191229819D01*
X123077381Y-191229819D02*
X123172619Y-191229819D01*
X123172619Y-191229819D02*
X123315476Y-191277438D01*
X123315476Y-191277438D02*
X123363095Y-191325057D01*
X123791667Y-192229819D02*
X123791667Y-191229819D01*
X123791667Y-191229819D02*
X124125000Y-191944104D01*
X124125000Y-191944104D02*
X124458333Y-191229819D01*
X124458333Y-191229819D02*
X124458333Y-192229819D01*
X124934524Y-192229819D02*
X124934524Y-191229819D01*
X124934524Y-191229819D02*
X125172619Y-191229819D01*
X125172619Y-191229819D02*
X125315476Y-191277438D01*
X125315476Y-191277438D02*
X125410714Y-191372676D01*
X125410714Y-191372676D02*
X125458333Y-191467914D01*
X125458333Y-191467914D02*
X125505952Y-191658390D01*
X125505952Y-191658390D02*
X125505952Y-191801247D01*
X125505952Y-191801247D02*
X125458333Y-191991723D01*
X125458333Y-191991723D02*
X125410714Y-192086961D01*
X125410714Y-192086961D02*
X125315476Y-192182200D01*
X125315476Y-192182200D02*
X125172619Y-192229819D01*
X125172619Y-192229819D02*
X124934524Y-192229819D01*
X252450595Y-154129819D02*
X252450595Y-153129819D01*
X253022023Y-154129819D02*
X252593452Y-153558390D01*
X253022023Y-153129819D02*
X252450595Y-153701247D01*
X162415476Y-115363152D02*
X162415476Y-116029819D01*
X162177381Y-114982200D02*
X161939286Y-115696485D01*
X161939286Y-115696485D02*
X162558333Y-115696485D01*
X127458928Y-96456009D02*
X127125595Y-96456009D01*
X127125595Y-96979819D02*
X127125595Y-95979819D01*
X127125595Y-95979819D02*
X127601785Y-95979819D01*
X127982738Y-96979819D02*
X127982738Y-95979819D01*
X128935118Y-96979819D02*
X128458928Y-96979819D01*
X128458928Y-96979819D02*
X128458928Y-95979819D01*
X129268452Y-96456009D02*
X129601785Y-96456009D01*
X129744642Y-96979819D02*
X129268452Y-96979819D01*
X129268452Y-96979819D02*
X129268452Y-95979819D01*
X129268452Y-95979819D02*
X129744642Y-95979819D01*
X130125595Y-96075057D02*
X130173214Y-96027438D01*
X130173214Y-96027438D02*
X130268452Y-95979819D01*
X130268452Y-95979819D02*
X130506547Y-95979819D01*
X130506547Y-95979819D02*
X130601785Y-96027438D01*
X130601785Y-96027438D02*
X130649404Y-96075057D01*
X130649404Y-96075057D02*
X130697023Y-96170295D01*
X130697023Y-96170295D02*
X130697023Y-96265533D01*
X130697023Y-96265533D02*
X130649404Y-96408390D01*
X130649404Y-96408390D02*
X130077976Y-96979819D01*
X130077976Y-96979819D02*
X130697023Y-96979819D01*
X146508928Y-96456009D02*
X146175595Y-96456009D01*
X146175595Y-96979819D02*
X146175595Y-95979819D01*
X146175595Y-95979819D02*
X146651785Y-95979819D01*
X147032738Y-96979819D02*
X147032738Y-95979819D01*
X147985118Y-96979819D02*
X147508928Y-96979819D01*
X147508928Y-96979819D02*
X147508928Y-95979819D01*
X148318452Y-96456009D02*
X148651785Y-96456009D01*
X148794642Y-96979819D02*
X148318452Y-96979819D01*
X148318452Y-96979819D02*
X148318452Y-95979819D01*
X148318452Y-95979819D02*
X148794642Y-95979819D01*
X149127976Y-95979819D02*
X149747023Y-95979819D01*
X149747023Y-95979819D02*
X149413690Y-96360771D01*
X149413690Y-96360771D02*
X149556547Y-96360771D01*
X149556547Y-96360771D02*
X149651785Y-96408390D01*
X149651785Y-96408390D02*
X149699404Y-96456009D01*
X149699404Y-96456009D02*
X149747023Y-96551247D01*
X149747023Y-96551247D02*
X149747023Y-96789342D01*
X149747023Y-96789342D02*
X149699404Y-96884580D01*
X149699404Y-96884580D02*
X149651785Y-96932200D01*
X149651785Y-96932200D02*
X149556547Y-96979819D01*
X149556547Y-96979819D02*
X149270833Y-96979819D01*
X149270833Y-96979819D02*
X149175595Y-96932200D01*
X149175595Y-96932200D02*
X149127976Y-96884580D01*
X165558928Y-96456009D02*
X165225595Y-96456009D01*
X165225595Y-96979819D02*
X165225595Y-95979819D01*
X165225595Y-95979819D02*
X165701785Y-95979819D01*
X166082738Y-96979819D02*
X166082738Y-95979819D01*
X167035118Y-96979819D02*
X166558928Y-96979819D01*
X166558928Y-96979819D02*
X166558928Y-95979819D01*
X167368452Y-96456009D02*
X167701785Y-96456009D01*
X167844642Y-96979819D02*
X167368452Y-96979819D01*
X167368452Y-96979819D02*
X167368452Y-95979819D01*
X167368452Y-95979819D02*
X167844642Y-95979819D01*
X168701785Y-96313152D02*
X168701785Y-96979819D01*
X168463690Y-95932200D02*
X168225595Y-96646485D01*
X168225595Y-96646485D02*
X168844642Y-96646485D01*
X184608928Y-96456009D02*
X184275595Y-96456009D01*
X184275595Y-96979819D02*
X184275595Y-95979819D01*
X184275595Y-95979819D02*
X184751785Y-95979819D01*
X185132738Y-96979819D02*
X185132738Y-95979819D01*
X186085118Y-96979819D02*
X185608928Y-96979819D01*
X185608928Y-96979819D02*
X185608928Y-95979819D01*
X186418452Y-96456009D02*
X186751785Y-96456009D01*
X186894642Y-96979819D02*
X186418452Y-96979819D01*
X186418452Y-96979819D02*
X186418452Y-95979819D01*
X186418452Y-95979819D02*
X186894642Y-95979819D01*
X187799404Y-95979819D02*
X187323214Y-95979819D01*
X187323214Y-95979819D02*
X187275595Y-96456009D01*
X187275595Y-96456009D02*
X187323214Y-96408390D01*
X187323214Y-96408390D02*
X187418452Y-96360771D01*
X187418452Y-96360771D02*
X187656547Y-96360771D01*
X187656547Y-96360771D02*
X187751785Y-96408390D01*
X187751785Y-96408390D02*
X187799404Y-96456009D01*
X187799404Y-96456009D02*
X187847023Y-96551247D01*
X187847023Y-96551247D02*
X187847023Y-96789342D01*
X187847023Y-96789342D02*
X187799404Y-96884580D01*
X187799404Y-96884580D02*
X187751785Y-96932200D01*
X187751785Y-96932200D02*
X187656547Y-96979819D01*
X187656547Y-96979819D02*
X187418452Y-96979819D01*
X187418452Y-96979819D02*
X187323214Y-96932200D01*
X187323214Y-96932200D02*
X187275595Y-96884580D01*
X203658928Y-96456009D02*
X203325595Y-96456009D01*
X203325595Y-96979819D02*
X203325595Y-95979819D01*
X203325595Y-95979819D02*
X203801785Y-95979819D01*
X204182738Y-96979819D02*
X204182738Y-95979819D01*
X205135118Y-96979819D02*
X204658928Y-96979819D01*
X204658928Y-96979819D02*
X204658928Y-95979819D01*
X205468452Y-96456009D02*
X205801785Y-96456009D01*
X205944642Y-96979819D02*
X205468452Y-96979819D01*
X205468452Y-96979819D02*
X205468452Y-95979819D01*
X205468452Y-95979819D02*
X205944642Y-95979819D01*
X206801785Y-95979819D02*
X206611309Y-95979819D01*
X206611309Y-95979819D02*
X206516071Y-96027438D01*
X206516071Y-96027438D02*
X206468452Y-96075057D01*
X206468452Y-96075057D02*
X206373214Y-96217914D01*
X206373214Y-96217914D02*
X206325595Y-96408390D01*
X206325595Y-96408390D02*
X206325595Y-96789342D01*
X206325595Y-96789342D02*
X206373214Y-96884580D01*
X206373214Y-96884580D02*
X206420833Y-96932200D01*
X206420833Y-96932200D02*
X206516071Y-96979819D01*
X206516071Y-96979819D02*
X206706547Y-96979819D01*
X206706547Y-96979819D02*
X206801785Y-96932200D01*
X206801785Y-96932200D02*
X206849404Y-96884580D01*
X206849404Y-96884580D02*
X206897023Y-96789342D01*
X206897023Y-96789342D02*
X206897023Y-96551247D01*
X206897023Y-96551247D02*
X206849404Y-96456009D01*
X206849404Y-96456009D02*
X206801785Y-96408390D01*
X206801785Y-96408390D02*
X206706547Y-96360771D01*
X206706547Y-96360771D02*
X206516071Y-96360771D01*
X206516071Y-96360771D02*
X206420833Y-96408390D01*
X206420833Y-96408390D02*
X206373214Y-96456009D01*
X206373214Y-96456009D02*
X206325595Y-96551247D01*
X222708928Y-96456009D02*
X222375595Y-96456009D01*
X222375595Y-96979819D02*
X222375595Y-95979819D01*
X222375595Y-95979819D02*
X222851785Y-95979819D01*
X223232738Y-96979819D02*
X223232738Y-95979819D01*
X224185118Y-96979819D02*
X223708928Y-96979819D01*
X223708928Y-96979819D02*
X223708928Y-95979819D01*
X224518452Y-96456009D02*
X224851785Y-96456009D01*
X224994642Y-96979819D02*
X224518452Y-96979819D01*
X224518452Y-96979819D02*
X224518452Y-95979819D01*
X224518452Y-95979819D02*
X224994642Y-95979819D01*
X225327976Y-95979819D02*
X225994642Y-95979819D01*
X225994642Y-95979819D02*
X225566071Y-96979819D01*
X241758928Y-96456009D02*
X241425595Y-96456009D01*
X241425595Y-96979819D02*
X241425595Y-95979819D01*
X241425595Y-95979819D02*
X241901785Y-95979819D01*
X242282738Y-96979819D02*
X242282738Y-95979819D01*
X243235118Y-96979819D02*
X242758928Y-96979819D01*
X242758928Y-96979819D02*
X242758928Y-95979819D01*
X243568452Y-96456009D02*
X243901785Y-96456009D01*
X244044642Y-96979819D02*
X243568452Y-96979819D01*
X243568452Y-96979819D02*
X243568452Y-95979819D01*
X243568452Y-95979819D02*
X244044642Y-95979819D01*
X244616071Y-96408390D02*
X244520833Y-96360771D01*
X244520833Y-96360771D02*
X244473214Y-96313152D01*
X244473214Y-96313152D02*
X244425595Y-96217914D01*
X244425595Y-96217914D02*
X244425595Y-96170295D01*
X244425595Y-96170295D02*
X244473214Y-96075057D01*
X244473214Y-96075057D02*
X244520833Y-96027438D01*
X244520833Y-96027438D02*
X244616071Y-95979819D01*
X244616071Y-95979819D02*
X244806547Y-95979819D01*
X244806547Y-95979819D02*
X244901785Y-96027438D01*
X244901785Y-96027438D02*
X244949404Y-96075057D01*
X244949404Y-96075057D02*
X244997023Y-96170295D01*
X244997023Y-96170295D02*
X244997023Y-96217914D01*
X244997023Y-96217914D02*
X244949404Y-96313152D01*
X244949404Y-96313152D02*
X244901785Y-96360771D01*
X244901785Y-96360771D02*
X244806547Y-96408390D01*
X244806547Y-96408390D02*
X244616071Y-96408390D01*
X244616071Y-96408390D02*
X244520833Y-96456009D01*
X244520833Y-96456009D02*
X244473214Y-96503628D01*
X244473214Y-96503628D02*
X244425595Y-96598866D01*
X244425595Y-96598866D02*
X244425595Y-96789342D01*
X244425595Y-96789342D02*
X244473214Y-96884580D01*
X244473214Y-96884580D02*
X244520833Y-96932200D01*
X244520833Y-96932200D02*
X244616071Y-96979819D01*
X244616071Y-96979819D02*
X244806547Y-96979819D01*
X244806547Y-96979819D02*
X244901785Y-96932200D01*
X244901785Y-96932200D02*
X244949404Y-96884580D01*
X244949404Y-96884580D02*
X244997023Y-96789342D01*
X244997023Y-96789342D02*
X244997023Y-96598866D01*
X244997023Y-96598866D02*
X244949404Y-96503628D01*
X244949404Y-96503628D02*
X244901785Y-96456009D01*
X244901785Y-96456009D02*
X244806547Y-96408390D01*
X84905952Y-172656009D02*
X84572619Y-172656009D01*
X84572619Y-173179819D02*
X84572619Y-172179819D01*
X84572619Y-172179819D02*
X85048809Y-172179819D01*
X85429762Y-173179819D02*
X85429762Y-172179819D01*
X85905952Y-173179819D02*
X85905952Y-172179819D01*
X85905952Y-172179819D02*
X86477380Y-173179819D01*
X86477380Y-173179819D02*
X86477380Y-172179819D01*
X86953571Y-173179819D02*
X86953571Y-172179819D01*
X86953571Y-172179819D02*
X87191666Y-172179819D01*
X87191666Y-172179819D02*
X87334523Y-172227438D01*
X87334523Y-172227438D02*
X87429761Y-172322676D01*
X87429761Y-172322676D02*
X87477380Y-172417914D01*
X87477380Y-172417914D02*
X87524999Y-172608390D01*
X87524999Y-172608390D02*
X87524999Y-172751247D01*
X87524999Y-172751247D02*
X87477380Y-172941723D01*
X87477380Y-172941723D02*
X87429761Y-173036961D01*
X87429761Y-173036961D02*
X87334523Y-173132200D01*
X87334523Y-173132200D02*
X87191666Y-173179819D01*
X87191666Y-173179819D02*
X86953571Y-173179819D01*
X119124405Y-153844104D02*
X119600595Y-153844104D01*
X119029167Y-154129819D02*
X119362500Y-153129819D01*
X119362500Y-153129819D02*
X119695833Y-154129819D01*
X108408928Y-96456009D02*
X108075595Y-96456009D01*
X108075595Y-96979819D02*
X108075595Y-95979819D01*
X108075595Y-95979819D02*
X108551785Y-95979819D01*
X108932738Y-96979819D02*
X108932738Y-95979819D01*
X109885118Y-96979819D02*
X109408928Y-96979819D01*
X109408928Y-96979819D02*
X109408928Y-95979819D01*
X110218452Y-96456009D02*
X110551785Y-96456009D01*
X110694642Y-96979819D02*
X110218452Y-96979819D01*
X110218452Y-96979819D02*
X110218452Y-95979819D01*
X110218452Y-95979819D02*
X110694642Y-95979819D01*
X111647023Y-96979819D02*
X111075595Y-96979819D01*
X111361309Y-96979819D02*
X111361309Y-95979819D01*
X111361309Y-95979819D02*
X111266071Y-96122676D01*
X111266071Y-96122676D02*
X111170833Y-96217914D01*
X111170833Y-96217914D02*
X111075595Y-96265533D01*
X195824404Y-153177438D02*
X195729166Y-153129819D01*
X195729166Y-153129819D02*
X195586309Y-153129819D01*
X195586309Y-153129819D02*
X195443452Y-153177438D01*
X195443452Y-153177438D02*
X195348214Y-153272676D01*
X195348214Y-153272676D02*
X195300595Y-153367914D01*
X195300595Y-153367914D02*
X195252976Y-153558390D01*
X195252976Y-153558390D02*
X195252976Y-153701247D01*
X195252976Y-153701247D02*
X195300595Y-153891723D01*
X195300595Y-153891723D02*
X195348214Y-153986961D01*
X195348214Y-153986961D02*
X195443452Y-154082200D01*
X195443452Y-154082200D02*
X195586309Y-154129819D01*
X195586309Y-154129819D02*
X195681547Y-154129819D01*
X195681547Y-154129819D02*
X195824404Y-154082200D01*
X195824404Y-154082200D02*
X195872023Y-154034580D01*
X195872023Y-154034580D02*
X195872023Y-153701247D01*
X195872023Y-153701247D02*
X195681547Y-153701247D01*
X84477380Y-115077438D02*
X84382142Y-115029819D01*
X84382142Y-115029819D02*
X84239285Y-115029819D01*
X84239285Y-115029819D02*
X84096428Y-115077438D01*
X84096428Y-115077438D02*
X84001190Y-115172676D01*
X84001190Y-115172676D02*
X83953571Y-115267914D01*
X83953571Y-115267914D02*
X83905952Y-115458390D01*
X83905952Y-115458390D02*
X83905952Y-115601247D01*
X83905952Y-115601247D02*
X83953571Y-115791723D01*
X83953571Y-115791723D02*
X84001190Y-115886961D01*
X84001190Y-115886961D02*
X84096428Y-115982200D01*
X84096428Y-115982200D02*
X84239285Y-116029819D01*
X84239285Y-116029819D02*
X84334523Y-116029819D01*
X84334523Y-116029819D02*
X84477380Y-115982200D01*
X84477380Y-115982200D02*
X84524999Y-115934580D01*
X84524999Y-115934580D02*
X84524999Y-115601247D01*
X84524999Y-115601247D02*
X84334523Y-115601247D01*
X85524999Y-116029819D02*
X85191666Y-115553628D01*
X84953571Y-116029819D02*
X84953571Y-115029819D01*
X84953571Y-115029819D02*
X85334523Y-115029819D01*
X85334523Y-115029819D02*
X85429761Y-115077438D01*
X85429761Y-115077438D02*
X85477380Y-115125057D01*
X85477380Y-115125057D02*
X85524999Y-115220295D01*
X85524999Y-115220295D02*
X85524999Y-115363152D01*
X85524999Y-115363152D02*
X85477380Y-115458390D01*
X85477380Y-115458390D02*
X85429761Y-115506009D01*
X85429761Y-115506009D02*
X85334523Y-115553628D01*
X85334523Y-115553628D02*
X84953571Y-115553628D01*
X85905952Y-115744104D02*
X86382142Y-115744104D01*
X85810714Y-116029819D02*
X86144047Y-115029819D01*
X86144047Y-115029819D02*
X86477380Y-116029819D01*
X86667857Y-115029819D02*
X87001190Y-116029819D01*
X87001190Y-116029819D02*
X87334523Y-115029819D01*
X87667857Y-115506009D02*
X88001190Y-115506009D01*
X88144047Y-116029819D02*
X87667857Y-116029819D01*
X87667857Y-116029819D02*
X87667857Y-115029819D01*
X87667857Y-115029819D02*
X88144047Y-115029819D01*
X214326786Y-154129819D02*
X214326786Y-153129819D01*
X214326786Y-153606009D02*
X214898214Y-153606009D01*
X214898214Y-154129819D02*
X214898214Y-153129819D01*
X141341667Y-192229819D02*
X141341667Y-191229819D01*
X141341667Y-191706009D02*
X141913095Y-191706009D01*
X141913095Y-192229819D02*
X141913095Y-191229819D01*
X142579762Y-191229819D02*
X142770238Y-191229819D01*
X142770238Y-191229819D02*
X142865476Y-191277438D01*
X142865476Y-191277438D02*
X142960714Y-191372676D01*
X142960714Y-191372676D02*
X143008333Y-191563152D01*
X143008333Y-191563152D02*
X143008333Y-191896485D01*
X143008333Y-191896485D02*
X142960714Y-192086961D01*
X142960714Y-192086961D02*
X142865476Y-192182200D01*
X142865476Y-192182200D02*
X142770238Y-192229819D01*
X142770238Y-192229819D02*
X142579762Y-192229819D01*
X142579762Y-192229819D02*
X142484524Y-192182200D01*
X142484524Y-192182200D02*
X142389286Y-192086961D01*
X142389286Y-192086961D02*
X142341667Y-191896485D01*
X142341667Y-191896485D02*
X142341667Y-191563152D01*
X142341667Y-191563152D02*
X142389286Y-191372676D01*
X142389286Y-191372676D02*
X142484524Y-191277438D01*
X142484524Y-191277438D02*
X142579762Y-191229819D01*
X143436905Y-192229819D02*
X143436905Y-191229819D01*
X143436905Y-191229819D02*
X143770238Y-191944104D01*
X143770238Y-191944104D02*
X144103571Y-191229819D01*
X144103571Y-191229819D02*
X144103571Y-192229819D01*
X144579762Y-191706009D02*
X144913095Y-191706009D01*
X145055952Y-192229819D02*
X144579762Y-192229819D01*
X144579762Y-192229819D02*
X144579762Y-191229819D01*
X144579762Y-191229819D02*
X145055952Y-191229819D01*
X292860714Y-116029819D02*
X292860714Y-115029819D01*
X292860714Y-115506009D02*
X293432142Y-115506009D01*
X293432142Y-116029819D02*
X293432142Y-115029819D01*
X294098809Y-115553628D02*
X294098809Y-116029819D01*
X293765476Y-115029819D02*
X294098809Y-115553628D01*
X294098809Y-115553628D02*
X294432142Y-115029819D01*
X294765476Y-116029819D02*
X294765476Y-115029819D01*
X294765476Y-115029819D02*
X295146428Y-115029819D01*
X295146428Y-115029819D02*
X295241666Y-115077438D01*
X295241666Y-115077438D02*
X295289285Y-115125057D01*
X295289285Y-115125057D02*
X295336904Y-115220295D01*
X295336904Y-115220295D02*
X295336904Y-115363152D01*
X295336904Y-115363152D02*
X295289285Y-115458390D01*
X295289285Y-115458390D02*
X295241666Y-115506009D01*
X295241666Y-115506009D02*
X295146428Y-115553628D01*
X295146428Y-115553628D02*
X294765476Y-115553628D01*
X295765476Y-116029819D02*
X295765476Y-115029819D01*
X295765476Y-115506009D02*
X296336904Y-115506009D01*
X296336904Y-116029819D02*
X296336904Y-115029819D01*
X296813095Y-115506009D02*
X297146428Y-115506009D01*
X297289285Y-116029819D02*
X296813095Y-116029819D01*
X296813095Y-116029819D02*
X296813095Y-115029819D01*
X296813095Y-115029819D02*
X297289285Y-115029819D01*
X297717857Y-116029819D02*
X297717857Y-115029819D01*
X297717857Y-115029819D02*
X298289285Y-116029819D01*
X298289285Y-116029819D02*
X298289285Y-115029819D01*
X247950000Y-135079819D02*
X247950000Y-134079819D01*
X233805357Y-153129819D02*
X233805357Y-153844104D01*
X233805357Y-153844104D02*
X233757738Y-153986961D01*
X233757738Y-153986961D02*
X233662500Y-154082200D01*
X233662500Y-154082200D02*
X233519643Y-154129819D01*
X233519643Y-154129819D02*
X233424405Y-154129819D01*
X181513095Y-115029819D02*
X181036905Y-115029819D01*
X181036905Y-115029819D02*
X180989286Y-115506009D01*
X180989286Y-115506009D02*
X181036905Y-115458390D01*
X181036905Y-115458390D02*
X181132143Y-115410771D01*
X181132143Y-115410771D02*
X181370238Y-115410771D01*
X181370238Y-115410771D02*
X181465476Y-115458390D01*
X181465476Y-115458390D02*
X181513095Y-115506009D01*
X181513095Y-115506009D02*
X181560714Y-115601247D01*
X181560714Y-115601247D02*
X181560714Y-115839342D01*
X181560714Y-115839342D02*
X181513095Y-115934580D01*
X181513095Y-115934580D02*
X181465476Y-115982200D01*
X181465476Y-115982200D02*
X181370238Y-116029819D01*
X181370238Y-116029819D02*
X181132143Y-116029819D01*
X181132143Y-116029819D02*
X181036905Y-115982200D01*
X181036905Y-115982200D02*
X180989286Y-115934580D01*
X308124405Y-153844104D02*
X308600595Y-153844104D01*
X308029167Y-154129819D02*
X308362500Y-153129819D01*
X308362500Y-153129819D02*
X308695833Y-154129819D01*
X309029167Y-154129819D02*
X309029167Y-153129819D01*
X309029167Y-153129819D02*
X309410119Y-153129819D01*
X309410119Y-153129819D02*
X309505357Y-153177438D01*
X309505357Y-153177438D02*
X309552976Y-153225057D01*
X309552976Y-153225057D02*
X309600595Y-153320295D01*
X309600595Y-153320295D02*
X309600595Y-153463152D01*
X309600595Y-153463152D02*
X309552976Y-153558390D01*
X309552976Y-153558390D02*
X309505357Y-153606009D01*
X309505357Y-153606009D02*
X309410119Y-153653628D01*
X309410119Y-153653628D02*
X309029167Y-153653628D01*
X310219643Y-153129819D02*
X310410119Y-153129819D01*
X310410119Y-153129819D02*
X310505357Y-153177438D01*
X310505357Y-153177438D02*
X310600595Y-153272676D01*
X310600595Y-153272676D02*
X310648214Y-153463152D01*
X310648214Y-153463152D02*
X310648214Y-153796485D01*
X310648214Y-153796485D02*
X310600595Y-153986961D01*
X310600595Y-153986961D02*
X310505357Y-154082200D01*
X310505357Y-154082200D02*
X310410119Y-154129819D01*
X310410119Y-154129819D02*
X310219643Y-154129819D01*
X310219643Y-154129819D02*
X310124405Y-154082200D01*
X310124405Y-154082200D02*
X310029167Y-153986961D01*
X310029167Y-153986961D02*
X309981548Y-153796485D01*
X309981548Y-153796485D02*
X309981548Y-153463152D01*
X309981548Y-153463152D02*
X310029167Y-153272676D01*
X310029167Y-153272676D02*
X310124405Y-153177438D01*
X310124405Y-153177438D02*
X310219643Y-153129819D01*
X311029167Y-154082200D02*
X311172024Y-154129819D01*
X311172024Y-154129819D02*
X311410119Y-154129819D01*
X311410119Y-154129819D02*
X311505357Y-154082200D01*
X311505357Y-154082200D02*
X311552976Y-154034580D01*
X311552976Y-154034580D02*
X311600595Y-153939342D01*
X311600595Y-153939342D02*
X311600595Y-153844104D01*
X311600595Y-153844104D02*
X311552976Y-153748866D01*
X311552976Y-153748866D02*
X311505357Y-153701247D01*
X311505357Y-153701247D02*
X311410119Y-153653628D01*
X311410119Y-153653628D02*
X311219643Y-153606009D01*
X311219643Y-153606009D02*
X311124405Y-153558390D01*
X311124405Y-153558390D02*
X311076786Y-153510771D01*
X311076786Y-153510771D02*
X311029167Y-153415533D01*
X311029167Y-153415533D02*
X311029167Y-153320295D01*
X311029167Y-153320295D02*
X311076786Y-153225057D01*
X311076786Y-153225057D02*
X311124405Y-153177438D01*
X311124405Y-153177438D02*
X311219643Y-153129819D01*
X311219643Y-153129819D02*
X311457738Y-153129819D01*
X311457738Y-153129819D02*
X311600595Y-153177438D01*
X83501190Y-95979819D02*
X83691666Y-95979819D01*
X83691666Y-95979819D02*
X83786904Y-96027438D01*
X83786904Y-96027438D02*
X83882142Y-96122676D01*
X83882142Y-96122676D02*
X83929761Y-96313152D01*
X83929761Y-96313152D02*
X83929761Y-96646485D01*
X83929761Y-96646485D02*
X83882142Y-96836961D01*
X83882142Y-96836961D02*
X83786904Y-96932200D01*
X83786904Y-96932200D02*
X83691666Y-96979819D01*
X83691666Y-96979819D02*
X83501190Y-96979819D01*
X83501190Y-96979819D02*
X83405952Y-96932200D01*
X83405952Y-96932200D02*
X83310714Y-96836961D01*
X83310714Y-96836961D02*
X83263095Y-96646485D01*
X83263095Y-96646485D02*
X83263095Y-96313152D01*
X83263095Y-96313152D02*
X83310714Y-96122676D01*
X83310714Y-96122676D02*
X83405952Y-96027438D01*
X83405952Y-96027438D02*
X83501190Y-95979819D01*
X84358333Y-96979819D02*
X84358333Y-95979819D01*
X84358333Y-95979819D02*
X84929761Y-96979819D01*
X84929761Y-96979819D02*
X84929761Y-95979819D01*
X86120237Y-95932200D02*
X85263095Y-97217914D01*
X86644047Y-95979819D02*
X86834523Y-95979819D01*
X86834523Y-95979819D02*
X86929761Y-96027438D01*
X86929761Y-96027438D02*
X87024999Y-96122676D01*
X87024999Y-96122676D02*
X87072618Y-96313152D01*
X87072618Y-96313152D02*
X87072618Y-96646485D01*
X87072618Y-96646485D02*
X87024999Y-96836961D01*
X87024999Y-96836961D02*
X86929761Y-96932200D01*
X86929761Y-96932200D02*
X86834523Y-96979819D01*
X86834523Y-96979819D02*
X86644047Y-96979819D01*
X86644047Y-96979819D02*
X86548809Y-96932200D01*
X86548809Y-96932200D02*
X86453571Y-96836961D01*
X86453571Y-96836961D02*
X86405952Y-96646485D01*
X86405952Y-96646485D02*
X86405952Y-96313152D01*
X86405952Y-96313152D02*
X86453571Y-96122676D01*
X86453571Y-96122676D02*
X86548809Y-96027438D01*
X86548809Y-96027438D02*
X86644047Y-95979819D01*
X87834523Y-96456009D02*
X87501190Y-96456009D01*
X87501190Y-96979819D02*
X87501190Y-95979819D01*
X87501190Y-95979819D02*
X87977380Y-95979819D01*
X88691666Y-96456009D02*
X88358333Y-96456009D01*
X88358333Y-96979819D02*
X88358333Y-95979819D01*
X88358333Y-95979819D02*
X88834523Y-95979819D01*
X285097618Y-192229819D02*
X284621428Y-192229819D01*
X284621428Y-192229819D02*
X284621428Y-191229819D01*
X285430952Y-191706009D02*
X285764285Y-191706009D01*
X285907142Y-192229819D02*
X285430952Y-192229819D01*
X285430952Y-192229819D02*
X285430952Y-191229819D01*
X285430952Y-191229819D02*
X285907142Y-191229819D01*
X286669047Y-191706009D02*
X286335714Y-191706009D01*
X286335714Y-192229819D02*
X286335714Y-191229819D01*
X286335714Y-191229819D02*
X286811904Y-191229819D01*
X287050000Y-191229819D02*
X287621428Y-191229819D01*
X287335714Y-192229819D02*
X287335714Y-191229819D01*
X102694047Y-192229819D02*
X102217857Y-192229819D01*
X102217857Y-192229819D02*
X102217857Y-191229819D01*
X103217857Y-191229819D02*
X103408333Y-191229819D01*
X103408333Y-191229819D02*
X103503571Y-191277438D01*
X103503571Y-191277438D02*
X103598809Y-191372676D01*
X103598809Y-191372676D02*
X103646428Y-191563152D01*
X103646428Y-191563152D02*
X103646428Y-191896485D01*
X103646428Y-191896485D02*
X103598809Y-192086961D01*
X103598809Y-192086961D02*
X103503571Y-192182200D01*
X103503571Y-192182200D02*
X103408333Y-192229819D01*
X103408333Y-192229819D02*
X103217857Y-192229819D01*
X103217857Y-192229819D02*
X103122619Y-192182200D01*
X103122619Y-192182200D02*
X103027381Y-192086961D01*
X103027381Y-192086961D02*
X102979762Y-191896485D01*
X102979762Y-191896485D02*
X102979762Y-191563152D01*
X102979762Y-191563152D02*
X103027381Y-191372676D01*
X103027381Y-191372676D02*
X103122619Y-191277438D01*
X103122619Y-191277438D02*
X103217857Y-191229819D01*
X104075000Y-192229819D02*
X104075000Y-191229819D01*
X104075000Y-191229819D02*
X104455952Y-191229819D01*
X104455952Y-191229819D02*
X104551190Y-191277438D01*
X104551190Y-191277438D02*
X104598809Y-191325057D01*
X104598809Y-191325057D02*
X104646428Y-191420295D01*
X104646428Y-191420295D02*
X104646428Y-191563152D01*
X104646428Y-191563152D02*
X104598809Y-191658390D01*
X104598809Y-191658390D02*
X104551190Y-191706009D01*
X104551190Y-191706009D02*
X104455952Y-191753628D01*
X104455952Y-191753628D02*
X104075000Y-191753628D01*
X104932143Y-191229819D02*
X105503571Y-191229819D01*
X105217857Y-192229819D02*
X105217857Y-191229819D01*
X105836905Y-192229819D02*
X105836905Y-191229819D01*
X106503571Y-191229819D02*
X106694047Y-191229819D01*
X106694047Y-191229819D02*
X106789285Y-191277438D01*
X106789285Y-191277438D02*
X106884523Y-191372676D01*
X106884523Y-191372676D02*
X106932142Y-191563152D01*
X106932142Y-191563152D02*
X106932142Y-191896485D01*
X106932142Y-191896485D02*
X106884523Y-192086961D01*
X106884523Y-192086961D02*
X106789285Y-192182200D01*
X106789285Y-192182200D02*
X106694047Y-192229819D01*
X106694047Y-192229819D02*
X106503571Y-192229819D01*
X106503571Y-192229819D02*
X106408333Y-192182200D01*
X106408333Y-192182200D02*
X106313095Y-192086961D01*
X106313095Y-192086961D02*
X106265476Y-191896485D01*
X106265476Y-191896485D02*
X106265476Y-191563152D01*
X106265476Y-191563152D02*
X106313095Y-191372676D01*
X106313095Y-191372676D02*
X106408333Y-191277438D01*
X106408333Y-191277438D02*
X106503571Y-191229819D01*
X107360714Y-192229819D02*
X107360714Y-191229819D01*
X107360714Y-191229819D02*
X107932142Y-192229819D01*
X107932142Y-192229819D02*
X107932142Y-191229819D01*
X105718154Y-173179819D02*
X105241964Y-173179819D01*
X105241964Y-173179819D02*
X105241964Y-172179819D01*
X106003869Y-173132200D02*
X106146726Y-173179819D01*
X106146726Y-173179819D02*
X106384821Y-173179819D01*
X106384821Y-173179819D02*
X106480059Y-173132200D01*
X106480059Y-173132200D02*
X106527678Y-173084580D01*
X106527678Y-173084580D02*
X106575297Y-172989342D01*
X106575297Y-172989342D02*
X106575297Y-172894104D01*
X106575297Y-172894104D02*
X106527678Y-172798866D01*
X106527678Y-172798866D02*
X106480059Y-172751247D01*
X106480059Y-172751247D02*
X106384821Y-172703628D01*
X106384821Y-172703628D02*
X106194345Y-172656009D01*
X106194345Y-172656009D02*
X106099107Y-172608390D01*
X106099107Y-172608390D02*
X106051488Y-172560771D01*
X106051488Y-172560771D02*
X106003869Y-172465533D01*
X106003869Y-172465533D02*
X106003869Y-172370295D01*
X106003869Y-172370295D02*
X106051488Y-172275057D01*
X106051488Y-172275057D02*
X106099107Y-172227438D01*
X106099107Y-172227438D02*
X106194345Y-172179819D01*
X106194345Y-172179819D02*
X106432440Y-172179819D01*
X106432440Y-172179819D02*
X106575297Y-172227438D01*
X107003869Y-173179819D02*
X107003869Y-172179819D01*
X107003869Y-172656009D02*
X107575297Y-172656009D01*
X107575297Y-173179819D02*
X107575297Y-172179819D01*
X108051488Y-173179819D02*
X108051488Y-172179819D01*
X108861011Y-172656009D02*
X108527678Y-172656009D01*
X108527678Y-173179819D02*
X108527678Y-172179819D01*
X108527678Y-172179819D02*
X109003868Y-172179819D01*
X109241964Y-172179819D02*
X109813392Y-172179819D01*
X109527678Y-173179819D02*
X109527678Y-172179819D01*
X191133630Y-192229819D02*
X190657440Y-192229819D01*
X190657440Y-192229819D02*
X190657440Y-191229819D01*
X191419345Y-192182200D02*
X191562202Y-192229819D01*
X191562202Y-192229819D02*
X191800297Y-192229819D01*
X191800297Y-192229819D02*
X191895535Y-192182200D01*
X191895535Y-192182200D02*
X191943154Y-192134580D01*
X191943154Y-192134580D02*
X191990773Y-192039342D01*
X191990773Y-192039342D02*
X191990773Y-191944104D01*
X191990773Y-191944104D02*
X191943154Y-191848866D01*
X191943154Y-191848866D02*
X191895535Y-191801247D01*
X191895535Y-191801247D02*
X191800297Y-191753628D01*
X191800297Y-191753628D02*
X191609821Y-191706009D01*
X191609821Y-191706009D02*
X191514583Y-191658390D01*
X191514583Y-191658390D02*
X191466964Y-191610771D01*
X191466964Y-191610771D02*
X191419345Y-191515533D01*
X191419345Y-191515533D02*
X191419345Y-191420295D01*
X191419345Y-191420295D02*
X191466964Y-191325057D01*
X191466964Y-191325057D02*
X191514583Y-191277438D01*
X191514583Y-191277438D02*
X191609821Y-191229819D01*
X191609821Y-191229819D02*
X191847916Y-191229819D01*
X191847916Y-191229819D02*
X191990773Y-191277438D01*
X192419345Y-192229819D02*
X192419345Y-191229819D01*
X192419345Y-191229819D02*
X192800297Y-191229819D01*
X192800297Y-191229819D02*
X192895535Y-191277438D01*
X192895535Y-191277438D02*
X192943154Y-191325057D01*
X192943154Y-191325057D02*
X192990773Y-191420295D01*
X192990773Y-191420295D02*
X192990773Y-191563152D01*
X192990773Y-191563152D02*
X192943154Y-191658390D01*
X192943154Y-191658390D02*
X192895535Y-191706009D01*
X192895535Y-191706009D02*
X192800297Y-191753628D01*
X192800297Y-191753628D02*
X192419345Y-191753628D01*
X193371726Y-191944104D02*
X193847916Y-191944104D01*
X193276488Y-192229819D02*
X193609821Y-191229819D01*
X193609821Y-191229819D02*
X193943154Y-192229819D01*
X194847916Y-192134580D02*
X194800297Y-192182200D01*
X194800297Y-192182200D02*
X194657440Y-192229819D01*
X194657440Y-192229819D02*
X194562202Y-192229819D01*
X194562202Y-192229819D02*
X194419345Y-192182200D01*
X194419345Y-192182200D02*
X194324107Y-192086961D01*
X194324107Y-192086961D02*
X194276488Y-191991723D01*
X194276488Y-191991723D02*
X194228869Y-191801247D01*
X194228869Y-191801247D02*
X194228869Y-191658390D01*
X194228869Y-191658390D02*
X194276488Y-191467914D01*
X194276488Y-191467914D02*
X194324107Y-191372676D01*
X194324107Y-191372676D02*
X194419345Y-191277438D01*
X194419345Y-191277438D02*
X194562202Y-191229819D01*
X194562202Y-191229819D02*
X194657440Y-191229819D01*
X194657440Y-191229819D02*
X194800297Y-191277438D01*
X194800297Y-191277438D02*
X194847916Y-191325057D01*
X195276488Y-191706009D02*
X195609821Y-191706009D01*
X195752678Y-192229819D02*
X195276488Y-192229819D01*
X195276488Y-192229819D02*
X195276488Y-191229819D01*
X195276488Y-191229819D02*
X195752678Y-191229819D01*
X242854167Y-173179819D02*
X242854167Y-172179819D01*
X242854167Y-172179819D02*
X243187500Y-172894104D01*
X243187500Y-172894104D02*
X243520833Y-172179819D01*
X243520833Y-172179819D02*
X243520833Y-173179819D01*
X223851786Y-173179819D02*
X223851786Y-172179819D01*
X223851786Y-172179819D02*
X224423214Y-173179819D01*
X224423214Y-173179819D02*
X224423214Y-172179819D01*
X257284524Y-116029819D02*
X257475000Y-116029819D01*
X257475000Y-116029819D02*
X257570238Y-115982200D01*
X257570238Y-115982200D02*
X257617857Y-115934580D01*
X257617857Y-115934580D02*
X257713095Y-115791723D01*
X257713095Y-115791723D02*
X257760714Y-115601247D01*
X257760714Y-115601247D02*
X257760714Y-115220295D01*
X257760714Y-115220295D02*
X257713095Y-115125057D01*
X257713095Y-115125057D02*
X257665476Y-115077438D01*
X257665476Y-115077438D02*
X257570238Y-115029819D01*
X257570238Y-115029819D02*
X257379762Y-115029819D01*
X257379762Y-115029819D02*
X257284524Y-115077438D01*
X257284524Y-115077438D02*
X257236905Y-115125057D01*
X257236905Y-115125057D02*
X257189286Y-115220295D01*
X257189286Y-115220295D02*
X257189286Y-115458390D01*
X257189286Y-115458390D02*
X257236905Y-115553628D01*
X257236905Y-115553628D02*
X257284524Y-115601247D01*
X257284524Y-115601247D02*
X257379762Y-115648866D01*
X257379762Y-115648866D02*
X257570238Y-115648866D01*
X257570238Y-115648866D02*
X257665476Y-115601247D01*
X257665476Y-115601247D02*
X257713095Y-115553628D01*
X257713095Y-115553628D02*
X257760714Y-115458390D01*
X266904762Y-134079819D02*
X267095238Y-134079819D01*
X267095238Y-134079819D02*
X267190476Y-134127438D01*
X267190476Y-134127438D02*
X267285714Y-134222676D01*
X267285714Y-134222676D02*
X267333333Y-134413152D01*
X267333333Y-134413152D02*
X267333333Y-134746485D01*
X267333333Y-134746485D02*
X267285714Y-134936961D01*
X267285714Y-134936961D02*
X267190476Y-135032200D01*
X267190476Y-135032200D02*
X267095238Y-135079819D01*
X267095238Y-135079819D02*
X266904762Y-135079819D01*
X266904762Y-135079819D02*
X266809524Y-135032200D01*
X266809524Y-135032200D02*
X266714286Y-134936961D01*
X266714286Y-134936961D02*
X266666667Y-134746485D01*
X266666667Y-134746485D02*
X266666667Y-134413152D01*
X266666667Y-134413152D02*
X266714286Y-134222676D01*
X266714286Y-134222676D02*
X266809524Y-134127438D01*
X266809524Y-134127438D02*
X266904762Y-134079819D01*
X233996130Y-192229819D02*
X233662797Y-191753628D01*
X233424702Y-192229819D02*
X233424702Y-191229819D01*
X233424702Y-191229819D02*
X233805654Y-191229819D01*
X233805654Y-191229819D02*
X233900892Y-191277438D01*
X233900892Y-191277438D02*
X233948511Y-191325057D01*
X233948511Y-191325057D02*
X233996130Y-191420295D01*
X233996130Y-191420295D02*
X233996130Y-191563152D01*
X233996130Y-191563152D02*
X233948511Y-191658390D01*
X233948511Y-191658390D02*
X233900892Y-191706009D01*
X233900892Y-191706009D02*
X233805654Y-191753628D01*
X233805654Y-191753628D02*
X233424702Y-191753628D01*
X234377083Y-192182200D02*
X234519940Y-192229819D01*
X234519940Y-192229819D02*
X234758035Y-192229819D01*
X234758035Y-192229819D02*
X234853273Y-192182200D01*
X234853273Y-192182200D02*
X234900892Y-192134580D01*
X234900892Y-192134580D02*
X234948511Y-192039342D01*
X234948511Y-192039342D02*
X234948511Y-191944104D01*
X234948511Y-191944104D02*
X234900892Y-191848866D01*
X234900892Y-191848866D02*
X234853273Y-191801247D01*
X234853273Y-191801247D02*
X234758035Y-191753628D01*
X234758035Y-191753628D02*
X234567559Y-191706009D01*
X234567559Y-191706009D02*
X234472321Y-191658390D01*
X234472321Y-191658390D02*
X234424702Y-191610771D01*
X234424702Y-191610771D02*
X234377083Y-191515533D01*
X234377083Y-191515533D02*
X234377083Y-191420295D01*
X234377083Y-191420295D02*
X234424702Y-191325057D01*
X234424702Y-191325057D02*
X234472321Y-191277438D01*
X234472321Y-191277438D02*
X234567559Y-191229819D01*
X234567559Y-191229819D02*
X234805654Y-191229819D01*
X234805654Y-191229819D02*
X234948511Y-191277438D01*
X235377083Y-192229819D02*
X235377083Y-191229819D01*
X235377083Y-191229819D02*
X235758035Y-191229819D01*
X235758035Y-191229819D02*
X235853273Y-191277438D01*
X235853273Y-191277438D02*
X235900892Y-191325057D01*
X235900892Y-191325057D02*
X235948511Y-191420295D01*
X235948511Y-191420295D02*
X235948511Y-191563152D01*
X235948511Y-191563152D02*
X235900892Y-191658390D01*
X235900892Y-191658390D02*
X235853273Y-191706009D01*
X235853273Y-191706009D02*
X235758035Y-191753628D01*
X235758035Y-191753628D02*
X235377083Y-191753628D01*
X236329464Y-191944104D02*
X236805654Y-191944104D01*
X236234226Y-192229819D02*
X236567559Y-191229819D01*
X236567559Y-191229819D02*
X236900892Y-192229819D01*
X237805654Y-192134580D02*
X237758035Y-192182200D01*
X237758035Y-192182200D02*
X237615178Y-192229819D01*
X237615178Y-192229819D02*
X237519940Y-192229819D01*
X237519940Y-192229819D02*
X237377083Y-192182200D01*
X237377083Y-192182200D02*
X237281845Y-192086961D01*
X237281845Y-192086961D02*
X237234226Y-191991723D01*
X237234226Y-191991723D02*
X237186607Y-191801247D01*
X237186607Y-191801247D02*
X237186607Y-191658390D01*
X237186607Y-191658390D02*
X237234226Y-191467914D01*
X237234226Y-191467914D02*
X237281845Y-191372676D01*
X237281845Y-191372676D02*
X237377083Y-191277438D01*
X237377083Y-191277438D02*
X237519940Y-191229819D01*
X237519940Y-191229819D02*
X237615178Y-191229819D01*
X237615178Y-191229819D02*
X237758035Y-191277438D01*
X237758035Y-191277438D02*
X237805654Y-191325057D01*
X238234226Y-191706009D02*
X238567559Y-191706009D01*
X238710416Y-192229819D02*
X238234226Y-192229819D01*
X238234226Y-192229819D02*
X238234226Y-191229819D01*
X238234226Y-191229819D02*
X238710416Y-191229819D01*
X287836310Y-154082200D02*
X287979167Y-154129819D01*
X287979167Y-154129819D02*
X288217262Y-154129819D01*
X288217262Y-154129819D02*
X288312500Y-154082200D01*
X288312500Y-154082200D02*
X288360119Y-154034580D01*
X288360119Y-154034580D02*
X288407738Y-153939342D01*
X288407738Y-153939342D02*
X288407738Y-153844104D01*
X288407738Y-153844104D02*
X288360119Y-153748866D01*
X288360119Y-153748866D02*
X288312500Y-153701247D01*
X288312500Y-153701247D02*
X288217262Y-153653628D01*
X288217262Y-153653628D02*
X288026786Y-153606009D01*
X288026786Y-153606009D02*
X287931548Y-153558390D01*
X287931548Y-153558390D02*
X287883929Y-153510771D01*
X287883929Y-153510771D02*
X287836310Y-153415533D01*
X287836310Y-153415533D02*
X287836310Y-153320295D01*
X287836310Y-153320295D02*
X287883929Y-153225057D01*
X287883929Y-153225057D02*
X287931548Y-153177438D01*
X287931548Y-153177438D02*
X288026786Y-153129819D01*
X288026786Y-153129819D02*
X288264881Y-153129819D01*
X288264881Y-153129819D02*
X288407738Y-153177438D01*
X288836310Y-153606009D02*
X289169643Y-153606009D01*
X289312500Y-154129819D02*
X288836310Y-154129819D01*
X288836310Y-154129819D02*
X288836310Y-153129819D01*
X288836310Y-153129819D02*
X289312500Y-153129819D01*
X289741072Y-154129819D02*
X289741072Y-153129819D01*
X289741072Y-153129819D02*
X290074405Y-153844104D01*
X290074405Y-153844104D02*
X290407738Y-153129819D01*
X290407738Y-153129819D02*
X290407738Y-154129819D01*
X290883929Y-154129819D02*
X290883929Y-153129819D01*
X291931547Y-154034580D02*
X291883928Y-154082200D01*
X291883928Y-154082200D02*
X291741071Y-154129819D01*
X291741071Y-154129819D02*
X291645833Y-154129819D01*
X291645833Y-154129819D02*
X291502976Y-154082200D01*
X291502976Y-154082200D02*
X291407738Y-153986961D01*
X291407738Y-153986961D02*
X291360119Y-153891723D01*
X291360119Y-153891723D02*
X291312500Y-153701247D01*
X291312500Y-153701247D02*
X291312500Y-153558390D01*
X291312500Y-153558390D02*
X291360119Y-153367914D01*
X291360119Y-153367914D02*
X291407738Y-153272676D01*
X291407738Y-153272676D02*
X291502976Y-153177438D01*
X291502976Y-153177438D02*
X291645833Y-153129819D01*
X291645833Y-153129819D02*
X291741071Y-153129819D01*
X291741071Y-153129819D02*
X291883928Y-153177438D01*
X291883928Y-153177438D02*
X291931547Y-153225057D01*
X292550595Y-153129819D02*
X292741071Y-153129819D01*
X292741071Y-153129819D02*
X292836309Y-153177438D01*
X292836309Y-153177438D02*
X292931547Y-153272676D01*
X292931547Y-153272676D02*
X292979166Y-153463152D01*
X292979166Y-153463152D02*
X292979166Y-153796485D01*
X292979166Y-153796485D02*
X292931547Y-153986961D01*
X292931547Y-153986961D02*
X292836309Y-154082200D01*
X292836309Y-154082200D02*
X292741071Y-154129819D01*
X292741071Y-154129819D02*
X292550595Y-154129819D01*
X292550595Y-154129819D02*
X292455357Y-154082200D01*
X292455357Y-154082200D02*
X292360119Y-153986961D01*
X292360119Y-153986961D02*
X292312500Y-153796485D01*
X292312500Y-153796485D02*
X292312500Y-153463152D01*
X292312500Y-153463152D02*
X292360119Y-153272676D01*
X292360119Y-153272676D02*
X292455357Y-153177438D01*
X292455357Y-153177438D02*
X292550595Y-153129819D01*
X293883928Y-154129819D02*
X293407738Y-154129819D01*
X293407738Y-154129819D02*
X293407738Y-153129819D01*
X105360714Y-116029819D02*
X104789286Y-116029819D01*
X105075000Y-116029819D02*
X105075000Y-115029819D01*
X105075000Y-115029819D02*
X104979762Y-115172676D01*
X104979762Y-115172676D02*
X104884524Y-115267914D01*
X104884524Y-115267914D02*
X104789286Y-115315533D01*
X285788095Y-135079819D02*
X285788095Y-134079819D01*
X285788095Y-134079819D02*
X286169047Y-134079819D01*
X286169047Y-134079819D02*
X286264285Y-134127438D01*
X286264285Y-134127438D02*
X286311904Y-134175057D01*
X286311904Y-134175057D02*
X286359523Y-134270295D01*
X286359523Y-134270295D02*
X286359523Y-134413152D01*
X286359523Y-134413152D02*
X286311904Y-134508390D01*
X286311904Y-134508390D02*
X286264285Y-134556009D01*
X286264285Y-134556009D02*
X286169047Y-134603628D01*
X286169047Y-134603628D02*
X285788095Y-134603628D01*
X278811310Y-173179819D02*
X278811310Y-172179819D01*
X278811310Y-172179819D02*
X279192262Y-172179819D01*
X279192262Y-172179819D02*
X279287500Y-172227438D01*
X279287500Y-172227438D02*
X279335119Y-172275057D01*
X279335119Y-172275057D02*
X279382738Y-172370295D01*
X279382738Y-172370295D02*
X279382738Y-172513152D01*
X279382738Y-172513152D02*
X279335119Y-172608390D01*
X279335119Y-172608390D02*
X279287500Y-172656009D01*
X279287500Y-172656009D02*
X279192262Y-172703628D01*
X279192262Y-172703628D02*
X278811310Y-172703628D01*
X279811310Y-172656009D02*
X280144643Y-172656009D01*
X280287500Y-173179819D02*
X279811310Y-173179819D01*
X279811310Y-173179819D02*
X279811310Y-172179819D01*
X279811310Y-172179819D02*
X280287500Y-172179819D01*
X281287500Y-173179819D02*
X280954167Y-172703628D01*
X280716072Y-173179819D02*
X280716072Y-172179819D01*
X280716072Y-172179819D02*
X281097024Y-172179819D01*
X281097024Y-172179819D02*
X281192262Y-172227438D01*
X281192262Y-172227438D02*
X281239881Y-172275057D01*
X281239881Y-172275057D02*
X281287500Y-172370295D01*
X281287500Y-172370295D02*
X281287500Y-172513152D01*
X281287500Y-172513152D02*
X281239881Y-172608390D01*
X281239881Y-172608390D02*
X281192262Y-172656009D01*
X281192262Y-172656009D02*
X281097024Y-172703628D01*
X281097024Y-172703628D02*
X280716072Y-172703628D01*
X281716072Y-173179819D02*
X281716072Y-172179819D01*
X282382738Y-172179819D02*
X282573214Y-172179819D01*
X282573214Y-172179819D02*
X282668452Y-172227438D01*
X282668452Y-172227438D02*
X282763690Y-172322676D01*
X282763690Y-172322676D02*
X282811309Y-172513152D01*
X282811309Y-172513152D02*
X282811309Y-172846485D01*
X282811309Y-172846485D02*
X282763690Y-173036961D01*
X282763690Y-173036961D02*
X282668452Y-173132200D01*
X282668452Y-173132200D02*
X282573214Y-173179819D01*
X282573214Y-173179819D02*
X282382738Y-173179819D01*
X282382738Y-173179819D02*
X282287500Y-173132200D01*
X282287500Y-173132200D02*
X282192262Y-173036961D01*
X282192262Y-173036961D02*
X282144643Y-172846485D01*
X282144643Y-172846485D02*
X282144643Y-172513152D01*
X282144643Y-172513152D02*
X282192262Y-172322676D01*
X282192262Y-172322676D02*
X282287500Y-172227438D01*
X282287500Y-172227438D02*
X282382738Y-172179819D01*
X283239881Y-173179819D02*
X283239881Y-172179819D01*
X283239881Y-172179819D02*
X283477976Y-172179819D01*
X283477976Y-172179819D02*
X283620833Y-172227438D01*
X283620833Y-172227438D02*
X283716071Y-172322676D01*
X283716071Y-172322676D02*
X283763690Y-172417914D01*
X283763690Y-172417914D02*
X283811309Y-172608390D01*
X283811309Y-172608390D02*
X283811309Y-172751247D01*
X283811309Y-172751247D02*
X283763690Y-172941723D01*
X283763690Y-172941723D02*
X283716071Y-173036961D01*
X283716071Y-173036961D02*
X283620833Y-173132200D01*
X283620833Y-173132200D02*
X283477976Y-173179819D01*
X283477976Y-173179819D02*
X283239881Y-173179819D01*
X260332738Y-96979819D02*
X260332738Y-95979819D01*
X260332738Y-95979819D02*
X260713690Y-95979819D01*
X260713690Y-95979819D02*
X260808928Y-96027438D01*
X260808928Y-96027438D02*
X260856547Y-96075057D01*
X260856547Y-96075057D02*
X260904166Y-96170295D01*
X260904166Y-96170295D02*
X260904166Y-96313152D01*
X260904166Y-96313152D02*
X260856547Y-96408390D01*
X260856547Y-96408390D02*
X260808928Y-96456009D01*
X260808928Y-96456009D02*
X260713690Y-96503628D01*
X260713690Y-96503628D02*
X260332738Y-96503628D01*
X261904166Y-96979819D02*
X261570833Y-96503628D01*
X261332738Y-96979819D02*
X261332738Y-95979819D01*
X261332738Y-95979819D02*
X261713690Y-95979819D01*
X261713690Y-95979819D02*
X261808928Y-96027438D01*
X261808928Y-96027438D02*
X261856547Y-96075057D01*
X261856547Y-96075057D02*
X261904166Y-96170295D01*
X261904166Y-96170295D02*
X261904166Y-96313152D01*
X261904166Y-96313152D02*
X261856547Y-96408390D01*
X261856547Y-96408390D02*
X261808928Y-96456009D01*
X261808928Y-96456009D02*
X261713690Y-96503628D01*
X261713690Y-96503628D02*
X261332738Y-96503628D01*
X262332738Y-96979819D02*
X262332738Y-95979819D01*
X262808928Y-96979819D02*
X262808928Y-95979819D01*
X262808928Y-95979819D02*
X263380356Y-96979819D01*
X263380356Y-96979819D02*
X263380356Y-95979819D01*
X263713690Y-95979819D02*
X264285118Y-95979819D01*
X263999404Y-96979819D02*
X263999404Y-95979819D01*
X114980952Y-135175057D02*
X114885714Y-135127438D01*
X114885714Y-135127438D02*
X114790476Y-135032200D01*
X114790476Y-135032200D02*
X114647619Y-134889342D01*
X114647619Y-134889342D02*
X114552381Y-134841723D01*
X114552381Y-134841723D02*
X114457143Y-134841723D01*
X114504762Y-135079819D02*
X114409524Y-135032200D01*
X114409524Y-135032200D02*
X114314286Y-134936961D01*
X114314286Y-134936961D02*
X114266667Y-134746485D01*
X114266667Y-134746485D02*
X114266667Y-134413152D01*
X114266667Y-134413152D02*
X114314286Y-134222676D01*
X114314286Y-134222676D02*
X114409524Y-134127438D01*
X114409524Y-134127438D02*
X114504762Y-134079819D01*
X114504762Y-134079819D02*
X114695238Y-134079819D01*
X114695238Y-134079819D02*
X114790476Y-134127438D01*
X114790476Y-134127438D02*
X114885714Y-134222676D01*
X114885714Y-134222676D02*
X114933333Y-134413152D01*
X114933333Y-134413152D02*
X114933333Y-134746485D01*
X114933333Y-134746485D02*
X114885714Y-134936961D01*
X114885714Y-134936961D02*
X114790476Y-135032200D01*
X114790476Y-135032200D02*
X114695238Y-135079819D01*
X114695238Y-135079819D02*
X114504762Y-135079819D01*
X172059523Y-135079819D02*
X171726190Y-134603628D01*
X171488095Y-135079819D02*
X171488095Y-134079819D01*
X171488095Y-134079819D02*
X171869047Y-134079819D01*
X171869047Y-134079819D02*
X171964285Y-134127438D01*
X171964285Y-134127438D02*
X172011904Y-134175057D01*
X172011904Y-134175057D02*
X172059523Y-134270295D01*
X172059523Y-134270295D02*
X172059523Y-134413152D01*
X172059523Y-134413152D02*
X172011904Y-134508390D01*
X172011904Y-134508390D02*
X171964285Y-134556009D01*
X171964285Y-134556009D02*
X171869047Y-134603628D01*
X171869047Y-134603628D02*
X171488095Y-134603628D01*
X341866666Y-192229819D02*
X341533333Y-191753628D01*
X341295238Y-192229819D02*
X341295238Y-191229819D01*
X341295238Y-191229819D02*
X341676190Y-191229819D01*
X341676190Y-191229819D02*
X341771428Y-191277438D01*
X341771428Y-191277438D02*
X341819047Y-191325057D01*
X341819047Y-191325057D02*
X341866666Y-191420295D01*
X341866666Y-191420295D02*
X341866666Y-191563152D01*
X341866666Y-191563152D02*
X341819047Y-191658390D01*
X341819047Y-191658390D02*
X341771428Y-191706009D01*
X341771428Y-191706009D02*
X341676190Y-191753628D01*
X341676190Y-191753628D02*
X341295238Y-191753628D01*
X342295238Y-192229819D02*
X342295238Y-191229819D01*
X343295237Y-191277438D02*
X343199999Y-191229819D01*
X343199999Y-191229819D02*
X343057142Y-191229819D01*
X343057142Y-191229819D02*
X342914285Y-191277438D01*
X342914285Y-191277438D02*
X342819047Y-191372676D01*
X342819047Y-191372676D02*
X342771428Y-191467914D01*
X342771428Y-191467914D02*
X342723809Y-191658390D01*
X342723809Y-191658390D02*
X342723809Y-191801247D01*
X342723809Y-191801247D02*
X342771428Y-191991723D01*
X342771428Y-191991723D02*
X342819047Y-192086961D01*
X342819047Y-192086961D02*
X342914285Y-192182200D01*
X342914285Y-192182200D02*
X343057142Y-192229819D01*
X343057142Y-192229819D02*
X343152380Y-192229819D01*
X343152380Y-192229819D02*
X343295237Y-192182200D01*
X343295237Y-192182200D02*
X343342856Y-192134580D01*
X343342856Y-192134580D02*
X343342856Y-191801247D01*
X343342856Y-191801247D02*
X343152380Y-191801247D01*
X343771428Y-192229819D02*
X343771428Y-191229819D01*
X343771428Y-191706009D02*
X344342856Y-191706009D01*
X344342856Y-192229819D02*
X344342856Y-191229819D01*
X344676190Y-191229819D02*
X345247618Y-191229819D01*
X344961904Y-192229819D02*
X344961904Y-191229819D01*
X264619047Y-192229819D02*
X264285714Y-191753628D01*
X264047619Y-192229819D02*
X264047619Y-191229819D01*
X264047619Y-191229819D02*
X264428571Y-191229819D01*
X264428571Y-191229819D02*
X264523809Y-191277438D01*
X264523809Y-191277438D02*
X264571428Y-191325057D01*
X264571428Y-191325057D02*
X264619047Y-191420295D01*
X264619047Y-191420295D02*
X264619047Y-191563152D01*
X264619047Y-191563152D02*
X264571428Y-191658390D01*
X264571428Y-191658390D02*
X264523809Y-191706009D01*
X264523809Y-191706009D02*
X264428571Y-191753628D01*
X264428571Y-191753628D02*
X264047619Y-191753628D01*
X265238095Y-191229819D02*
X265428571Y-191229819D01*
X265428571Y-191229819D02*
X265523809Y-191277438D01*
X265523809Y-191277438D02*
X265619047Y-191372676D01*
X265619047Y-191372676D02*
X265666666Y-191563152D01*
X265666666Y-191563152D02*
X265666666Y-191896485D01*
X265666666Y-191896485D02*
X265619047Y-192086961D01*
X265619047Y-192086961D02*
X265523809Y-192182200D01*
X265523809Y-192182200D02*
X265428571Y-192229819D01*
X265428571Y-192229819D02*
X265238095Y-192229819D01*
X265238095Y-192229819D02*
X265142857Y-192182200D01*
X265142857Y-192182200D02*
X265047619Y-192086961D01*
X265047619Y-192086961D02*
X265000000Y-191896485D01*
X265000000Y-191896485D02*
X265000000Y-191563152D01*
X265000000Y-191563152D02*
X265047619Y-191372676D01*
X265047619Y-191372676D02*
X265142857Y-191277438D01*
X265142857Y-191277438D02*
X265238095Y-191229819D01*
X266095238Y-192229819D02*
X266095238Y-191229819D01*
X266095238Y-191229819D02*
X266476190Y-191229819D01*
X266476190Y-191229819D02*
X266571428Y-191277438D01*
X266571428Y-191277438D02*
X266619047Y-191325057D01*
X266619047Y-191325057D02*
X266666666Y-191420295D01*
X266666666Y-191420295D02*
X266666666Y-191563152D01*
X266666666Y-191563152D02*
X266619047Y-191658390D01*
X266619047Y-191658390D02*
X266571428Y-191706009D01*
X266571428Y-191706009D02*
X266476190Y-191753628D01*
X266476190Y-191753628D02*
X266095238Y-191753628D01*
X266952381Y-191229819D02*
X267523809Y-191229819D01*
X267238095Y-192229819D02*
X267238095Y-191229819D01*
X267857143Y-192229819D02*
X267857143Y-191229819D01*
X268523809Y-191229819D02*
X268714285Y-191229819D01*
X268714285Y-191229819D02*
X268809523Y-191277438D01*
X268809523Y-191277438D02*
X268904761Y-191372676D01*
X268904761Y-191372676D02*
X268952380Y-191563152D01*
X268952380Y-191563152D02*
X268952380Y-191896485D01*
X268952380Y-191896485D02*
X268904761Y-192086961D01*
X268904761Y-192086961D02*
X268809523Y-192182200D01*
X268809523Y-192182200D02*
X268714285Y-192229819D01*
X268714285Y-192229819D02*
X268523809Y-192229819D01*
X268523809Y-192229819D02*
X268428571Y-192182200D01*
X268428571Y-192182200D02*
X268333333Y-192086961D01*
X268333333Y-192086961D02*
X268285714Y-191896485D01*
X268285714Y-191896485D02*
X268285714Y-191563152D01*
X268285714Y-191563152D02*
X268333333Y-191372676D01*
X268333333Y-191372676D02*
X268428571Y-191277438D01*
X268428571Y-191277438D02*
X268523809Y-191229819D01*
X269380952Y-192229819D02*
X269380952Y-191229819D01*
X269380952Y-191229819D02*
X269952380Y-192229819D01*
X269952380Y-192229819D02*
X269952380Y-191229819D01*
X303528571Y-135079819D02*
X303052381Y-135079819D01*
X303052381Y-135079819D02*
X303052381Y-134079819D01*
X304195238Y-134556009D02*
X304338095Y-134603628D01*
X304338095Y-134603628D02*
X304385714Y-134651247D01*
X304385714Y-134651247D02*
X304433333Y-134746485D01*
X304433333Y-134746485D02*
X304433333Y-134889342D01*
X304433333Y-134889342D02*
X304385714Y-134984580D01*
X304385714Y-134984580D02*
X304338095Y-135032200D01*
X304338095Y-135032200D02*
X304242857Y-135079819D01*
X304242857Y-135079819D02*
X303861905Y-135079819D01*
X303861905Y-135079819D02*
X303861905Y-134079819D01*
X303861905Y-134079819D02*
X304195238Y-134079819D01*
X304195238Y-134079819D02*
X304290476Y-134127438D01*
X304290476Y-134127438D02*
X304338095Y-134175057D01*
X304338095Y-134175057D02*
X304385714Y-134270295D01*
X304385714Y-134270295D02*
X304385714Y-134365533D01*
X304385714Y-134365533D02*
X304338095Y-134460771D01*
X304338095Y-134460771D02*
X304290476Y-134508390D01*
X304290476Y-134508390D02*
X304195238Y-134556009D01*
X304195238Y-134556009D02*
X303861905Y-134556009D01*
X305433333Y-135079819D02*
X305100000Y-134603628D01*
X304861905Y-135079819D02*
X304861905Y-134079819D01*
X304861905Y-134079819D02*
X305242857Y-134079819D01*
X305242857Y-134079819D02*
X305338095Y-134127438D01*
X305338095Y-134127438D02*
X305385714Y-134175057D01*
X305385714Y-134175057D02*
X305433333Y-134270295D01*
X305433333Y-134270295D02*
X305433333Y-134413152D01*
X305433333Y-134413152D02*
X305385714Y-134508390D01*
X305385714Y-134508390D02*
X305338095Y-134556009D01*
X305338095Y-134556009D02*
X305242857Y-134603628D01*
X305242857Y-134603628D02*
X304861905Y-134603628D01*
X305861905Y-135079819D02*
X305861905Y-134079819D01*
X306433333Y-135079819D02*
X306004762Y-134508390D01*
X306433333Y-134079819D02*
X305861905Y-134651247D01*
X306719048Y-134079819D02*
X307290476Y-134079819D01*
X307004762Y-135079819D02*
X307004762Y-134079819D01*
X89573214Y-134079819D02*
X90144642Y-134079819D01*
X89858928Y-135079819D02*
X89858928Y-134079819D01*
X90430357Y-134794104D02*
X90906547Y-134794104D01*
X90335119Y-135079819D02*
X90668452Y-134079819D01*
X90668452Y-134079819D02*
X91001785Y-135079819D01*
X91668452Y-134556009D02*
X91811309Y-134603628D01*
X91811309Y-134603628D02*
X91858928Y-134651247D01*
X91858928Y-134651247D02*
X91906547Y-134746485D01*
X91906547Y-134746485D02*
X91906547Y-134889342D01*
X91906547Y-134889342D02*
X91858928Y-134984580D01*
X91858928Y-134984580D02*
X91811309Y-135032200D01*
X91811309Y-135032200D02*
X91716071Y-135079819D01*
X91716071Y-135079819D02*
X91335119Y-135079819D01*
X91335119Y-135079819D02*
X91335119Y-134079819D01*
X91335119Y-134079819D02*
X91668452Y-134079819D01*
X91668452Y-134079819D02*
X91763690Y-134127438D01*
X91763690Y-134127438D02*
X91811309Y-134175057D01*
X91811309Y-134175057D02*
X91858928Y-134270295D01*
X91858928Y-134270295D02*
X91858928Y-134365533D01*
X91858928Y-134365533D02*
X91811309Y-134460771D01*
X91811309Y-134460771D02*
X91763690Y-134508390D01*
X91763690Y-134508390D02*
X91668452Y-134556009D01*
X91668452Y-134556009D02*
X91335119Y-134556009D01*
X138126786Y-154082200D02*
X138269643Y-154129819D01*
X138269643Y-154129819D02*
X138507738Y-154129819D01*
X138507738Y-154129819D02*
X138602976Y-154082200D01*
X138602976Y-154082200D02*
X138650595Y-154034580D01*
X138650595Y-154034580D02*
X138698214Y-153939342D01*
X138698214Y-153939342D02*
X138698214Y-153844104D01*
X138698214Y-153844104D02*
X138650595Y-153748866D01*
X138650595Y-153748866D02*
X138602976Y-153701247D01*
X138602976Y-153701247D02*
X138507738Y-153653628D01*
X138507738Y-153653628D02*
X138317262Y-153606009D01*
X138317262Y-153606009D02*
X138222024Y-153558390D01*
X138222024Y-153558390D02*
X138174405Y-153510771D01*
X138174405Y-153510771D02*
X138126786Y-153415533D01*
X138126786Y-153415533D02*
X138126786Y-153320295D01*
X138126786Y-153320295D02*
X138174405Y-153225057D01*
X138174405Y-153225057D02*
X138222024Y-153177438D01*
X138222024Y-153177438D02*
X138317262Y-153129819D01*
X138317262Y-153129819D02*
X138555357Y-153129819D01*
X138555357Y-153129819D02*
X138698214Y-153177438D01*
X339056845Y-96932200D02*
X339199702Y-96979819D01*
X339199702Y-96979819D02*
X339437797Y-96979819D01*
X339437797Y-96979819D02*
X339533035Y-96932200D01*
X339533035Y-96932200D02*
X339580654Y-96884580D01*
X339580654Y-96884580D02*
X339628273Y-96789342D01*
X339628273Y-96789342D02*
X339628273Y-96694104D01*
X339628273Y-96694104D02*
X339580654Y-96598866D01*
X339580654Y-96598866D02*
X339533035Y-96551247D01*
X339533035Y-96551247D02*
X339437797Y-96503628D01*
X339437797Y-96503628D02*
X339247321Y-96456009D01*
X339247321Y-96456009D02*
X339152083Y-96408390D01*
X339152083Y-96408390D02*
X339104464Y-96360771D01*
X339104464Y-96360771D02*
X339056845Y-96265533D01*
X339056845Y-96265533D02*
X339056845Y-96170295D01*
X339056845Y-96170295D02*
X339104464Y-96075057D01*
X339104464Y-96075057D02*
X339152083Y-96027438D01*
X339152083Y-96027438D02*
X339247321Y-95979819D01*
X339247321Y-95979819D02*
X339485416Y-95979819D01*
X339485416Y-95979819D02*
X339628273Y-96027438D01*
X340056845Y-96456009D02*
X340390178Y-96456009D01*
X340533035Y-96979819D02*
X340056845Y-96979819D01*
X340056845Y-96979819D02*
X340056845Y-95979819D01*
X340056845Y-95979819D02*
X340533035Y-95979819D01*
X340961607Y-96979819D02*
X340961607Y-95979819D01*
X340961607Y-95979819D02*
X341533035Y-96979819D01*
X341533035Y-96979819D02*
X341533035Y-95979819D01*
X342009226Y-96979819D02*
X342009226Y-95979819D01*
X342009226Y-95979819D02*
X342247321Y-95979819D01*
X342247321Y-95979819D02*
X342390178Y-96027438D01*
X342390178Y-96027438D02*
X342485416Y-96122676D01*
X342485416Y-96122676D02*
X342533035Y-96217914D01*
X342533035Y-96217914D02*
X342580654Y-96408390D01*
X342580654Y-96408390D02*
X342580654Y-96551247D01*
X342580654Y-96551247D02*
X342533035Y-96741723D01*
X342533035Y-96741723D02*
X342485416Y-96836961D01*
X342485416Y-96836961D02*
X342390178Y-96932200D01*
X342390178Y-96932200D02*
X342247321Y-96979819D01*
X342247321Y-96979819D02*
X342009226Y-96979819D01*
X219041667Y-115029819D02*
X219708333Y-115029819D01*
X219708333Y-115029819D02*
X219279762Y-116029819D01*
X200515476Y-115029819D02*
X200325000Y-115029819D01*
X200325000Y-115029819D02*
X200229762Y-115077438D01*
X200229762Y-115077438D02*
X200182143Y-115125057D01*
X200182143Y-115125057D02*
X200086905Y-115267914D01*
X200086905Y-115267914D02*
X200039286Y-115458390D01*
X200039286Y-115458390D02*
X200039286Y-115839342D01*
X200039286Y-115839342D02*
X200086905Y-115934580D01*
X200086905Y-115934580D02*
X200134524Y-115982200D01*
X200134524Y-115982200D02*
X200229762Y-116029819D01*
X200229762Y-116029819D02*
X200420238Y-116029819D01*
X200420238Y-116029819D02*
X200515476Y-115982200D01*
X200515476Y-115982200D02*
X200563095Y-115934580D01*
X200563095Y-115934580D02*
X200610714Y-115839342D01*
X200610714Y-115839342D02*
X200610714Y-115601247D01*
X200610714Y-115601247D02*
X200563095Y-115506009D01*
X200563095Y-115506009D02*
X200515476Y-115458390D01*
X200515476Y-115458390D02*
X200420238Y-115410771D01*
X200420238Y-115410771D02*
X200229762Y-115410771D01*
X200229762Y-115410771D02*
X200134524Y-115458390D01*
X200134524Y-115458390D02*
X200086905Y-115506009D01*
X200086905Y-115506009D02*
X200039286Y-115601247D01*
X298218452Y-173132200D02*
X298361309Y-173179819D01*
X298361309Y-173179819D02*
X298599404Y-173179819D01*
X298599404Y-173179819D02*
X298694642Y-173132200D01*
X298694642Y-173132200D02*
X298742261Y-173084580D01*
X298742261Y-173084580D02*
X298789880Y-172989342D01*
X298789880Y-172989342D02*
X298789880Y-172894104D01*
X298789880Y-172894104D02*
X298742261Y-172798866D01*
X298742261Y-172798866D02*
X298694642Y-172751247D01*
X298694642Y-172751247D02*
X298599404Y-172703628D01*
X298599404Y-172703628D02*
X298408928Y-172656009D01*
X298408928Y-172656009D02*
X298313690Y-172608390D01*
X298313690Y-172608390D02*
X298266071Y-172560771D01*
X298266071Y-172560771D02*
X298218452Y-172465533D01*
X298218452Y-172465533D02*
X298218452Y-172370295D01*
X298218452Y-172370295D02*
X298266071Y-172275057D01*
X298266071Y-172275057D02*
X298313690Y-172227438D01*
X298313690Y-172227438D02*
X298408928Y-172179819D01*
X298408928Y-172179819D02*
X298647023Y-172179819D01*
X298647023Y-172179819D02*
X298789880Y-172227438D01*
X299694642Y-173179819D02*
X299218452Y-173179819D01*
X299218452Y-173179819D02*
X299218452Y-172179819D01*
X299980357Y-172894104D02*
X300456547Y-172894104D01*
X299885119Y-173179819D02*
X300218452Y-172179819D01*
X300218452Y-172179819D02*
X300551785Y-173179819D01*
X300837500Y-173132200D02*
X300980357Y-173179819D01*
X300980357Y-173179819D02*
X301218452Y-173179819D01*
X301218452Y-173179819D02*
X301313690Y-173132200D01*
X301313690Y-173132200D02*
X301361309Y-173084580D01*
X301361309Y-173084580D02*
X301408928Y-172989342D01*
X301408928Y-172989342D02*
X301408928Y-172894104D01*
X301408928Y-172894104D02*
X301361309Y-172798866D01*
X301361309Y-172798866D02*
X301313690Y-172751247D01*
X301313690Y-172751247D02*
X301218452Y-172703628D01*
X301218452Y-172703628D02*
X301027976Y-172656009D01*
X301027976Y-172656009D02*
X300932738Y-172608390D01*
X300932738Y-172608390D02*
X300885119Y-172560771D01*
X300885119Y-172560771D02*
X300837500Y-172465533D01*
X300837500Y-172465533D02*
X300837500Y-172370295D01*
X300837500Y-172370295D02*
X300885119Y-172275057D01*
X300885119Y-172275057D02*
X300932738Y-172227438D01*
X300932738Y-172227438D02*
X301027976Y-172179819D01*
X301027976Y-172179819D02*
X301266071Y-172179819D01*
X301266071Y-172179819D02*
X301408928Y-172227438D01*
X301837500Y-173179819D02*
X301837500Y-172179819D01*
X301837500Y-172656009D02*
X302408928Y-172656009D01*
X302408928Y-173179819D02*
X302408928Y-172179819D01*
X279239881Y-96932200D02*
X279382738Y-96979819D01*
X279382738Y-96979819D02*
X279620833Y-96979819D01*
X279620833Y-96979819D02*
X279716071Y-96932200D01*
X279716071Y-96932200D02*
X279763690Y-96884580D01*
X279763690Y-96884580D02*
X279811309Y-96789342D01*
X279811309Y-96789342D02*
X279811309Y-96694104D01*
X279811309Y-96694104D02*
X279763690Y-96598866D01*
X279763690Y-96598866D02*
X279716071Y-96551247D01*
X279716071Y-96551247D02*
X279620833Y-96503628D01*
X279620833Y-96503628D02*
X279430357Y-96456009D01*
X279430357Y-96456009D02*
X279335119Y-96408390D01*
X279335119Y-96408390D02*
X279287500Y-96360771D01*
X279287500Y-96360771D02*
X279239881Y-96265533D01*
X279239881Y-96265533D02*
X279239881Y-96170295D01*
X279239881Y-96170295D02*
X279287500Y-96075057D01*
X279287500Y-96075057D02*
X279335119Y-96027438D01*
X279335119Y-96027438D02*
X279430357Y-95979819D01*
X279430357Y-95979819D02*
X279668452Y-95979819D01*
X279668452Y-95979819D02*
X279811309Y-96027438D01*
X280239881Y-96979819D02*
X280239881Y-95979819D01*
X280239881Y-95979819D02*
X280620833Y-95979819D01*
X280620833Y-95979819D02*
X280716071Y-96027438D01*
X280716071Y-96027438D02*
X280763690Y-96075057D01*
X280763690Y-96075057D02*
X280811309Y-96170295D01*
X280811309Y-96170295D02*
X280811309Y-96313152D01*
X280811309Y-96313152D02*
X280763690Y-96408390D01*
X280763690Y-96408390D02*
X280716071Y-96456009D01*
X280716071Y-96456009D02*
X280620833Y-96503628D01*
X280620833Y-96503628D02*
X280239881Y-96503628D01*
X281239881Y-96456009D02*
X281573214Y-96456009D01*
X281716071Y-96979819D02*
X281239881Y-96979819D01*
X281239881Y-96979819D02*
X281239881Y-95979819D01*
X281239881Y-95979819D02*
X281716071Y-95979819D01*
X282620833Y-96979819D02*
X282144643Y-96979819D01*
X282144643Y-96979819D02*
X282144643Y-95979819D01*
X283430357Y-96979819D02*
X282954167Y-96979819D01*
X282954167Y-96979819D02*
X282954167Y-95979819D01*
X190514286Y-134079819D02*
X191085714Y-134079819D01*
X190800000Y-135079819D02*
X190800000Y-134079819D01*
X320030654Y-173179819D02*
X319697321Y-172703628D01*
X319459226Y-173179819D02*
X319459226Y-172179819D01*
X319459226Y-172179819D02*
X319840178Y-172179819D01*
X319840178Y-172179819D02*
X319935416Y-172227438D01*
X319935416Y-172227438D02*
X319983035Y-172275057D01*
X319983035Y-172275057D02*
X320030654Y-172370295D01*
X320030654Y-172370295D02*
X320030654Y-172513152D01*
X320030654Y-172513152D02*
X319983035Y-172608390D01*
X319983035Y-172608390D02*
X319935416Y-172656009D01*
X319935416Y-172656009D02*
X319840178Y-172703628D01*
X319840178Y-172703628D02*
X319459226Y-172703628D01*
X320411607Y-173132200D02*
X320554464Y-173179819D01*
X320554464Y-173179819D02*
X320792559Y-173179819D01*
X320792559Y-173179819D02*
X320887797Y-173132200D01*
X320887797Y-173132200D02*
X320935416Y-173084580D01*
X320935416Y-173084580D02*
X320983035Y-172989342D01*
X320983035Y-172989342D02*
X320983035Y-172894104D01*
X320983035Y-172894104D02*
X320935416Y-172798866D01*
X320935416Y-172798866D02*
X320887797Y-172751247D01*
X320887797Y-172751247D02*
X320792559Y-172703628D01*
X320792559Y-172703628D02*
X320602083Y-172656009D01*
X320602083Y-172656009D02*
X320506845Y-172608390D01*
X320506845Y-172608390D02*
X320459226Y-172560771D01*
X320459226Y-172560771D02*
X320411607Y-172465533D01*
X320411607Y-172465533D02*
X320411607Y-172370295D01*
X320411607Y-172370295D02*
X320459226Y-172275057D01*
X320459226Y-172275057D02*
X320506845Y-172227438D01*
X320506845Y-172227438D02*
X320602083Y-172179819D01*
X320602083Y-172179819D02*
X320840178Y-172179819D01*
X320840178Y-172179819D02*
X320983035Y-172227438D01*
X321411607Y-173179819D02*
X321411607Y-172179819D01*
X321411607Y-172656009D02*
X321983035Y-172656009D01*
X321983035Y-173179819D02*
X321983035Y-172179819D01*
X322459226Y-173179819D02*
X322459226Y-172179819D01*
X323268749Y-172656009D02*
X322935416Y-172656009D01*
X322935416Y-173179819D02*
X322935416Y-172179819D01*
X322935416Y-172179819D02*
X323411606Y-172179819D01*
X323649702Y-172179819D02*
X324221130Y-172179819D01*
X323935416Y-173179819D02*
X323935416Y-172179819D01*
X142841667Y-115029819D02*
X143460714Y-115029819D01*
X143460714Y-115029819D02*
X143127381Y-115410771D01*
X143127381Y-115410771D02*
X143270238Y-115410771D01*
X143270238Y-115410771D02*
X143365476Y-115458390D01*
X143365476Y-115458390D02*
X143413095Y-115506009D01*
X143413095Y-115506009D02*
X143460714Y-115601247D01*
X143460714Y-115601247D02*
X143460714Y-115839342D01*
X143460714Y-115839342D02*
X143413095Y-115934580D01*
X143413095Y-115934580D02*
X143365476Y-115982200D01*
X143365476Y-115982200D02*
X143270238Y-116029819D01*
X143270238Y-116029819D02*
X142984524Y-116029819D01*
X142984524Y-116029819D02*
X142889286Y-115982200D01*
X142889286Y-115982200D02*
X142841667Y-115934580D01*
X123839286Y-115125057D02*
X123886905Y-115077438D01*
X123886905Y-115077438D02*
X123982143Y-115029819D01*
X123982143Y-115029819D02*
X124220238Y-115029819D01*
X124220238Y-115029819D02*
X124315476Y-115077438D01*
X124315476Y-115077438D02*
X124363095Y-115125057D01*
X124363095Y-115125057D02*
X124410714Y-115220295D01*
X124410714Y-115220295D02*
X124410714Y-115315533D01*
X124410714Y-115315533D02*
X124363095Y-115458390D01*
X124363095Y-115458390D02*
X123791667Y-116029819D01*
X123791667Y-116029819D02*
X124410714Y-116029819D01*
X228614286Y-134079819D02*
X228614286Y-134889342D01*
X228614286Y-134889342D02*
X228661905Y-134984580D01*
X228661905Y-134984580D02*
X228709524Y-135032200D01*
X228709524Y-135032200D02*
X228804762Y-135079819D01*
X228804762Y-135079819D02*
X228995238Y-135079819D01*
X228995238Y-135079819D02*
X229090476Y-135032200D01*
X229090476Y-135032200D02*
X229138095Y-134984580D01*
X229138095Y-134984580D02*
X229185714Y-134889342D01*
X229185714Y-134889342D02*
X229185714Y-134079819D01*
X323364286Y-191229819D02*
X323364286Y-192039342D01*
X323364286Y-192039342D02*
X323411905Y-192134580D01*
X323411905Y-192134580D02*
X323459524Y-192182200D01*
X323459524Y-192182200D02*
X323554762Y-192229819D01*
X323554762Y-192229819D02*
X323745238Y-192229819D01*
X323745238Y-192229819D02*
X323840476Y-192182200D01*
X323840476Y-192182200D02*
X323888095Y-192134580D01*
X323888095Y-192134580D02*
X323935714Y-192039342D01*
X323935714Y-192039342D02*
X323935714Y-191229819D01*
X324411905Y-192229819D02*
X324411905Y-191229819D01*
X324411905Y-191229819D02*
X324792857Y-191229819D01*
X324792857Y-191229819D02*
X324888095Y-191277438D01*
X324888095Y-191277438D02*
X324935714Y-191325057D01*
X324935714Y-191325057D02*
X324983333Y-191420295D01*
X324983333Y-191420295D02*
X324983333Y-191563152D01*
X324983333Y-191563152D02*
X324935714Y-191658390D01*
X324935714Y-191658390D02*
X324888095Y-191706009D01*
X324888095Y-191706009D02*
X324792857Y-191753628D01*
X324792857Y-191753628D02*
X324411905Y-191753628D01*
X185704167Y-172179819D02*
X186037500Y-173179819D01*
X186037500Y-173179819D02*
X186370833Y-172179819D01*
X133221429Y-134079819D02*
X133459524Y-135079819D01*
X133459524Y-135079819D02*
X133650000Y-134365533D01*
X133650000Y-134365533D02*
X133840476Y-135079819D01*
X133840476Y-135079819D02*
X134078572Y-134079819D01*
X147604167Y-172179819D02*
X148270833Y-173179819D01*
X148270833Y-172179819D02*
X147604167Y-173179819D01*
X209850000Y-134603628D02*
X209850000Y-135079819D01*
X209516667Y-134079819D02*
X209850000Y-134603628D01*
X209850000Y-134603628D02*
X210183333Y-134079819D01*
X128554167Y-172179819D02*
X129220833Y-172179819D01*
X129220833Y-172179819D02*
X128554167Y-173179819D01*
X128554167Y-173179819D02*
X129220833Y-173179819D01*
X276477381Y-115029819D02*
X276572619Y-115029819D01*
X276572619Y-115029819D02*
X276667857Y-115077438D01*
X276667857Y-115077438D02*
X276715476Y-115125057D01*
X276715476Y-115125057D02*
X276763095Y-115220295D01*
X276763095Y-115220295D02*
X276810714Y-115410771D01*
X276810714Y-115410771D02*
X276810714Y-115648866D01*
X276810714Y-115648866D02*
X276763095Y-115839342D01*
X276763095Y-115839342D02*
X276715476Y-115934580D01*
X276715476Y-115934580D02*
X276667857Y-115982200D01*
X276667857Y-115982200D02*
X276572619Y-116029819D01*
X276572619Y-116029819D02*
X276477381Y-116029819D01*
X276477381Y-116029819D02*
X276382143Y-115982200D01*
X276382143Y-115982200D02*
X276334524Y-115934580D01*
X276334524Y-115934580D02*
X276286905Y-115839342D01*
X276286905Y-115839342D02*
X276239286Y-115648866D01*
X276239286Y-115648866D02*
X276239286Y-115410771D01*
X276239286Y-115410771D02*
X276286905Y-115220295D01*
X276286905Y-115220295D02*
X276334524Y-115125057D01*
X276334524Y-115125057D02*
X276382143Y-115077438D01*
X276382143Y-115077438D02*
X276477381Y-115029819D01*
X272072023Y-154129819D02*
X271595833Y-154129819D01*
X271595833Y-154129819D02*
X271595833Y-153129819D01*
D12*
X81051342Y-191373500D02*
X81096463Y-191373738D01*
X81136397Y-191374192D01*
X81172181Y-191374909D01*
X81204849Y-191375938D01*
X81235436Y-191377325D01*
X81264978Y-191379118D01*
X81294509Y-191381363D01*
X81325064Y-191384110D01*
X81357679Y-191387404D01*
X81393388Y-191391293D01*
X81395514Y-191391531D01*
X81556607Y-191413197D01*
X81715896Y-191441858D01*
X81873205Y-191477434D01*
X82028356Y-191519849D01*
X82181174Y-191569023D01*
X82331483Y-191624880D01*
X82479104Y-191687340D01*
X82623863Y-191756326D01*
X82765582Y-191831760D01*
X82904084Y-191913563D01*
X83039195Y-192001659D01*
X83170736Y-192095967D01*
X83298532Y-192196411D01*
X83389140Y-192273375D01*
X83508475Y-192382818D01*
X83622430Y-192496963D01*
X83730895Y-192615599D01*
X83833757Y-192738515D01*
X83930908Y-192865500D01*
X84022236Y-192996344D01*
X84107630Y-193130835D01*
X84186980Y-193268764D01*
X84260175Y-193409918D01*
X84327104Y-193554088D01*
X84387657Y-193701062D01*
X84441723Y-193850630D01*
X84489191Y-194002580D01*
X84529950Y-194156704D01*
X84563890Y-194312788D01*
X84590901Y-194470623D01*
X84606739Y-194591736D01*
X84610994Y-194629959D01*
X84614605Y-194664315D01*
X84617622Y-194695862D01*
X84620098Y-194725663D01*
X84622084Y-194754777D01*
X84623631Y-194784265D01*
X84624792Y-194815187D01*
X84625617Y-194848604D01*
X84626159Y-194885577D01*
X84626469Y-194927164D01*
X84626599Y-194974428D01*
X84626613Y-195000000D01*
X84626552Y-195050434D01*
X84626337Y-195094673D01*
X84625915Y-195133776D01*
X84625235Y-195168804D01*
X84624245Y-195200817D01*
X84622894Y-195230876D01*
X84621130Y-195260041D01*
X84618901Y-195289372D01*
X84616156Y-195319931D01*
X84612842Y-195352777D01*
X84608910Y-195388970D01*
X84606739Y-195408263D01*
X84585000Y-195567881D01*
X84556198Y-195725981D01*
X84520408Y-195882377D01*
X84477701Y-196036880D01*
X84428149Y-196189304D01*
X84371826Y-196339460D01*
X84308803Y-196487160D01*
X84239154Y-196632217D01*
X84162951Y-196774443D01*
X84080267Y-196913650D01*
X83991173Y-197049651D01*
X83949659Y-197108848D01*
X83855029Y-197234912D01*
X83754339Y-197357315D01*
X83647983Y-197475692D01*
X83536355Y-197589681D01*
X83419849Y-197698919D01*
X83298861Y-197803043D01*
X83173784Y-197901689D01*
X83045012Y-197994495D01*
X82912941Y-198081097D01*
X82856014Y-198115872D01*
X82714073Y-198196540D01*
X82569538Y-198270438D01*
X82422500Y-198337538D01*
X82273052Y-198397812D01*
X82121287Y-198451232D01*
X81967297Y-198497769D01*
X81811175Y-198537395D01*
X81653014Y-198570081D01*
X81492905Y-198595800D01*
X81330942Y-198614522D01*
X81192314Y-198624890D01*
X81170467Y-198625837D01*
X81142575Y-198626604D01*
X81109848Y-198627192D01*
X81073499Y-198627601D01*
X81034736Y-198627833D01*
X80994770Y-198627888D01*
X80954813Y-198627767D01*
X80916073Y-198627471D01*
X80879762Y-198627001D01*
X80847090Y-198626357D01*
X80819267Y-198625541D01*
X80798614Y-198624617D01*
X80637566Y-198611881D01*
X80477728Y-198592032D01*
X80319308Y-198565149D01*
X80162513Y-198531306D01*
X80007551Y-198490579D01*
X79854631Y-198443046D01*
X79703960Y-198388781D01*
X79555746Y-198327861D01*
X79410198Y-198260363D01*
X79267522Y-198186362D01*
X79127927Y-198105934D01*
X78991621Y-198019155D01*
X78858812Y-197926102D01*
X78828300Y-197903458D01*
X78700735Y-197803249D01*
X78577994Y-197697686D01*
X78460230Y-197586969D01*
X78347594Y-197471298D01*
X78240241Y-197350874D01*
X78138321Y-197225897D01*
X78052112Y-197110157D01*
X79076857Y-197110157D01*
X79079609Y-197114218D01*
X79087423Y-197122187D01*
X79099641Y-197133508D01*
X79115600Y-197147629D01*
X79134641Y-197163994D01*
X79156103Y-197182048D01*
X79179326Y-197201239D01*
X79203649Y-197221011D01*
X79228412Y-197240809D01*
X79252954Y-197260080D01*
X79276615Y-197278270D01*
X79282071Y-197282399D01*
X79395712Y-197363638D01*
X79513503Y-197439145D01*
X79635062Y-197508775D01*
X79760006Y-197572387D01*
X79887952Y-197629836D01*
X80018516Y-197680981D01*
X80151316Y-197725678D01*
X80285969Y-197763784D01*
X80422092Y-197795156D01*
X80559301Y-197819650D01*
X80697214Y-197837125D01*
X80787729Y-197844696D01*
X80808937Y-197846123D01*
X80828892Y-197847496D01*
X80845886Y-197848694D01*
X80858209Y-197849599D01*
X80862114Y-197849906D01*
X80874368Y-197850509D01*
X80892874Y-197850878D01*
X80916631Y-197851030D01*
X80944638Y-197850981D01*
X80975896Y-197850751D01*
X81009403Y-197850355D01*
X81044159Y-197849812D01*
X81079162Y-197849139D01*
X81113413Y-197848353D01*
X81145910Y-197847471D01*
X81175653Y-197846512D01*
X81201641Y-197845492D01*
X81222873Y-197844429D01*
X81238087Y-197843364D01*
X81384999Y-197826917D01*
X81529244Y-197803761D01*
X81670758Y-197773922D01*
X81809478Y-197737425D01*
X81945341Y-197694295D01*
X82078283Y-197644557D01*
X82208240Y-197588236D01*
X82335149Y-197525359D01*
X82458947Y-197455949D01*
X82579569Y-197380033D01*
X82696953Y-197297635D01*
X82785257Y-197229654D01*
X82815046Y-197205584D01*
X82842066Y-197183307D01*
X82865872Y-197163217D01*
X82886016Y-197145708D01*
X82902051Y-197131171D01*
X82913531Y-197120002D01*
X82920009Y-197112593D01*
X82921329Y-197109895D01*
X82919818Y-197106154D01*
X82915381Y-197096143D01*
X82908159Y-197080171D01*
X82898295Y-197058543D01*
X82885930Y-197031567D01*
X82871207Y-196999549D01*
X82854267Y-196962798D01*
X82835252Y-196921619D01*
X82814305Y-196876321D01*
X82791567Y-196827209D01*
X82767180Y-196774592D01*
X82741287Y-196718776D01*
X82714029Y-196660068D01*
X82685548Y-196598776D01*
X82655986Y-196535206D01*
X82625485Y-196469665D01*
X82600200Y-196415367D01*
X82279071Y-195725971D01*
X80999950Y-195725843D01*
X79720828Y-195725714D01*
X79398842Y-196416191D01*
X79367637Y-196483127D01*
X79337255Y-196548327D01*
X79307839Y-196611485D01*
X79279531Y-196672297D01*
X79252473Y-196730455D01*
X79226806Y-196785655D01*
X79202673Y-196837591D01*
X79180216Y-196885956D01*
X79159575Y-196930445D01*
X79140894Y-196970752D01*
X79124314Y-197006571D01*
X79109977Y-197037596D01*
X79098025Y-197063523D01*
X79088600Y-197084044D01*
X79081843Y-197098854D01*
X79077896Y-197107647D01*
X79076857Y-197110157D01*
X78052112Y-197110157D01*
X78041988Y-197096566D01*
X77951395Y-196963081D01*
X77866693Y-196825644D01*
X77788036Y-196684453D01*
X77715576Y-196539708D01*
X77649466Y-196391611D01*
X77619873Y-196318986D01*
X77565562Y-196171777D01*
X77517602Y-196021338D01*
X77476115Y-195868163D01*
X77441224Y-195712746D01*
X77413050Y-195555579D01*
X77391716Y-195397156D01*
X77391531Y-195395514D01*
X77387564Y-195359163D01*
X77384206Y-195325965D01*
X77381410Y-195294863D01*
X77379126Y-195264797D01*
X77377304Y-195234709D01*
X77375896Y-195203541D01*
X77374853Y-195170233D01*
X77374125Y-195133728D01*
X77373663Y-195092968D01*
X77373419Y-195046892D01*
X77373346Y-195003629D01*
X77373350Y-194994557D01*
X78149959Y-194994557D01*
X78149978Y-195040629D01*
X78150193Y-195080638D01*
X78150658Y-195115774D01*
X78151426Y-195147232D01*
X78152553Y-195176201D01*
X78154091Y-195203875D01*
X78156094Y-195231446D01*
X78158617Y-195260105D01*
X78161714Y-195291045D01*
X78164558Y-195317500D01*
X78183891Y-195460607D01*
X78210221Y-195601960D01*
X78243488Y-195741373D01*
X78283635Y-195878658D01*
X78330601Y-196013629D01*
X78384328Y-196146099D01*
X78444757Y-196275880D01*
X78500977Y-196383271D01*
X78510756Y-196400794D01*
X78519331Y-196415730D01*
X78526103Y-196427072D01*
X78530476Y-196433813D01*
X78531830Y-196435236D01*
X78533430Y-196431896D01*
X78538017Y-196422153D01*
X78545508Y-196406179D01*
X78555823Y-196384148D01*
X78568881Y-196356234D01*
X78584602Y-196322611D01*
X78602903Y-196283451D01*
X78623705Y-196238928D01*
X78646926Y-196189215D01*
X78672486Y-196134487D01*
X78700302Y-196074916D01*
X78730295Y-196010677D01*
X78762383Y-195941942D01*
X78796486Y-195868885D01*
X78832522Y-195791679D01*
X78870410Y-195710499D01*
X78910070Y-195625517D01*
X78951420Y-195536906D01*
X78994380Y-195444842D01*
X79038868Y-195349496D01*
X79084804Y-195251042D01*
X79132106Y-195149655D01*
X79180694Y-195045507D01*
X79225621Y-194949200D01*
X80082879Y-194949200D01*
X80998639Y-194949200D01*
X81079643Y-194949193D01*
X81158728Y-194949171D01*
X81235588Y-194949135D01*
X81309919Y-194949087D01*
X81381414Y-194949026D01*
X81449767Y-194948953D01*
X81514672Y-194948869D01*
X81575825Y-194948774D01*
X81632918Y-194948669D01*
X81685646Y-194948555D01*
X81733704Y-194948433D01*
X81776785Y-194948302D01*
X81814584Y-194948164D01*
X81846795Y-194948019D01*
X81873112Y-194947868D01*
X81893230Y-194947712D01*
X81906842Y-194947550D01*
X81913643Y-194947384D01*
X81914400Y-194947307D01*
X81912888Y-194943845D01*
X81908449Y-194934119D01*
X81901228Y-194918442D01*
X81891372Y-194897127D01*
X81879025Y-194870484D01*
X81864333Y-194838825D01*
X81847441Y-194802463D01*
X81828495Y-194761708D01*
X81807641Y-194716874D01*
X81785023Y-194668271D01*
X81760788Y-194616212D01*
X81735080Y-194561008D01*
X81708046Y-194502971D01*
X81679830Y-194442414D01*
X81650579Y-194379647D01*
X81620438Y-194314982D01*
X81589551Y-194248732D01*
X81558066Y-194181209D01*
X81526127Y-194112723D01*
X81493879Y-194043588D01*
X81461468Y-193974114D01*
X81429040Y-193904613D01*
X81396740Y-193835398D01*
X81364714Y-193766780D01*
X81333107Y-193699071D01*
X81302064Y-193632583D01*
X81271732Y-193567628D01*
X81242254Y-193504516D01*
X81213778Y-193443562D01*
X81186448Y-193385075D01*
X81160411Y-193329368D01*
X81135810Y-193276753D01*
X81112793Y-193227541D01*
X81091504Y-193182045D01*
X81072089Y-193140575D01*
X81054693Y-193103445D01*
X81039462Y-193070966D01*
X81026541Y-193043449D01*
X81016076Y-193021206D01*
X81008212Y-193004550D01*
X81003095Y-192993792D01*
X81000871Y-192989244D01*
X81000790Y-192989110D01*
X80999063Y-192992142D01*
X80994394Y-193001499D01*
X80986900Y-193016927D01*
X80976703Y-193038173D01*
X80963921Y-193064981D01*
X80948675Y-193097098D01*
X80931082Y-193134270D01*
X80911264Y-193176243D01*
X80889339Y-193222762D01*
X80865427Y-193273574D01*
X80839648Y-193328424D01*
X80812120Y-193387059D01*
X80782964Y-193449224D01*
X80752298Y-193514665D01*
X80720243Y-193583128D01*
X80686918Y-193654359D01*
X80652442Y-193728104D01*
X80616935Y-193804109D01*
X80580516Y-193882119D01*
X80543306Y-193961882D01*
X80540524Y-193967845D01*
X80082879Y-194949200D01*
X79225621Y-194949200D01*
X79230487Y-194938771D01*
X79281404Y-194829622D01*
X79333363Y-194718233D01*
X79386284Y-194604776D01*
X79440085Y-194489427D01*
X79494687Y-194372358D01*
X79522960Y-194311737D01*
X79577933Y-194193861D01*
X79632141Y-194077618D01*
X79685504Y-193963179D01*
X79737941Y-193850719D01*
X79789370Y-193740412D01*
X79839711Y-193632430D01*
X79888884Y-193526947D01*
X79936807Y-193424136D01*
X79983400Y-193324171D01*
X80028582Y-193227225D01*
X80072272Y-193133472D01*
X80114389Y-193043085D01*
X80154853Y-192956237D01*
X80193583Y-192873103D01*
X80230498Y-192793854D01*
X80265518Y-192718665D01*
X80298560Y-192647710D01*
X80329546Y-192581160D01*
X80358393Y-192519191D01*
X80385022Y-192461975D01*
X80409351Y-192409686D01*
X80431300Y-192362497D01*
X80450788Y-192320581D01*
X80467733Y-192284113D01*
X80482057Y-192253265D01*
X80493676Y-192228210D01*
X80502512Y-192209123D01*
X80508482Y-192196177D01*
X80511507Y-192189545D01*
X80511877Y-192188677D01*
X81487828Y-192188677D01*
X81489289Y-192191995D01*
X81493737Y-192201716D01*
X81501092Y-192217666D01*
X81511270Y-192239670D01*
X81524193Y-192267554D01*
X81539778Y-192301144D01*
X81557944Y-192340266D01*
X81578611Y-192384745D01*
X81601697Y-192434409D01*
X81627121Y-192489082D01*
X81654803Y-192548590D01*
X81684660Y-192612759D01*
X81716613Y-192681416D01*
X81750579Y-192754386D01*
X81786478Y-192831494D01*
X81824229Y-192912567D01*
X81863751Y-192997430D01*
X81904962Y-193085910D01*
X81947782Y-193177832D01*
X81992130Y-193273022D01*
X82037923Y-193371306D01*
X82085082Y-193472510D01*
X82133525Y-193576459D01*
X82183172Y-193682980D01*
X82233940Y-193791899D01*
X82285749Y-193903040D01*
X82338518Y-194016231D01*
X82392167Y-194131297D01*
X82446612Y-194248063D01*
X82468159Y-194294271D01*
X82522966Y-194411803D01*
X82577036Y-194527756D01*
X82630287Y-194641953D01*
X82682637Y-194754218D01*
X82734003Y-194864375D01*
X82784303Y-194972248D01*
X82833456Y-195077661D01*
X82881379Y-195180437D01*
X82927990Y-195280400D01*
X82973206Y-195377373D01*
X83016947Y-195471182D01*
X83059128Y-195561649D01*
X83099669Y-195648598D01*
X83138488Y-195731853D01*
X83175501Y-195811238D01*
X83210627Y-195886577D01*
X83243784Y-195957693D01*
X83274889Y-196024411D01*
X83303861Y-196086553D01*
X83330616Y-196143944D01*
X83355074Y-196196408D01*
X83377152Y-196243768D01*
X83396768Y-196285849D01*
X83413839Y-196322473D01*
X83428284Y-196353465D01*
X83440019Y-196378649D01*
X83448964Y-196397848D01*
X83455036Y-196410886D01*
X83458153Y-196417587D01*
X83458537Y-196418417D01*
X83463487Y-196428542D01*
X83467271Y-196435070D01*
X83468862Y-196436560D01*
X83471014Y-196433035D01*
X83476028Y-196424334D01*
X83483241Y-196411622D01*
X83491989Y-196396066D01*
X83495739Y-196389362D01*
X83560200Y-196266586D01*
X83618602Y-196140028D01*
X83670817Y-196010084D01*
X83716718Y-195877151D01*
X83756179Y-195741627D01*
X83789073Y-195603909D01*
X83815272Y-195464393D01*
X83833677Y-195332014D01*
X83837811Y-195294994D01*
X83841221Y-195261239D01*
X83843972Y-195229459D01*
X83846129Y-195198364D01*
X83847755Y-195166667D01*
X83848914Y-195133077D01*
X83849672Y-195096304D01*
X83850093Y-195055060D01*
X83850240Y-195008055D01*
X83850243Y-195000000D01*
X83850133Y-194951965D01*
X83849760Y-194909895D01*
X83849060Y-194872500D01*
X83847968Y-194838492D01*
X83846420Y-194806581D01*
X83844352Y-194775477D01*
X83841699Y-194743891D01*
X83838397Y-194710534D01*
X83834382Y-194674117D01*
X83833677Y-194667986D01*
X83813547Y-194524868D01*
X83786502Y-194383698D01*
X83752619Y-194244671D01*
X83711976Y-194107983D01*
X83664650Y-193973828D01*
X83610720Y-193842404D01*
X83550264Y-193713904D01*
X83483359Y-193588525D01*
X83410083Y-193466461D01*
X83330513Y-193347909D01*
X83281239Y-193280475D01*
X83198159Y-193175679D01*
X83108992Y-193073550D01*
X83014722Y-192975107D01*
X82916329Y-192881367D01*
X82814796Y-192793351D01*
X82800637Y-192781747D01*
X82692001Y-192697878D01*
X82578569Y-192619075D01*
X82460881Y-192545604D01*
X82339476Y-192477730D01*
X82214895Y-192415719D01*
X82087679Y-192359835D01*
X81958367Y-192310344D01*
X81827499Y-192267512D01*
X81695616Y-192231602D01*
X81665712Y-192224470D01*
X81643662Y-192219455D01*
X81619799Y-192214211D01*
X81595161Y-192208945D01*
X81570787Y-192203867D01*
X81547717Y-192199187D01*
X81526988Y-192195113D01*
X81509640Y-192191854D01*
X81496713Y-192189619D01*
X81489243Y-192188617D01*
X81487828Y-192188677D01*
X80511877Y-192188677D01*
X80511889Y-192188649D01*
X80508116Y-192188856D01*
X80498299Y-192190410D01*
X80483480Y-192193101D01*
X80464704Y-192196719D01*
X80443013Y-192201052D01*
X80419450Y-192205891D01*
X80395061Y-192211025D01*
X80370886Y-192216244D01*
X80347971Y-192221337D01*
X80334288Y-192224470D01*
X80202208Y-192258774D01*
X80070843Y-192300104D01*
X79940750Y-192348230D01*
X79812485Y-192402921D01*
X79686606Y-192463948D01*
X79563670Y-192531081D01*
X79501400Y-192568139D01*
X79384833Y-192643713D01*
X79271544Y-192725563D01*
X79161974Y-192813286D01*
X79056565Y-192906477D01*
X78955761Y-193004731D01*
X78860004Y-193107645D01*
X78769737Y-193214813D01*
X78712300Y-193289129D01*
X78629244Y-193406509D01*
X78552484Y-193527434D01*
X78482103Y-193651696D01*
X78418184Y-193779088D01*
X78360812Y-193909402D01*
X78310069Y-194042431D01*
X78266040Y-194177968D01*
X78228807Y-194315804D01*
X78198455Y-194455734D01*
X78175067Y-194597548D01*
X78170058Y-194635329D01*
X78165303Y-194674221D01*
X78161345Y-194709465D01*
X78158113Y-194742312D01*
X78155537Y-194774014D01*
X78153548Y-194805825D01*
X78152076Y-194838997D01*
X78151050Y-194874782D01*
X78150400Y-194914433D01*
X78150056Y-194959202D01*
X78149959Y-194994557D01*
X77373350Y-194994557D01*
X77373368Y-194955416D01*
X77373518Y-194913427D01*
X77373836Y-194876627D01*
X77374365Y-194843983D01*
X77375147Y-194814461D01*
X77376223Y-194787028D01*
X77377635Y-194760649D01*
X77379426Y-194734292D01*
X77381635Y-194706922D01*
X77384307Y-194677507D01*
X77387482Y-194645012D01*
X77388090Y-194638957D01*
X77407834Y-194478872D01*
X77434624Y-194320314D01*
X77468371Y-194163486D01*
X77508985Y-194008594D01*
X77556376Y-193855844D01*
X77610454Y-193705440D01*
X77671130Y-193557588D01*
X77738313Y-193412493D01*
X77811914Y-193270360D01*
X77891844Y-193131394D01*
X77978012Y-192995801D01*
X78070329Y-192863785D01*
X78168706Y-192735552D01*
X78273051Y-192611307D01*
X78276877Y-192606957D01*
X78386909Y-192487458D01*
X78501684Y-192373301D01*
X78620996Y-192264611D01*
X78744639Y-192161516D01*
X78872408Y-192064140D01*
X79004097Y-191972610D01*
X79139500Y-191887052D01*
X79278413Y-191807592D01*
X79420629Y-191734355D01*
X79565944Y-191667469D01*
X79714151Y-191607058D01*
X79865045Y-191553248D01*
X80018421Y-191506167D01*
X80114629Y-191480420D01*
X80216365Y-191456147D01*
X80316808Y-191435177D01*
X80417649Y-191417231D01*
X80520579Y-191402032D01*
X80627290Y-191389303D01*
X80727857Y-191379737D01*
X80747306Y-191378222D01*
X80767377Y-191376955D01*
X80788887Y-191375916D01*
X80812653Y-191375088D01*
X80839492Y-191374451D01*
X80870222Y-191373985D01*
X80905660Y-191373673D01*
X80946623Y-191373495D01*
X80993928Y-191373432D01*
X81000000Y-191373432D01*
X81051342Y-191373500D01*
G36*
X81051342Y-191373500D02*
G01*
X81096463Y-191373738D01*
X81136397Y-191374192D01*
X81172181Y-191374909D01*
X81204849Y-191375938D01*
X81235436Y-191377325D01*
X81264978Y-191379118D01*
X81294509Y-191381363D01*
X81325064Y-191384110D01*
X81357679Y-191387404D01*
X81393388Y-191391293D01*
X81395514Y-191391531D01*
X81556607Y-191413197D01*
X81715896Y-191441858D01*
X81873205Y-191477434D01*
X82028356Y-191519849D01*
X82181174Y-191569023D01*
X82331483Y-191624880D01*
X82479104Y-191687340D01*
X82623863Y-191756326D01*
X82765582Y-191831760D01*
X82904084Y-191913563D01*
X83039195Y-192001659D01*
X83170736Y-192095967D01*
X83298532Y-192196411D01*
X83389140Y-192273375D01*
X83508475Y-192382818D01*
X83622430Y-192496963D01*
X83730895Y-192615599D01*
X83833757Y-192738515D01*
X83930908Y-192865500D01*
X84022236Y-192996344D01*
X84107630Y-193130835D01*
X84186980Y-193268764D01*
X84260175Y-193409918D01*
X84327104Y-193554088D01*
X84387657Y-193701062D01*
X84441723Y-193850630D01*
X84489191Y-194002580D01*
X84529950Y-194156704D01*
X84563890Y-194312788D01*
X84590901Y-194470623D01*
X84606739Y-194591736D01*
X84610994Y-194629959D01*
X84614605Y-194664315D01*
X84617622Y-194695862D01*
X84620098Y-194725663D01*
X84622084Y-194754777D01*
X84623631Y-194784265D01*
X84624792Y-194815187D01*
X84625617Y-194848604D01*
X84626159Y-194885577D01*
X84626469Y-194927164D01*
X84626599Y-194974428D01*
X84626613Y-195000000D01*
X84626552Y-195050434D01*
X84626337Y-195094673D01*
X84625915Y-195133776D01*
X84625235Y-195168804D01*
X84624245Y-195200817D01*
X84622894Y-195230876D01*
X84621130Y-195260041D01*
X84618901Y-195289372D01*
X84616156Y-195319931D01*
X84612842Y-195352777D01*
X84608910Y-195388970D01*
X84606739Y-195408263D01*
X84585000Y-195567881D01*
X84556198Y-195725981D01*
X84520408Y-195882377D01*
X84477701Y-196036880D01*
X84428149Y-196189304D01*
X84371826Y-196339460D01*
X84308803Y-196487160D01*
X84239154Y-196632217D01*
X84162951Y-196774443D01*
X84080267Y-196913650D01*
X83991173Y-197049651D01*
X83949659Y-197108848D01*
X83855029Y-197234912D01*
X83754339Y-197357315D01*
X83647983Y-197475692D01*
X83536355Y-197589681D01*
X83419849Y-197698919D01*
X83298861Y-197803043D01*
X83173784Y-197901689D01*
X83045012Y-197994495D01*
X82912941Y-198081097D01*
X82856014Y-198115872D01*
X82714073Y-198196540D01*
X82569538Y-198270438D01*
X82422500Y-198337538D01*
X82273052Y-198397812D01*
X82121287Y-198451232D01*
X81967297Y-198497769D01*
X81811175Y-198537395D01*
X81653014Y-198570081D01*
X81492905Y-198595800D01*
X81330942Y-198614522D01*
X81192314Y-198624890D01*
X81170467Y-198625837D01*
X81142575Y-198626604D01*
X81109848Y-198627192D01*
X81073499Y-198627601D01*
X81034736Y-198627833D01*
X80994770Y-198627888D01*
X80954813Y-198627767D01*
X80916073Y-198627471D01*
X80879762Y-198627001D01*
X80847090Y-198626357D01*
X80819267Y-198625541D01*
X80798614Y-198624617D01*
X80637566Y-198611881D01*
X80477728Y-198592032D01*
X80319308Y-198565149D01*
X80162513Y-198531306D01*
X80007551Y-198490579D01*
X79854631Y-198443046D01*
X79703960Y-198388781D01*
X79555746Y-198327861D01*
X79410198Y-198260363D01*
X79267522Y-198186362D01*
X79127927Y-198105934D01*
X78991621Y-198019155D01*
X78858812Y-197926102D01*
X78828300Y-197903458D01*
X78700735Y-197803249D01*
X78577994Y-197697686D01*
X78460230Y-197586969D01*
X78347594Y-197471298D01*
X78240241Y-197350874D01*
X78138321Y-197225897D01*
X78052112Y-197110157D01*
X79076857Y-197110157D01*
X79079609Y-197114218D01*
X79087423Y-197122187D01*
X79099641Y-197133508D01*
X79115600Y-197147629D01*
X79134641Y-197163994D01*
X79156103Y-197182048D01*
X79179326Y-197201239D01*
X79203649Y-197221011D01*
X79228412Y-197240809D01*
X79252954Y-197260080D01*
X79276615Y-197278270D01*
X79282071Y-197282399D01*
X79395712Y-197363638D01*
X79513503Y-197439145D01*
X79635062Y-197508775D01*
X79760006Y-197572387D01*
X79887952Y-197629836D01*
X80018516Y-197680981D01*
X80151316Y-197725678D01*
X80285969Y-197763784D01*
X80422092Y-197795156D01*
X80559301Y-197819650D01*
X80697214Y-197837125D01*
X80787729Y-197844696D01*
X80808937Y-197846123D01*
X80828892Y-197847496D01*
X80845886Y-197848694D01*
X80858209Y-197849599D01*
X80862114Y-197849906D01*
X80874368Y-197850509D01*
X80892874Y-197850878D01*
X80916631Y-197851030D01*
X80944638Y-197850981D01*
X80975896Y-197850751D01*
X81009403Y-197850355D01*
X81044159Y-197849812D01*
X81079162Y-197849139D01*
X81113413Y-197848353D01*
X81145910Y-197847471D01*
X81175653Y-197846512D01*
X81201641Y-197845492D01*
X81222873Y-197844429D01*
X81238087Y-197843364D01*
X81384999Y-197826917D01*
X81529244Y-197803761D01*
X81670758Y-197773922D01*
X81809478Y-197737425D01*
X81945341Y-197694295D01*
X82078283Y-197644557D01*
X82208240Y-197588236D01*
X82335149Y-197525359D01*
X82458947Y-197455949D01*
X82579569Y-197380033D01*
X82696953Y-197297635D01*
X82785257Y-197229654D01*
X82815046Y-197205584D01*
X82842066Y-197183307D01*
X82865872Y-197163217D01*
X82886016Y-197145708D01*
X82902051Y-197131171D01*
X82913531Y-197120002D01*
X82920009Y-197112593D01*
X82921329Y-197109895D01*
X82919818Y-197106154D01*
X82915381Y-197096143D01*
X82908159Y-197080171D01*
X82898295Y-197058543D01*
X82885930Y-197031567D01*
X82871207Y-196999549D01*
X82854267Y-196962798D01*
X82835252Y-196921619D01*
X82814305Y-196876321D01*
X82791567Y-196827209D01*
X82767180Y-196774592D01*
X82741287Y-196718776D01*
X82714029Y-196660068D01*
X82685548Y-196598776D01*
X82655986Y-196535206D01*
X82625485Y-196469665D01*
X82600200Y-196415367D01*
X82279071Y-195725971D01*
X80999950Y-195725843D01*
X79720828Y-195725714D01*
X79398842Y-196416191D01*
X79367637Y-196483127D01*
X79337255Y-196548327D01*
X79307839Y-196611485D01*
X79279531Y-196672297D01*
X79252473Y-196730455D01*
X79226806Y-196785655D01*
X79202673Y-196837591D01*
X79180216Y-196885956D01*
X79159575Y-196930445D01*
X79140894Y-196970752D01*
X79124314Y-197006571D01*
X79109977Y-197037596D01*
X79098025Y-197063523D01*
X79088600Y-197084044D01*
X79081843Y-197098854D01*
X79077896Y-197107647D01*
X79076857Y-197110157D01*
X78052112Y-197110157D01*
X78041988Y-197096566D01*
X77951395Y-196963081D01*
X77866693Y-196825644D01*
X77788036Y-196684453D01*
X77715576Y-196539708D01*
X77649466Y-196391611D01*
X77619873Y-196318986D01*
X77565562Y-196171777D01*
X77517602Y-196021338D01*
X77476115Y-195868163D01*
X77441224Y-195712746D01*
X77413050Y-195555579D01*
X77391716Y-195397156D01*
X77391531Y-195395514D01*
X77387564Y-195359163D01*
X77384206Y-195325965D01*
X77381410Y-195294863D01*
X77379126Y-195264797D01*
X77377304Y-195234709D01*
X77375896Y-195203541D01*
X77374853Y-195170233D01*
X77374125Y-195133728D01*
X77373663Y-195092968D01*
X77373419Y-195046892D01*
X77373346Y-195003629D01*
X77373350Y-194994557D01*
X78149959Y-194994557D01*
X78149978Y-195040629D01*
X78150193Y-195080638D01*
X78150658Y-195115774D01*
X78151426Y-195147232D01*
X78152553Y-195176201D01*
X78154091Y-195203875D01*
X78156094Y-195231446D01*
X78158617Y-195260105D01*
X78161714Y-195291045D01*
X78164558Y-195317500D01*
X78183891Y-195460607D01*
X78210221Y-195601960D01*
X78243488Y-195741373D01*
X78283635Y-195878658D01*
X78330601Y-196013629D01*
X78384328Y-196146099D01*
X78444757Y-196275880D01*
X78500977Y-196383271D01*
X78510756Y-196400794D01*
X78519331Y-196415730D01*
X78526103Y-196427072D01*
X78530476Y-196433813D01*
X78531830Y-196435236D01*
X78533430Y-196431896D01*
X78538017Y-196422153D01*
X78545508Y-196406179D01*
X78555823Y-196384148D01*
X78568881Y-196356234D01*
X78584602Y-196322611D01*
X78602903Y-196283451D01*
X78623705Y-196238928D01*
X78646926Y-196189215D01*
X78672486Y-196134487D01*
X78700302Y-196074916D01*
X78730295Y-196010677D01*
X78762383Y-195941942D01*
X78796486Y-195868885D01*
X78832522Y-195791679D01*
X78870410Y-195710499D01*
X78910070Y-195625517D01*
X78951420Y-195536906D01*
X78994380Y-195444842D01*
X79038868Y-195349496D01*
X79084804Y-195251042D01*
X79132106Y-195149655D01*
X79180694Y-195045507D01*
X79225621Y-194949200D01*
X80082879Y-194949200D01*
X80998639Y-194949200D01*
X81079643Y-194949193D01*
X81158728Y-194949171D01*
X81235588Y-194949135D01*
X81309919Y-194949087D01*
X81381414Y-194949026D01*
X81449767Y-194948953D01*
X81514672Y-194948869D01*
X81575825Y-194948774D01*
X81632918Y-194948669D01*
X81685646Y-194948555D01*
X81733704Y-194948433D01*
X81776785Y-194948302D01*
X81814584Y-194948164D01*
X81846795Y-194948019D01*
X81873112Y-194947868D01*
X81893230Y-194947712D01*
X81906842Y-194947550D01*
X81913643Y-194947384D01*
X81914400Y-194947307D01*
X81912888Y-194943845D01*
X81908449Y-194934119D01*
X81901228Y-194918442D01*
X81891372Y-194897127D01*
X81879025Y-194870484D01*
X81864333Y-194838825D01*
X81847441Y-194802463D01*
X81828495Y-194761708D01*
X81807641Y-194716874D01*
X81785023Y-194668271D01*
X81760788Y-194616212D01*
X81735080Y-194561008D01*
X81708046Y-194502971D01*
X81679830Y-194442414D01*
X81650579Y-194379647D01*
X81620438Y-194314982D01*
X81589551Y-194248732D01*
X81558066Y-194181209D01*
X81526127Y-194112723D01*
X81493879Y-194043588D01*
X81461468Y-193974114D01*
X81429040Y-193904613D01*
X81396740Y-193835398D01*
X81364714Y-193766780D01*
X81333107Y-193699071D01*
X81302064Y-193632583D01*
X81271732Y-193567628D01*
X81242254Y-193504516D01*
X81213778Y-193443562D01*
X81186448Y-193385075D01*
X81160411Y-193329368D01*
X81135810Y-193276753D01*
X81112793Y-193227541D01*
X81091504Y-193182045D01*
X81072089Y-193140575D01*
X81054693Y-193103445D01*
X81039462Y-193070966D01*
X81026541Y-193043449D01*
X81016076Y-193021206D01*
X81008212Y-193004550D01*
X81003095Y-192993792D01*
X81000871Y-192989244D01*
X81000790Y-192989110D01*
X80999063Y-192992142D01*
X80994394Y-193001499D01*
X80986900Y-193016927D01*
X80976703Y-193038173D01*
X80963921Y-193064981D01*
X80948675Y-193097098D01*
X80931082Y-193134270D01*
X80911264Y-193176243D01*
X80889339Y-193222762D01*
X80865427Y-193273574D01*
X80839648Y-193328424D01*
X80812120Y-193387059D01*
X80782964Y-193449224D01*
X80752298Y-193514665D01*
X80720243Y-193583128D01*
X80686918Y-193654359D01*
X80652442Y-193728104D01*
X80616935Y-193804109D01*
X80580516Y-193882119D01*
X80543306Y-193961882D01*
X80540524Y-193967845D01*
X80082879Y-194949200D01*
X79225621Y-194949200D01*
X79230487Y-194938771D01*
X79281404Y-194829622D01*
X79333363Y-194718233D01*
X79386284Y-194604776D01*
X79440085Y-194489427D01*
X79494687Y-194372358D01*
X79522960Y-194311737D01*
X79577933Y-194193861D01*
X79632141Y-194077618D01*
X79685504Y-193963179D01*
X79737941Y-193850719D01*
X79789370Y-193740412D01*
X79839711Y-193632430D01*
X79888884Y-193526947D01*
X79936807Y-193424136D01*
X79983400Y-193324171D01*
X80028582Y-193227225D01*
X80072272Y-193133472D01*
X80114389Y-193043085D01*
X80154853Y-192956237D01*
X80193583Y-192873103D01*
X80230498Y-192793854D01*
X80265518Y-192718665D01*
X80298560Y-192647710D01*
X80329546Y-192581160D01*
X80358393Y-192519191D01*
X80385022Y-192461975D01*
X80409351Y-192409686D01*
X80431300Y-192362497D01*
X80450788Y-192320581D01*
X80467733Y-192284113D01*
X80482057Y-192253265D01*
X80493676Y-192228210D01*
X80502512Y-192209123D01*
X80508482Y-192196177D01*
X80511507Y-192189545D01*
X80511877Y-192188677D01*
X81487828Y-192188677D01*
X81489289Y-192191995D01*
X81493737Y-192201716D01*
X81501092Y-192217666D01*
X81511270Y-192239670D01*
X81524193Y-192267554D01*
X81539778Y-192301144D01*
X81557944Y-192340266D01*
X81578611Y-192384745D01*
X81601697Y-192434409D01*
X81627121Y-192489082D01*
X81654803Y-192548590D01*
X81684660Y-192612759D01*
X81716613Y-192681416D01*
X81750579Y-192754386D01*
X81786478Y-192831494D01*
X81824229Y-192912567D01*
X81863751Y-192997430D01*
X81904962Y-193085910D01*
X81947782Y-193177832D01*
X81992130Y-193273022D01*
X82037923Y-193371306D01*
X82085082Y-193472510D01*
X82133525Y-193576459D01*
X82183172Y-193682980D01*
X82233940Y-193791899D01*
X82285749Y-193903040D01*
X82338518Y-194016231D01*
X82392167Y-194131297D01*
X82446612Y-194248063D01*
X82468159Y-194294271D01*
X82522966Y-194411803D01*
X82577036Y-194527756D01*
X82630287Y-194641953D01*
X82682637Y-194754218D01*
X82734003Y-194864375D01*
X82784303Y-194972248D01*
X82833456Y-195077661D01*
X82881379Y-195180437D01*
X82927990Y-195280400D01*
X82973206Y-195377373D01*
X83016947Y-195471182D01*
X83059128Y-195561649D01*
X83099669Y-195648598D01*
X83138488Y-195731853D01*
X83175501Y-195811238D01*
X83210627Y-195886577D01*
X83243784Y-195957693D01*
X83274889Y-196024411D01*
X83303861Y-196086553D01*
X83330616Y-196143944D01*
X83355074Y-196196408D01*
X83377152Y-196243768D01*
X83396768Y-196285849D01*
X83413839Y-196322473D01*
X83428284Y-196353465D01*
X83440019Y-196378649D01*
X83448964Y-196397848D01*
X83455036Y-196410886D01*
X83458153Y-196417587D01*
X83458537Y-196418417D01*
X83463487Y-196428542D01*
X83467271Y-196435070D01*
X83468862Y-196436560D01*
X83471014Y-196433035D01*
X83476028Y-196424334D01*
X83483241Y-196411622D01*
X83491989Y-196396066D01*
X83495739Y-196389362D01*
X83560200Y-196266586D01*
X83618602Y-196140028D01*
X83670817Y-196010084D01*
X83716718Y-195877151D01*
X83756179Y-195741627D01*
X83789073Y-195603909D01*
X83815272Y-195464393D01*
X83833677Y-195332014D01*
X83837811Y-195294994D01*
X83841221Y-195261239D01*
X83843972Y-195229459D01*
X83846129Y-195198364D01*
X83847755Y-195166667D01*
X83848914Y-195133077D01*
X83849672Y-195096304D01*
X83850093Y-195055060D01*
X83850240Y-195008055D01*
X83850243Y-195000000D01*
X83850133Y-194951965D01*
X83849760Y-194909895D01*
X83849060Y-194872500D01*
X83847968Y-194838492D01*
X83846420Y-194806581D01*
X83844352Y-194775477D01*
X83841699Y-194743891D01*
X83838397Y-194710534D01*
X83834382Y-194674117D01*
X83833677Y-194667986D01*
X83813547Y-194524868D01*
X83786502Y-194383698D01*
X83752619Y-194244671D01*
X83711976Y-194107983D01*
X83664650Y-193973828D01*
X83610720Y-193842404D01*
X83550264Y-193713904D01*
X83483359Y-193588525D01*
X83410083Y-193466461D01*
X83330513Y-193347909D01*
X83281239Y-193280475D01*
X83198159Y-193175679D01*
X83108992Y-193073550D01*
X83014722Y-192975107D01*
X82916329Y-192881367D01*
X82814796Y-192793351D01*
X82800637Y-192781747D01*
X82692001Y-192697878D01*
X82578569Y-192619075D01*
X82460881Y-192545604D01*
X82339476Y-192477730D01*
X82214895Y-192415719D01*
X82087679Y-192359835D01*
X81958367Y-192310344D01*
X81827499Y-192267512D01*
X81695616Y-192231602D01*
X81665712Y-192224470D01*
X81643662Y-192219455D01*
X81619799Y-192214211D01*
X81595161Y-192208945D01*
X81570787Y-192203867D01*
X81547717Y-192199187D01*
X81526988Y-192195113D01*
X81509640Y-192191854D01*
X81496713Y-192189619D01*
X81489243Y-192188617D01*
X81487828Y-192188677D01*
X80511877Y-192188677D01*
X80511889Y-192188649D01*
X80508116Y-192188856D01*
X80498299Y-192190410D01*
X80483480Y-192193101D01*
X80464704Y-192196719D01*
X80443013Y-192201052D01*
X80419450Y-192205891D01*
X80395061Y-192211025D01*
X80370886Y-192216244D01*
X80347971Y-192221337D01*
X80334288Y-192224470D01*
X80202208Y-192258774D01*
X80070843Y-192300104D01*
X79940750Y-192348230D01*
X79812485Y-192402921D01*
X79686606Y-192463948D01*
X79563670Y-192531081D01*
X79501400Y-192568139D01*
X79384833Y-192643713D01*
X79271544Y-192725563D01*
X79161974Y-192813286D01*
X79056565Y-192906477D01*
X78955761Y-193004731D01*
X78860004Y-193107645D01*
X78769737Y-193214813D01*
X78712300Y-193289129D01*
X78629244Y-193406509D01*
X78552484Y-193527434D01*
X78482103Y-193651696D01*
X78418184Y-193779088D01*
X78360812Y-193909402D01*
X78310069Y-194042431D01*
X78266040Y-194177968D01*
X78228807Y-194315804D01*
X78198455Y-194455734D01*
X78175067Y-194597548D01*
X78170058Y-194635329D01*
X78165303Y-194674221D01*
X78161345Y-194709465D01*
X78158113Y-194742312D01*
X78155537Y-194774014D01*
X78153548Y-194805825D01*
X78152076Y-194838997D01*
X78151050Y-194874782D01*
X78150400Y-194914433D01*
X78150056Y-194959202D01*
X78149959Y-194994557D01*
X77373350Y-194994557D01*
X77373368Y-194955416D01*
X77373518Y-194913427D01*
X77373836Y-194876627D01*
X77374365Y-194843983D01*
X77375147Y-194814461D01*
X77376223Y-194787028D01*
X77377635Y-194760649D01*
X77379426Y-194734292D01*
X77381635Y-194706922D01*
X77384307Y-194677507D01*
X77387482Y-194645012D01*
X77388090Y-194638957D01*
X77407834Y-194478872D01*
X77434624Y-194320314D01*
X77468371Y-194163486D01*
X77508985Y-194008594D01*
X77556376Y-193855844D01*
X77610454Y-193705440D01*
X77671130Y-193557588D01*
X77738313Y-193412493D01*
X77811914Y-193270360D01*
X77891844Y-193131394D01*
X77978012Y-192995801D01*
X78070329Y-192863785D01*
X78168706Y-192735552D01*
X78273051Y-192611307D01*
X78276877Y-192606957D01*
X78386909Y-192487458D01*
X78501684Y-192373301D01*
X78620996Y-192264611D01*
X78744639Y-192161516D01*
X78872408Y-192064140D01*
X79004097Y-191972610D01*
X79139500Y-191887052D01*
X79278413Y-191807592D01*
X79420629Y-191734355D01*
X79565944Y-191667469D01*
X79714151Y-191607058D01*
X79865045Y-191553248D01*
X80018421Y-191506167D01*
X80114629Y-191480420D01*
X80216365Y-191456147D01*
X80316808Y-191435177D01*
X80417649Y-191417231D01*
X80520579Y-191402032D01*
X80627290Y-191389303D01*
X80727857Y-191379737D01*
X80747306Y-191378222D01*
X80767377Y-191376955D01*
X80788887Y-191375916D01*
X80812653Y-191375088D01*
X80839492Y-191374451D01*
X80870222Y-191373985D01*
X80905660Y-191373673D01*
X80946623Y-191373495D01*
X80993928Y-191373432D01*
X81000000Y-191373432D01*
X81051342Y-191373500D01*
G37*
D13*
X95580000Y-84360000D02*
X95580000Y-94260000D01*
X97365000Y-87280000D02*
X97365000Y-91340000D01*
X97365000Y-91340000D02*
X98635000Y-91340000D01*
X97435000Y-87280000D02*
X97435000Y-88633333D01*
X97555000Y-87280000D02*
X97555000Y-88633333D01*
X97675000Y-87280000D02*
X97675000Y-88633333D01*
X97795000Y-87280000D02*
X97795000Y-88633333D01*
X97915000Y-87280000D02*
X97915000Y-88633333D01*
X98035000Y-87280000D02*
X98035000Y-88633333D01*
X98155000Y-87280000D02*
X98155000Y-88633333D01*
X98275000Y-87280000D02*
X98275000Y-88633333D01*
X98395000Y-87280000D02*
X98395000Y-88633333D01*
X98515000Y-87280000D02*
X98515000Y-88633333D01*
X98635000Y-87280000D02*
X97365000Y-87280000D01*
X98635000Y-88633333D02*
X97365000Y-88633333D01*
X98635000Y-91340000D02*
X98635000Y-87280000D01*
X100420000Y-84360000D02*
X95580000Y-84360000D01*
X100420000Y-84360000D02*
X100420000Y-94260000D01*
X100420000Y-94260000D02*
X95580000Y-94260000D01*
X100660000Y-84120000D02*
X99277000Y-84120000D01*
X100660000Y-84120000D02*
X100660000Y-85504000D01*
D11*
X149842500Y-137555000D02*
X165082500Y-137555000D01*
X149842500Y-152795000D02*
X149842500Y-137555000D01*
X165082500Y-137555000D02*
X165082500Y-152795000D01*
X165082500Y-152795000D02*
X149842500Y-152795000D01*
X197467500Y-156605000D02*
X212707500Y-156605000D01*
X197467500Y-171845000D02*
X197467500Y-156605000D01*
X212707500Y-156605000D02*
X212707500Y-171845000D01*
X212707500Y-171845000D02*
X197467500Y-171845000D01*
X330817500Y-99455000D02*
X346057500Y-99455000D01*
X330817500Y-114695000D02*
X330817500Y-99455000D01*
X346057500Y-99455000D02*
X346057500Y-114695000D01*
X346057500Y-114695000D02*
X330817500Y-114695000D01*
X335580000Y-118505000D02*
X350820000Y-118505000D01*
X335580000Y-133745000D02*
X335580000Y-118505000D01*
X350820000Y-118505000D02*
X350820000Y-133745000D01*
X350820000Y-133745000D02*
X335580000Y-133745000D01*
X159367500Y-156605000D02*
X174607500Y-156605000D01*
X159367500Y-171845000D02*
X159367500Y-156605000D01*
X174607500Y-156605000D02*
X174607500Y-171845000D01*
X174607500Y-171845000D02*
X159367500Y-171845000D01*
X80786250Y-137555000D02*
X96026250Y-137555000D01*
X80786250Y-152795000D02*
X80786250Y-137555000D01*
X96026250Y-137555000D02*
X96026250Y-152795000D01*
X96026250Y-152795000D02*
X80786250Y-152795000D01*
X316530000Y-118505000D02*
X331770000Y-118505000D01*
X316530000Y-133745000D02*
X316530000Y-118505000D01*
X331770000Y-118505000D02*
X331770000Y-133745000D01*
X331770000Y-133745000D02*
X316530000Y-133745000D01*
X292717500Y-80405000D02*
X307957500Y-80405000D01*
X292717500Y-95645000D02*
X292717500Y-80405000D01*
X307957500Y-80405000D02*
X307957500Y-95645000D01*
X307957500Y-95645000D02*
X292717500Y-95645000D01*
X168892500Y-137555000D02*
X184132500Y-137555000D01*
X168892500Y-152795000D02*
X168892500Y-137555000D01*
X184132500Y-137555000D02*
X184132500Y-152795000D01*
X184132500Y-152795000D02*
X168892500Y-152795000D01*
X254617500Y-156605000D02*
X269857500Y-156605000D01*
X254617500Y-171845000D02*
X254617500Y-156605000D01*
X269857500Y-156605000D02*
X269857500Y-171845000D01*
X269857500Y-171845000D02*
X254617500Y-171845000D01*
X78405000Y-175655000D02*
X93645000Y-175655000D01*
X78405000Y-190895000D02*
X78405000Y-175655000D01*
X93645000Y-175655000D02*
X93645000Y-190895000D01*
X93645000Y-190895000D02*
X78405000Y-190895000D01*
X311767500Y-80405000D02*
X327007500Y-80405000D01*
X311767500Y-95645000D02*
X311767500Y-80405000D01*
X327007500Y-80405000D02*
X327007500Y-95645000D01*
X327007500Y-95645000D02*
X311767500Y-95645000D01*
X297480000Y-175655000D02*
X312720000Y-175655000D01*
X297480000Y-190895000D02*
X297480000Y-175655000D01*
X312720000Y-175655000D02*
X312720000Y-190895000D01*
X312720000Y-190895000D02*
X297480000Y-190895000D01*
X145080000Y-118505000D02*
X160320000Y-118505000D01*
X145080000Y-133745000D02*
X145080000Y-118505000D01*
X160320000Y-118505000D02*
X160320000Y-133745000D01*
X160320000Y-133745000D02*
X145080000Y-133745000D01*
X230805000Y-99455000D02*
X246045000Y-99455000D01*
X230805000Y-114695000D02*
X230805000Y-99455000D01*
X246045000Y-99455000D02*
X246045000Y-114695000D01*
X246045000Y-114695000D02*
X230805000Y-114695000D01*
X154605000Y-175655000D02*
X169845000Y-175655000D01*
X154605000Y-190895000D02*
X154605000Y-175655000D01*
X169845000Y-175655000D02*
X169845000Y-190895000D01*
X169845000Y-190895000D02*
X154605000Y-190895000D01*
X328436250Y-137555000D02*
X343676250Y-137555000D01*
X328436250Y-152795000D02*
X328436250Y-137555000D01*
X343676250Y-137555000D02*
X343676250Y-152795000D01*
X343676250Y-152795000D02*
X328436250Y-152795000D01*
X307005000Y-99455000D02*
X322245000Y-99455000D01*
X307005000Y-114695000D02*
X307005000Y-99455000D01*
X322245000Y-99455000D02*
X322245000Y-114695000D01*
X322245000Y-114695000D02*
X307005000Y-114695000D01*
X335580000Y-156605000D02*
X350820000Y-156605000D01*
X335580000Y-171845000D02*
X335580000Y-156605000D01*
X350820000Y-156605000D02*
X350820000Y-171845000D01*
X350820000Y-171845000D02*
X335580000Y-171845000D01*
X116505000Y-175655000D02*
X131745000Y-175655000D01*
X116505000Y-190895000D02*
X116505000Y-175655000D01*
X131745000Y-175655000D02*
X131745000Y-190895000D01*
X131745000Y-190895000D02*
X116505000Y-190895000D01*
X245092500Y-137555000D02*
X260332500Y-137555000D01*
X245092500Y-152795000D02*
X245092500Y-137555000D01*
X260332500Y-137555000D02*
X260332500Y-152795000D01*
X260332500Y-152795000D02*
X245092500Y-152795000D01*
X154605000Y-99455000D02*
X169845000Y-99455000D01*
X154605000Y-114695000D02*
X154605000Y-99455000D01*
X169845000Y-99455000D02*
X169845000Y-114695000D01*
X169845000Y-114695000D02*
X154605000Y-114695000D01*
X121267500Y-80405000D02*
X136507500Y-80405000D01*
X121267500Y-95645000D02*
X121267500Y-80405000D01*
X136507500Y-80405000D02*
X136507500Y-95645000D01*
X136507500Y-95645000D02*
X121267500Y-95645000D01*
X140317500Y-80405000D02*
X155557500Y-80405000D01*
X140317500Y-95645000D02*
X140317500Y-80405000D01*
X155557500Y-80405000D02*
X155557500Y-95645000D01*
X155557500Y-95645000D02*
X140317500Y-95645000D01*
X159367500Y-80405000D02*
X174607500Y-80405000D01*
X159367500Y-95645000D02*
X159367500Y-80405000D01*
X174607500Y-80405000D02*
X174607500Y-95645000D01*
X174607500Y-95645000D02*
X159367500Y-95645000D01*
X178417500Y-80405000D02*
X193657500Y-80405000D01*
X178417500Y-95645000D02*
X178417500Y-80405000D01*
X193657500Y-80405000D02*
X193657500Y-95645000D01*
X193657500Y-95645000D02*
X178417500Y-95645000D01*
X197467500Y-80405000D02*
X212707500Y-80405000D01*
X197467500Y-95645000D02*
X197467500Y-80405000D01*
X212707500Y-80405000D02*
X212707500Y-95645000D01*
X212707500Y-95645000D02*
X197467500Y-95645000D01*
X216517500Y-80405000D02*
X231757500Y-80405000D01*
X216517500Y-95645000D02*
X216517500Y-80405000D01*
X231757500Y-80405000D02*
X231757500Y-95645000D01*
X231757500Y-95645000D02*
X216517500Y-95645000D01*
X235567500Y-80405000D02*
X250807500Y-80405000D01*
X235567500Y-95645000D02*
X235567500Y-80405000D01*
X250807500Y-80405000D02*
X250807500Y-95645000D01*
X250807500Y-95645000D02*
X235567500Y-95645000D01*
X78405000Y-156605000D02*
X93645000Y-156605000D01*
X78405000Y-171845000D02*
X78405000Y-156605000D01*
X93645000Y-156605000D02*
X93645000Y-171845000D01*
X93645000Y-171845000D02*
X78405000Y-171845000D01*
X111742500Y-137555000D02*
X126982500Y-137555000D01*
X111742500Y-152795000D02*
X111742500Y-137555000D01*
X126982500Y-137555000D02*
X126982500Y-152795000D01*
X126982500Y-152795000D02*
X111742500Y-152795000D01*
X102217500Y-80405000D02*
X117457500Y-80405000D01*
X102217500Y-95645000D02*
X102217500Y-80405000D01*
X117457500Y-80405000D02*
X117457500Y-95645000D01*
X117457500Y-95645000D02*
X102217500Y-95645000D01*
X187942500Y-137555000D02*
X203182500Y-137555000D01*
X187942500Y-152795000D02*
X187942500Y-137555000D01*
X203182500Y-137555000D02*
X203182500Y-152795000D01*
X203182500Y-152795000D02*
X187942500Y-152795000D01*
X78405000Y-99455000D02*
X93645000Y-99455000D01*
X78405000Y-114695000D02*
X78405000Y-99455000D01*
X93645000Y-99455000D02*
X93645000Y-114695000D01*
X93645000Y-114695000D02*
X78405000Y-114695000D01*
X206992500Y-137555000D02*
X222232500Y-137555000D01*
X206992500Y-152795000D02*
X206992500Y-137555000D01*
X222232500Y-137555000D02*
X222232500Y-152795000D01*
X222232500Y-152795000D02*
X206992500Y-152795000D01*
X135555000Y-175655000D02*
X150795000Y-175655000D01*
X135555000Y-190895000D02*
X135555000Y-175655000D01*
X150795000Y-175655000D02*
X150795000Y-190895000D01*
X150795000Y-190895000D02*
X135555000Y-190895000D01*
X287955000Y-99455000D02*
X303195000Y-99455000D01*
X287955000Y-114695000D02*
X287955000Y-99455000D01*
X303195000Y-99455000D02*
X303195000Y-114695000D01*
X303195000Y-114695000D02*
X287955000Y-114695000D01*
X240330000Y-118505000D02*
X255570000Y-118505000D01*
X240330000Y-133745000D02*
X240330000Y-118505000D01*
X255570000Y-118505000D02*
X255570000Y-133745000D01*
X255570000Y-133745000D02*
X240330000Y-133745000D01*
X226042500Y-137555000D02*
X241282500Y-137555000D01*
X226042500Y-152795000D02*
X226042500Y-137555000D01*
X241282500Y-137555000D02*
X241282500Y-152795000D01*
X241282500Y-152795000D02*
X226042500Y-152795000D01*
X173655000Y-99455000D02*
X188895000Y-99455000D01*
X173655000Y-114695000D02*
X173655000Y-99455000D01*
X188895000Y-99455000D02*
X188895000Y-114695000D01*
X188895000Y-114695000D02*
X173655000Y-114695000D01*
X302242500Y-137555000D02*
X317482500Y-137555000D01*
X302242500Y-152795000D02*
X302242500Y-137555000D01*
X317482500Y-137555000D02*
X317482500Y-152795000D01*
X317482500Y-152795000D02*
X302242500Y-152795000D01*
X78405000Y-80405000D02*
X93645000Y-80405000D01*
X78405000Y-95645000D02*
X78405000Y-80405000D01*
X93645000Y-80405000D02*
X93645000Y-95645000D01*
X93645000Y-95645000D02*
X78405000Y-95645000D01*
X278430000Y-175655000D02*
X293670000Y-175655000D01*
X278430000Y-190895000D02*
X278430000Y-175655000D01*
X293670000Y-175655000D02*
X293670000Y-190895000D01*
X293670000Y-190895000D02*
X278430000Y-190895000D01*
X97455000Y-175655000D02*
X112695000Y-175655000D01*
X97455000Y-190895000D02*
X97455000Y-175655000D01*
X112695000Y-175655000D02*
X112695000Y-190895000D01*
X112695000Y-190895000D02*
X97455000Y-190895000D01*
X99836250Y-156605000D02*
X115076250Y-156605000D01*
X99836250Y-171845000D02*
X99836250Y-156605000D01*
X115076250Y-156605000D02*
X115076250Y-171845000D01*
X115076250Y-171845000D02*
X99836250Y-171845000D01*
X185561250Y-175655000D02*
X200801250Y-175655000D01*
X185561250Y-190895000D02*
X185561250Y-175655000D01*
X200801250Y-175655000D02*
X200801250Y-190895000D01*
X200801250Y-190895000D02*
X185561250Y-190895000D01*
X235567500Y-156605000D02*
X250807500Y-156605000D01*
X235567500Y-171845000D02*
X235567500Y-156605000D01*
X250807500Y-156605000D02*
X250807500Y-171845000D01*
X250807500Y-171845000D02*
X235567500Y-171845000D01*
X216517500Y-156605000D02*
X231757500Y-156605000D01*
X216517500Y-171845000D02*
X216517500Y-156605000D01*
X231757500Y-156605000D02*
X231757500Y-171845000D01*
X231757500Y-171845000D02*
X216517500Y-171845000D01*
X249855000Y-99455000D02*
X265095000Y-99455000D01*
X249855000Y-114695000D02*
X249855000Y-99455000D01*
X265095000Y-99455000D02*
X265095000Y-114695000D01*
X265095000Y-114695000D02*
X249855000Y-114695000D01*
X259380000Y-118505000D02*
X274620000Y-118505000D01*
X259380000Y-133745000D02*
X259380000Y-118505000D01*
X274620000Y-118505000D02*
X274620000Y-133745000D01*
X274620000Y-133745000D02*
X259380000Y-133745000D01*
X228423750Y-175655000D02*
X243663750Y-175655000D01*
X228423750Y-190895000D02*
X228423750Y-175655000D01*
X243663750Y-175655000D02*
X243663750Y-190895000D01*
X243663750Y-190895000D02*
X228423750Y-190895000D01*
X283192500Y-137555000D02*
X298432500Y-137555000D01*
X283192500Y-152795000D02*
X283192500Y-137555000D01*
X298432500Y-137555000D02*
X298432500Y-152795000D01*
X298432500Y-152795000D02*
X283192500Y-152795000D01*
X97455000Y-99455000D02*
X112695000Y-99455000D01*
X97455000Y-114695000D02*
X97455000Y-99455000D01*
X112695000Y-99455000D02*
X112695000Y-114695000D01*
X112695000Y-114695000D02*
X97455000Y-114695000D01*
X278430000Y-118505000D02*
X293670000Y-118505000D01*
X278430000Y-133745000D02*
X278430000Y-118505000D01*
X293670000Y-118505000D02*
X293670000Y-133745000D01*
X293670000Y-133745000D02*
X278430000Y-133745000D01*
X273667500Y-156605000D02*
X288907500Y-156605000D01*
X273667500Y-171845000D02*
X273667500Y-156605000D01*
X288907500Y-156605000D02*
X288907500Y-171845000D01*
X288907500Y-171845000D02*
X273667500Y-171845000D01*
X254617500Y-80405000D02*
X269857500Y-80405000D01*
X254617500Y-95645000D02*
X254617500Y-80405000D01*
X269857500Y-80405000D02*
X269857500Y-95645000D01*
X269857500Y-95645000D02*
X254617500Y-95645000D01*
X106980000Y-118505000D02*
X122220000Y-118505000D01*
X106980000Y-133745000D02*
X106980000Y-118505000D01*
X122220000Y-118505000D02*
X122220000Y-133745000D01*
X122220000Y-133745000D02*
X106980000Y-133745000D01*
X164130000Y-118505000D02*
X179370000Y-118505000D01*
X164130000Y-133745000D02*
X164130000Y-118505000D01*
X179370000Y-118505000D02*
X179370000Y-133745000D01*
X179370000Y-133745000D02*
X164130000Y-133745000D01*
X335580000Y-175655000D02*
X350820000Y-175655000D01*
X335580000Y-190895000D02*
X335580000Y-175655000D01*
X350820000Y-175655000D02*
X350820000Y-190895000D01*
X350820000Y-190895000D02*
X335580000Y-190895000D01*
X259380000Y-175655000D02*
X274620000Y-175655000D01*
X259380000Y-190895000D02*
X259380000Y-175655000D01*
X274620000Y-175655000D02*
X274620000Y-190895000D01*
X274620000Y-190895000D02*
X259380000Y-190895000D01*
X297480000Y-118505000D02*
X312720000Y-118505000D01*
X297480000Y-133745000D02*
X297480000Y-118505000D01*
X312720000Y-118505000D02*
X312720000Y-133745000D01*
X312720000Y-133745000D02*
X297480000Y-133745000D01*
X83167500Y-118505000D02*
X98407500Y-118505000D01*
X83167500Y-133745000D02*
X83167500Y-118505000D01*
X98407500Y-118505000D02*
X98407500Y-133745000D01*
X98407500Y-133745000D02*
X83167500Y-133745000D01*
X130792500Y-137555000D02*
X146032500Y-137555000D01*
X130792500Y-152795000D02*
X130792500Y-137555000D01*
X146032500Y-137555000D02*
X146032500Y-152795000D01*
X146032500Y-152795000D02*
X130792500Y-152795000D01*
X333198750Y-80405000D02*
X348438750Y-80405000D01*
X333198750Y-95645000D02*
X333198750Y-80405000D01*
X348438750Y-80405000D02*
X348438750Y-95645000D01*
X348438750Y-95645000D02*
X333198750Y-95645000D01*
X211755000Y-99455000D02*
X226995000Y-99455000D01*
X211755000Y-114695000D02*
X211755000Y-99455000D01*
X226995000Y-99455000D02*
X226995000Y-114695000D01*
X226995000Y-114695000D02*
X211755000Y-114695000D01*
X192705000Y-99455000D02*
X207945000Y-99455000D01*
X192705000Y-114695000D02*
X192705000Y-99455000D01*
X207945000Y-99455000D02*
X207945000Y-114695000D01*
X207945000Y-114695000D02*
X192705000Y-114695000D01*
X292717500Y-156605000D02*
X307957500Y-156605000D01*
X292717500Y-171845000D02*
X292717500Y-156605000D01*
X307957500Y-156605000D02*
X307957500Y-171845000D01*
X307957500Y-171845000D02*
X292717500Y-171845000D01*
X273667500Y-80405000D02*
X288907500Y-80405000D01*
X273667500Y-95645000D02*
X273667500Y-80405000D01*
X288907500Y-80405000D02*
X288907500Y-95645000D01*
X288907500Y-95645000D02*
X273667500Y-95645000D01*
X183180000Y-118505000D02*
X198420000Y-118505000D01*
X183180000Y-133745000D02*
X183180000Y-118505000D01*
X198420000Y-118505000D02*
X198420000Y-133745000D01*
X198420000Y-133745000D02*
X183180000Y-133745000D01*
X314148750Y-156605000D02*
X329388750Y-156605000D01*
X314148750Y-171845000D02*
X314148750Y-156605000D01*
X329388750Y-156605000D02*
X329388750Y-171845000D01*
X329388750Y-171845000D02*
X314148750Y-171845000D01*
X135555000Y-99455000D02*
X150795000Y-99455000D01*
X135555000Y-114695000D02*
X135555000Y-99455000D01*
X150795000Y-99455000D02*
X150795000Y-114695000D01*
X150795000Y-114695000D02*
X135555000Y-114695000D01*
X116505000Y-99455000D02*
X131745000Y-99455000D01*
X116505000Y-114695000D02*
X116505000Y-99455000D01*
X131745000Y-99455000D02*
X131745000Y-114695000D01*
X131745000Y-114695000D02*
X116505000Y-114695000D01*
X221280000Y-118505000D02*
X236520000Y-118505000D01*
X221280000Y-133745000D02*
X221280000Y-118505000D01*
X236520000Y-118505000D02*
X236520000Y-133745000D01*
X236520000Y-133745000D02*
X221280000Y-133745000D01*
X316530000Y-175655000D02*
X331770000Y-175655000D01*
X316530000Y-190895000D02*
X316530000Y-175655000D01*
X331770000Y-175655000D02*
X331770000Y-190895000D01*
X331770000Y-190895000D02*
X316530000Y-190895000D01*
X178417500Y-156605000D02*
X193657500Y-156605000D01*
X178417500Y-171845000D02*
X178417500Y-156605000D01*
X193657500Y-156605000D02*
X193657500Y-171845000D01*
X193657500Y-171845000D02*
X178417500Y-171845000D01*
X126030000Y-118505000D02*
X141270000Y-118505000D01*
X126030000Y-133745000D02*
X126030000Y-118505000D01*
X141270000Y-118505000D02*
X141270000Y-133745000D01*
X141270000Y-133745000D02*
X126030000Y-133745000D01*
X140317500Y-156605000D02*
X155557500Y-156605000D01*
X140317500Y-171845000D02*
X140317500Y-156605000D01*
X155557500Y-156605000D02*
X155557500Y-171845000D01*
X155557500Y-171845000D02*
X140317500Y-171845000D01*
X202230000Y-118505000D02*
X217470000Y-118505000D01*
X202230000Y-133745000D02*
X202230000Y-118505000D01*
X217470000Y-118505000D02*
X217470000Y-133745000D01*
X217470000Y-133745000D02*
X202230000Y-133745000D01*
X121267500Y-156605000D02*
X136507500Y-156605000D01*
X121267500Y-171845000D02*
X121267500Y-156605000D01*
X136507500Y-156605000D02*
X136507500Y-171845000D01*
X136507500Y-171845000D02*
X121267500Y-171845000D01*
X268905000Y-99455000D02*
X284145000Y-99455000D01*
X268905000Y-114695000D02*
X268905000Y-99455000D01*
X284145000Y-99455000D02*
X284145000Y-114695000D01*
X284145000Y-114695000D02*
X268905000Y-114695000D01*
X264142500Y-137555000D02*
X279382500Y-137555000D01*
X264142500Y-152795000D02*
X264142500Y-137555000D01*
X279382500Y-137555000D02*
X279382500Y-152795000D01*
X279382500Y-152795000D02*
X264142500Y-152795000D01*
%LPC*%
D14*
X98000000Y-85500000D03*
D15*
X98000000Y-93120000D03*
D16*
X151962500Y-145175000D03*
D17*
X152382500Y-145175000D03*
D18*
X157462500Y-145175000D03*
D17*
X162542500Y-145175000D03*
D16*
X162962500Y-145175000D03*
X157462500Y-151075000D03*
D19*
X159962500Y-140675000D03*
D20*
X160002500Y-140095000D03*
D16*
X152462500Y-148975000D03*
D20*
X153652500Y-142635000D03*
D19*
X154962500Y-141175000D03*
D16*
X199587500Y-164225000D03*
D17*
X200007500Y-164225000D03*
D18*
X205087500Y-164225000D03*
D17*
X210167500Y-164225000D03*
D16*
X210587500Y-164225000D03*
X205087500Y-170125000D03*
D19*
X207587500Y-159725000D03*
D20*
X207627500Y-159145000D03*
D16*
X200087500Y-168025000D03*
D20*
X201277500Y-161685000D03*
D19*
X202587500Y-160225000D03*
D16*
X332937500Y-107075000D03*
D17*
X333357500Y-107075000D03*
D18*
X338437500Y-107075000D03*
D17*
X343517500Y-107075000D03*
D16*
X343937500Y-107075000D03*
X338437500Y-112975000D03*
D19*
X340937500Y-102575000D03*
D20*
X340977500Y-101995000D03*
D16*
X333437500Y-110875000D03*
D20*
X334627500Y-104535000D03*
D19*
X335937500Y-103075000D03*
D16*
X337700000Y-126125000D03*
D17*
X338120000Y-126125000D03*
D18*
X343200000Y-126125000D03*
D17*
X348280000Y-126125000D03*
D16*
X348700000Y-126125000D03*
X343200000Y-132025000D03*
D19*
X345700000Y-121625000D03*
D20*
X345740000Y-121045000D03*
D16*
X338200000Y-129925000D03*
D20*
X339390000Y-123585000D03*
D19*
X340700000Y-122125000D03*
D16*
X161487500Y-164225000D03*
D17*
X161907500Y-164225000D03*
D18*
X166987500Y-164225000D03*
D17*
X172067500Y-164225000D03*
D16*
X172487500Y-164225000D03*
X166987500Y-170125000D03*
D19*
X169487500Y-159725000D03*
D20*
X169527500Y-159145000D03*
D16*
X161987500Y-168025000D03*
D20*
X163177500Y-161685000D03*
D19*
X164487500Y-160225000D03*
D16*
X82906250Y-145175000D03*
D17*
X83326250Y-145175000D03*
D18*
X88406250Y-145175000D03*
D17*
X93486250Y-145175000D03*
D16*
X93906250Y-145175000D03*
X88406250Y-151075000D03*
D19*
X90906250Y-140675000D03*
D20*
X90946250Y-140095000D03*
D16*
X83406250Y-148975000D03*
D20*
X84596250Y-142635000D03*
D19*
X85906250Y-141175000D03*
D16*
X318650000Y-126125000D03*
D17*
X319070000Y-126125000D03*
D18*
X324150000Y-126125000D03*
D17*
X329230000Y-126125000D03*
D16*
X329650000Y-126125000D03*
X324150000Y-132025000D03*
D19*
X326650000Y-121625000D03*
D20*
X326690000Y-121045000D03*
D16*
X319150000Y-129925000D03*
D20*
X320340000Y-123585000D03*
D19*
X321650000Y-122125000D03*
D16*
X294837500Y-88025000D03*
D17*
X295257500Y-88025000D03*
D18*
X300337500Y-88025000D03*
D17*
X305417500Y-88025000D03*
D16*
X305837500Y-88025000D03*
X300337500Y-93925000D03*
D19*
X302837500Y-83525000D03*
D20*
X302877500Y-82945000D03*
D16*
X295337500Y-91825000D03*
D20*
X296527500Y-85485000D03*
D19*
X297837500Y-84025000D03*
D16*
X171012500Y-145175000D03*
D17*
X171432500Y-145175000D03*
D18*
X176512500Y-145175000D03*
D17*
X181592500Y-145175000D03*
D16*
X182012500Y-145175000D03*
X176512500Y-151075000D03*
D19*
X179012500Y-140675000D03*
D20*
X179052500Y-140095000D03*
D16*
X171512500Y-148975000D03*
D20*
X172702500Y-142635000D03*
D19*
X174012500Y-141175000D03*
D16*
X256737500Y-164225000D03*
D17*
X257157500Y-164225000D03*
D18*
X262237500Y-164225000D03*
D17*
X267317500Y-164225000D03*
D16*
X267737500Y-164225000D03*
X262237500Y-170125000D03*
D19*
X264737500Y-159725000D03*
D20*
X264777500Y-159145000D03*
D16*
X257237500Y-168025000D03*
D20*
X258427500Y-161685000D03*
D19*
X259737500Y-160225000D03*
D16*
X80525000Y-183275000D03*
D17*
X80945000Y-183275000D03*
D18*
X86025000Y-183275000D03*
D17*
X91105000Y-183275000D03*
D16*
X91525000Y-183275000D03*
X86025000Y-189175000D03*
D19*
X88525000Y-178775000D03*
D20*
X88565000Y-178195000D03*
D16*
X81025000Y-187075000D03*
D20*
X82215000Y-180735000D03*
D19*
X83525000Y-179275000D03*
D16*
X313887500Y-88025000D03*
D17*
X314307500Y-88025000D03*
D18*
X319387500Y-88025000D03*
D17*
X324467500Y-88025000D03*
D16*
X324887500Y-88025000D03*
X319387500Y-93925000D03*
D19*
X321887500Y-83525000D03*
D20*
X321927500Y-82945000D03*
D16*
X314387500Y-91825000D03*
D20*
X315577500Y-85485000D03*
D19*
X316887500Y-84025000D03*
D16*
X299600000Y-183275000D03*
D17*
X300020000Y-183275000D03*
D18*
X305100000Y-183275000D03*
D17*
X310180000Y-183275000D03*
D16*
X310600000Y-183275000D03*
X305100000Y-189175000D03*
D19*
X307600000Y-178775000D03*
D20*
X307640000Y-178195000D03*
D16*
X300100000Y-187075000D03*
D20*
X301290000Y-180735000D03*
D19*
X302600000Y-179275000D03*
D16*
X147200000Y-126125000D03*
D17*
X147620000Y-126125000D03*
D18*
X152700000Y-126125000D03*
D17*
X157780000Y-126125000D03*
D16*
X158200000Y-126125000D03*
X152700000Y-132025000D03*
D19*
X155200000Y-121625000D03*
D20*
X155240000Y-121045000D03*
D16*
X147700000Y-129925000D03*
D20*
X148890000Y-123585000D03*
D19*
X150200000Y-122125000D03*
D16*
X232925000Y-107075000D03*
D17*
X233345000Y-107075000D03*
D18*
X238425000Y-107075000D03*
D17*
X243505000Y-107075000D03*
D16*
X243925000Y-107075000D03*
X238425000Y-112975000D03*
D19*
X240925000Y-102575000D03*
D20*
X240965000Y-101995000D03*
D16*
X233425000Y-110875000D03*
D20*
X234615000Y-104535000D03*
D19*
X235925000Y-103075000D03*
D16*
X156725000Y-183275000D03*
D17*
X157145000Y-183275000D03*
D18*
X162225000Y-183275000D03*
D17*
X167305000Y-183275000D03*
D16*
X167725000Y-183275000D03*
X162225000Y-189175000D03*
D19*
X164725000Y-178775000D03*
D20*
X164765000Y-178195000D03*
D16*
X157225000Y-187075000D03*
D20*
X158415000Y-180735000D03*
D19*
X159725000Y-179275000D03*
D16*
X330556250Y-145175000D03*
D17*
X330976250Y-145175000D03*
D18*
X336056250Y-145175000D03*
D17*
X341136250Y-145175000D03*
D16*
X341556250Y-145175000D03*
X336056250Y-151075000D03*
D19*
X338556250Y-140675000D03*
D20*
X338596250Y-140095000D03*
D16*
X331056250Y-148975000D03*
D20*
X332246250Y-142635000D03*
D19*
X333556250Y-141175000D03*
D16*
X309125000Y-107075000D03*
D17*
X309545000Y-107075000D03*
D18*
X314625000Y-107075000D03*
D17*
X319705000Y-107075000D03*
D16*
X320125000Y-107075000D03*
X314625000Y-112975000D03*
D19*
X317125000Y-102575000D03*
D20*
X317165000Y-101995000D03*
D16*
X309625000Y-110875000D03*
D20*
X310815000Y-104535000D03*
D19*
X312125000Y-103075000D03*
D16*
X337700000Y-164225000D03*
D17*
X338120000Y-164225000D03*
D18*
X343200000Y-164225000D03*
D17*
X348280000Y-164225000D03*
D16*
X348700000Y-164225000D03*
X343200000Y-170125000D03*
D19*
X345700000Y-159725000D03*
D20*
X345740000Y-159145000D03*
D16*
X338200000Y-168025000D03*
D20*
X339390000Y-161685000D03*
D19*
X340700000Y-160225000D03*
D16*
X118625000Y-183275000D03*
D17*
X119045000Y-183275000D03*
D18*
X124125000Y-183275000D03*
D17*
X129205000Y-183275000D03*
D16*
X129625000Y-183275000D03*
X124125000Y-189175000D03*
D19*
X126625000Y-178775000D03*
D20*
X126665000Y-178195000D03*
D16*
X119125000Y-187075000D03*
D20*
X120315000Y-180735000D03*
D19*
X121625000Y-179275000D03*
D16*
X247212500Y-145175000D03*
D17*
X247632500Y-145175000D03*
D18*
X252712500Y-145175000D03*
D17*
X257792500Y-145175000D03*
D16*
X258212500Y-145175000D03*
X252712500Y-151075000D03*
D19*
X255212500Y-140675000D03*
D20*
X255252500Y-140095000D03*
D16*
X247712500Y-148975000D03*
D20*
X248902500Y-142635000D03*
D19*
X250212500Y-141175000D03*
D16*
X156725000Y-107075000D03*
D17*
X157145000Y-107075000D03*
D18*
X162225000Y-107075000D03*
D17*
X167305000Y-107075000D03*
D16*
X167725000Y-107075000D03*
X162225000Y-112975000D03*
D19*
X164725000Y-102575000D03*
D20*
X164765000Y-101995000D03*
D16*
X157225000Y-110875000D03*
D20*
X158415000Y-104535000D03*
D19*
X159725000Y-103075000D03*
D16*
X123387500Y-88025000D03*
D17*
X123807500Y-88025000D03*
D18*
X128887500Y-88025000D03*
D17*
X133967500Y-88025000D03*
D16*
X134387500Y-88025000D03*
X128887500Y-93925000D03*
D19*
X131387500Y-83525000D03*
D20*
X131427500Y-82945000D03*
D16*
X123887500Y-91825000D03*
D20*
X125077500Y-85485000D03*
D19*
X126387500Y-84025000D03*
D16*
X142437500Y-88025000D03*
D17*
X142857500Y-88025000D03*
D18*
X147937500Y-88025000D03*
D17*
X153017500Y-88025000D03*
D16*
X153437500Y-88025000D03*
X147937500Y-93925000D03*
D19*
X150437500Y-83525000D03*
D20*
X150477500Y-82945000D03*
D16*
X142937500Y-91825000D03*
D20*
X144127500Y-85485000D03*
D19*
X145437500Y-84025000D03*
D16*
X161487500Y-88025000D03*
D17*
X161907500Y-88025000D03*
D18*
X166987500Y-88025000D03*
D17*
X172067500Y-88025000D03*
D16*
X172487500Y-88025000D03*
X166987500Y-93925000D03*
D19*
X169487500Y-83525000D03*
D20*
X169527500Y-82945000D03*
D16*
X161987500Y-91825000D03*
D20*
X163177500Y-85485000D03*
D19*
X164487500Y-84025000D03*
D16*
X180537500Y-88025000D03*
D17*
X180957500Y-88025000D03*
D18*
X186037500Y-88025000D03*
D17*
X191117500Y-88025000D03*
D16*
X191537500Y-88025000D03*
X186037500Y-93925000D03*
D19*
X188537500Y-83525000D03*
D20*
X188577500Y-82945000D03*
D16*
X181037500Y-91825000D03*
D20*
X182227500Y-85485000D03*
D19*
X183537500Y-84025000D03*
D16*
X199587500Y-88025000D03*
D17*
X200007500Y-88025000D03*
D18*
X205087500Y-88025000D03*
D17*
X210167500Y-88025000D03*
D16*
X210587500Y-88025000D03*
X205087500Y-93925000D03*
D19*
X207587500Y-83525000D03*
D20*
X207627500Y-82945000D03*
D16*
X200087500Y-91825000D03*
D20*
X201277500Y-85485000D03*
D19*
X202587500Y-84025000D03*
D16*
X218637500Y-88025000D03*
D17*
X219057500Y-88025000D03*
D18*
X224137500Y-88025000D03*
D17*
X229217500Y-88025000D03*
D16*
X229637500Y-88025000D03*
X224137500Y-93925000D03*
D19*
X226637500Y-83525000D03*
D20*
X226677500Y-82945000D03*
D16*
X219137500Y-91825000D03*
D20*
X220327500Y-85485000D03*
D19*
X221637500Y-84025000D03*
D16*
X237687500Y-88025000D03*
D17*
X238107500Y-88025000D03*
D18*
X243187500Y-88025000D03*
D17*
X248267500Y-88025000D03*
D16*
X248687500Y-88025000D03*
X243187500Y-93925000D03*
D19*
X245687500Y-83525000D03*
D20*
X245727500Y-82945000D03*
D16*
X238187500Y-91825000D03*
D20*
X239377500Y-85485000D03*
D19*
X240687500Y-84025000D03*
D16*
X80525000Y-164225000D03*
D17*
X80945000Y-164225000D03*
D18*
X86025000Y-164225000D03*
D17*
X91105000Y-164225000D03*
D16*
X91525000Y-164225000D03*
X86025000Y-170125000D03*
D19*
X88525000Y-159725000D03*
D20*
X88565000Y-159145000D03*
D16*
X81025000Y-168025000D03*
D20*
X82215000Y-161685000D03*
D19*
X83525000Y-160225000D03*
D16*
X113862500Y-145175000D03*
D17*
X114282500Y-145175000D03*
D18*
X119362500Y-145175000D03*
D17*
X124442500Y-145175000D03*
D16*
X124862500Y-145175000D03*
X119362500Y-151075000D03*
D19*
X121862500Y-140675000D03*
D20*
X121902500Y-140095000D03*
D16*
X114362500Y-148975000D03*
D20*
X115552500Y-142635000D03*
D19*
X116862500Y-141175000D03*
D16*
X104337500Y-88025000D03*
D17*
X104757500Y-88025000D03*
D18*
X109837500Y-88025000D03*
D17*
X114917500Y-88025000D03*
D16*
X115337500Y-88025000D03*
X109837500Y-93925000D03*
D19*
X112337500Y-83525000D03*
D20*
X112377500Y-82945000D03*
D16*
X104837500Y-91825000D03*
D20*
X106027500Y-85485000D03*
D19*
X107337500Y-84025000D03*
D16*
X190062500Y-145175000D03*
D17*
X190482500Y-145175000D03*
D18*
X195562500Y-145175000D03*
D17*
X200642500Y-145175000D03*
D16*
X201062500Y-145175000D03*
X195562500Y-151075000D03*
D19*
X198062500Y-140675000D03*
D20*
X198102500Y-140095000D03*
D16*
X190562500Y-148975000D03*
D20*
X191752500Y-142635000D03*
D19*
X193062500Y-141175000D03*
D16*
X80525000Y-107075000D03*
D17*
X80945000Y-107075000D03*
D18*
X86025000Y-107075000D03*
D17*
X91105000Y-107075000D03*
D16*
X91525000Y-107075000D03*
X86025000Y-112975000D03*
D19*
X88525000Y-102575000D03*
D20*
X88565000Y-101995000D03*
D16*
X81025000Y-110875000D03*
D20*
X82215000Y-104535000D03*
D19*
X83525000Y-103075000D03*
D16*
X209112500Y-145175000D03*
D17*
X209532500Y-145175000D03*
D18*
X214612500Y-145175000D03*
D17*
X219692500Y-145175000D03*
D16*
X220112500Y-145175000D03*
X214612500Y-151075000D03*
D19*
X217112500Y-140675000D03*
D20*
X217152500Y-140095000D03*
D16*
X209612500Y-148975000D03*
D20*
X210802500Y-142635000D03*
D19*
X212112500Y-141175000D03*
D16*
X137675000Y-183275000D03*
D17*
X138095000Y-183275000D03*
D18*
X143175000Y-183275000D03*
D17*
X148255000Y-183275000D03*
D16*
X148675000Y-183275000D03*
X143175000Y-189175000D03*
D19*
X145675000Y-178775000D03*
D20*
X145715000Y-178195000D03*
D16*
X138175000Y-187075000D03*
D20*
X139365000Y-180735000D03*
D19*
X140675000Y-179275000D03*
D16*
X290075000Y-107075000D03*
D17*
X290495000Y-107075000D03*
D18*
X295575000Y-107075000D03*
D17*
X300655000Y-107075000D03*
D16*
X301075000Y-107075000D03*
X295575000Y-112975000D03*
D19*
X298075000Y-102575000D03*
D20*
X298115000Y-101995000D03*
D16*
X290575000Y-110875000D03*
D20*
X291765000Y-104535000D03*
D19*
X293075000Y-103075000D03*
D16*
X242450000Y-126125000D03*
D17*
X242870000Y-126125000D03*
D18*
X247950000Y-126125000D03*
D17*
X253030000Y-126125000D03*
D16*
X253450000Y-126125000D03*
X247950000Y-132025000D03*
D19*
X250450000Y-121625000D03*
D20*
X250490000Y-121045000D03*
D16*
X242950000Y-129925000D03*
D20*
X244140000Y-123585000D03*
D19*
X245450000Y-122125000D03*
D16*
X228162500Y-145175000D03*
D17*
X228582500Y-145175000D03*
D18*
X233662500Y-145175000D03*
D17*
X238742500Y-145175000D03*
D16*
X239162500Y-145175000D03*
X233662500Y-151075000D03*
D19*
X236162500Y-140675000D03*
D20*
X236202500Y-140095000D03*
D16*
X228662500Y-148975000D03*
D20*
X229852500Y-142635000D03*
D19*
X231162500Y-141175000D03*
D16*
X175775000Y-107075000D03*
D17*
X176195000Y-107075000D03*
D18*
X181275000Y-107075000D03*
D17*
X186355000Y-107075000D03*
D16*
X186775000Y-107075000D03*
X181275000Y-112975000D03*
D19*
X183775000Y-102575000D03*
D20*
X183815000Y-101995000D03*
D16*
X176275000Y-110875000D03*
D20*
X177465000Y-104535000D03*
D19*
X178775000Y-103075000D03*
D16*
X304362500Y-145175000D03*
D17*
X304782500Y-145175000D03*
D18*
X309862500Y-145175000D03*
D17*
X314942500Y-145175000D03*
D16*
X315362500Y-145175000D03*
X309862500Y-151075000D03*
D19*
X312362500Y-140675000D03*
D20*
X312402500Y-140095000D03*
D16*
X304862500Y-148975000D03*
D20*
X306052500Y-142635000D03*
D19*
X307362500Y-141175000D03*
D16*
X80525000Y-88025000D03*
D17*
X80945000Y-88025000D03*
D18*
X86025000Y-88025000D03*
D17*
X91105000Y-88025000D03*
D16*
X91525000Y-88025000D03*
X86025000Y-93925000D03*
D19*
X88525000Y-83525000D03*
D20*
X88565000Y-82945000D03*
D16*
X81025000Y-91825000D03*
D20*
X82215000Y-85485000D03*
D19*
X83525000Y-84025000D03*
D16*
X280550000Y-183275000D03*
D17*
X280970000Y-183275000D03*
D18*
X286050000Y-183275000D03*
D17*
X291130000Y-183275000D03*
D16*
X291550000Y-183275000D03*
X286050000Y-189175000D03*
D19*
X288550000Y-178775000D03*
D20*
X288590000Y-178195000D03*
D16*
X281050000Y-187075000D03*
D20*
X282240000Y-180735000D03*
D19*
X283550000Y-179275000D03*
D16*
X99575000Y-183275000D03*
D17*
X99995000Y-183275000D03*
D18*
X105075000Y-183275000D03*
D17*
X110155000Y-183275000D03*
D16*
X110575000Y-183275000D03*
X105075000Y-189175000D03*
D19*
X107575000Y-178775000D03*
D20*
X107615000Y-178195000D03*
D16*
X100075000Y-187075000D03*
D20*
X101265000Y-180735000D03*
D19*
X102575000Y-179275000D03*
D16*
X101956250Y-164225000D03*
D17*
X102376250Y-164225000D03*
D18*
X107456250Y-164225000D03*
D17*
X112536250Y-164225000D03*
D16*
X112956250Y-164225000D03*
X107456250Y-170125000D03*
D19*
X109956250Y-159725000D03*
D20*
X109996250Y-159145000D03*
D16*
X102456250Y-168025000D03*
D20*
X103646250Y-161685000D03*
D19*
X104956250Y-160225000D03*
D16*
X187681250Y-183275000D03*
D17*
X188101250Y-183275000D03*
D18*
X193181250Y-183275000D03*
D17*
X198261250Y-183275000D03*
D16*
X198681250Y-183275000D03*
X193181250Y-189175000D03*
D19*
X195681250Y-178775000D03*
D20*
X195721250Y-178195000D03*
D16*
X188181250Y-187075000D03*
D20*
X189371250Y-180735000D03*
D19*
X190681250Y-179275000D03*
D16*
X237687500Y-164225000D03*
D17*
X238107500Y-164225000D03*
D18*
X243187500Y-164225000D03*
D17*
X248267500Y-164225000D03*
D16*
X248687500Y-164225000D03*
X243187500Y-170125000D03*
D19*
X245687500Y-159725000D03*
D20*
X245727500Y-159145000D03*
D16*
X238187500Y-168025000D03*
D20*
X239377500Y-161685000D03*
D19*
X240687500Y-160225000D03*
D16*
X218637500Y-164225000D03*
D17*
X219057500Y-164225000D03*
D18*
X224137500Y-164225000D03*
D17*
X229217500Y-164225000D03*
D16*
X229637500Y-164225000D03*
X224137500Y-170125000D03*
D19*
X226637500Y-159725000D03*
D20*
X226677500Y-159145000D03*
D16*
X219137500Y-168025000D03*
D20*
X220327500Y-161685000D03*
D19*
X221637500Y-160225000D03*
D16*
X251975000Y-107075000D03*
D17*
X252395000Y-107075000D03*
D18*
X257475000Y-107075000D03*
D17*
X262555000Y-107075000D03*
D16*
X262975000Y-107075000D03*
X257475000Y-112975000D03*
D19*
X259975000Y-102575000D03*
D20*
X260015000Y-101995000D03*
D16*
X252475000Y-110875000D03*
D20*
X253665000Y-104535000D03*
D19*
X254975000Y-103075000D03*
D16*
X261500000Y-126125000D03*
D17*
X261920000Y-126125000D03*
D18*
X267000000Y-126125000D03*
D17*
X272080000Y-126125000D03*
D16*
X272500000Y-126125000D03*
X267000000Y-132025000D03*
D19*
X269500000Y-121625000D03*
D20*
X269540000Y-121045000D03*
D16*
X262000000Y-129925000D03*
D20*
X263190000Y-123585000D03*
D19*
X264500000Y-122125000D03*
D16*
X230543750Y-183275000D03*
D17*
X230963750Y-183275000D03*
D18*
X236043750Y-183275000D03*
D17*
X241123750Y-183275000D03*
D16*
X241543750Y-183275000D03*
X236043750Y-189175000D03*
D19*
X238543750Y-178775000D03*
D20*
X238583750Y-178195000D03*
D16*
X231043750Y-187075000D03*
D20*
X232233750Y-180735000D03*
D19*
X233543750Y-179275000D03*
D16*
X285312500Y-145175000D03*
D17*
X285732500Y-145175000D03*
D18*
X290812500Y-145175000D03*
D17*
X295892500Y-145175000D03*
D16*
X296312500Y-145175000D03*
X290812500Y-151075000D03*
D19*
X293312500Y-140675000D03*
D20*
X293352500Y-140095000D03*
D16*
X285812500Y-148975000D03*
D20*
X287002500Y-142635000D03*
D19*
X288312500Y-141175000D03*
D16*
X99575000Y-107075000D03*
D17*
X99995000Y-107075000D03*
D18*
X105075000Y-107075000D03*
D17*
X110155000Y-107075000D03*
D16*
X110575000Y-107075000D03*
X105075000Y-112975000D03*
D19*
X107575000Y-102575000D03*
D20*
X107615000Y-101995000D03*
D16*
X100075000Y-110875000D03*
D20*
X101265000Y-104535000D03*
D19*
X102575000Y-103075000D03*
D16*
X280550000Y-126125000D03*
D17*
X280970000Y-126125000D03*
D18*
X286050000Y-126125000D03*
D17*
X291130000Y-126125000D03*
D16*
X291550000Y-126125000D03*
X286050000Y-132025000D03*
D19*
X288550000Y-121625000D03*
D20*
X288590000Y-121045000D03*
D16*
X281050000Y-129925000D03*
D20*
X282240000Y-123585000D03*
D19*
X283550000Y-122125000D03*
D16*
X275787500Y-164225000D03*
D17*
X276207500Y-164225000D03*
D18*
X281287500Y-164225000D03*
D17*
X286367500Y-164225000D03*
D16*
X286787500Y-164225000D03*
X281287500Y-170125000D03*
D19*
X283787500Y-159725000D03*
D20*
X283827500Y-159145000D03*
D16*
X276287500Y-168025000D03*
D20*
X277477500Y-161685000D03*
D19*
X278787500Y-160225000D03*
D16*
X256737500Y-88025000D03*
D17*
X257157500Y-88025000D03*
D18*
X262237500Y-88025000D03*
D17*
X267317500Y-88025000D03*
D16*
X267737500Y-88025000D03*
X262237500Y-93925000D03*
D19*
X264737500Y-83525000D03*
D20*
X264777500Y-82945000D03*
D16*
X257237500Y-91825000D03*
D20*
X258427500Y-85485000D03*
D19*
X259737500Y-84025000D03*
D16*
X109100000Y-126125000D03*
D17*
X109520000Y-126125000D03*
D18*
X114600000Y-126125000D03*
D17*
X119680000Y-126125000D03*
D16*
X120100000Y-126125000D03*
X114600000Y-132025000D03*
D19*
X117100000Y-121625000D03*
D20*
X117140000Y-121045000D03*
D16*
X109600000Y-129925000D03*
D20*
X110790000Y-123585000D03*
D19*
X112100000Y-122125000D03*
D16*
X166250000Y-126125000D03*
D17*
X166670000Y-126125000D03*
D18*
X171750000Y-126125000D03*
D17*
X176830000Y-126125000D03*
D16*
X177250000Y-126125000D03*
X171750000Y-132025000D03*
D19*
X174250000Y-121625000D03*
D20*
X174290000Y-121045000D03*
D16*
X166750000Y-129925000D03*
D20*
X167940000Y-123585000D03*
D19*
X169250000Y-122125000D03*
D16*
X337700000Y-183275000D03*
D17*
X338120000Y-183275000D03*
D18*
X343200000Y-183275000D03*
D17*
X348280000Y-183275000D03*
D16*
X348700000Y-183275000D03*
X343200000Y-189175000D03*
D19*
X345700000Y-178775000D03*
D20*
X345740000Y-178195000D03*
D16*
X338200000Y-187075000D03*
D20*
X339390000Y-180735000D03*
D19*
X340700000Y-179275000D03*
D16*
X261500000Y-183275000D03*
D17*
X261920000Y-183275000D03*
D18*
X267000000Y-183275000D03*
D17*
X272080000Y-183275000D03*
D16*
X272500000Y-183275000D03*
X267000000Y-189175000D03*
D19*
X269500000Y-178775000D03*
D20*
X269540000Y-178195000D03*
D16*
X262000000Y-187075000D03*
D20*
X263190000Y-180735000D03*
D19*
X264500000Y-179275000D03*
D16*
X299600000Y-126125000D03*
D17*
X300020000Y-126125000D03*
D18*
X305100000Y-126125000D03*
D17*
X310180000Y-126125000D03*
D16*
X310600000Y-126125000D03*
X305100000Y-132025000D03*
D19*
X307600000Y-121625000D03*
D20*
X307640000Y-121045000D03*
D16*
X300100000Y-129925000D03*
D20*
X301290000Y-123585000D03*
D19*
X302600000Y-122125000D03*
D16*
X85287500Y-126125000D03*
D17*
X85707500Y-126125000D03*
D18*
X90787500Y-126125000D03*
D17*
X95867500Y-126125000D03*
D16*
X96287500Y-126125000D03*
X90787500Y-132025000D03*
D19*
X93287500Y-121625000D03*
D20*
X93327500Y-121045000D03*
D16*
X85787500Y-129925000D03*
D20*
X86977500Y-123585000D03*
D19*
X88287500Y-122125000D03*
D16*
X132912500Y-145175000D03*
D17*
X133332500Y-145175000D03*
D18*
X138412500Y-145175000D03*
D17*
X143492500Y-145175000D03*
D16*
X143912500Y-145175000D03*
X138412500Y-151075000D03*
D19*
X140912500Y-140675000D03*
D20*
X140952500Y-140095000D03*
D16*
X133412500Y-148975000D03*
D20*
X134602500Y-142635000D03*
D19*
X135912500Y-141175000D03*
D16*
X335318750Y-88025000D03*
D17*
X335738750Y-88025000D03*
D18*
X340818750Y-88025000D03*
D17*
X345898750Y-88025000D03*
D16*
X346318750Y-88025000D03*
X340818750Y-93925000D03*
D19*
X343318750Y-83525000D03*
D20*
X343358750Y-82945000D03*
D16*
X335818750Y-91825000D03*
D20*
X337008750Y-85485000D03*
D19*
X338318750Y-84025000D03*
D16*
X213875000Y-107075000D03*
D17*
X214295000Y-107075000D03*
D18*
X219375000Y-107075000D03*
D17*
X224455000Y-107075000D03*
D16*
X224875000Y-107075000D03*
X219375000Y-112975000D03*
D19*
X221875000Y-102575000D03*
D20*
X221915000Y-101995000D03*
D16*
X214375000Y-110875000D03*
D20*
X215565000Y-104535000D03*
D19*
X216875000Y-103075000D03*
D16*
X194825000Y-107075000D03*
D17*
X195245000Y-107075000D03*
D18*
X200325000Y-107075000D03*
D17*
X205405000Y-107075000D03*
D16*
X205825000Y-107075000D03*
X200325000Y-112975000D03*
D19*
X202825000Y-102575000D03*
D20*
X202865000Y-101995000D03*
D16*
X195325000Y-110875000D03*
D20*
X196515000Y-104535000D03*
D19*
X197825000Y-103075000D03*
D16*
X294837500Y-164225000D03*
D17*
X295257500Y-164225000D03*
D18*
X300337500Y-164225000D03*
D17*
X305417500Y-164225000D03*
D16*
X305837500Y-164225000D03*
X300337500Y-170125000D03*
D19*
X302837500Y-159725000D03*
D20*
X302877500Y-159145000D03*
D16*
X295337500Y-168025000D03*
D20*
X296527500Y-161685000D03*
D19*
X297837500Y-160225000D03*
D16*
X275787500Y-88025000D03*
D17*
X276207500Y-88025000D03*
D18*
X281287500Y-88025000D03*
D17*
X286367500Y-88025000D03*
D16*
X286787500Y-88025000D03*
X281287500Y-93925000D03*
D19*
X283787500Y-83525000D03*
D20*
X283827500Y-82945000D03*
D16*
X276287500Y-91825000D03*
D20*
X277477500Y-85485000D03*
D19*
X278787500Y-84025000D03*
D16*
X185300000Y-126125000D03*
D17*
X185720000Y-126125000D03*
D18*
X190800000Y-126125000D03*
D17*
X195880000Y-126125000D03*
D16*
X196300000Y-126125000D03*
X190800000Y-132025000D03*
D19*
X193300000Y-121625000D03*
D20*
X193340000Y-121045000D03*
D16*
X185800000Y-129925000D03*
D20*
X186990000Y-123585000D03*
D19*
X188300000Y-122125000D03*
D16*
X316268750Y-164225000D03*
D17*
X316688750Y-164225000D03*
D18*
X321768750Y-164225000D03*
D17*
X326848750Y-164225000D03*
D16*
X327268750Y-164225000D03*
X321768750Y-170125000D03*
D19*
X324268750Y-159725000D03*
D20*
X324308750Y-159145000D03*
D16*
X316768750Y-168025000D03*
D20*
X317958750Y-161685000D03*
D19*
X319268750Y-160225000D03*
D16*
X137675000Y-107075000D03*
D17*
X138095000Y-107075000D03*
D18*
X143175000Y-107075000D03*
D17*
X148255000Y-107075000D03*
D16*
X148675000Y-107075000D03*
X143175000Y-112975000D03*
D19*
X145675000Y-102575000D03*
D20*
X145715000Y-101995000D03*
D16*
X138175000Y-110875000D03*
D20*
X139365000Y-104535000D03*
D19*
X140675000Y-103075000D03*
D16*
X118625000Y-107075000D03*
D17*
X119045000Y-107075000D03*
D18*
X124125000Y-107075000D03*
D17*
X129205000Y-107075000D03*
D16*
X129625000Y-107075000D03*
X124125000Y-112975000D03*
D19*
X126625000Y-102575000D03*
D20*
X126665000Y-101995000D03*
D16*
X119125000Y-110875000D03*
D20*
X120315000Y-104535000D03*
D19*
X121625000Y-103075000D03*
D16*
X223400000Y-126125000D03*
D17*
X223820000Y-126125000D03*
D18*
X228900000Y-126125000D03*
D17*
X233980000Y-126125000D03*
D16*
X234400000Y-126125000D03*
X228900000Y-132025000D03*
D19*
X231400000Y-121625000D03*
D20*
X231440000Y-121045000D03*
D16*
X223900000Y-129925000D03*
D20*
X225090000Y-123585000D03*
D19*
X226400000Y-122125000D03*
D16*
X318650000Y-183275000D03*
D17*
X319070000Y-183275000D03*
D18*
X324150000Y-183275000D03*
D17*
X329230000Y-183275000D03*
D16*
X329650000Y-183275000D03*
X324150000Y-189175000D03*
D19*
X326650000Y-178775000D03*
D20*
X326690000Y-178195000D03*
D16*
X319150000Y-187075000D03*
D20*
X320340000Y-180735000D03*
D19*
X321650000Y-179275000D03*
D16*
X180537500Y-164225000D03*
D17*
X180957500Y-164225000D03*
D18*
X186037500Y-164225000D03*
D17*
X191117500Y-164225000D03*
D16*
X191537500Y-164225000D03*
X186037500Y-170125000D03*
D19*
X188537500Y-159725000D03*
D20*
X188577500Y-159145000D03*
D16*
X181037500Y-168025000D03*
D20*
X182227500Y-161685000D03*
D19*
X183537500Y-160225000D03*
D16*
X128150000Y-126125000D03*
D17*
X128570000Y-126125000D03*
D18*
X133650000Y-126125000D03*
D17*
X138730000Y-126125000D03*
D16*
X139150000Y-126125000D03*
X133650000Y-132025000D03*
D19*
X136150000Y-121625000D03*
D20*
X136190000Y-121045000D03*
D16*
X128650000Y-129925000D03*
D20*
X129840000Y-123585000D03*
D19*
X131150000Y-122125000D03*
D16*
X142437500Y-164225000D03*
D17*
X142857500Y-164225000D03*
D18*
X147937500Y-164225000D03*
D17*
X153017500Y-164225000D03*
D16*
X153437500Y-164225000D03*
X147937500Y-170125000D03*
D19*
X150437500Y-159725000D03*
D20*
X150477500Y-159145000D03*
D16*
X142937500Y-168025000D03*
D20*
X144127500Y-161685000D03*
D19*
X145437500Y-160225000D03*
D16*
X204350000Y-126125000D03*
D17*
X204770000Y-126125000D03*
D18*
X209850000Y-126125000D03*
D17*
X214930000Y-126125000D03*
D16*
X215350000Y-126125000D03*
X209850000Y-132025000D03*
D19*
X212350000Y-121625000D03*
D20*
X212390000Y-121045000D03*
D16*
X204850000Y-129925000D03*
D20*
X206040000Y-123585000D03*
D19*
X207350000Y-122125000D03*
D16*
X123387500Y-164225000D03*
D17*
X123807500Y-164225000D03*
D18*
X128887500Y-164225000D03*
D17*
X133967500Y-164225000D03*
D16*
X134387500Y-164225000D03*
X128887500Y-170125000D03*
D19*
X131387500Y-159725000D03*
D20*
X131427500Y-159145000D03*
D16*
X123887500Y-168025000D03*
D20*
X125077500Y-161685000D03*
D19*
X126387500Y-160225000D03*
D16*
X271025000Y-107075000D03*
D17*
X271445000Y-107075000D03*
D18*
X276525000Y-107075000D03*
D17*
X281605000Y-107075000D03*
D16*
X282025000Y-107075000D03*
X276525000Y-112975000D03*
D19*
X279025000Y-102575000D03*
D20*
X279065000Y-101995000D03*
D16*
X271525000Y-110875000D03*
D20*
X272715000Y-104535000D03*
D19*
X274025000Y-103075000D03*
D16*
X266262500Y-145175000D03*
D17*
X266682500Y-145175000D03*
D18*
X271762500Y-145175000D03*
D17*
X276842500Y-145175000D03*
D16*
X277262500Y-145175000D03*
X271762500Y-151075000D03*
D19*
X274262500Y-140675000D03*
D20*
X274302500Y-140095000D03*
D16*
X266762500Y-148975000D03*
D20*
X267952500Y-142635000D03*
D19*
X269262500Y-141175000D03*
D21*
X97500000Y-75500000D03*
X174500000Y-75500000D03*
X255000000Y-75500000D03*
X331500000Y-75500000D03*
X97500000Y-202500000D03*
X174500000Y-202500000D03*
X255000000Y-202500000D03*
X331500000Y-202500000D03*
D22*
X181243250Y-176290000D03*
D18*
X181243250Y-191530000D03*
D22*
X205119250Y-176290000D03*
D18*
X205119250Y-191530000D03*
D22*
X224105750Y-176290000D03*
D18*
X224105750Y-191530000D03*
D22*
X247981750Y-176290000D03*
D18*
X247981750Y-191530000D03*
D23*
X189500000Y-74500000D03*
X190500000Y-76500000D03*
X191500000Y-74500000D03*
X192500000Y-76500000D03*
X193500000Y-74500000D03*
X194500000Y-76500000D03*
X195500000Y-74500000D03*
X196500000Y-76500000D03*
X197500000Y-74500000D03*
X198500000Y-76500000D03*
X199500000Y-74500000D03*
X200500000Y-76500000D03*
X201500000Y-74500000D03*
X202500000Y-76500000D03*
X203500000Y-74500000D03*
X204500000Y-76500000D03*
D24*
X224500000Y-74500000D03*
D23*
X225500000Y-76500000D03*
X226500000Y-74500000D03*
X227500000Y-76500000D03*
X228500000Y-74500000D03*
X229500000Y-76500000D03*
X230500000Y-74500000D03*
X231500000Y-76500000D03*
X232500000Y-74500000D03*
X233500000Y-76500000D03*
%LPD*%
M02*
